<svg width="565" height="565" viewBox="0 0 565 565" fill="none" xmlns="http://www.w3.org/2000/svg">
<path d="M31.314 292.397C20.353 214.406 14.8726 175.41 25.8641 143.489C35.5325 115.41 53.8421 91.1121 78.1685 74.0785C105.824 54.714 144.819 49.2335 222.81 38.2726L272.324 31.3139C350.315 20.353 389.31 14.8726 421.232 25.8641C449.311 35.5325 473.609 53.842 490.642 78.1685C510.007 105.824 515.487 144.819 526.448 222.81L533.407 272.324C544.368 350.315 549.848 389.31 538.856 421.232C529.188 449.311 510.879 473.609 486.552 490.642C458.897 510.007 419.901 515.487 341.91 526.448L292.397 533.407C214.406 544.368 175.41 549.848 143.489 538.856C115.41 529.188 91.1121 510.879 74.0785 486.552C54.714 458.897 49.2335 419.901 38.2726 341.91L31.314 292.397Z" fill="black"/>
<path fill-rule="evenodd" clip-rule="evenodd" d="M306.716 411.587C299.014 412.669 293.648 419.79 294.73 427.493C295.812 435.194 302.934 440.561 310.636 439.479L468.419 417.304C472.118 416.784 475.458 414.816 477.707 411.833C479.954 408.849 480.925 405.096 480.405 401.398L458.23 243.615C457.148 235.912 450.025 230.546 442.324 231.629C434.622 232.711 429.256 239.832 430.338 247.535L447.781 371.648L294.977 256.502C288.765 251.821 279.935 253.062 275.254 259.274C270.573 265.486 271.814 274.316 278.026 278.997L430.829 394.144L306.716 411.587Z" fill="#F2F0EE"/>
</svg>
