<svg width="24" height="24" viewBox="0 0 24 24" fill="none" xmlns="http://www.w3.org/2000/svg">
<path fill-rule="evenodd" clip-rule="evenodd" d="M9.99388 3.11052C10.0549 2.56161 9.65934 2.06719 9.11043 2.0062C8.56152 1.94521 8.0671 2.34075 8.00611 2.88966L7.5494 7.00006L3 7.00006C2.44772 7.00006 2 7.44778 2 8.00006C2 8.55234 2.44772 9.00006 3 9.00006H7.32718L6.66051 15.0001H3C2.44772 15.0001 2 15.4478 2 16.0001C2 16.5523 2.44772 17.0001 3 17.0001H6.43829L6.00611 20.8897C5.94512 21.4386 6.34066 21.933 6.88956 21.994C7.43847 22.055 7.93289 21.6594 7.99388 21.1105L8.4506 17.0001L14.4383 17.0001L14.0061 20.8897C13.9451 21.4386 14.3407 21.933 14.8896 21.994C15.4385 22.055 15.9329 21.6594 15.9939 21.1105L16.4506 17.0001H21C21.5523 17.0001 22 16.5523 22 16.0001C22 15.4478 21.5523 15.0001 21 15.0001H16.6728L17.3395 9.00006H21C21.5523 9.00006 22 8.55235 22 8.00006C22 7.44778 21.5523 7.00006 21 7.00006H17.5617L17.9939 3.11052C18.0549 2.56161 17.6593 2.06719 17.1104 2.0062C16.5615 1.94521 16.0671 2.34075 16.0061 2.88966L15.5494 7.00006L9.56171 7.00006L9.99388 3.11052ZM14.6605 15.0001L15.3272 9.00006L9.33949 9.00006L8.67282 15.0001L14.6605 15.0001Z" fill="black"/>
</svg>
