<svg width="24" height="24" viewBox="0 0 24 24" fill="none" xmlns="http://www.w3.org/2000/svg">
<path fill-rule="evenodd" clip-rule="evenodd" d="M12.5433 0.690301C12.8466 0.564664 13.1717 0.5 13.5 0.5C14.0523 0.5 14.5 0.947715 14.5 1.5C14.5 2.05228 14.0523 2.5 13.5 2.5C13.4343 2.5 13.3693 2.51293 13.3087 2.53806C13.248 2.56319 13.1929 2.60002 13.1464 2.64645C13.1 2.69288 13.0632 2.748 13.0381 2.80866C13.0129 2.86932 13 2.93434 13 3V3.5H15.5C18.8137 3.5 21.5 6.18629 21.5 9.5V10C21.5 10.5523 21.0523 11 20.5 11H19.5H4.5H3.5C2.94772 11 2.5 10.5523 2.5 10V9.5C2.5 6.18629 5.18629 3.5 8.5 3.5H11V3C11 2.6717 11.0647 2.34661 11.1903 2.04329C11.3159 1.73998 11.5001 1.46438 11.7322 1.23223C11.9644 1.00009 12.24 0.815938 12.5433 0.690301ZM4.5 13V15.9098C4.5 18.1825 5.78401 20.26 7.81672 21.2764L10.6584 22.6972C11.5029 23.1195 12.4971 23.1195 13.3416 22.6972L16.1833 21.2764C18.216 20.26 19.5 18.1825 19.5 15.9098V13H4.5Z" fill="black"/>
</svg>
