<svg width="24" height="24" viewBox="0 0 24 24" fill="none" xmlns="http://www.w3.org/2000/svg">
<path fill-rule="evenodd" clip-rule="evenodd" d="M11 18.8C11 20.015 10.015 21 8.8 21H6.2C4.98497 21 4 20.015 4 18.8L4 13H2.5C1.94772 13 1.5 12.5523 1.5 12C1.5 11.4477 1.94772 11 2.5 11H4L4 5.2C4 3.98497 4.98497 3 6.2 3H8.8C10.015 3 11 3.98497 11 5.2V11H13V8.7C13 7.48497 13.985 6.5 15.2 6.5L17.8 6.5C19.015 6.5 20 7.48497 20 8.7V11H21.5C22.0523 11 22.5 11.4477 22.5 12C22.5 12.5523 22.0523 13 21.5 13H20V15.3C20 16.515 19.015 17.5 17.8 17.5H15.2C13.985 17.5 13 16.515 13 15.3V13H11V18.8Z" fill="black"/>
</svg>
