<svg width="24" height="24" viewBox="0 0 24 24" fill="none" xmlns="http://www.w3.org/2000/svg">
<path fill-rule="evenodd" clip-rule="evenodd" d="M5 2.5C5 1.94772 4.55228 1.5 4 1.5C3.44772 1.5 3 1.94772 3 2.5V21.5C3 22.0523 3.44772 22.5 4 22.5C4.55228 22.5 5 22.0523 5 21.5V2.5ZM7 15.2C7 13.985 7.98497 13 9.2 13H18.8C20.015 13 21 13.985 21 15.2V17.8C21 19.015 20.015 20 18.8 20H9.2C7.98497 20 7 19.015 7 17.8V15.2ZM9.2 4C7.98497 4 7 4.98497 7 6.2V8.8C7 10.015 7.98497 11 9.2 11H15.8C17.015 11 18 10.015 18 8.8V6.2C18 4.98497 17.015 4 15.8 4H9.2Z" fill="black"/>
</svg>
