<svg width="24" height="24" viewBox="0 0 24 24" fill="none" xmlns="http://www.w3.org/2000/svg">
<path fill-rule="evenodd" clip-rule="evenodd" d="M3 3.5C2.44772 3.5 2 3.94772 2 4.5C2 5.05228 2.44772 5.5 3 5.5H21C21.5523 5.5 22 5.05228 22 4.5C22 3.94772 21.5523 3.5 21 3.5H3ZM6 8.5C5.44772 8.5 5 8.94772 5 9.5C5 10.0523 5.44772 10.5 6 10.5H18C18.5523 10.5 19 10.0523 19 9.5C19 8.94772 18.5523 8.5 18 8.5H6ZM3 13.5C2.44772 13.5 2 13.9477 2 14.5C2 15.0523 2.44772 15.5 3 15.5H21C21.5523 15.5 22 15.0523 22 14.5C22 13.9477 21.5523 13.5 21 13.5H3ZM5 19.5C5 18.9477 5.44772 18.5 6 18.5H18C18.5523 18.5 19 18.9477 19 19.5C19 20.0523 18.5523 20.5 18 20.5H6C5.44772 20.5 5 20.0523 5 19.5Z" fill="black"/>
</svg>
