<svg width="24" height="24" viewBox="0 0 24 24" fill="none" xmlns="http://www.w3.org/2000/svg">
<path fill-rule="evenodd" clip-rule="evenodd" d="M8 2.5C8 1.94772 8.44772 1.5 9 1.5C11.2091 1.5 13 3.29086 13 5.5V6.337C13.0509 6.30784 13.1001 6.27645 13.1472 6.24282C14.408 5.34323 15.9152 4.89788 17.445 5.22305C19.2293 5.6023 20.5509 6.9203 21.3115 8.58555C21.4513 8.8916 21.4278 9.24743 21.249 9.53244C21.0702 9.81746 20.76 9.99345 20.4236 10.0008C18.5269 10.042 17.0017 11.593 17.0017 13.4999C17.0017 15.1849 18.1933 16.5938 19.7805 16.9257C20.1013 16.9928 20.3689 17.2129 20.4967 17.5147C20.6245 17.8164 20.5963 18.1617 20.4212 18.4388C18.933 20.7938 16.4876 22.3993 13.9105 21.8516C13.6773 21.802 13.4504 21.7358 13.2304 21.654C12.4513 21.3644 11.4285 21.3779 10.6312 21.6811C10.4107 21.7649 10.1828 21.8323 9.94825 21.8821C8.13754 22.267 6.37768 21.528 5.01832 20.2424C3.65527 18.9533 2.60993 17.0502 2.14255 14.8514C1.67517 12.6526 1.85609 10.4889 2.57698 8.7568C3.29591 7.02943 4.60304 5.63852 6.41375 5.25364C7.88637 4.94063 9.33524 5.37377 10.551 6.23949C10.6864 6.3359 10.8381 6.41408 11 6.47404V5.5C11 4.39543 10.1046 3.5 9 3.5C8.44772 3.5 8 3.05228 8 2.5Z" fill="black"/>
</svg>
