<svg width="24" height="24" viewBox="0 0 24 24" fill="none" xmlns="http://www.w3.org/2000/svg">
<path fill-rule="evenodd" clip-rule="evenodd" d="M13.2149 4.59905C12.6699 4.50959 12.3006 3.99526 12.3901 3.45027C12.4795 2.90528 12.9939 2.53601 13.5389 2.62547C15.5387 2.95375 17.3812 3.91296 18.797 5.36295C20.2129 6.81293 21.1279 8.6777 21.4085 10.6848C21.6891 12.6919 21.3204 14.7361 20.3565 16.5188C19.7267 17.6834 18.8644 18.6966 17.8309 19.5H20.5C21.0523 19.5 21.5 19.9477 21.5 20.5C21.5 21.0523 21.0523 21.5 20.5 21.5H14.8333C14.281 21.5 13.8333 21.0523 13.8333 20.5V14.8333C13.8333 14.281 14.281 13.8333 14.8333 13.8333C15.3856 13.8333 15.8333 14.281 15.8333 14.8333V18.4464C16.9939 17.7563 17.9507 16.763 18.5972 15.5674C19.3582 14.1601 19.6493 12.5462 19.4278 10.9617C19.2063 9.37713 18.4838 7.90495 17.3661 6.76022C16.2483 5.61549 14.7937 4.85822 13.2149 4.59905ZM10.7851 19.4009C11.3301 19.4904 11.6994 20.0047 11.6099 20.5497C11.5204 21.0947 11.0061 21.464 10.4611 21.3745C8.46128 21.0463 6.61883 20.087 5.20297 18.6371C3.78711 17.1871 2.87204 15.3223 2.59147 13.3152C2.3109 11.3081 2.67953 9.26391 3.6435 7.48125C4.27329 6.31659 5.13562 5.30345 6.16903 4.5H3.49999C2.9477 4.5 2.49999 4.05228 2.49999 3.5C2.49999 2.94772 2.9477 2.5 3.49999 2.5H9.16665C9.71894 2.5 10.1667 2.94772 10.1667 3.5L10.1667 9.16667C10.1667 9.71895 9.71894 10.1667 9.16665 10.1667C8.61437 10.1667 8.16665 9.71895 8.16665 9.16667V5.55363C7.0061 6.24374 6.04924 7.23704 5.40276 8.43256C4.64173 9.83993 4.35071 11.4538 4.57221 13.0383C4.79371 14.6229 5.51613 16.0951 6.63392 17.2398C7.7517 18.3845 9.20627 19.1418 10.7851 19.4009Z" fill="black"/>
</svg>
