<svg width="24" height="24" viewBox="0 0 24 24" fill="none" xmlns="http://www.w3.org/2000/svg">
<path fill-rule="evenodd" clip-rule="evenodd" d="M10.7071 2.79289C10.3166 2.40237 9.68342 2.40237 9.29289 2.79289L3.29289 8.79289C2.90237 9.18342 2.90237 9.81658 3.29289 10.2071L9.29289 16.2071C9.68342 16.5976 10.3166 16.5976 10.7071 16.2071C11.0976 15.8166 11.0976 15.1834 10.7071 14.7929L6.41421 10.5H16C16.5523 10.5 17 10.9477 17 11.5V20.5C17 21.0523 17.4477 21.5 18 21.5C18.5523 21.5 19 21.0523 19 20.5V11.5C19 9.84315 17.6569 8.5 16 8.5H6.41421L10.7071 4.20711C11.0976 3.81658 11.0976 3.18342 10.7071 2.79289Z" fill="black"/>
</svg>
