<svg width="24" height="24" viewBox="0 0 24 24" fill="none" xmlns="http://www.w3.org/2000/svg">
<path fill-rule="evenodd" clip-rule="evenodd" d="M4.92893 4.92893C8.83417 1.02369 15.1658 1.02369 19.0711 4.92893C22.9763 8.83417 22.9763 15.1658 19.0711 19.0711C15.1658 22.9763 8.83417 22.9763 4.92893 19.0711C1.02369 15.1658 1.02369 8.83417 4.92893 4.92893ZM15.8287 9.17157C15.8287 9.72386 15.381 10.1716 14.8287 10.1716H11.5862L15.536 14.1213C15.9265 14.5118 15.9265 15.145 15.536 15.5355C15.1455 15.9261 14.5123 15.9261 14.1218 15.5355L10.1719 11.5856V14.8284C10.1719 15.3807 9.72416 15.8284 9.17187 15.8284C8.61959 15.8284 8.17188 15.3807 8.17188 14.8284V9.17157C8.17188 8.82654 8.34662 8.52232 8.61243 8.34258C8.63781 8.32541 8.6638 8.30953 8.69031 8.29495C8.83316 8.21631 8.99729 8.17157 9.17188 8.17157H14.8287C15.381 8.17157 15.8287 8.61929 15.8287 9.17157Z" fill="black"/>
</svg>
