<svg width="24" height="24" viewBox="0 0 24 24" fill="none" xmlns="http://www.w3.org/2000/svg">
<path fill-rule="evenodd" clip-rule="evenodd" d="M2.5 6.5C2.5 4.29086 4.29086 2.5 6.5 2.5H17.5C19.7091 2.5 21.5 4.29086 21.5 6.5V17.5C21.5 19.7091 19.7091 21.5 17.5 21.5H6.5C4.29086 21.5 2.5 19.7091 2.5 17.5V6.5ZM14.8287 15.8284C14.2764 15.8284 13.8287 15.3807 13.8287 14.8284L13.8287 11.5865L9.87974 15.5355C9.48921 15.9261 8.85605 15.9261 8.46552 15.5355C8.075 15.145 8.075 14.5118 8.46552 14.1213L12.4153 10.1716L9.17188 10.1716C8.61959 10.1716 8.17188 9.72386 8.17188 9.17158C8.17188 8.61929 8.61959 8.17158 9.17188 8.17158H14.8287C15.381 8.17158 15.8287 8.61929 15.8287 9.17158L15.8287 14.8284C15.8287 15.3807 15.381 15.8284 14.8287 15.8284Z" fill="black"/>
</svg>
