<svg width="24" height="24" viewBox="0 0 24 24" fill="none" xmlns="http://www.w3.org/2000/svg">
<path fill-rule="evenodd" clip-rule="evenodd" d="M12.2929 20.7071C12.6834 21.0976 13.3166 21.0976 13.7071 20.7071C14.0976 20.3166 14.0976 19.6834 13.7071 19.2929L6.41421 12L13.7071 4.70711C14.0976 4.31658 14.0976 3.68342 13.7071 3.29289C13.3166 2.90237 12.6834 2.90237 12.2929 3.29289L4.29289 11.2929C3.90237 11.6834 3.90237 12.3166 4.29289 12.7071L12.2929 20.7071ZM18.2929 20.7071C18.6834 21.0976 19.3166 21.0976 19.7071 20.7071C20.0976 20.3166 20.0976 19.6834 19.7071 19.2929L12.4142 12L19.7071 4.70711C20.0976 4.31658 20.0976 3.68342 19.7071 3.29289C19.3166 2.90237 18.6834 2.90237 18.2929 3.29289L10.2929 11.2929C9.90237 11.6834 9.90237 12.3166 10.2929 12.7071L18.2929 20.7071Z" fill="black"/>
</svg>
