<svg width="24" height="24" viewBox="0 0 24 24" fill="none" xmlns="http://www.w3.org/2000/svg">
<path fill-rule="evenodd" clip-rule="evenodd" d="M2.5 6.5C2.5 4.29086 4.29086 2.5 6.5 2.5H17.5C19.7091 2.5 21.5 4.29086 21.5 6.5V17.5C21.5 19.7091 19.7091 21.5 17.5 21.5H6.5C4.29086 21.5 2.5 19.7091 2.5 17.5V6.5ZM8.46477 8.46446C8.85529 8.07394 9.48846 8.07394 9.87898 8.46446L13.8289 12.4144L13.8289 9.17158C13.8289 8.61929 14.2766 8.17158 14.8289 8.17158C15.3812 8.17158 15.8289 8.61929 15.8289 9.17158L15.8289 14.8284C15.8289 15.3807 15.3812 15.8284 14.8289 15.8284L9.17203 15.8284C8.61974 15.8284 8.17203 15.3807 8.17203 14.8284C8.17203 14.2761 8.61974 13.8284 9.17203 13.8284H12.4145L8.46477 9.87868C8.07424 9.48815 8.07424 8.85499 8.46477 8.46446Z" fill="black"/>
</svg>
