<svg width="24" height="24" viewBox="0 0 24 24" fill="none" xmlns="http://www.w3.org/2000/svg">
<path fill-rule="evenodd" clip-rule="evenodd" d="M4.99978 3C4.99978 2.44772 4.55206 2 3.99978 2C3.44749 2 2.99978 2.44772 2.99978 3V9C2.99978 9.55228 3.44749 10 3.99978 10H9.99978C10.5521 10 10.9998 9.55228 10.9998 9C10.9998 8.44772 10.5521 8 9.99978 8H5.75476C6.65572 6.87471 7.8503 6.00628 9.21884 5.49891C11.0463 4.82139 13.0583 4.83432 14.8769 5.53528C16.6956 6.23625 18.1957 7.57702 19.0958 9.30581C19.9958 11.0346 20.2337 13.0325 19.7649 14.9243C19.2961 16.8161 18.1527 18.4717 16.5496 19.5802C14.9465 20.6887 12.9938 21.1738 11.0583 20.9444C9.1228 20.715 7.33761 19.787 6.03797 18.3345C4.73832 16.882 4.01363 15.005 3.99998 13.056C3.99611 12.5038 3.54527 12.0592 2.99299 12.0631C2.44072 12.0669 1.99616 12.5178 2.00003 13.0701C2.01709 15.5063 2.92296 17.8525 4.54751 19.6681C6.17207 21.4837 8.40355 22.6438 10.8229 22.9305C13.2423 23.2172 15.6831 22.6109 17.6871 21.2253C19.691 19.8397 21.1201 17.7702 21.7062 15.4054C22.2922 13.0406 21.9948 10.5433 20.8698 8.38227C19.7447 6.22127 17.8695 4.54531 15.5962 3.66911C13.3229 2.7929 10.808 2.77673 8.5236 3.62364C7.1943 4.11646 5.9963 4.88181 4.99978 5.85857V3Z" fill="black"/>
</svg>
