<svg width="24" height="24" viewBox="0 0 24 24" fill="none" xmlns="http://www.w3.org/2000/svg">
<path fill-rule="evenodd" clip-rule="evenodd" d="M20.7071 9.70711C20.3166 10.0976 19.6834 10.0976 19.2929 9.70711L16 6.41421L16 14.5C16 18.0899 13.0899 21 9.5 21C5.91015 21 3 18.0898 3 14.5L3 11C3 10.4477 3.44772 10 4 10C4.55228 10 5 10.4477 5 11L5 14.5C5 16.9853 7.01472 19 9.5 19C11.9853 19 14 16.9853 14 14.5L14 6.41421L10.7071 9.70711C10.3166 10.0976 9.68342 10.0976 9.29289 9.70711C8.90237 9.31658 8.90237 8.68342 9.29289 8.29289L14.2929 3.29289C14.6834 2.90237 15.3166 2.90237 15.7071 3.29289L20.7071 8.29289C21.0976 8.68342 21.0976 9.31658 20.7071 9.70711Z" fill="black"/>
</svg>
