<svg width="24" height="24" viewBox="0 0 24 24" fill="none" xmlns="http://www.w3.org/2000/svg">
<path fill-rule="evenodd" clip-rule="evenodd" d="M21.2071 13.2929C21.5976 13.6834 21.5976 14.3166 21.2071 14.7071L15.2071 20.7071C14.8166 21.0976 14.1834 21.0976 13.7929 20.7071L7.79289 14.7071C7.40237 14.3166 7.40237 13.6834 7.79289 13.2929C8.18342 12.9024 8.81658 12.9024 9.20711 13.2929L13.5 17.5858L13.5 8C13.5 7.44772 13.0523 7 12.5 7L3.5 7C2.94772 7 2.5 6.55229 2.5 6C2.5 5.44772 2.94772 5 3.5 5L12.5 5C14.1569 5 15.5 6.34315 15.5 8L15.5 17.5858L19.7929 13.2929C20.1834 12.9024 20.8166 12.9024 21.2071 13.2929Z" fill="black"/>
</svg>
