<svg width="24" height="24" viewBox="0 0 24 24" fill="none" xmlns="http://www.w3.org/2000/svg">
<path fill-rule="evenodd" clip-rule="evenodd" d="M19.4009 10.7851C19.4904 11.3301 20.0047 11.6994 20.5497 11.6099C21.0947 11.5205 21.464 11.0061 21.3745 10.4611C21.0462 8.4613 20.087 6.61885 18.6371 5.20299C17.1871 3.78713 15.3223 2.87206 13.3152 2.59149C11.3081 2.31092 9.26391 2.67955 7.48125 3.64352C6.31659 4.27331 5.30345 5.13565 4.5 6.16905V3.50001C4.5 2.94773 4.05228 2.50001 3.5 2.50001C2.94772 2.50001 2.5 2.94773 2.5 3.50001V9.16668C2.5 9.71896 2.94772 10.1667 3.5 10.1667H9.16667C9.71895 10.1667 10.1667 9.71896 10.1667 9.16668C10.1667 8.61439 9.71895 8.16668 9.16667 8.16668H5.55363C6.24374 7.00612 7.23704 6.04926 8.43256 5.40278C9.83993 4.64176 11.4538 4.35073 13.0383 4.57223C14.6229 4.79374 16.0951 5.51616 17.2398 6.63394C18.3845 7.75173 19.1418 9.20629 19.4009 10.7851ZM4.59905 13.2149C4.50959 12.6699 3.99526 12.3006 3.45027 12.3901C2.90528 12.4796 2.536 12.9939 2.62547 13.5389C2.95375 15.5387 3.91296 17.3812 5.36295 18.797C6.81293 20.2129 8.6777 21.128 10.6848 21.4085C12.6919 21.6891 14.7361 21.3205 16.5188 20.3565C17.6834 19.7267 18.6966 18.8644 19.5 17.831V20.5C19.5 21.0523 19.9477 21.5 20.5 21.5C21.0523 21.5 21.5 21.0523 21.5 20.5V14.8333C21.5 14.2811 21.0523 13.8333 20.5 13.8333H14.8333C14.281 13.8333 13.8333 14.2811 13.8333 14.8333C13.8333 15.3856 14.281 15.8333 14.8333 15.8333H18.4464C17.7563 16.9939 16.763 17.9508 15.5674 18.5972C14.1601 19.3583 12.5462 19.6493 10.9617 19.4278C9.37713 19.2063 7.90495 18.4839 6.76022 17.3661C5.61549 16.2483 4.85822 14.7937 4.59905 13.2149Z" fill="black"/>
</svg>
