<svg width="24" height="24" viewBox="0 0 24 24" fill="none" xmlns="http://www.w3.org/2000/svg">
<path fill-rule="evenodd" clip-rule="evenodd" d="M2.5 6.5C2.5 4.29086 4.29086 2.5 6.5 2.5H17.5C19.7091 2.5 21.5 4.29086 21.5 6.5V17.5C21.5 19.7091 19.7091 21.5 17.5 21.5H6.5C4.29086 21.5 2.5 19.7091 2.5 17.5V6.5ZM15.8287 9.17157C15.8287 9.72386 15.381 10.1716 14.8287 10.1716H11.5862L15.536 14.1213C15.9265 14.5118 15.9265 15.145 15.536 15.5355C15.1455 15.9261 14.5123 15.9261 14.1218 15.5355L10.1719 11.5856L10.1719 14.8284C10.1719 15.3807 9.72416 15.8284 9.17187 15.8284C8.61959 15.8284 8.17188 15.3807 8.17188 14.8284V9.17157C8.17188 8.61929 8.61959 8.17157 9.17188 8.17157H14.8287C15.381 8.17157 15.8287 8.61929 15.8287 9.17157Z" fill="black"/>
</svg>
