<svg width="24" height="24" viewBox="0 0 24 24" fill="none" xmlns="http://www.w3.org/2000/svg">
<path fill-rule="evenodd" clip-rule="evenodd" d="M3.29289 11.7071C2.90237 11.3166 2.90237 10.6834 3.29289 10.2929L11.2929 2.29289C11.6834 1.90237 12.3166 1.90237 12.7071 2.29289L20.7071 10.2929C21.0976 10.6834 21.0976 11.3166 20.7071 11.7071C20.3166 12.0976 19.6834 12.0976 19.2929 11.7071L12 4.41421L4.70711 11.7071C4.31658 12.0976 3.68342 12.0976 3.29289 11.7071ZM3.29289 17.7071C2.90237 17.3166 2.90237 16.6834 3.29289 16.2929L11.2929 8.29289C11.6834 7.90237 12.3166 7.90237 12.7071 8.29289L20.7071 16.2929C21.0976 16.6834 21.0976 17.3166 20.7071 17.7071C20.3166 18.0976 19.6834 18.0976 19.2929 17.7071L13 11.4142L13 21C13 21.5523 12.5523 22 12 22C11.4477 22 11 21.5523 11 21L11 11.4142L4.70711 17.7071C4.31658 18.0976 3.68342 18.0976 3.29289 17.7071Z" fill="black"/>
</svg>
