<svg width="24" height="24" viewBox="0 0 24 24" fill="none" xmlns="http://www.w3.org/2000/svg">
<path fill-rule="evenodd" clip-rule="evenodd" d="M3.29289 9.70711C3.68342 10.0976 4.31658 10.0976 4.70711 9.70711L8 6.41421L8 14.5C8 18.0899 10.9101 21 14.5 21C18.0898 21 21 18.0899 21 14.5L21 11C21 10.4477 20.5523 10 20 10C19.4477 10 19 10.4477 19 11L19 14.5C19 16.9853 16.9853 19 14.5 19C12.0147 19 10 16.9853 10 14.5L10 6.41421L13.2929 9.70711C13.6834 10.0976 14.3166 10.0976 14.7071 9.70711C15.0976 9.31658 15.0976 8.68342 14.7071 8.29289L9.70711 3.29289C9.31658 2.90237 8.68342 2.90237 8.29289 3.29289L3.29289 8.29289C2.90237 8.68342 2.90237 9.31658 3.29289 9.70711Z" fill="black"/>
</svg>
