<svg width="24" height="24" viewBox="0 0 24 24" fill="none" xmlns="http://www.w3.org/2000/svg">
<g clip-path="url(#clip0_1215_6369)">
<path fill-rule="evenodd" clip-rule="evenodd" d="M11.293 23.0211C11.6835 23.4116 12.3167 23.4116 12.7072 23.0211L16.2428 19.4855C16.6333 19.095 16.6333 18.4618 16.2428 18.0713C15.8522 17.6808 15.2191 17.6808 14.8285 18.0713L13.0001 19.8997V13.0002L19.8995 13.0002L18.0711 14.8286C17.6805 15.2192 17.6805 15.8523 18.0711 16.2429C18.4616 16.6334 19.0947 16.6334 19.4853 16.2429L23.0208 12.7073C23.2083 12.5198 23.3137 12.2654 23.3137 12.0002C23.3137 11.735 23.2083 11.4806 23.0208 11.2931L19.4853 7.75757C19.0947 7.36705 18.4616 7.36705 18.0711 7.75757C17.6805 8.1481 17.6805 8.78126 18.0711 9.17178L19.8995 11.0002L13.0001 11.0002V4.10074L14.8285 5.92917C15.2191 6.31969 15.8522 6.31969 16.2428 5.92917C16.6333 5.53864 16.6333 4.90548 16.2428 4.51496L12.7072 0.979417C12.5197 0.791879 12.2653 0.686523 12.0001 0.686523C11.7349 0.686523 11.4805 0.791879 11.293 0.979417L7.75747 4.51495C7.36695 4.90548 7.36695 5.53864 7.75747 5.92917C8.14799 6.31969 8.78116 6.31969 9.17168 5.92917L11.0001 4.10074V11.0002L4.10049 11.0002L5.92892 9.17179C6.31944 8.78126 6.31944 8.1481 5.92892 7.75757C5.53839 7.36705 4.90523 7.36705 4.51471 7.75757L0.979172 11.2931C0.588648 11.6836 0.588648 12.3168 0.979172 12.7073L4.51471 16.2429C4.90523 16.6334 5.5384 16.6334 5.92892 16.2429C6.31944 15.8523 6.31944 15.2192 5.92892 14.8286L4.10049 13.0002L11.0001 13.0002V19.8997L9.17168 18.0713C8.78116 17.6808 8.14799 17.6808 7.75747 18.0713C7.36695 18.4618 7.36695 19.095 7.75747 19.4855L11.293 23.0211Z" fill="black"/>
</g>
<defs>
<clipPath id="clip0_1215_6369">
<rect width="24" height="24" fill="white"/>
</clipPath>
</defs>
</svg>
