<svg width="24" height="24" viewBox="0 0 24 24" fill="none" xmlns="http://www.w3.org/2000/svg">
<path fill-rule="evenodd" clip-rule="evenodd" d="M17.7071 7.70711C17.3166 8.09763 16.6834 8.09763 16.2929 7.70711L13 4.41421L13 19.5858L16.2929 16.2929C16.6834 15.9024 17.3166 15.9024 17.7071 16.2929C18.0976 16.6834 18.0976 17.3166 17.7071 17.7071L12.7071 22.7071C12.3166 23.0976 11.6834 23.0976 11.2929 22.7071L6.29289 17.7071C5.90237 17.3166 5.90237 16.6834 6.29289 16.2929C6.68342 15.9024 7.31658 15.9024 7.70711 16.2929L11 19.5858L11 4.41421L7.70711 7.70711C7.31658 8.09763 6.68342 8.09763 6.29289 7.70711C5.90237 7.31658 5.90237 6.68342 6.29289 6.29289L11.2929 1.29289C11.6834 0.902369 12.3166 0.902369 12.7071 1.29289L17.7071 6.29289C18.0976 6.68342 18.0976 7.31658 17.7071 7.70711Z" fill="black"/>
</svg>
