<svg width="24" height="24" viewBox="0 0 24 24" fill="none" xmlns="http://www.w3.org/2000/svg">
<path fill-rule="evenodd" clip-rule="evenodd" d="M12 3.00009C11.4477 3.0001 11 3.44782 11 4.0001C11 4.55239 11.4477 5.0001 12 5.00009L17.5858 5.00003L10.2929 12.293C9.90237 12.6835 9.90237 13.3167 10.2929 13.7072C10.6834 14.0977 11.3166 14.0977 11.7071 13.7072L19 6.41423L19 12C19 12.5523 19.4477 13 20 13C20.5523 13 21 12.5523 21 12V4C21 3.73478 20.8946 3.48043 20.7071 3.29289C20.5196 3.10535 20.2652 3 20 3L12 3.00009ZM5 7.00009C5 5.89552 5.89543 5.00009 7 5.00009H8C8.55228 5.00009 9 4.55237 9 4.00009C9 3.44781 8.55228 3.00009 8 3.00009H7C4.79086 3.00009 3 4.79095 3 7.00009V17.0001C3 19.2092 4.79086 21.0001 7 21.0001H17C19.2091 21.0001 21 19.2092 21 17.0001V16.0001C21 15.4478 20.5523 15.0001 20 15.0001C19.4477 15.0001 19 15.4478 19 16.0001V17.0001C19 18.1047 18.1046 19.0001 17 19.0001H7C5.89543 19.0001 5 18.1047 5 17.0001V7.00009Z" fill="black"/>
</svg>
