<svg width="24" height="24" viewBox="0 0 24 24" fill="none" xmlns="http://www.w3.org/2000/svg">
<path fill-rule="evenodd" clip-rule="evenodd" d="M11 3C11 2.44772 10.5523 2 10 2H5C3.34315 2 2 3.34315 2 5V19C2 20.6569 3.34315 22 5 22H10C10.5523 22 11 21.5523 11 21C11 20.4477 10.5523 20 10 20H5C4.44772 20 4 19.5523 4 19V5C4 4.44772 4.44772 4 5 4H10C10.5523 4 11 3.55228 11 3ZM15.2929 18.7071C14.9024 18.3166 14.9024 17.6834 15.2929 17.2929L19.5858 13H9C8.44772 13 8 12.5523 8 12C8 11.4477 8.44772 11 9 11H19.5858L15.2929 6.70711C14.9024 6.31658 14.9024 5.68342 15.2929 5.29289C15.6834 4.90237 16.3166 4.90237 16.7071 5.29289L22.7071 11.2929C22.8946 11.4804 23 11.7348 23 12C23 12.2652 22.8946 12.5196 22.7071 12.7071L16.7071 18.7071C16.3166 19.0976 15.6834 19.0976 15.2929 18.7071Z" fill="black"/>
</svg>
