<svg width="24" height="24" viewBox="0 0 24 24" fill="none" xmlns="http://www.w3.org/2000/svg">
<path fill-rule="evenodd" clip-rule="evenodd" d="M3 7C3 5.34315 4.34315 4 6 4H18C19.6569 4 21 5.34315 21 7V11.1C20.6769 11.0344 20.3425 11 20 11H19V9C19 7.89543 18.1046 7 17 7H13C12.6357 7 12.2942 7.09739 12 7.26757C11.7058 7.09739 11.3643 7 11 7H7C5.89543 7 5 7.89543 5 9V11H4C3.65753 11 3.32311 11.0344 3 11.1V7ZM17 9V11H13V9H17ZM11 9V11H7V9H11ZM1 16C1 14.3431 2.34315 13 4 13H20C21.6569 13 23 14.3431 23 16V20C23 20.5523 22.5523 21 22 21C21.4477 21 21 20.5523 21 20V19H3V20C3 20.5523 2.55228 21 2 21C1.44772 21 1 20.5523 1 20V16Z" fill="black"/>
</svg>
