<svg width="24" height="24" viewBox="0 0 24 24" fill="none" xmlns="http://www.w3.org/2000/svg">
<path fill-rule="evenodd" clip-rule="evenodd" d="M10.0443 6.57848C10.2374 5.67612 11.0409 5 12 5C12.9591 5 13.7626 5.67612 13.9557 6.57848C14.0205 6.88113 14.2217 7.13674 14.5007 7.27071C14.7797 7.40467 15.105 7.4019 15.3817 7.2632C15.7171 7.09509 16.096 7 16.5 7C17.8807 7 19 8.11929 19 9.5C19 9.6717 18.9828 9.83884 18.9502 10H5.04981C5.01717 9.83884 5 9.6717 5 9.5C5 8.11929 6.11929 7 7.5 7C7.90401 7 8.28293 7.09509 8.61827 7.2632C8.89495 7.4019 9.22027 7.40467 9.49927 7.27071C9.77828 7.13674 9.97953 6.88113 10.0443 6.57848ZM3.03261 10.0437C3.01107 9.86531 3 9.68385 3 9.5C3 7.01472 5.01472 5 7.5 5C7.83466 5 8.16137 5.03669 8.47606 5.10637C9.15115 3.85244 10.4753 3 12 3C13.5247 3 14.8488 3.85244 15.5239 5.10637C15.8386 5.03669 16.1653 5 16.5 5C18.9853 5 21 7.01472 21 9.5C21 9.68385 20.9889 9.86531 20.9674 10.0437C21.8435 10.2326 22.5 11.0119 22.5 11.9444C22.5 15.5941 20.2155 18.708 17 19.9379V20C17 21.1046 16.1046 22 15 22H9C7.89543 22 7 21.1046 7 20V19.9379C3.78452 18.708 1.5 15.5941 1.5 11.9444C1.5 11.0119 2.15653 10.2326 3.03261 10.0437Z" fill="black"/>
</svg>
