<svg width="24" height="24" viewBox="0 0 24 24" fill="none" xmlns="http://www.w3.org/2000/svg">
<path fill-rule="evenodd" clip-rule="evenodd" d="M13.5 2C15.1569 2 16.5 3.34315 16.5 5V6H19.5C21.1569 6 22.5 7.34315 22.5 9V18.5C22.5 20.1569 21.1569 21.5 19.5 21.5H4.5C2.84315 21.5 1.5 20.1569 1.5 18.5V9C1.5 7.34314 2.84315 6 4.5 6H7.5V5C7.5 3.34315 8.84315 2 10.5 2H13.5ZM14.5 5V6H9.5V5C9.5 4.44772 9.94771 4 10.5 4H13.5C14.0523 4 14.5 4.44772 14.5 5ZM4.25 12C3.69772 12 3.25 12.4477 3.25 13C3.25 13.5523 3.69772 14 4.25 14H11V15.5C11 16.0523 11.4477 16.5 12 16.5C12.5523 16.5 13 16.0523 13 15.5V14H19.75C20.3023 14 20.75 13.5523 20.75 13C20.75 12.4477 20.3023 12 19.75 12H4.25Z" fill="black"/>
</svg>
