<svg width="24" height="24" viewBox="0 0 24 24" fill="none" xmlns="http://www.w3.org/2000/svg">
<path fill-rule="evenodd" clip-rule="evenodd" d="M18.5 3C18.5 2.44772 18.0523 2 17.5 2C16.9477 2 16.5 2.44772 16.5 3V5.5H14C13.4477 5.5 13 5.94772 13 6.5C13 7.05228 13.4477 7.5 14 7.5H16.5V10C16.5 10.5523 16.9477 11 17.5 11C18.0523 11 18.5 10.5523 18.5 10V7.5H21C21.5523 7.5 22 7.05228 22 6.5C22 5.94772 21.5523 5.5 21 5.5H18.5V3ZM4.20711 13.7929C3.81658 13.4024 3.18342 13.4024 2.79289 13.7929C2.40237 14.1834 2.40237 14.8166 2.79289 15.2071L5.08579 17.5L2.79289 19.7929C2.40237 20.1834 2.40237 20.8166 2.79289 21.2071C3.18342 21.5976 3.81658 21.5976 4.20711 21.2071L6.5 18.9142L8.79289 21.2071C9.18342 21.5976 9.81658 21.5976 10.2071 21.2071C10.5976 20.8166 10.5976 20.1834 10.2071 19.7929L7.91421 17.5L10.2071 15.2071C10.5976 14.8166 10.5976 14.1834 10.2071 13.7929C9.81658 13.4024 9.18342 13.4024 8.79289 13.7929L6.5 16.0858L4.20711 13.7929ZM2 6.5C2 5.94772 2.44772 5.5 3 5.5H10C10.5523 5.5 11 5.94772 11 6.5C11 7.05228 10.5523 7.5 10 7.5H3C2.44772 7.5 2 7.05228 2 6.5ZM14 14.5C13.4477 14.5 13 14.9477 13 15.5C13 16.0523 13.4477 16.5 14 16.5H21C21.5523 16.5 22 16.0523 22 15.5C22 14.9477 21.5523 14.5 21 14.5H14ZM14 18.5C13.4477 18.5 13 18.9477 13 19.5C13 20.0523 13.4477 20.5 14 20.5H21C21.5523 20.5 22 20.0523 22 19.5C22 18.9477 21.5523 18.5 21 18.5H14Z" fill="black"/>
</svg>
