<svg width="24" height="24" viewBox="0 0 24 24" fill="none" xmlns="http://www.w3.org/2000/svg">
<path fill-rule="evenodd" clip-rule="evenodd" d="M12.6072 1.50572C12.9263 1.53997 13.2095 1.72525 13.3687 2.00387C14.0373 3.17379 14.672 4.00527 15.272 4.79121L15.272 4.79123C15.5443 5.14801 15.8095 5.49541 16.0675 5.86083C16.8846 7.01849 17.5005 8.21876 17.5005 10C17.5005 10.5588 17.4279 12.0041 16.7162 13.3441C16.3526 14.0287 15.8122 14.7042 15.0171 15.2054C14.2183 15.7088 13.2197 16 12.0002 16C8.88001 16 6.49916 13.4815 6.50049 9.99963C6.5009 8.93236 6.80339 8.03513 7.09621 7.41398C7.2436 7.10135 7.39194 6.85133 7.50644 6.67557C7.56385 6.58745 7.61321 6.51728 7.65034 6.4665C7.66892 6.44109 7.68449 6.42047 7.69653 6.40482L7.71189 6.38506L7.71748 6.37799L7.71973 6.37517L7.72072 6.37394C7.72094 6.37367 7.72161 6.37283 8.50049 7C9.2076 6.2929 9.2082 6.29351 9.20882 6.29412L9.21006 6.29537L9.21261 6.29795L9.21798 6.30343L9.22974 6.31569C9.23802 6.32445 9.24718 6.33437 9.25713 6.34551C9.27704 6.36777 9.30009 6.39484 9.32559 6.42695C9.37665 6.49124 9.43732 6.5755 9.50221 6.68168C9.63243 6.89477 9.77715 7.19212 9.89582 7.58766C10.0308 8.03749 10.129 8.60398 10.1395 9.30635C10.7986 8.8288 11.2505 8.23475 11.2505 7.50001C11.2505 7.03484 11.1568 6.64335 11.0336 6.17632L11.0099 6.08696C10.8954 5.65636 10.7505 5.1111 10.7505 4.50001C10.7505 3.70395 11.005 3.0416 11.2417 2.59446C11.3616 2.36801 11.4822 2.18678 11.5756 2.05883C11.6225 1.99455 11.6632 1.94285 11.6944 1.90472C11.71 1.88562 11.7233 1.86985 11.7339 1.85753L11.7478 1.84161L11.7531 1.8356L11.7554 1.83309L11.7564 1.83195C11.7566 1.83169 11.7573 1.83091 12.5004 2.49997L11.7573 1.8309C11.972 1.59242 12.2882 1.47147 12.6072 1.50572ZM8.50049 7L7.72161 6.37283C7.89966 6.15172 8.1633 6.0167 8.44678 6.00145C8.73026 5.9862 9.00686 6.09216 9.2076 6.2929L8.50049 7ZM9.28335 7.62219L9.28205 7.62384C9.28335 7.62215 9.28377 7.62166 9.28335 7.62219ZM4.2981 15.5455L7.64084 16.5901C8.84385 17.4804 10.3326 18 11.9997 18C13.548 18 14.9262 17.6265 16.0831 16.8973C16.2822 16.7718 16.4697 16.639 16.6462 16.5003L19.7015 15.5455C20.2286 15.3808 20.7895 15.6746 20.9543 16.2017C21.119 16.7289 20.8252 17.2898 20.2981 17.4545L15.3524 19L20.2981 20.5455C20.8252 20.7103 21.119 21.2712 20.9543 21.7983C20.7896 22.3254 20.2287 22.6192 19.7015 22.4545L11.9998 20.0477L4.29805 22.4545C3.77091 22.6192 3.21003 22.3254 3.0453 21.7983C2.88057 21.2712 3.17436 20.7103 3.7015 20.5455L8.64719 19L3.70155 17.4545C3.1744 17.2898 2.88061 16.7289 3.04534 16.2017C3.21008 15.6746 3.77095 15.3808 4.2981 15.5455Z" fill="black"/>
</svg>
