<svg width="24" height="24" viewBox="0 0 24 24" fill="none" xmlns="http://www.w3.org/2000/svg">
<path fill-rule="evenodd" clip-rule="evenodd" d="M12 4C9.25033 4 6.82466 5.38723 5.38468 7.5H18.6153C17.1753 5.38723 14.7497 4 12 4ZM12 20C14.7497 20 17.1753 18.6128 18.6153 16.5H5.38468C6.82466 18.6128 9.25033 20 12 20ZM12 2C6.47715 2 2 6.47715 2 12C2 17.5228 6.47715 22 12 22C17.5228 22 22 17.5228 22 12C22 6.47715 17.5228 2 12 2ZM7.73164 10.3281C7.6325 10.1433 7.36749 10.1433 7.26835 10.3281L6.85106 11.106L5.98227 11.2625C5.77587 11.2997 5.69397 11.5517 5.8391 11.7031L6.44999 12.3403L6.33034 13.215C6.30192 13.4228 6.51632 13.5785 6.70515 13.4873L7.49999 13.1032L8.29484 13.4873C8.48367 13.5785 8.69807 13.4228 8.66964 13.215L8.54999 12.3403L9.16088 11.7031C9.30601 11.5517 9.22412 11.2997 9.01772 11.2625L8.14893 11.106L7.73164 10.3281ZM12.2316 10.3281C12.1325 10.1433 11.8675 10.1433 11.7684 10.3281L11.3511 11.106L10.4823 11.2625C10.2759 11.2997 10.194 11.5517 10.3391 11.7031L10.95 12.3403L10.8303 13.215C10.8019 13.4228 11.0163 13.5785 11.2051 13.4873L12 13.1032L12.7948 13.4873C12.9837 13.5785 13.1981 13.4228 13.1696 13.215L13.05 12.3403L13.6609 11.7031C13.806 11.5517 13.7241 11.2997 13.5177 11.2625L12.6489 11.106L12.2316 10.3281ZM16.2684 10.3281C16.3675 10.1433 16.6325 10.1433 16.7316 10.3281L17.1489 11.106L18.0177 11.2625C18.2241 11.2997 18.306 11.5517 18.1609 11.7031L17.55 12.3403L17.6696 13.215C17.6981 13.4228 17.4837 13.5785 17.2948 13.4873L16.5 13.1032L15.7051 13.4873C15.5163 13.5785 15.3019 13.4228 15.3303 13.215L15.45 12.3403L14.8391 11.7031C14.694 11.5517 14.7759 11.2997 14.9823 11.2625L15.8511 11.106L16.2684 10.3281Z" fill="black"/>
</svg>
