<svg width="24" height="24" viewBox="0 0 24 24" fill="none" xmlns="http://www.w3.org/2000/svg">
<path fill-rule="evenodd" clip-rule="evenodd" d="M1.5 7.5C1.5 5.29086 3.29086 3.5 5.5 3.5H18.5C20.7091 3.5 22.5 5.29086 22.5 7.5V16.5C22.5 18.7091 20.7091 20.5 18.5 20.5H5.5C3.29086 20.5 1.5 18.7091 1.5 16.5V7.5ZM3.5 8.5C3.5 7.94772 3.94772 7.5 4.5 7.5C5.81322 7.5 7.11358 7.75866 8.32683 8.2612C9.54009 8.76375 10.6425 9.50035 11.5711 10.4289C12.4997 11.3575 13.2362 12.4599 13.7388 13.6732C14.2413 14.8864 14.5 16.1868 14.5 17.5C14.5 18.0523 14.0523 18.5 13.5 18.5C12.9477 18.5 12.5 18.0523 12.5 17.5C12.5 16.4494 12.2931 15.4091 11.891 14.4385C11.489 13.4679 10.8997 12.586 10.1569 11.8431C9.41399 11.1003 8.53207 10.511 7.56147 10.109C6.59086 9.70693 5.55058 9.5 4.5 9.5C3.94772 9.5 3.5 9.05228 3.5 8.5ZM4.5 11.5C3.94772 11.5 3.5 11.9477 3.5 12.5C3.5 13.0523 3.94772 13.5 4.5 13.5C5.02529 13.5 5.54543 13.6035 6.03073 13.8045C6.51604 14.0055 6.95699 14.3001 7.32843 14.6716C7.69986 15.043 7.9945 15.484 8.19552 15.9693C8.39654 16.4546 8.5 16.9747 8.5 17.5C8.5 18.0523 8.94771 18.5 9.5 18.5C10.0523 18.5 10.5 18.0523 10.5 17.5C10.5 16.7121 10.3448 15.9319 10.0433 15.2039C9.74175 14.4759 9.29979 13.8145 8.74264 13.2574C8.18549 12.7002 7.52405 12.2583 6.7961 11.9567C6.06815 11.6552 5.28793 11.5 4.5 11.5ZM4.5 15.5C3.94772 15.5 3.5 15.9477 3.5 16.5C3.5 17.0523 3.94772 17.5 4.5 17.5C4.5 18.0523 4.94772 18.5 5.5 18.5C6.05228 18.5 6.5 18.0523 6.5 17.5C6.5 17.2374 6.44827 16.9773 6.34776 16.7346C6.24725 16.492 6.09993 16.2715 5.91421 16.0858C5.7285 15.9001 5.50802 15.7528 5.26537 15.6522C5.02272 15.5517 4.76264 15.5 4.5 15.5Z" fill="black"/>
</svg>
