<svg width="24" height="24" viewBox="0 0 24 24" fill="none" xmlns="http://www.w3.org/2000/svg">
<path fill-rule="evenodd" clip-rule="evenodd" d="M16.4993 3.06688C15.4289 2.5267 14.2482 2.17325 13 2.04932V8.12596C13.0797 8.14648 13.1585 8.16939 13.2362 8.19462L16.4993 3.06688ZM15.874 10.9998C15.7047 10.3423 15.3725 9.75027 14.9229 9.26927L18.1857 4.1421C20.2627 5.77935 21.6748 8.22244 21.9506 10.9998H15.874ZM11 8.12596C9.27477 8.57 8 10.1361 8 11.9999C8 14.2091 9.79086 15.9999 12 15.9999C13.8639 15.9999 15.43 14.7251 15.874 12.9998H21.9506C21.449 18.0532 17.1854 21.9999 12 21.9999C6.47715 21.9999 2 17.5228 2 11.9999C2 6.81459 5.94668 2.55104 11 2.04932V8.12596Z" fill="black"/>
</svg>
