<svg width="24" height="24" viewBox="0 0 24 24" fill="none" xmlns="http://www.w3.org/2000/svg">
<path fill-rule="evenodd" clip-rule="evenodd" d="M4 3C4.55228 3 5 3.44772 5 4V19H21C21.5523 19 22 19.4477 22 20C22 20.5523 21.5523 21 21 21H4C3.44772 21 3 20.5523 3 20V4C3 3.44772 3.44772 3 4 3ZM9.5 7C8.67157 7 8 7.67157 8 8.5L8 14.5C8 15.3284 8.67157 16 9.5 16H11.5C12.3284 16 13 15.3284 13 14.5L13 8.5C13 7.67157 12.3284 7 11.5 7L9.5 7ZM16.5 3C15.6716 3 15 3.67157 15 4.5L15 14.5C15 15.3284 15.6716 16 16.5 16H18.5C19.3284 16 20 15.3284 20 14.5V4.5C20 3.67157 19.3284 3 18.5 3H16.5Z" fill="black"/>
</svg>
