<svg width="24" height="24" viewBox="0 0 24 24" fill="none" xmlns="http://www.w3.org/2000/svg">
<path fill-rule="evenodd" clip-rule="evenodd" d="M20.7071 4.20711C21.0976 3.81658 21.0976 3.18342 20.7071 2.79289C20.3166 2.40237 19.6834 2.40237 19.2929 2.79289L9 13.0858L4.70711 8.79289C4.31658 8.40237 3.68342 8.40237 3.29289 8.79289C2.90237 9.18342 2.90237 9.81658 3.29289 10.2071L8.29289 15.2071C8.68342 15.5976 9.31658 15.5976 9.70711 15.2071L20.7071 4.20711ZM20.7071 10.2071C21.0976 9.81658 21.0976 9.18342 20.7071 8.79289C20.3166 8.40237 19.6834 8.40237 19.2929 8.79289L9 19.0858L4.70711 14.7929C4.31658 14.4024 3.68342 14.4024 3.29289 14.7929C2.90237 15.1834 2.90237 15.8166 3.29289 16.2071L8.29289 21.2071C8.68342 21.5976 9.31658 21.5976 9.70711 21.2071L20.7071 10.2071Z" fill="black"/>
</svg>
