<svg width="24" height="24" viewBox="0 0 24 24" fill="none" xmlns="http://www.w3.org/2000/svg">
<path fill-rule="evenodd" clip-rule="evenodd" d="M1 7.5C1 5.29086 2.79086 3.5 5 3.5H19C21.2091 3.5 23 5.29086 23 7.5V16.5C23 18.7091 21.2091 20.5 19 20.5H5C2.79086 20.5 1 18.7091 1 16.5V7.5ZM8.89227 10.4159C8.58324 10.3721 8.26816 10.4197 7.98583 10.5528C7.7035 10.6858 7.46625 10.8986 7.3033 11.1648C7.14036 11.431 7.05883 11.739 7.06875 12.051C7.07868 12.363 7.17964 12.6652 7.35918 12.9205C7.53873 13.1758 7.78902 13.373 8.07924 13.4879C8.36946 13.6027 8.68694 13.6301 8.99256 13.5668C9.29819 13.5035 9.57862 13.3522 9.79932 13.1315C10.1508 12.78 10.7206 12.78 11.0721 13.1315C11.4236 13.4829 11.4236 14.0528 11.0721 14.4043C10.6031 14.8732 10.0072 15.1948 9.35776 15.3294C8.7083 15.464 8.03368 15.4056 7.41696 15.1616C6.80024 14.9176 6.26836 14.4985 5.88682 13.956C5.50529 13.4134 5.29076 12.7712 5.26967 12.1083C5.24857 11.4454 5.42182 10.7907 5.76808 10.2251C6.11434 9.65938 6.61849 9.20732 7.21844 8.92456C7.8184 8.6418 8.48795 8.54069 9.14464 8.63368C9.80134 8.72668 10.4165 9.00971 10.9144 9.44792C11.2875 9.77633 11.3237 10.345 10.9953 10.7181C10.6669 11.0912 10.0982 11.1275 9.72508 10.7991C9.49079 10.5929 9.20131 10.4597 8.89227 10.4159ZM15.5563 10.4159C15.2473 10.3721 14.9322 10.4197 14.6499 10.5528C14.3676 10.6858 14.1303 10.8986 13.9674 11.1648C13.8044 11.431 13.7229 11.739 13.7328 12.051C13.7427 12.363 13.8437 12.6652 14.0232 12.9205C14.2028 13.1758 14.4531 13.373 14.7433 13.4879C15.0335 13.6027 15.351 13.6301 15.6566 13.5668C15.9622 13.5035 16.2427 13.3522 16.4634 13.1315C16.8148 12.78 17.3847 12.78 17.7362 13.1315C18.0876 13.4829 18.0876 14.0528 17.7362 14.4043C17.2672 14.8732 16.6713 15.1948 16.0218 15.3294C15.3724 15.464 14.6977 15.4056 14.081 15.1616C13.4643 14.9176 12.9324 14.4985 12.5509 13.956C12.1694 13.4134 11.9548 12.7712 11.9337 12.1083C11.9126 11.4454 12.0859 10.7907 12.4321 10.2251C12.7784 9.65938 13.2826 9.20732 13.8825 8.92456C14.4825 8.6418 15.152 8.54069 15.8087 8.63368C16.4654 8.72668 17.0806 9.00971 17.5784 9.44792C17.9515 9.77633 17.9878 10.345 17.6594 10.7181C17.3309 11.0912 16.7623 11.1275 16.3891 10.7991C16.1549 10.5929 15.8654 10.4597 15.5563 10.4159Z" fill="black"/>
</svg>
