<svg width="24" height="24" viewBox="0 0 24 24" fill="none" xmlns="http://www.w3.org/2000/svg">
<path fill-rule="evenodd" clip-rule="evenodd" d="M4.20842 6.7987C4.96881 3.75465 7.72031 1.5 11 1.5C14.5375 1.5 17.4621 4.12403 17.9336 7.53182C18.1197 7.51079 18.3087 7.5 18.5 7.5C21.2614 7.5 23.5 9.73858 23.5 12.5C23.5 15.2614 21.2614 17.5 18.5 17.5H16.8246C16.9444 17.0617 17 16.6064 17 16.1429C17 15.0215 16.6566 13.7759 15.8089 12.7541C14.9034 11.6627 13.5558 11 12 11C10.4766 11 9.33397 11.6241 8.62084 12.1972C8.26719 12.4814 8.00108 12.7656 7.81615 12.9885C7.72247 13.1014 7.64607 13.2029 7.58639 13.2868C7.55646 13.3289 7.53043 13.367 7.50826 13.4004C7.49716 13.4171 7.48701 13.4327 7.47778 13.4471L7.46463 13.4677L7.45856 13.4774L7.45566 13.482L7.45424 13.4843C7.45355 13.4854 7.45287 13.4865 9.86679 14.9885L9.99982 15.0713C9.15096 14.5431 9.15119 14.5428 9.15143 14.5424L9.15192 14.5416L9.15295 14.5399L9.15521 14.5363L9.16057 14.5279L9.17464 14.5064C9.1855 14.49 9.19938 14.4697 9.21631 14.4459C9.25009 14.3984 9.29639 14.3366 9.35539 14.2655C9.47259 14.1243 9.64463 13.9402 9.87362 13.7562C10.3336 13.3866 11.0478 13 12 13C12.9631 13 13.7456 13.3995 14.2696 14.0311C14.7744 14.6396 15 15.4119 15 16.1429C15 16.7575 14.8525 17.2713 14.5641 17.7C14.2906 18.1064 13.9369 18.3621 13.6884 18.5316L13.6081 18.5862C13.1244 18.9155 13.0319 18.9785 12.9739 19.2272C12.8484 19.7651 12.3106 20.0993 11.7728 19.9738C11.2349 19.8483 10.9007 19.3106 11.0262 18.7728C11.272 17.7191 12.0306 17.2257 12.4423 16.9579C12.4864 16.9292 12.5266 16.9031 12.5617 16.8791C12.7714 16.7361 12.8553 16.657 12.9047 16.5835C12.9392 16.5323 13 16.4211 13 16.1429C13 15.8024 12.8923 15.5033 12.7304 15.3081C12.5878 15.1362 12.3703 15 12 15C11.6189 15 11.3331 15.1491 11.1264 15.3152C11.0221 15.3991 10.9441 15.4829 10.8946 15.5425C10.8703 15.5718 10.8541 15.5938 10.8462 15.6049L10.8419 15.6111C10.5473 16.0709 9.93683 16.2099 9.47171 15.9205C9.00279 15.6287 8.85918 15.012 9.15096 14.5431L7.45284 13.4865C6.61528 14.8326 6.97361 16.5845 8.23853 17.5H6C2.96243 17.5 0.5 15.0376 0.5 12C0.5 9.58895 2.05058 7.54196 4.20842 6.7987ZM11.4946 15.1843L11.4991 15.1807L11.5027 15.178C11.5028 15.178 11.5003 15.1801 11.4946 15.1843ZM12 23C12.5523 23 13 22.5523 13 22C13 21.4477 12.5523 21 12 21C11.4477 21 11 21.4477 11 22C11 22.5523 11.4477 23 12 23Z" fill="black"/>
</svg>
