<svg width="24" height="24" viewBox="0 0 24 24" fill="none" xmlns="http://www.w3.org/2000/svg">
<path fill-rule="evenodd" clip-rule="evenodd" d="M11 1.5C7.72031 1.5 4.96881 3.75465 4.20842 6.7987C2.05058 7.54196 0.5 9.58895 0.5 12C0.5 14.7158 2.46843 16.9719 5.05641 17.4194C5.16722 16.8549 5.44131 16.316 5.87868 15.8787C6.72276 15.0346 7.94468 14.7987 9 15.1708V14C9 12.3431 10.3431 11 12 11C13.6569 11 15 12.3431 15 14L15 15.1708C16.0553 14.7987 17.2772 15.0346 18.1213 15.8787C18.5742 16.3316 18.852 16.8932 18.9548 17.4796C21.5031 17.2498 23.5 15.1081 23.5 12.5C23.5 9.73858 21.2614 7.5 18.5 7.5C18.3087 7.5 18.1197 7.51079 17.9336 7.53182C17.4621 4.12403 14.5375 1.5 11 1.5ZM13 14C13 13.4477 12.5523 13 12 13C11.4477 13 11 13.4477 11 14L11 19.5858L8.7071 17.2929C8.31658 16.9024 7.68342 16.9024 7.29289 17.2929C6.90237 17.6834 6.90237 18.3166 7.29289 18.7071L11.2929 22.7071C11.6834 23.0976 12.3166 23.0976 12.7071 22.7071L16.7071 18.7071C17.0976 18.3166 17.0976 17.6834 16.7071 17.2929C16.3166 16.9024 15.6834 16.9024 15.2929 17.2929L13 19.5858L13 14Z" fill="black"/>
</svg>
