<svg width="24" height="24" viewBox="0 0 24 24" fill="none" xmlns="http://www.w3.org/2000/svg">
<path fill-rule="evenodd" clip-rule="evenodd" d="M12.0002 10.0003C11.448 10.0003 11.0002 9.55259 11.0002 9.00031L11.0002 5.47864C10.9991 5.42458 10.9935 5.37107 10.9838 5.31859C10.9935 5.22648 10.9991 5.13328 11.0002 5.03923V4.96211C10.9796 3.32305 9.64445 2.00073 8.00049 2.00073C6.34364 2.00073 5.00049 3.34388 5.00049 5.00073C3.34363 5.00073 2.00049 6.34388 2.00049 8.00073C2.00049 9.63932 3.31418 10.9711 4.94581 11.0002H5.05498C5.14361 10.9987 5.23146 10.9932 5.31835 10.984C5.36785 10.9932 5.41827 10.9987 5.46922 11.0002H9.00024C9.55253 11.0002 10.0002 11.448 10.0002 12.0002C10.0002 12.5525 9.55253 13.0002 9.00024 13.0002H5.46821C5.41728 13.0018 5.36687 13.0073 5.31737 13.0165C5.2305 13.0073 5.14267 13.0018 5.05406 13.0002H4.94478C3.31318 13.0294 1.99951 14.3612 1.99951 15.9998C1.99951 17.6566 3.34266 18.9998 4.99951 18.9998C4.99951 20.6566 6.34266 21.9998 7.99951 21.9998C9.65637 21.9998 10.9995 20.6566 10.9995 18.9998C10.9995 18.8926 10.9939 18.7866 10.9828 18.6819C10.9938 18.6223 10.9995 18.5613 10.9995 18.4998V17.0001L10.9995 14.9996C10.9995 14.4473 11.4472 13.9996 11.9995 13.9996C12.5518 13.9996 12.9995 14.4473 12.9995 14.9996L12.9995 17.0001V18.4995C12.9995 18.5001 12.9995 18.5006 12.9995 18.5012C12.9996 18.5622 13.0053 18.6226 13.0162 18.6817C13.0053 18.7854 12.9996 18.8905 12.9995 18.9966C12.9995 18.9976 12.9995 18.9986 12.9995 18.9995C12.9995 19.0005 12.9995 19.0014 12.9995 19.0024C13.0011 20.6579 14.3436 21.9995 15.9995 21.9995C17.6564 21.9995 18.9995 20.6564 18.9995 18.9995C20.6564 18.9995 21.9995 17.6564 21.9995 15.9995C21.9995 14.3491 20.6668 13.01 19.0189 12.9996H18.9802C18.8797 13.0002 18.78 13.0058 18.6817 13.0162C18.6256 13.0059 18.5684 13.0002 18.5106 12.9996H14.9995C14.4472 12.9996 13.9995 12.5519 13.9995 11.9996C13.9995 11.4473 14.4472 10.9996 14.9995 10.9996H18.5433C18.5903 10.9976 18.6369 10.9922 18.6826 10.9838C18.7629 10.9923 18.8441 10.9976 18.9259 10.9996H19.0753C20.6976 10.9598 22.0005 9.63232 22.0005 8.00049C22.0005 6.34363 20.6573 5.00049 19.0005 5.00049C19.0005 3.34363 17.6573 2.00049 16.0005 2.00049C14.3436 2.00049 13.0005 3.34363 13.0005 5.00049C13.0005 5.10762 13.0061 5.21368 13.0172 5.31835C13.0062 5.37797 13.0005 5.43891 13.0005 5.50049V7.00012H13.0002V9.00031C13.0002 9.55259 12.5525 10.0003 12.0002 10.0003Z" fill="black"/>
</svg>
