<svg width="24" height="24" viewBox="0 0 24 24" fill="none" xmlns="http://www.w3.org/2000/svg">
<path fill-rule="evenodd" clip-rule="evenodd" d="M5.44432 4.40831C5.31077 4.24508 5.4269 4 5.63781 4H18.3622C18.5731 4 18.6892 4.24508 18.5557 4.40831L17.2534 6H6.74662L5.44432 4.40831ZM5.49521 7.62888L3.89641 5.67478C2.69442 4.20569 3.73965 2 5.63781 2H18.3622C20.2604 2 21.3056 4.20569 20.1036 5.67479L18.5012 7.63324L13 14.357V20H15C15.5523 20 16 20.4477 16 21C16 21.5523 15.5523 22 15 22H9.00001C8.44772 22 8.00001 21.5523 8.00001 21C8.00001 20.4477 8.44772 20 9.00001 20H11V14.357L5.49876 7.63324C5.49757 7.63179 5.49639 7.63033 5.49521 7.62888Z" fill="black"/>
</svg>
