<svg width="24" height="24" viewBox="0 0 24 24" fill="none" xmlns="http://www.w3.org/2000/svg">
<path fill-rule="evenodd" clip-rule="evenodd" d="M2 12C2 6.47715 6.47715 2 12 2C17.5228 2 22 6.47715 22 12C22 17.5228 17.5228 22 12 22C6.47715 22 2 17.5228 2 12ZM7.52527 6.91793C7.06574 6.61158 6.44487 6.73576 6.13851 7.19528C5.83216 7.65481 5.95634 8.27568 6.41586 8.58203L9.95455 10.9412H8.08821C7.53593 10.9412 7.08821 11.3889 7.08821 11.9412C7.08821 12.4934 7.53593 12.9412 8.08821 12.9412H11V14.0147H8.08821C7.53593 14.0147 7.08821 14.4624 7.08821 15.0147C7.08821 15.567 7.53593 16.0147 8.08821 16.0147H11V17.25C11 17.8023 11.4477 18.25 12 18.25C12.5523 18.25 13 17.8023 13 17.25V16.0147H15.9117C16.464 16.0147 16.9117 15.567 16.9117 15.0147C16.9117 14.4624 16.464 14.0147 15.9117 14.0147L13 14.0147V12.9412H15.9117C16.464 12.9412 16.9117 12.4934 16.9117 11.9412C16.9117 11.3889 16.464 10.9412 15.9117 10.9412H14.0454L17.5841 8.58203C18.0436 8.27568 18.1678 7.65481 17.8614 7.19528C17.5551 6.73576 16.9342 6.61158 16.4747 6.91793L12 9.90108L7.52527 6.91793Z" fill="black"/>
</svg>
