<svg width="24" height="24" viewBox="0 0 24 24" fill="none" xmlns="http://www.w3.org/2000/svg">
<path fill-rule="evenodd" clip-rule="evenodd" d="M2.05005 11.9998C2.05005 6.50457 6.50482 2.0498 12 2.0498C17.4953 2.0498 21.9501 6.50457 21.9501 11.9998C21.9501 17.495 17.4953 21.9498 12 21.9498C6.50482 21.9498 2.05005 17.495 2.05005 11.9998ZM13.7161 6.39983C13.7161 5.87516 13.2907 5.44983 12.7661 5.44983C12.2414 5.44983 11.8161 5.87516 11.8161 6.39983V6.74213H11.5622V6.39983C11.5622 5.87516 11.1369 5.44983 10.6122 5.44983C10.0875 5.44983 9.66222 5.87516 9.66222 6.39983V6.74213H9.539C8.71694 6.74213 8.05054 7.40854 8.05054 8.23059V11.9998V15.6711C8.05054 16.5472 8.76078 17.2575 9.6369 17.2575H9.66222V17.5798C9.66222 18.1045 10.0875 18.5298 10.6122 18.5298C11.1369 18.5298 11.5622 18.1045 11.5622 17.5798V17.2575H11.8161V17.5798C11.8161 18.1045 12.2414 18.5298 12.7661 18.5298C13.2907 18.5298 13.7161 18.1045 13.7161 17.5798V17.2575H13.8467C15.5609 17.2575 16.9505 15.8679 16.9505 14.1536C16.9505 13.0108 16.3329 12.0122 15.4132 11.4735C15.7052 11.0003 15.8736 10.4428 15.8736 9.84597C15.8736 8.46176 14.9675 7.28918 13.7161 6.88902V6.39983ZM12.7698 12.9498H9.95054V15.3575H13.8467C14.5116 15.3575 15.0505 14.8185 15.0505 14.1536C15.0505 13.4888 14.5116 12.9498 13.8467 12.9498H12.776L12.7698 12.9498ZM13.9736 9.84597C13.9736 10.5095 13.4368 11.0476 12.7738 11.0498H9.95054V8.64213H12.7698C13.4346 8.64213 13.9736 9.1811 13.9736 9.84597Z" fill="black"/>
</svg>
