<svg width="24" height="24" viewBox="0 0 24 24" fill="none" xmlns="http://www.w3.org/2000/svg">
<path fill-rule="evenodd" clip-rule="evenodd" d="M12 2C6.47715 2 2 6.47715 2 12C2 17.5228 6.47715 22 12 22C13.6579 22 15.2243 21.5958 16.6033 20.8796C17.005 20.6709 17.2165 20.2184 17.1188 19.7763C17.0211 19.3343 16.6386 19.013 16.1863 18.9931C12.4663 18.8295 9.5 15.7609 9.5 12C9.5 8.23913 12.4663 5.17054 16.1863 5.00689C16.6386 4.98699 17.0211 4.66572 17.1188 4.22366C17.2165 3.78161 17.005 3.32906 16.6033 3.1204C15.2243 2.40424 13.6579 2 12 2ZM18.3612 8.49177C18.1814 8.18702 17.8539 8 17.5 8C17.1461 8 16.8186 8.18702 16.6388 8.49177L15.8824 9.77353L14.4296 10.0968C14.0842 10.1737 13.8051 10.4274 13.6958 10.7639C13.5864 11.1005 13.6631 11.4698 13.8973 11.735L14.8826 12.8504L14.7412 14.332C14.7075 14.6843 14.8626 15.0281 15.1489 15.2361C15.4351 15.4441 15.81 15.4853 16.1347 15.3444L17.5 14.7521L18.8653 15.3444C19.19 15.4853 19.5649 15.4441 19.8511 15.2361C20.1374 15.0281 20.2925 14.6843 20.2588 14.332L20.1174 12.8504L21.1027 11.735C21.3369 11.4698 21.4136 11.1005 21.3042 10.7639C21.1949 10.4274 20.9158 10.1737 20.5704 10.0968L19.1176 9.77353L18.3612 8.49177Z" fill="black"/>
</svg>
