<svg width="24" height="24" viewBox="0 0 24 24" fill="none" xmlns="http://www.w3.org/2000/svg">
<path fill-rule="evenodd" clip-rule="evenodd" d="M8.67106 2.29968C9.67635 1.54103 10.8232 1 12 1C13.1768 1 14.3237 1.54103 15.3289 2.29968C16.3471 3.06801 17.308 4.12441 18.1343 5.31627C19.774 7.68126 21 10.7521 21 13.5C21 18.98 17.0942 23 12 23C6.90578 23 3 18.98 3 13.5C3 10.7521 4.22602 7.68126 5.86569 5.31627C6.69202 4.12441 7.65294 3.06801 8.67106 2.29968ZM7 14C7 11.2386 9.23858 9 12 9C14.7614 9 17 11.2386 17 14C17 16.7614 14.7614 19 12 19C9.23858 19 7 16.7614 7 14Z" fill="black"/>
</svg>
