<svg width="24" height="24" viewBox="0 0 24 24" fill="none" xmlns="http://www.w3.org/2000/svg">
<path fill-rule="evenodd" clip-rule="evenodd" d="M8.67106 2.29968C9.67635 1.54103 10.8232 1 12 1C13.1768 1 14.3237 1.54103 15.3289 2.29968C16.3471 3.06801 17.308 4.12441 18.1343 5.31627C19.774 7.68126 21 10.7521 21 13.5C21 18.98 17.0942 23 12 23C6.90578 23 3 18.98 3 13.5C3 10.7521 4.22602 7.68126 5.86569 5.31627C6.69202 4.12441 7.65294 3.06801 8.67106 2.29968ZM13.1817 5.9845C12.696 5.72149 12.5155 5.11459 12.7786 4.62895C13.0416 4.14331 13.6485 3.96284 14.1341 4.22585C14.683 4.5231 15.2623 5.08008 15.7271 5.64355C16.1988 6.21532 16.6585 6.92205 16.8902 7.60031C17.0688 8.12293 16.7899 8.69135 16.2673 8.86991C15.7446 9.04848 15.1762 8.76956 14.9977 8.24694C14.8735 7.88354 14.5745 7.38923 14.1844 6.91628C13.7874 6.43504 13.4016 6.10362 13.1817 5.9845Z" fill="black"/>
</svg>
