<svg width="24" height="24" viewBox="0 0 24 24" fill="none" xmlns="http://www.w3.org/2000/svg">
<path fill-rule="evenodd" clip-rule="evenodd" d="M5.5 3.5C3.29086 3.5 1.5 5.29086 1.5 7.5V16.5C1.5 18.7091 3.29086 20.5 5.5 20.5H18.5C20.7091 20.5 22.5 18.7091 22.5 16.5V7.5C22.5 5.29086 20.7091 3.5 18.5 3.5H5.5ZM4.89504 7.49625C4.45115 7.16765 3.82492 7.26112 3.49632 7.70501C3.16772 8.14891 3.26119 8.77514 3.70509 9.10373L7.31197 11.7738L3.49284 15.5929C3.10232 15.9834 3.10232 16.6166 3.49284 17.0071C3.88337 17.3976 4.51653 17.3976 4.90706 17.0071L8.93726 12.9769L10.8101 14.3633C11.5171 14.8866 12.4831 14.8866 13.1901 14.3632L15.0626 12.9769L19.0928 17.0071C19.4834 17.3976 20.1165 17.3976 20.5071 17.0071C20.8976 16.6166 20.8976 15.9834 20.5071 15.5929L16.6878 11.7737L20.2943 9.1037C20.7382 8.77508 20.8316 8.14885 20.503 7.70497C20.1744 7.2611 19.5481 7.16766 19.1043 7.49628L12 12.7558L4.89504 7.49625Z" fill="black"/>
</svg>
