<svg width="24" height="24" viewBox="0 0 24 24" fill="none" xmlns="http://www.w3.org/2000/svg">
<path fill-rule="evenodd" clip-rule="evenodd" d="M3 5.33333C3 4.04467 4.04467 3 5.33333 3H12C16.9706 3 21 7.02944 21 12C21 16.9706 16.9706 21 12 21H5.33333C4.04467 21 3 19.9553 3 18.6667V13L9.17071 13C9.58254 14.1652 10.6938 15 12 15C13.6569 15 15 13.6569 15 12C15 10.3431 13.6569 9 12 9C10.6938 9 9.58254 9.83481 9.17071 11L3 11V5.33333ZM12 11C11.4477 11 11 11.4477 11 12C11 12.5523 11.4477 13 12 13C12.5523 13 13 12.5523 13 12C13 11.4477 12.5523 11 12 11Z" fill="black"/>
</svg>
