<svg width="24" height="24" viewBox="0 0 24 24" fill="none" xmlns="http://www.w3.org/2000/svg">
<path fill-rule="evenodd" clip-rule="evenodd" d="M2.29512 3.32318C3.21116 3.01115 5.00768 2.50002 6.99999 2.5C8.51729 2.49999 10.0584 3.03899 11.4163 3.5139L11.5366 3.55595C13.0022 4.06802 14.2834 4.5 15.5 4.5C17.072 4.5 19.1771 4.11049 20.5316 3.81622C21.7742 3.54627 23 4.4798 23 5.79146V18.7897C23 19.6343 22.4623 20.421 21.604 20.6718C20.5748 20.9725 18.497 21.5 16.5 21.5C14.9108 21.5 13.3562 20.9511 11.9939 20.4701L11.9939 20.4701L11.9172 20.443C10.4643 19.9302 9.21424 19.5 8 19.5C6.501 19.5 4.72777 19.8461 3.53044 20.1315C2.28075 20.4295 1 19.5028 1 18.156V5.1594C1 4.36568 1.47973 3.60093 2.29512 3.32318ZM11.7995 6.2121C11.8853 6.05211 12.1147 6.05211 12.2005 6.2121L12.5618 6.88554L13.3139 7.02101C13.4926 7.05319 13.5635 7.27138 13.4378 7.40245L12.909 7.95412L13.0126 8.71129C13.0372 8.89117 12.8516 9.02602 12.6881 8.94703L12 8.61454L11.3119 8.94703C11.1484 9.02602 10.9628 8.89116 10.9874 8.71129L11.091 7.95412L10.5622 7.40245C10.4365 7.27138 10.5074 7.05319 10.6861 7.02101L11.4382 6.88554L11.7995 6.2121ZM11.4382 15.7157L11.7995 15.0423C11.8853 14.8823 12.1147 14.8823 12.2005 15.0423L12.5618 15.7157L13.3139 15.8512C13.4926 15.8834 13.5635 16.1015 13.4378 16.2326L12.909 16.7843L13.0126 17.5414C13.0372 17.7213 12.8516 17.8562 12.6881 17.7772L12 17.4447L11.3119 17.7772C11.1484 17.8562 10.9628 17.7213 10.9874 17.5414L11.091 16.7843L10.5622 16.2326C10.4365 16.1015 10.5074 15.8834 10.6861 15.8512L11.4382 15.7157ZM15.3225 7.50524C15.2367 7.34525 15.0072 7.34525 14.9214 7.50524L14.5602 8.17868L13.808 8.31415C13.6294 8.34633 13.5585 8.56452 13.6841 8.69558L14.213 9.24726L14.1094 10.0044C14.0848 10.1843 14.2704 10.3192 14.4338 10.2402L15.1219 9.90767L15.81 10.2402C15.9735 10.3192 16.1591 10.1843 16.1345 10.0044L16.0309 9.24726L16.5598 8.69558C16.6854 8.56452 16.6145 8.34633 16.4358 8.31415L15.6837 8.17868L15.3225 7.50524ZM8.31639 14.4226L8.67764 13.7491C8.76346 13.5891 8.99288 13.5891 9.0787 13.7491L9.43995 14.4226L10.1921 14.558C10.3707 14.5902 10.4416 14.8084 10.316 14.9395L9.78716 15.4911L9.89074 16.2483C9.91534 16.4282 9.72974 16.563 9.56627 16.484L8.87817 16.1515L8.19007 16.484C8.0266 16.563 7.841 16.4282 7.8656 16.2483L7.96918 15.4911L7.44034 14.9395C7.3147 14.8084 7.38559 14.5902 7.56427 14.558L8.31639 14.4226ZM9.0787 7.50525C8.99288 7.34526 8.76346 7.34526 8.67764 7.50525L8.31639 8.1787L7.56427 8.31416C7.38559 8.34634 7.3147 8.56454 7.44034 8.6956L7.96918 9.24727L7.8656 10.0044C7.841 10.1843 8.0266 10.3192 8.19007 10.2402L8.87817 9.90769L9.56627 10.2402C9.72974 10.3192 9.91534 10.1843 9.89074 10.0044L9.78716 9.24727L10.316 8.6956C10.4416 8.56454 10.3707 8.34634 10.1921 8.31416L9.43995 8.1787L9.0787 7.50525ZM15.3225 13.7491L15.6837 14.4226L16.4358 14.558C16.6145 14.5902 16.6854 14.8084 16.5598 14.9395L16.0309 15.4911L16.1345 16.2483C16.1591 16.4282 15.9735 16.563 15.81 16.484L15.1219 16.1515L14.4338 16.484C14.2704 16.563 14.0848 16.4282 14.1094 16.2483L14.213 15.4911L13.6841 14.9395C13.5585 14.8084 13.6294 14.5902 13.808 14.558L14.5602 14.4226L14.9214 13.7491C15.0072 13.5891 15.2367 13.5891 15.3225 13.7491ZM16.6157 10.6272C16.5299 10.4672 16.3004 10.4672 16.2146 10.6272L15.8534 11.3006L15.1013 11.4361C14.9226 11.4683 14.8517 11.6865 14.9773 11.8175L15.5062 12.3692L15.4026 13.1264C15.378 13.3062 15.5636 13.4411 15.7271 13.3621L16.4152 13.0296L17.1033 13.3621C17.2667 13.4411 17.4523 13.3062 17.4277 13.1264L17.3241 12.3692L17.853 11.8175C17.9786 11.6865 17.9077 11.4683 17.7291 11.4361L16.9769 11.3006L16.6157 10.6272ZM7.38442 10.6272C7.47025 10.4672 7.69967 10.4672 7.78549 10.6272L8.14674 11.3006L8.89886 11.4361C9.07754 11.4683 9.14843 11.6865 9.02279 11.8175L8.49394 12.3692L8.59752 13.1264C8.62213 13.3062 8.43653 13.4411 8.27306 13.3621L7.58496 13.0296L6.89686 13.3621C6.73339 13.4411 6.54778 13.3062 6.57239 13.1264L6.67597 12.3692L6.14712 11.8175C6.02148 11.6865 6.09238 11.4683 6.27106 11.4361L7.02317 11.3006L7.38442 10.6272Z" fill="black"/>
</svg>
