<svg width="24" height="24" viewBox="0 0 24 24" fill="none" xmlns="http://www.w3.org/2000/svg">
<path fill-rule="evenodd" clip-rule="evenodd" d="M16.1668 2.12678C14.1742 1.82172 12.1299 2.06975 10.2794 2.84326C8.42859 3.6169 6.84581 4.88547 5.72834 6.50303C5.19173 7.27977 4.77386 8.12056 4.48352 9H3C2.44772 9 2 9.44772 2 10C2 10.5523 2.44772 11 3 11H4.05261C4.01899 11.3187 4.00136 11.6397 4.00008 11.9621C3.99869 12.3099 4.01635 12.6563 4.05261 13H3C2.44772 13 2 13.4477 2 14C2 14.5523 2.44772 15 3 15H4.48352C4.76591 15.8554 5.16902 16.6744 5.68495 17.4337C6.78965 19.0594 8.36246 20.3393 10.2072 21.1263C12.0516 21.9131 14.094 22.1757 16.0889 21.8849C18.084 21.5941 19.9534 20.7611 21.4695 19.4799C21.8913 19.1234 21.9443 18.4925 21.5878 18.0706C21.2313 17.6488 20.6003 17.5958 20.1785 17.9523C18.9545 18.9867 17.4344 19.6676 15.8004 19.9058C14.1663 20.144 12.4956 19.9281 10.9919 19.2867C9.48866 18.6454 8.22198 17.6087 7.33918 16.3096C7.05581 15.8926 6.8157 15.454 6.6205 15H15C15.5523 15 16 14.5523 16 14C16 13.4477 15.5523 13 15 13H6.0667C6.02109 12.6594 5.99868 12.3154 6.00006 11.97C6.00136 11.6448 6.02373 11.3208 6.0667 11H15C15.5523 11 16 10.5523 16 10C16 9.44772 15.5523 9 15 9H6.6205C6.82365 8.52748 7.0754 8.07182 7.37385 7.63981C8.26712 6.3468 9.54221 5.3191 11.0507 4.68853C12.5596 4.05784 14.2321 3.85388 15.8642 4.10374C17.4962 4.35358 19.0106 5.04527 20.2261 6.08822C20.6453 6.44785 21.2766 6.39962 21.6362 5.98047C21.9959 5.56133 21.9476 4.93001 21.5285 4.57037C20.0225 3.2782 18.1596 2.43185 16.1668 2.12678Z" fill="black"/>
</svg>
