<svg width="24" height="24" viewBox="0 0 24 24" fill="none" xmlns="http://www.w3.org/2000/svg">
<g clip-path="url(#clip0_1215_6561)">
<path fill-rule="evenodd" clip-rule="evenodd" d="M15.9303 3.80541C14.763 3.30935 13.4524 3 12 3C8.84581 3 6.36059 4.45899 4.55857 6.1208C2.76159 7.77798 1.58478 9.688 1.01232 10.7438C0.585249 11.5315 0.58525 12.4685 1.01232 13.2562C1.42985 14.0263 2.16889 15.2508 3.23556 16.5001L7.50577 12.2299C7.50194 12.1538 7.5 12.0771 7.5 12C7.5 9.51472 9.51472 7.5 12 7.5C12.0771 7.5 12.1538 7.50194 12.2299 7.50577L15.9303 3.80541ZM12.898 9.66612C12.9032 9.66813 12.9084 9.67015 12.9136 9.67219L14.3957 8.19005C14.3913 8.18725 14.3869 8.18447 14.3824 8.18169L17.7653 4.79881C17.7696 4.80169 17.774 4.80458 17.7783 4.80746L22.2929 0.292893C22.6834 -0.0976311 23.3166 -0.0976311 23.7071 0.292893C24.0976 0.683417 24.0976 1.31658 23.7071 1.70711L19.3641 6.05007C19.39 6.0736 19.4158 6.09718 19.4414 6.1208C21.2384 7.77798 22.4152 9.68799 22.9877 10.7438C23.4147 11.5315 23.4147 12.4685 22.9877 13.2562C22.4152 14.312 21.2384 16.222 19.4414 17.8792C17.6394 19.541 15.1542 21 12 21C9.72369 21 7.7958 20.2401 6.22167 19.1925L1.70711 23.7071C1.31658 24.0976 0.683417 24.0976 0.292893 23.7071C-0.0976311 23.3166 -0.0976311 22.6834 0.292893 22.2929L4.63584 17.9499C4.63206 17.9465 4.62828 17.9431 4.6245 17.9396L8.18169 14.3824C8.18447 14.3869 8.18725 14.3913 8.19005 14.3957L9.67219 12.9136C9.67015 12.9084 9.66813 12.9032 9.66612 12.898L12.898 9.66612ZM15.81 9.60426L14.3278 11.0864C14.439 11.3694 14.5 11.6776 14.5 12C14.5 13.3807 13.3807 14.5 12 14.5C11.6776 14.5 11.3694 14.439 11.0864 14.3278L9.60426 15.81C10.298 16.2471 11.1195 16.5 12 16.5C14.4853 16.5 16.5 14.4853 16.5 12C16.5 11.1195 16.2471 10.298 15.81 9.60426Z" fill="black"/>
</g>
<defs>
<clipPath id="clip0_1215_6561">
<rect width="24" height="24" fill="white"/>
</clipPath>
</defs>
</svg>
