<svg width="24" height="24" viewBox="0 0 24 24" fill="none" xmlns="http://www.w3.org/2000/svg">
<path fill-rule="evenodd" clip-rule="evenodd" d="M4.55845 6.1208C6.36047 4.45899 8.84569 3 11.9999 3C15.1541 3 17.6393 4.45899 19.4413 6.1208C21.2383 7.77798 22.4151 9.68799 22.9875 10.7438C23.4146 11.5315 23.4146 12.4685 22.9875 13.2562C22.4151 14.312 21.2383 16.222 19.4413 17.8792C17.6393 19.541 15.1541 21 11.9999 21C8.84569 21 6.36047 19.541 4.55845 17.8792C2.76147 16.222 1.58465 14.312 1.0122 13.2562C0.585127 12.4685 0.585127 11.5315 1.0122 10.7438C1.58465 9.688 2.76147 7.77798 4.55845 6.1208ZM9.49988 12C9.49988 10.6193 10.6192 9.5 11.9999 9.5C13.3806 9.5 14.4999 10.6193 14.4999 12C14.4999 13.3807 13.3806 14.5 11.9999 14.5C10.6192 14.5 9.49988 13.3807 9.49988 12ZM11.9999 7.5C9.5146 7.5 7.49988 9.51472 7.49988 12C7.49988 14.4853 9.5146 16.5 11.9999 16.5C14.4852 16.5 16.4999 14.4853 16.4999 12C16.4999 9.51472 14.4852 7.5 11.9999 7.5Z" fill="black"/>
</svg>
