<svg width="24" height="24" viewBox="0 0 24 24" fill="none" xmlns="http://www.w3.org/2000/svg">
<path fill-rule="evenodd" clip-rule="evenodd" d="M22.9999 6.92047C22.9999 5.30243 21.1785 4.35412 19.8529 5.28201L12.5967 10.3614C12.3397 10.5413 12.1407 10.7666 11.9999 11.0167V6.92047C11.9999 5.30243 10.1785 4.35412 8.85293 5.28201L9.4264 6.10124L8.85293 5.28201L1.59673 10.3614C0.459298 11.1576 0.45929 12.8421 1.59673 13.6383L8.85293 18.7176C10.1785 19.6455 11.9999 18.6972 11.9999 17.0792V12.9829C12.1407 13.233 12.3397 13.4583 12.5967 13.6383L19.8529 18.7176C21.1785 19.6455 22.9999 18.6972 22.9999 17.0792V6.92047Z" fill="black"/>
</svg>
