<svg width="24" height="24" viewBox="0 0 24 24" fill="none" xmlns="http://www.w3.org/2000/svg">
<path fill-rule="evenodd" clip-rule="evenodd" d="M5 13C4.23165 13 3.53076 13.2889 3 13.7639V5C3 3.34315 4.34315 2 6 2H12V9C12 10.6569 13.3431 12 15 12H21V19C21 20.6569 19.6569 22 18 22H8C9.65685 22 11 20.6569 11 19C11 17.3431 9.65685 16 8 16C8 14.3431 6.65685 13 5 13ZM14 2.62426V9C14 9.55228 14.4477 10 15 10H20.4538L14 2.62426ZM5 15C5.55228 15 6 15.4477 6 16V18H8C8.55228 18 9 18.4477 9 19C9 19.5523 8.55228 20 8 20H6V22C6 22.5523 5.55228 23 5 23C4.44771 23 4 22.5523 4 22V20H2C1.44772 20 1 19.5523 1 19C1 18.4477 1.44772 18 2 18H4V16C4 15.4477 4.44772 15 5 15Z" fill="black"/>
</svg>
