<svg width="24" height="24" viewBox="0 0 24 24" fill="none" xmlns="http://www.w3.org/2000/svg">
<path fill-rule="evenodd" clip-rule="evenodd" d="M4.62132 14.3787C4.16318 13.9205 3.59372 13.6415 3 13.5417V5C3 3.34315 4.34315 2 6 2H12V9C12 10.6569 13.3431 12 15 12H21V19C21 20.6569 19.6569 22 18 22H10.4583C10.6137 21.0755 10.3347 20.0921 9.62132 19.3787L9.24264 19L9.62132 18.6213C10.7929 17.4497 10.7929 15.5503 9.62132 14.3787C8.44975 13.2071 6.55025 13.2071 5.37868 14.3787L5 14.7574L4.62132 14.3787ZM14 2.62426V9C14 9.55228 14.4477 10 15 10H20.4538L14 2.62426ZM8.20711 22.2071C7.81658 22.5976 7.18342 22.5976 6.79289 22.2071L5 20.4142L3.20711 22.2071C2.81658 22.5976 2.18342 22.5976 1.79289 22.2071C1.40237 21.8166 1.40237 21.1834 1.79289 20.7929L3.58579 19L1.79289 17.2071C1.40237 16.8166 1.40237 16.1834 1.79289 15.7929C2.18342 15.4024 2.81658 15.4024 3.20711 15.7929L5 17.5858L6.79289 15.7929C7.18342 15.4024 7.81658 15.4024 8.20711 15.7929C8.59763 16.1834 8.59763 16.8166 8.20711 17.2071L6.41421 19L8.20711 20.7929C8.59763 21.1834 8.59763 21.8166 8.20711 22.2071Z" fill="black"/>
</svg>
