<svg width="24" height="24" viewBox="0 0 24 24" fill="none" xmlns="http://www.w3.org/2000/svg">
<path fill-rule="evenodd" clip-rule="evenodd" d="M14.4982 5C11.2647 5 8.40999 6.61511 6.69448 9.08117C6.0642 7.21251 4.53868 5.7567 2.62894 5.22182C2.13383 5.08315 1.61425 5.34253 1.42752 5.82159C1.16378 6.4982 1.01953 7.23345 1.01953 8.00001C1.01953 9.53707 1.59816 10.9392 2.54744 12C1.59816 13.0608 1.01953 14.4629 1.01953 16C1.01953 16.7666 1.16378 17.5018 1.42752 18.1784C1.61425 18.6575 2.13383 18.9169 2.62894 18.7782C4.53985 18.243 6.06607 16.7857 6.69564 14.9154C8.41089 17.3834 11.2667 19 14.5017 19C18.6545 19 22.1824 16.336 23.4749 12.6268C23.6148 12.2251 23.6151 11.7878 23.4757 11.3859C22.187 7.67006 18.6557 5 14.4982 5ZM19.5 11C19.5 11.8284 18.8284 12.5 18 12.5C17.1716 12.5 16.5 11.8284 16.5 11C16.5 10.1716 17.1716 9.5 18 9.5C18.8284 9.5 19.5 10.1716 19.5 11ZM14.5516 8.32094C14.8262 7.90663 14.7129 7.34815 14.2986 7.07352C13.8843 6.7989 13.3259 6.91213 13.0512 7.32643C12.1997 8.61111 11.855 10.3714 11.8711 12.0206C11.8873 13.6701 12.2659 15.3854 13.0443 16.5964C13.313 17.0145 13.8699 17.1356 14.288 16.8669C14.7062 16.5981 14.8272 16.0413 14.5585 15.6231C14.0236 14.7909 13.6852 13.4449 13.6711 12.003C13.657 10.561 13.969 9.19982 14.5516 8.32094Z" fill="black"/>
</svg>
