<svg width="24" height="24" viewBox="0 0 24 24" fill="none" xmlns="http://www.w3.org/2000/svg">
<path fill-rule="evenodd" clip-rule="evenodd" d="M12.0928 14.9594C10.1639 14.392 8.35265 13.8988 6 14.6911V21C6 21.5523 5.55228 22 5 22C4.44772 22 4 21.5523 4 21V2.99999C4 2.57949 4.26307 2.20391 4.65826 2.0602C7.66847 0.965578 9.9083 1.509 11.958 2.0063L12.0481 2.02814C14.0782 2.5203 15.9666 2.95703 18.6838 2.05131C18.9887 1.94966 19.3239 2.0008 19.5847 2.18875C19.8455 2.3767 20 2.67855 20 2.99999V14C20 14.3788 19.786 14.725 19.4472 14.8944C16.6367 16.2997 14.3244 15.6176 12.266 15.0104L12.0928 14.9594Z" fill="black"/>
</svg>
