<svg width="24" height="24" viewBox="0 0 24 24" fill="none" xmlns="http://www.w3.org/2000/svg">
<path fill-rule="evenodd" clip-rule="evenodd" d="M7.20711 2.70711C7.59763 2.31658 7.59763 1.68342 7.20711 1.29289C6.81658 0.902369 6.18342 0.902369 5.79289 1.29289L2.29289 4.79289C1.90237 5.18342 1.90237 5.81658 2.29289 6.20711L5.79289 9.70711C6.18342 10.0976 6.81658 10.0976 7.20711 9.70711C7.59763 9.31658 7.59763 8.68342 7.20711 8.29289L5.41421 6.5H18.5858L16.7929 8.29289C16.4024 8.68342 16.4024 9.31658 16.7929 9.70711C17.1834 10.0976 17.8166 10.0976 18.2071 9.70711L21.7071 6.20711C22.0976 5.81658 22.0976 5.18342 21.7071 4.79289L18.2071 1.29289C17.8166 0.902369 17.1834 0.902369 16.7929 1.29289C16.4024 1.68342 16.4024 2.31658 16.7929 2.70711L18.5858 4.5H5.41421L7.20711 2.70711ZM11 12.5861C11 11.1195 9.11217 10.5244 8.27115 11.7259L2.73148 19.6397C2.03556 20.6339 2.74679 21.9999 3.96033 21.9999H9.5C10.3284 21.9999 11 21.3283 11 20.4999V12.5861ZM15.7288 11.7259C14.8878 10.5244 13 11.1195 13 12.5861V20.4999C13 21.3283 13.6716 21.9999 14.5 21.9999H20.0397C21.2532 21.9999 21.9644 20.6339 21.2685 19.6397L15.7288 11.7259ZM15 14.1723L19.0793 19.9999H15V14.1723Z" fill="black"/>
</svg>
