<svg width="24" height="24" viewBox="0 0 24 24" fill="none" xmlns="http://www.w3.org/2000/svg">
<path fill-rule="evenodd" clip-rule="evenodd" d="M16.9517 7.94296C18.1942 9.18538 18.1942 11.1997 16.9517 12.4422C15.8787 13.5151 14.23 13.6615 13 12.8812L13 15.4998H16.3901C17.3367 15.4998 18.0466 16.3658 17.861 17.294L17.3021 20.0882C17.0217 21.4904 15.7904 22.4998 14.3604 22.4998H9.63959C8.20955 22.4998 6.9783 21.4904 6.69785 20.0882L6.13901 17.294C5.95338 16.3658 6.66331 15.4998 7.60988 15.4998H11L11 12.8915C9.76999 13.6717 8.12132 13.5254 7.04837 12.4524C5.80595 11.21 5.80595 9.19564 7.04837 7.95322C7.22607 7.77552 7.41956 7.62324 7.62433 7.49637C7.42102 7.36998 7.22885 7.21848 7.05222 7.04186C5.8098 5.79944 5.8098 3.78508 7.05223 2.54266C8.29465 1.30023 10.309 1.30024 11.5514 2.54266C11.7262 2.71747 11.8764 2.90751 12.002 3.10847C12.1268 2.90961 12.2758 2.72151 12.449 2.54834C13.6914 1.30592 15.7058 1.30592 16.9482 2.54834C18.1906 3.79077 18.1906 5.80513 16.9482 7.04755C16.7752 7.22051 16.5873 7.36937 16.3887 7.49416C16.5887 7.6194 16.7778 7.769 16.9517 7.94296ZM12 8.99982C12.8284 8.99982 13.5 8.32824 13.5 7.49982C13.5 6.67139 12.8284 5.99982 12 5.99982C11.1716 5.99982 10.5 6.67139 10.5 7.49982C10.5 8.32824 11.1716 8.99982 12 8.99982Z" fill="black"/>
</svg>
