<svg width="24" height="24" viewBox="0 0 24 24" fill="none" xmlns="http://www.w3.org/2000/svg">
<path fill-rule="evenodd" clip-rule="evenodd" d="M12.6255 2.97464C12.26 2.68163 11.74 2.68163 11.3745 2.97463C9.31903 4.62238 8 7.15762 8 10.0003C8 12.8429 9.31903 15.3781 11.3745 17.0259C11.74 17.3189 12.26 17.3189 12.6255 17.0259C14.681 15.3781 16 12.8429 16 10.0003C16 7.15762 14.681 4.62239 12.6255 2.97464ZM6.37738 7.1349C5.46459 6.62586 4.45399 6.27104 3.38084 6.10565C2.86822 6.02665 2.38028 6.35269 2.25712 6.85652C2.08893 7.54456 2 8.2627 2 9.00025C2 13.383 5.13185 17.0326 9.27982 17.8359C7.2587 15.8438 6 13.0682 6 10.0003C6 9.0091 6.13137 8.04846 6.37738 7.1349ZM14.7202 17.8359C18.8681 17.0326 22 13.383 22 9.00026C22 8.26271 21.9111 7.54456 21.7429 6.85652C21.6197 6.35269 21.1318 6.02664 20.6192 6.10565C19.546 6.27104 18.5354 6.62586 17.6226 7.1349C17.8686 8.04846 18 9.00909 18 10.0003C18 13.0682 16.7413 15.8439 14.7202 17.8359ZM21.7074 16.3427C21.4522 15.853 20.8482 15.6629 20.3585 15.9182C19.8687 16.1735 19.6786 16.7774 19.9339 17.2672C20.0252 17.4423 20.0301 17.585 19.8971 17.7974C19.7259 18.071 19.3235 18.4331 18.5773 18.7938C17.848 19.1464 16.8917 19.4483 15.7652 19.6624C14.6427 19.8757 13.4029 19.992 12.1366 19.9998C10.8704 20.0077 9.62069 19.9067 8.47903 19.7069C7.33392 19.5065 6.34809 19.2155 5.58285 18.8687C4.80167 18.5147 4.35056 18.1481 4.14148 17.8549C3.96791 17.6114 3.97913 17.4619 4.04356 17.3144C4.26464 16.8083 4.03358 16.2188 3.52748 15.9977C3.02137 15.7766 2.43187 16.0077 2.21079 16.5138C1.83258 17.3796 1.98041 18.2689 2.51298 19.0159C3.01005 19.7131 3.8173 20.2644 4.7573 20.6904C5.71323 21.1236 6.86917 21.4556 8.13425 21.677C9.40277 21.899 10.7725 22.0083 12.149 21.9998C13.5253 21.9913 14.8866 21.8652 16.1386 21.6272C17.3868 21.39 18.5203 21.0428 19.4477 20.5945C20.3582 20.1544 21.1387 19.5835 21.5925 18.8585C22.0845 18.0722 22.1412 17.1749 21.7074 16.3427Z" fill="black"/>
</svg>
