<svg width="24" height="24" viewBox="0 0 24 24" fill="none" xmlns="http://www.w3.org/2000/svg">
<path fill-rule="evenodd" clip-rule="evenodd" d="M4 3C2.34315 3 1 4.34315 1 6V18C1 19.6569 2.34315 21 4 21H12.4982C12.1772 20.2304 12 19.3859 12 18.5C12 14.9101 14.9101 12 18.5 12C20.069 12 21.5082 12.5559 22.6313 13.4815C22.7596 13.5648 22.8829 13.6589 23 13.7638V9C23 7.34315 21.6569 6 20 6H12.5352L11.1289 3.8906C10.758 3.3342 10.1335 3 9.46482 3H4ZM18.5 16C17.1193 16 16 17.1193 16 18.5C16 18.8224 16.061 19.1306 16.1722 19.4136L19.4136 16.1722C19.1306 16.061 18.8224 16 18.5 16ZM15.2929 21.7071C15.2193 21.6335 15.1596 21.5513 15.1137 21.4637C14.4203 20.6721 14 19.6351 14 18.5C14 16.0147 16.0147 14 18.5 14C19.6351 14 20.6721 14.4203 21.4637 15.1137C21.5513 15.1596 21.6335 15.2193 21.7071 15.2929C21.7807 15.3665 21.8404 15.4487 21.8863 15.5363C22.5797 16.3279 23 17.3649 23 18.5C23 20.9853 20.9853 23 18.5 23C17.3649 23 16.3279 22.5797 15.5363 21.8863C15.4487 21.8404 15.3665 21.7807 15.2929 21.7071ZM21 18.5C21 18.1776 20.939 17.8694 20.8278 17.5864L17.5864 20.8278C17.8694 20.939 18.1776 21 18.5 21C19.8807 21 21 19.8807 21 18.5Z" fill="black"/>
</svg>
