<svg width="24" height="24" viewBox="0 0 24 24" fill="none" xmlns="http://www.w3.org/2000/svg">
<path fill-rule="evenodd" clip-rule="evenodd" d="M1 6C1 4.34315 2.34315 3 4 3H9.46482C10.1335 3 10.758 3.3342 11.1289 3.8906L12.5352 6H20C21.6569 6 23 7.34315 23 9V18C23 19.6569 21.6569 21 20 21H4C2.34315 21 1 19.6569 1 18V6ZM15.2071 16.7071C14.8166 17.0976 14.1834 17.0976 13.7929 16.7071L12 14.9142L10.2071 16.7071C9.81658 17.0976 9.18342 17.0976 8.79289 16.7071C8.40237 16.3166 8.40237 15.6834 8.79289 15.2929L10.5858 13.5L8.79289 11.7071C8.40237 11.3166 8.40237 10.6834 8.79289 10.2929C9.18342 9.90237 9.81658 9.90237 10.2071 10.2929L12 12.0858L13.7929 10.2929C14.1834 9.90237 14.8166 9.90237 15.2071 10.2929C15.5976 10.6834 15.5976 11.3166 15.2071 11.7071L13.4142 13.5L15.2071 15.2929C15.5976 15.6834 15.5976 16.3166 15.2071 16.7071Z" fill="black"/>
</svg>
