<svg width="24" height="24" viewBox="0 0 24 24" fill="none" xmlns="http://www.w3.org/2000/svg">
<path fill-rule="evenodd" clip-rule="evenodd" d="M11.6692 1C10.7026 1 9.87432 1.69125 9.70141 2.64223C9.62491 3.06297 9.3126 3.39735 8.91094 3.54413C8.67112 3.63176 8.43607 3.72931 8.20629 3.83627C7.81818 4.01693 7.36039 4.00137 7.00841 3.75769C6.2137 3.20751 5.13924 3.30439 4.45577 3.98786L3.98788 4.45575C3.30442 5.13922 3.20753 6.21368 3.75772 7.00838C4.00139 7.36036 4.01695 7.81814 3.83629 8.20625C3.72932 8.43604 3.63177 8.6711 3.54413 8.91094C3.39735 9.3126 3.06297 9.62492 2.64223 9.70141C1.69125 9.87432 1 10.7026 1 11.6692V12.3308C1 13.2974 1.69125 14.1257 2.64223 14.2986C3.06297 14.3751 3.39735 14.6874 3.54413 15.0891C3.63177 15.3289 3.72932 15.564 3.83629 15.7937C4.01694 16.1818 4.00138 16.6396 3.75772 16.9916C3.20753 17.7863 3.30442 18.8607 3.98789 19.5442L4.45578 20.0121C5.13925 20.6956 6.2137 20.7924 7.00841 20.2423C7.36037 19.9986 7.81813 19.983 8.20621 20.1637C8.43602 20.2707 8.67109 20.3682 8.91094 20.4559C9.3126 20.6026 9.62492 20.937 9.70141 21.3578C9.87432 22.3088 10.7026 23 11.6692 23H12.3308C13.2974 23 14.1257 22.3088 14.2986 21.3578C14.3751 20.937 14.6874 20.6026 15.0891 20.4559C15.3289 20.3682 15.564 20.2707 15.7938 20.1637C16.1819 19.983 16.6396 19.9986 16.9916 20.2423C17.7863 20.7925 18.8608 20.6956 19.5442 20.0121L20.0121 19.5442C20.6956 18.8607 20.7925 17.7863 20.2423 16.9916C19.9986 16.6396 19.9831 16.1818 20.1637 15.7937C20.2707 15.5639 20.3682 15.3289 20.4559 15.0891C20.6026 14.6874 20.937 14.3751 21.3578 14.2986C22.3088 14.1257 23 13.2974 23 12.3308V11.6692C23 10.7026 22.3088 9.87432 21.3578 9.70141C20.937 9.62491 20.6026 9.3126 20.4559 8.91094C20.3682 8.67111 20.2707 8.43605 20.1637 8.20626C19.9831 7.81815 19.9986 7.36036 20.2423 7.00838C20.7925 6.21367 20.6956 5.13921 20.0121 4.45574L19.5442 3.98785C18.8608 3.30438 17.7863 3.2075 16.9916 3.75768C16.6396 4.00137 16.1818 4.01693 15.7937 3.83626C15.5639 3.7293 15.3289 3.63176 15.0891 3.54413C14.6874 3.39735 14.3751 3.06297 14.2986 2.64223C14.1257 1.69125 13.2974 1 12.3308 1H11.6692ZM12 16C14.2091 16 16 14.2091 16 12C16 9.79086 14.2091 8 12 8C9.79086 8 8 9.79086 8 12C8 14.2091 9.79086 16 12 16Z" fill="black"/>
</svg>
