<svg width="24" height="24" viewBox="0 0 24 24" fill="none" xmlns="http://www.w3.org/2000/svg">
<path fill-rule="evenodd" clip-rule="evenodd" d="M3.05996 4.45651C3.60213 3.5529 4.57865 3 5.63244 3H18.3677C19.4215 3 20.398 3.5529 20.9402 4.45651L22.6385 7.28708L21.8189 7.77881L22.6385 7.28708C23.2863 8.36676 23.191 9.73607 22.3998 10.7156L14.3339 20.702C13.1331 22.1887 10.867 22.1887 9.66623 20.702L1.60027 10.7156C0.80913 9.73607 0.713811 8.36676 1.36162 7.28708L3.05996 4.45651ZM7.70591 4.54421C8.23378 4.38179 8.79336 4.67804 8.95578 5.20591L9.8155 7.99999H14.1845L15.0442 5.20591C15.2066 4.67804 15.7662 4.38179 16.2941 4.54421C16.8219 4.70663 17.1182 5.26621 16.9558 5.79408L16.277 7.99999H20C20.5523 7.99999 21 8.44771 21 8.99999C21 9.55228 20.5523 9.99999 20 9.99999H15.6617L12.9558 18.7941C12.8267 19.2137 12.439 19.5 12 19.5C11.561 19.5 11.1733 19.2137 11.0442 18.7941L8.33835 9.99999H4C3.44772 9.99999 3 9.55228 3 8.99999C3 8.44771 3.44772 7.99999 4 7.99999H7.72296L7.04422 5.79408C6.8818 5.26621 7.17805 4.70663 7.70591 4.54421ZM12 15.0996L10.4309 9.99999H13.5691L12 15.0996Z" fill="black"/>
</svg>
