<svg width="24" height="24" viewBox="0 0 24 24" fill="none" xmlns="http://www.w3.org/2000/svg">
<path fill-rule="evenodd" clip-rule="evenodd" d="M12 2C8.68629 2 6 4.68629 6 8C6 11.3137 8.68629 14 12 14C15.3137 14 18 11.3137 18 8C18 4.68629 15.3137 2 12 2ZM4 8C4 3.58172 7.58172 0 12 0C16.4183 0 20 3.58172 20 8C20 12.0974 16.9196 15.4754 12.9482 15.9444C12.9492 15.9628 12.9497 15.9813 12.9497 16V18.9497H17.0503C17.6026 18.9497 18.0503 19.3974 18.0503 19.9497C18.0503 20.502 17.6026 20.9497 17.0503 20.9497H12.9497V22.8995C12.9497 23.4517 12.502 23.8995 11.9497 23.8995C11.3974 23.8995 10.9497 23.4517 10.9497 22.8995V20.9497H6.84914C6.29686 20.9497 5.84914 20.502 5.84914 19.9497C5.84914 19.3974 6.29686 18.9497 6.84914 18.9497H10.9497V16C10.9497 15.9771 10.9505 15.9544 10.952 15.932C7.02896 15.4187 4 12.0631 4 8Z" fill="black"/>
</svg>
