<svg width="24" height="24" viewBox="0 0 24 24" fill="none" xmlns="http://www.w3.org/2000/svg">
<path fill-rule="evenodd" clip-rule="evenodd" d="M19.25 0.5C19.6166 0.5 19.9295 0.765059 19.9898 1.1267L20.1375 2.013C20.2956 2.96131 21.0387 3.70444 21.987 3.86249L22.8733 4.0102C23.2349 4.07048 23.5 4.38337 23.5 4.75C23.5 5.11663 23.2349 5.42952 22.8733 5.4898L21.987 5.63751C21.0387 5.79556 20.2956 6.53868 20.1375 7.487L19.9898 8.3733C19.9295 8.73494 19.6166 9 19.25 9C18.8834 9 18.5705 8.73494 18.5102 8.3733L18.3625 7.487C18.2044 6.53868 17.4613 5.79556 16.513 5.63751L15.6267 5.4898C15.2651 5.42952 15 5.11663 15 4.75C15 4.38337 15.2651 4.07048 15.6267 4.0102L16.513 3.86249C17.4613 3.70444 18.2044 2.96131 18.3625 2.013L18.5102 1.1267C18.5705 0.765059 18.8834 0.5 19.25 0.5ZM16.4023 7.93633C16.4434 8.79482 16.7839 11 19.2 11C20.8746 11 21.6456 9.90944 22 8.94582V18C22 20.2091 20.2091 22 18 22H6C3.79086 22 2 20.2091 2 18V8C2 5.79086 3.79086 4 6 4H13.0961C13.0343 4.23752 13 4.5031 13 4.80002C13 7.21607 15.2052 7.55663 16.0637 7.59767C16.2431 7.60625 16.3938 7.75691 16.4023 7.93633ZM16 13C16 13.3573 15.8094 13.6874 15.5 13.866L11 16.4641C10.6906 16.6427 10.3094 16.6427 10 16.4641C9.6906 16.2855 9.5 15.9553 9.5 15.5981V10.4019C9.5 10.0447 9.6906 9.71452 10 9.53589C10.3094 9.35726 10.6906 9.35726 11 9.53589L15.5 12.134C15.8094 12.3126 16 12.6427 16 13Z" fill="black"/>
</svg>
