<svg width="24" height="24" viewBox="0 0 24 24" fill="none" xmlns="http://www.w3.org/2000/svg">
<path fill-rule="evenodd" clip-rule="evenodd" d="M7 5C7 3.34315 8.34315 2 10 2C10.7684 2 11.4692 2.28885 12 2.76389C12.5308 2.28885 13.2316 2 14 2C15.6569 2 17 3.34315 17 5C17 5.35064 16.9398 5.68722 16.8293 6H21C22.1046 6 23 6.89543 23 8V10C23 11.1046 22.1046 12 21 12H13V9C13 8.44772 12.5523 8 12 8C11.4477 8 11 8.44772 11 9V12H3C1.89543 12 1 11.1046 1 10V8C1 6.89543 1.89543 6 3 6H7.17071C7.06015 5.68722 7 5.35064 7 5ZM11 14H2V19C2 20.6569 3.34315 22 5 22H11V14ZM13 22H19C20.6569 22 22 20.6569 22 19V14H13V22ZM10 6H11V5C11 4.44772 10.5523 4 10 4C9.44772 4 9 4.44772 9 5C9 5.55228 9.44772 6 10 6ZM13 6H14C14.5523 6 15 5.55228 15 5C15 4.44772 14.5523 4 14 4C13.4477 4 13 4.44772 13 5V6Z" fill="black"/>
</svg>
