<svg width="24" height="24" viewBox="0 0 24 24" fill="none" xmlns="http://www.w3.org/2000/svg">
<path fill-rule="evenodd" clip-rule="evenodd" d="M6.5 2C4.567 2 3 3.567 3 5.5C3 7.08551 4.05426 8.42479 5.5 8.85506V15.1449C4.05426 15.5752 3 16.9145 3 18.5C3 20.433 4.567 22 6.5 22C8.433 22 10 20.433 10 18.5C10 16.9562 9.00046 15.6458 7.61323 15.1808C7.96972 13.9221 9.12717 13 10.5 13H13.5C15.9623 13 18.0088 11.2202 18.4234 8.87691C19.9083 8.47182 21 7.1134 21 5.5C21 3.567 19.433 2 17.5 2C15.567 2 14 3.567 14 5.5C14 7.04382 14.9995 8.35418 16.3868 8.81924C16.0303 10.0779 14.8728 11 13.5 11H10.5C9.37439 11 8.33566 11.3719 7.5 11.9996V8.85506C8.94574 8.42479 10 7.08551 10 5.5C10 3.567 8.433 2 6.5 2Z" fill="black"/>
</svg>
