<svg width="24" height="24" viewBox="0 0 24 24" fill="none" xmlns="http://www.w3.org/2000/svg">
<path fill-rule="evenodd" clip-rule="evenodd" d="M13.9229 3.21811C12.6921 2.70529 11.3075 2.70529 10.0767 3.21811L1.38748 6.83862C-0.0894449 7.45401 -0.0894463 9.54632 1.38748 10.1617L10.0767 13.7822C11.3075 14.295 12.6921 14.295 13.9229 13.7822L21.4998 10.6252V20.0002C21.4998 20.5525 21.9475 21.0002 22.4998 21.0002C23.0521 21.0002 23.4998 20.5525 23.4998 20.0002V8.50018C23.4998 8.40341 23.486 8.30986 23.4604 8.22135C23.3716 7.58687 22.9781 6.99113 22.2798 6.70016L13.9229 3.21811ZM4.49979 13.6252L9.30748 15.6284C11.0306 16.3463 12.969 16.3463 14.6921 15.6284L19.4998 13.6252V16.0002C19.4998 17.4538 18.2652 18.4525 17.015 19.0295C15.6799 19.6457 13.9057 20.0002 11.9998 20.0002C10.0938 20.0002 8.31966 19.6457 6.98453 19.0295C5.73436 18.4525 4.49979 17.4538 4.49979 16.0002V13.6252Z" fill="black"/>
</svg>
