<svg width="24" height="24" viewBox="0 0 24 24" fill="none" xmlns="http://www.w3.org/2000/svg">
<path fill-rule="evenodd" clip-rule="evenodd" d="M4.5 2.5C3.39543 2.5 2.5 3.39543 2.5 4.5V11C2.5 12.1046 3.39543 13 4.5 13H9C10.1046 13 11 12.1046 11 11V4.5C11 3.39543 10.1046 2.5 9 2.5H4.5ZM15 2.5C13.8954 2.5 13 3.39543 13 4.5V7C13 8.10457 13.8954 9 15 9H19.5C20.6046 9 21.5 8.10457 21.5 7V4.5C21.5 3.39543 20.6046 2.5 19.5 2.5H15ZM15 11C13.8954 11 13 11.8954 13 13V19.5C13 20.6046 13.8954 21.5 15 21.5H19.5C20.6046 21.5 21.5 20.6046 21.5 19.5V13C21.5 11.8954 20.6046 11 19.5 11H15ZM4.5 15C3.39543 15 2.5 15.8954 2.5 17V19.5C2.5 20.6046 3.39543 21.5 4.5 21.5H9C10.1046 21.5 11 20.6046 11 19.5V17C11 15.8954 10.1046 15 9 15H4.5Z" fill="black"/>
</svg>
