<svg width="24" height="24" viewBox="0 0 24 24" fill="none" xmlns="http://www.w3.org/2000/svg">
<path fill-rule="evenodd" clip-rule="evenodd" d="M2.5 6.5C2.5 7.05228 2.94772 7.5 3.5 7.5C4.05229 7.5 4.5 7.05228 4.5 6.5C4.5 5.39543 5.39543 4.5 6.5 4.5C7.05228 4.5 7.5 4.05228 7.5 3.5C7.5 2.94772 7.05229 2.5 6.5 2.5C4.29086 2.5 2.5 4.29086 2.5 6.5ZM21.5 17.5C21.5 16.9477 21.0523 16.5 20.5 16.5C19.9477 16.5 19.5 16.9477 19.5 17.5C19.5 18.6046 18.6046 19.5 17.5 19.5C16.9477 19.5 16.5 19.9477 16.5 20.5C16.5 21.0523 16.9477 21.5 17.5 21.5C19.7091 21.5 21.5 19.7091 21.5 17.5ZM9.5 20.5C9.5 19.9477 9.94772 19.5 10.5 19.5H13.5C14.0523 19.5 14.5 19.9477 14.5 20.5C14.5 21.0523 14.0523 21.5 13.5 21.5H10.5C9.94772 21.5 9.5 21.0523 9.5 20.5ZM4.5 10.5C4.5 9.94772 4.05228 9.5 3.5 9.5C2.94772 9.5 2.5 9.94772 2.5 10.5V13.5C2.5 14.0523 2.94772 14.5 3.5 14.5C4.05228 14.5 4.5 14.0523 4.5 13.5L4.5 10.5ZM9.5 3.5C9.5 2.94772 9.94772 2.5 10.5 2.5H13.5C14.0523 2.5 14.5 2.94772 14.5 3.5C14.5 4.05228 14.0523 4.5 13.5 4.5H10.5C9.94772 4.5 9.5 4.05228 9.5 3.5ZM19.5 10.5V13.5C19.5 14.0523 19.9477 14.5 20.5 14.5C21.0523 14.5 21.5 14.0523 21.5 13.5V10.5C21.5 9.94772 21.0523 9.5 20.5 9.5C19.9477 9.5 19.5 9.94772 19.5 10.5ZM3.5 16.5C2.94772 16.5 2.5 16.9477 2.5 17.5C2.5 19.7091 4.29086 21.5 6.5 21.5C7.05228 21.5 7.5 21.0523 7.5 20.5C7.5 19.9477 7.05228 19.5 6.5 19.5C5.39543 19.5 4.5 18.6046 4.5 17.5C4.5 16.9477 4.05228 16.5 3.5 16.5ZM21.5 6.5C21.5 7.05229 21.0523 7.5 20.5 7.5C19.9477 7.5 19.5 7.05228 19.5 6.5C19.5 5.39543 18.6046 4.5 17.5 4.5C16.9477 4.5 16.5 4.05229 16.5 3.5C16.5 2.94772 16.9477 2.5 17.5 2.5C19.7091 2.5 21.5 4.29086 21.5 6.5Z" fill="black"/>
</svg>
