<svg width="24" height="24" viewBox="0 0 24 24" fill="none" xmlns="http://www.w3.org/2000/svg">
<path fill-rule="evenodd" clip-rule="evenodd" d="M2.66136 7.59453C3.25388 4.63193 5.85672 2.5 8.87728 2.5H15.1229C18.1434 2.5 20.7463 4.63193 21.3388 7.59453C21.5359 8.5803 20.782 9.5 19.7767 9.5H4.22347C3.21819 9.5 2.46421 8.5803 2.66136 7.59453ZM20.996 17.4103L21.7929 18.2072C22.1834 18.5977 22.8166 18.5977 23.2071 18.2072C23.5976 17.8167 23.5976 17.1835 23.2071 16.793L22.2873 15.8731C21.3307 14.9165 19.8521 14.7185 18.6775 15.3897L17.6841 15.9574C17.3279 16.1609 16.8836 16.1263 16.5632 15.87L16.3741 15.7187C15.2781 14.8419 13.7206 14.843 12.6253 15.7192C12.2601 16.0114 11.7399 16.0114 11.3747 15.7192C10.2794 14.843 8.72194 14.8419 7.62592 15.7187L7.43675 15.87C7.11643 16.1263 6.67209 16.1609 6.31592 15.9574L5.32246 15.3897C4.14785 14.7185 2.66933 14.9165 1.71272 15.8731L0.792893 16.793C0.402369 17.1835 0.402369 17.8167 0.792893 18.2072C1.18342 18.5977 1.81658 18.5977 2.20711 18.2072L3.00397 17.4103C3.00134 17.4399 3 17.4698 3 17.5V18C3 19.933 4.567 21.5 6.5 21.5H17.5C19.433 21.5 21 19.933 21 18V17.5C21 17.4698 20.9987 17.4399 20.996 17.4103ZM1 12.5C1 11.9477 1.44772 11.5 2 11.5H22C22.5523 11.5 23 11.9477 23 12.5C23 13.0523 22.5523 13.5 22 13.5H2C1.44772 13.5 1 13.0523 1 12.5ZM12 6.5C12.5523 6.5 13 6.05228 13 5.5C13 4.94772 12.5523 4.5 12 4.5C11.4477 4.5 11 4.94772 11 5.5C11 6.05228 11.4477 6.5 12 6.5ZM8 7C8.55229 7 9 6.55228 9 6C9 5.44772 8.55229 5 8 5C7.44772 5 7 5.44772 7 6C7 6.55228 7.44772 7 8 7ZM17 6C17 6.55228 16.5523 7 16 7C15.4477 7 15 6.55228 15 6C15 5.44772 15.4477 5 16 5C16.5523 5 17 5.44772 17 6Z" fill="black"/>
</svg>
