<svg width="24" height="24" viewBox="0 0 24 24" fill="none" xmlns="http://www.w3.org/2000/svg">
<path fill-rule="evenodd" clip-rule="evenodd" d="M17.7238 0.846298C16.7014 0.545015 15.6283 1.1296 15.3271 2.15201L13.2652 9.14889L16.9202 9.92594C16.9642 9.9353 17.008 9.94512 17.0515 9.95539L19.0295 3.24305C19.3308 2.22064 18.7462 1.14758 17.7238 0.846298ZM11.5847 23.5999C8.44547 23.5999 5.67784 21.7773 4.37631 19.0654C4.45986 19.0457 4.54329 19.0226 4.62644 18.996C5.95678 18.5701 6.82367 17.3698 6.88855 16.0524C7.39158 16.1697 7.92841 16.1687 8.458 16.0283C8.51175 16.014 8.56543 15.9983 8.61899 15.9812C9.06711 15.8377 9.46265 15.6064 9.79266 15.3124L11.5266 15.8401C10.9893 16.4566 10.6 17.3159 10.6 18.4999C10.6 18.997 11.0029 19.3999 11.5 19.3999C11.9971 19.3999 12.4 18.997 12.4 18.4999C12.4 17.7258 12.6476 17.2803 12.9133 16.9893C13.2 16.6754 13.547 16.4925 13.8936 16.3098L13.9198 16.296C14.2356 16.1295 14.4231 15.792 14.3977 15.4359C14.3723 15.0797 14.1388 14.7723 13.8025 14.6523L11.557 13.8508C11.4256 13.8039 11.3038 13.7412 11.1932 13.6653C10.7251 13.4176 10.4062 12.9257 10.4062 12.3593C10.4062 11.7947 10.7231 11.3041 11.1887 11.0556C11.5343 10.8168 11.9739 10.7146 12.4189 10.8092L16.5459 11.6866C18.9794 12.204 20.395 14.7519 19.5488 17.0915L19.1028 18.3245C17.9576 21.4906 14.9516 23.5999 11.5847 23.5999ZM2.24397 16.3372C2.40453 16.8388 2.81104 17.1932 3.28767 17.3098C3.44655 17.3487 3.61321 17.3612 3.78116 17.3439C3.88 17.3337 3.97929 17.3132 4.07769 17.2817C4.84488 17.0361 5.26773 16.2151 5.02216 15.4479L4.23717 12.9955C4.04771 12.4037 3.51578 12.0168 2.93029 11.9836C2.75687 11.9738 2.57875 11.995 2.40345 12.0511C1.63626 12.2967 1.21341 13.1177 1.45898 13.8849L2.24397 16.3372ZM12.6865 9.0276C11.7105 8.85204 10.754 9.11557 10.023 9.67871L9.94403 9.43201C9.65629 8.53309 9.01495 7.84578 8.22279 7.47451L7.05218 3.35494C6.76013 2.32718 7.35654 1.25727 8.3843 0.965222C9.41206 0.673176 10.482 1.26959 10.774 2.29735L12.6865 9.0276ZM5.45154 10.8701C5.20596 10.1029 5.62881 9.28186 6.396 9.03628C6.40649 9.03293 6.417 9.02969 6.42751 9.02658C6.51306 9.00127 6.59918 8.98419 6.68499 8.97489C7.26308 8.91227 7.82719 9.20282 8.11189 9.70984C8.15934 9.79434 8.19902 9.88486 8.22972 9.98076L9.01471 12.4331C9.26029 13.2003 8.83744 14.0213 8.07025 14.2669C8.04855 14.2738 8.02682 14.2802 8.00505 14.2861C7.88251 14.3192 7.75906 14.3356 7.63723 14.3366C7.01546 14.3418 6.43606 13.9457 6.23653 13.3224L5.45154 10.8701Z" fill="black"/>
</svg>
