<svg width="24" height="24" viewBox="0 0 24 24" fill="none" xmlns="http://www.w3.org/2000/svg">
<path fill-rule="evenodd" clip-rule="evenodd" d="M13.3259 5.6127C13.2167 5.59048 13.1079 5.57497 13 5.56587V3C13 2.17157 13.6716 1.5 14.5 1.5C15.3284 1.5 16 2.17157 16 3V6.15685L13.3259 5.6127ZM11 3.5V6.19784C10.4083 6.6898 10.0189 7.42583 10.0007 8.26804C9.97808 8.40086 9.86266 8.5 9.72569 8.5H9.03318C8.46257 8.5 8 8.03743 8 7.46682V6.5V3.5C8 2.67157 8.67157 2 9.5 2C10.3284 2 11 2.67157 11 3.5ZM21 3.5V7.59501C20.4538 7.2128 19.823 6.93477 19.1319 6.79415L18 6.56382V3.5C18 2.67157 18.6716 2 19.5 2C20.3284 2 21 2.67157 21 3.5ZM3 12.4925V12.1632C3.45463 12.3792 3.9632 12.5 4.5 12.5C5.90233 12.5 7.11204 11.6753 7.67055 10.4844C8.2029 10.8114 8.82942 11 9.5 11C9.98137 11 10.44 10.9028 10.8575 10.727C11.359 11.3385 12.0526 11.7939 12.8627 11.9964L12.9531 12.019C12.4403 12.7198 12 13.7048 12 15C12 15.5523 12.4477 16 13 16C13.5523 16 14 15.5523 14 15C14 14.0428 14.3752 13.3956 14.7474 12.9769C14.9372 12.7633 15.127 12.6095 15.2655 12.5113C15.3343 12.4626 15.3887 12.4289 15.4218 12.4094C15.4382 12.3997 15.4492 12.3936 15.4538 12.3911L15.4552 12.3904C15.8246 12.2015 16.0394 11.8039 15.994 11.3909C15.9484 10.9749 15.6485 10.6313 15.2425 10.5298L13.3478 10.0562C13.2633 10.035 13.1815 10.0081 13.1027 9.97574L12.5473 9.83568C11.9315 9.68038 11.5581 9.05525 11.7134 8.4394C11.8687 7.82355 12.4938 7.4502 13.1097 7.60549L13.196 7.62727L18.7331 8.75399C20.2498 9.06261 21.2827 10.4744 21.1178 12.0133L20.9637 13.4521C20.6691 16.2015 19.1578 18.5517 17 19.9903V22.5C17 23.0523 16.5523 23.5 16 23.5H8C7.44772 23.5 7 23.0523 7 22.5V19.981C4.58789 18.3648 3 15.6141 3 12.4925ZM4.5 4.5C3.67157 4.5 3 5.17157 3 6V9C3 9.82843 3.67157 10.5 4.5 10.5C5.32843 10.5 6 9.82843 6 9V6C6 5.17157 5.32843 4.5 4.5 4.5Z" fill="black"/>
</svg>
