<svg width="24" height="24" viewBox="0 0 24 24" fill="none" xmlns="http://www.w3.org/2000/svg">
<path fill-rule="evenodd" clip-rule="evenodd" d="M20.2402 14.7619L19.1972 15.2834L14.7069 10.793C14.3374 10.4235 13.7457 10.4008 13.349 10.7409L11.6559 12.1921C11.0331 12.726 10.1042 12.6903 9.52411 12.1102C8.91102 11.4971 8.91102 10.5031 9.52411 9.89003L13.3282 6.08591C13.7033 5.71084 14.212 5.50013 14.7424 5.50013H16.4998C16.7337 5.50013 16.9603 5.41811 17.14 5.26835L18.4753 4.15558C18.9238 3.78182 19.5958 3.87015 19.9325 4.34712L23.4983 9.39872C23.8228 9.85845 23.7042 10.4953 23.236 10.8075L21.9451 11.6681C21.7244 11.8152 21.5712 12.0439 21.5192 12.304L21.307 13.3653C21.1859 13.9704 20.7923 14.4859 20.2402 14.7619ZM13.9475 12.862L18.2104 17.125C18.4383 17.537 18.3415 18.059 17.97 18.3608L14.4772 21.1987C13.024 22.3795 10.946 22.3941 9.47629 21.2338L4.51613 17.3179C3.79343 16.7473 3.2897 15.9449 3.08996 15.0461L2.47598 12.2832C2.42005 12.0315 2.26904 11.8111 2.05449 11.6681L0.830158 10.8519C0.349414 10.5314 0.239527 9.87132 0.5905 9.41235L4.55236 4.23146C4.89305 3.78594 5.53346 3.70768 5.97141 4.05805L6.8751 4.781C7.05241 4.92285 7.27272 5.00013 7.49979 5.00013H8.99979C9.70104 5.00013 10.2899 5.48133 10.4542 6.13154L8.1099 8.47581C6.71576 9.86995 6.71575 12.1303 8.1099 13.5244C9.42894 14.8435 11.5412 14.9246 12.9575 13.7106L13.9475 12.862Z" fill="black"/>
</svg>
