<svg width="24" height="24" viewBox="0 0 24 24" fill="none" xmlns="http://www.w3.org/2000/svg">
<path fill-rule="evenodd" clip-rule="evenodd" d="M11.3947 4.89461C11.17 5.11933 11.0001 5.47725 11.0001 6C11.0001 6.4868 11.0956 6.6952 11.1581 6.79413C11.234 6.91422 11.3364 7.0022 11.6001 7.2C11.6096 7.2071 11.6193 7.21437 11.6293 7.22183C11.8681 7.4005 12.2459 7.68319 12.5331 8.13788C12.7732 8.51802 12.92 8.96265 12.9752 9.49437L22.071 16.641C24.3112 18.4012 23.0665 22 20.2175 22H3.78276C0.933731 22 -0.310959 18.4012 1.92929 16.641L10.9633 9.54289C10.9298 9.36558 10.8799 9.2657 10.8421 9.20587C10.7663 9.08578 10.6639 8.9978 10.4001 8.8C10.3907 8.7929 10.3809 8.78563 10.371 8.77817C10.1322 8.5995 9.75431 8.31681 9.46714 7.86212C9.15462 7.3673 9.00013 6.7632 9.00013 6C9.00013 5.02275 9.33024 4.13067 9.98052 3.48039C10.6308 2.83011 11.5229 2.5 12.5001 2.5C13.8142 2.5 14.6973 3.24392 15.2028 3.87451C15.4581 4.19294 15.6385 4.50629 15.7551 4.73829C15.814 4.85551 15.8584 4.95523 15.8891 5.02887C15.9045 5.06579 15.9166 5.0964 15.9255 5.11968L15.9366 5.14906L15.9404 5.15944L15.9418 5.16352L15.9424 5.16528L15.9427 5.16608C15.9429 5.16646 15.943 5.16683 15.0192 5.49325L15.943 5.16684C16.127 5.68757 15.854 6.25887 15.3333 6.44287C14.8145 6.6262 14.2454 6.35589 14.0593 5.83887C14.059 5.83821 14.0586 5.83705 14.058 5.8354L14.058 5.83523M14.0575 5.83387C14.0577 5.83433 14.0578 5.83478 14.058 5.83523L14.0577 5.83454L14.0575 5.83387ZM14.0593 5.83887C14.0595 5.83941 14.0596 5.83961 14.0595 5.83946L14.0589 5.83766L14.0582 5.83575L14.058 5.8354C14.0557 5.82938 14.0508 5.81703 14.0434 5.79925C14.0285 5.76352 14.0036 5.70699 13.9683 5.63671C13.8964 5.49371 13.7879 5.30706 13.6424 5.12549C13.3462 4.75608 12.9794 4.5 12.5001 4.5C11.9774 4.5 11.6195 4.66989 11.3947 4.89461M12.0001 11.2717L3.16494 18.2137C2.41819 18.8004 2.83308 20 3.78276 20H20.2175C21.1672 20 21.5821 18.8004 20.8353 18.2137L12.0001 11.2717Z" fill="black"/>
</svg>
