<svg width="24" height="24" viewBox="0 0 24 24" fill="none" xmlns="http://www.w3.org/2000/svg">
<path fill-rule="evenodd" clip-rule="evenodd" d="M5.62685 6.68364C4.54626 8.28391 3.98295 10.1692 4.00036 12.0862L2.70711 10.7929C2.31658 10.4024 1.68342 10.4024 1.29289 10.7929C0.902369 11.1834 0.902369 11.8166 1.29289 12.2071L3.58579 14.5C4.36683 15.2811 5.63316 15.2811 6.41421 14.5L8.70711 12.2071C9.09763 11.8166 9.09763 11.1834 8.70711 10.7929C8.31658 10.4024 7.68342 10.4024 7.29289 10.7929L6.00046 12.0853C5.98315 10.566 6.428 9.07107 7.28435 7.80288C8.26936 6.34416 9.73603 5.27834 11.4276 4.79199C13.1193 4.30565 14.928 4.42975 16.5374 5.14259C18.1467 5.85542 19.4541 7.11157 20.2306 8.69115C21.0072 10.2707 21.2034 12.0731 20.785 13.7828C20.3666 15.4925 19.3602 17.0006 17.942 18.0431C16.5238 19.0855 14.7841 19.596 13.0275 19.4851C11.2708 19.3742 9.60913 18.649 8.33327 17.4365C7.93294 17.056 7.29998 17.0721 6.91952 17.4724C6.53905 17.8728 6.55515 18.5057 6.95548 18.8862C8.57157 20.4221 10.6764 21.3407 12.9015 21.4811C15.1265 21.6216 17.3301 20.975 19.1265 19.6545C20.923 18.3341 22.1977 16.4238 22.7277 14.2582C23.2577 12.0926 23.0091 9.8096 22.0255 7.80879C21.0418 5.80798 19.3859 4.21686 17.3474 3.31394C15.3089 2.41102 13.0177 2.25382 10.875 2.86986C8.73231 3.4859 6.87452 4.83593 5.62685 6.68364ZM14.5 8C14.5 7.44772 14.0523 7 13.5 7C12.9477 7 12.5 7.44772 12.5 8V12C12.5 12.5523 12.9477 13 13.5 13H16.5C17.0523 13 17.5 12.5523 17.5 12C17.5 11.4477 17.0523 11 16.5 11H14.5V8Z" fill="black"/>
</svg>
