<svg width="24" height="24" viewBox="0 0 24 24" fill="none" xmlns="http://www.w3.org/2000/svg">
<path fill-rule="evenodd" clip-rule="evenodd" d="M16.3281 2.89532C16.7311 2.68642 16.9429 2.23224 16.8438 1.78922C16.7447 1.3462 16.3596 1.0255 15.906 1.00822C15.7712 1.00308 15.6357 1.00049 15.4997 1.00049C12.7152 1.00049 10.1845 2.08471 8.30594 3.85214C8.36728 3.39679 8.46778 2.94579 8.60743 2.50464C8.74447 2.07172 8.57261 1.6008 8.18893 1.35791C7.80525 1.11503 7.30608 1.16116 6.9734 1.47024C6.87801 1.55887 6.7839 1.64957 6.69113 1.74234L6.91893 1.97014L6.69113 1.74234C4.72516 3.70831 3.70241 6.25977 3.62114 8.83387C3.34684 8.47255 3.10259 8.08728 2.8921 7.68182C2.68289 7.27879 2.22837 7.06732 1.78532 7.16688C1.34227 7.26644 1.02192 7.65202 1.00524 8.10581C1.00046 8.23594 0.998047 8.36662 0.998047 8.49782C0.998047 11.2807 2.08103 13.8102 3.84666 15.6884C3.39355 15.627 2.94478 15.5268 2.50576 15.3878C2.07284 15.2507 1.60192 15.4226 1.35904 15.8063C1.11615 16.19 1.16228 16.6891 1.47136 17.0218C1.55999 17.1172 1.65069 17.2113 1.74345 17.3041L1.97126 17.0763L1.74346 17.3041C3.7117 19.2723 6.26677 20.2952 8.8439 20.3744C8.48062 20.6507 8.09308 20.8967 7.68509 21.1085C7.28206 21.3177 7.07059 21.7723 7.17015 22.2153C7.26971 22.6584 7.65529 22.9787 8.10908 22.9954C8.23921 23.0002 8.36989 23.0026 8.50108 23.0026C11.2752 23.0026 13.7974 21.9264 15.6738 20.1707C15.6119 20.6182 15.5121 21.0613 15.3746 21.4948C15.2373 21.9275 15.4087 22.3984 15.7921 22.6416C16.1754 22.8848 16.6744 22.8393 17.0074 22.5308C17.1064 22.439 17.204 22.3451 17.3002 22.249C19.2647 20.2844 20.2874 17.7352 20.37 15.163C20.6469 15.5272 20.8933 15.9157 21.1053 16.3248C21.3142 16.7279 21.7684 16.9396 22.2114 16.8405C22.6544 16.7414 22.9751 16.3564 22.9924 15.9027C22.9975 15.7679 23.0001 15.6325 23.0001 15.4965C23.0001 12.7208 21.9228 10.1972 20.1653 8.32055C20.6149 8.38236 21.0603 8.4824 21.496 8.62063C21.9287 8.75791 22.3996 8.58649 22.6428 8.20316C22.886 7.81983 22.8404 7.32078 22.5319 6.98778C22.4402 6.8888 22.3462 6.7912 22.2501 6.69504C20.2878 4.73277 17.7422 3.71018 15.173 3.62552C15.5353 3.35068 15.9215 3.10604 16.3281 2.89532ZM12.0022 10.0002C13.1067 10.0002 14.0022 10.8956 14.0022 12.0002C14.0022 13.1048 13.1067 14.0002 12.0022 14.0002C10.8976 14.0002 10.0022 13.1048 10.0022 12.0002C10.0022 10.8956 10.8976 10.0002 12.0022 10.0002Z" fill="black"/>
</svg>
