<svg width="24" height="24" viewBox="0 0 24 24" fill="none" xmlns="http://www.w3.org/2000/svg">
<path fill-rule="evenodd" clip-rule="evenodd" d="M22 12C22 17.5228 17.5228 22 12 22C6.47715 22 2 17.5228 2 12C2 6.47715 6.47715 2 12 2C17.5228 2 22 6.47715 22 12ZM13.5 8.5C13.5 9.32843 12.8284 10 12 10C11.1716 10 10.5 9.32843 10.5 8.5C10.5 7.67157 11.1716 7 12 7C12.8284 7 13.5 7.67157 13.5 8.5ZM13 12.5C13 11.9477 12.5523 11.5 12 11.5C11.4477 11.5 11 11.9477 11 12.5V16C11 16.5523 11.4477 17 12 17C12.5523 17 13 16.5523 13 16V12.5Z" fill="black"/>
</svg>
