<svg width="24" height="24" viewBox="0 0 24 24" fill="none" xmlns="http://www.w3.org/2000/svg">
<path fill-rule="evenodd" clip-rule="evenodd" d="M2 12C2 6.47715 6.47715 2 12 2C17.5228 2 22 6.47715 22 12C22 17.5228 17.5228 22 12 22C10.7282 22 9.50992 21.7621 8.38865 21.3277L6.60123 22.1097C5.6102 22.5433 4.5 21.8172 4.5 20.7355V18.6145C2.94489 16.8524 2 14.5356 2 12ZM17.2593 10.6508C17.6187 10.2315 17.5701 9.60018 17.1508 9.24076C16.7315 8.88134 16.1002 8.9299 15.7408 9.34923L13.4435 12.0293L11.2071 9.79291C11.0102 9.59595 10.74 9.49007 10.4616 9.50075C10.1833 9.51144 9.92204 9.63774 9.74076 9.84923L6.74076 13.3492C6.38134 13.7686 6.4299 14.3999 6.84923 14.7593C7.26855 15.1187 7.89985 15.0701 8.25927 14.6508L10.5565 11.9707L12.7929 14.2071C12.9899 14.4041 13.2601 14.51 13.5384 14.4993C13.8167 14.4886 14.078 14.3623 14.2593 14.1508L17.2593 10.6508Z" fill="black"/>
</svg>
