<svg width="24" height="24" viewBox="0 0 24 24" fill="none" xmlns="http://www.w3.org/2000/svg">
<path fill-rule="evenodd" clip-rule="evenodd" d="M17.7515 12.6335L14.0035 10.4606L15.9233 9.35686L22.2114 12.9873C22.3025 13.6194 22.2763 14.2669 22.1298 14.8967C22.0446 15.2629 21.9203 15.6165 21.7603 15.952C21.6867 16.1733 21.5897 16.3906 21.4685 16.6005C21.1337 17.1804 20.658 17.6282 20.1096 17.9258C19.5506 18.3273 18.9181 18.6125 18.2499 18.7659V13.4987C18.2499 13.142 18.06 12.8124 17.7515 12.6335ZM16.2499 21.3446L16.2499 14.0748L14.3342 12.9642L14.3264 17.2978C14.3258 17.6544 14.1352 17.9837 13.8264 18.162L9.26338 20.7965C9.73981 21.3097 10.3144 21.7197 10.951 22.003C11.4766 22.3186 12.092 22.5 12.7497 22.5C12.9757 22.5 13.1966 22.4786 13.4107 22.4377C13.8866 22.4048 14.3584 22.3061 14.8123 22.142C15.334 21.9535 15.8188 21.6834 16.2499 21.3446ZM6.02914 20.3543L12.3274 16.718L12.3314 14.5056L8.57711 16.6642C8.26795 16.8419 7.88752 16.8416 7.57867 16.6633L3.01182 14.0266C2.80293 14.7027 2.73518 15.4139 2.81201 16.116C2.80565 16.7217 2.95652 17.3369 3.28131 17.8995C3.39001 18.0878 3.51357 18.2621 3.64964 18.4219C3.90226 18.801 4.20531 19.1472 4.55256 19.4503C4.9931 19.8348 5.49283 20.1394 6.02914 20.3543ZM20.9803 9.96714L16.4243 7.33673C16.1155 7.15842 15.735 7.15808 15.4259 7.33583L11.6676 9.49662L11.6716 7.28185L17.9653 3.64822C18.5785 3.8947 19.1428 4.25801 19.6247 4.72232C19.8798 4.96802 20.1075 5.23779 20.3052 5.5268C20.4589 5.70037 20.5976 5.89189 20.718 6.10049C21.0565 6.68676 21.2061 7.33025 21.1857 7.96049C21.2498 8.63836 21.1792 9.32019 20.9803 9.96714ZM8.07971 14.6431L1.77834 11.005C1.69392 10.4129 1.71233 9.80697 1.83648 9.21443C1.92653 8.78458 2.07038 8.37061 2.26284 7.98159C2.33331 7.78319 2.42275 7.58837 2.5318 7.3995C2.85858 6.8335 3.31957 6.3933 3.85137 6.0959C4.41894 5.68202 5.06493 5.3881 5.74961 5.23208V10.5011C5.74961 10.8578 5.93953 11.1874 6.24805 11.3663L9.99791 13.5403L8.07971 14.6431ZM7.74961 2.65481L7.74961 9.92499L9.66485 11.0354L9.67266 6.7021C9.67331 6.34547 9.86382 6.01618 10.1727 5.83787L14.7355 3.20354C14.2612 2.69264 13.6881 2.28233 13.0503 1.99806C12.5243 1.68185 11.9082 1.5 11.2497 1.5C11.0239 1.5 10.8031 1.52138 10.5892 1.56224C10.1783 1.59054 9.76991 1.66797 9.37289 1.7946C8.78118 1.98333 8.23211 2.27581 7.74961 2.65481Z" fill="black"/>
</svg>
