<svg width="24" height="24" viewBox="0 0 24 24" fill="none" xmlns="http://www.w3.org/2000/svg">
<path fill-rule="evenodd" clip-rule="evenodd" d="M8.5 2C6.84315 2 5.5 3.34315 5.5 5C5.5 6.65685 6.84315 8 8.5 8H10.5C11.0523 8 11.5 7.55228 11.5 7V3C11.5 2.44772 11.0523 2 10.5 2H8.5ZM12.5 3C12.5 2.44772 12.9477 2 13.5 2H15.5C17.1569 2 18.5 3.34315 18.5 5C18.5 6.65685 17.1569 8 15.5 8H13.5C12.9477 8 12.5 7.55228 12.5 7V3ZM5.5 12C5.5 10.3431 6.84315 9 8.5 9H10.5C11.0523 9 11.5 9.44772 11.5 10V14C11.5 14.5523 11.0523 15 10.5 15H8.5C6.84315 15 5.5 13.6569 5.5 12ZM12.5 12C12.5 10.3431 13.8431 9 15.5 9C17.1569 9 18.5 10.3431 18.5 12C18.5 13.6569 17.1569 15 15.5 15C13.8431 15 12.5 13.6569 12.5 12ZM5.5 19C5.5 17.3431 6.84315 16 8.5 16H10.5C11.0523 16 11.5 16.4477 11.5 17V19C11.5 20.6569 10.1569 22 8.5 22C6.84315 22 5.5 20.6569 5.5 19Z" fill="black"/>
</svg>
