<svg width="24" height="24" viewBox="0 0 24 24" fill="none" xmlns="http://www.w3.org/2000/svg">
<path fill-rule="evenodd" clip-rule="evenodd" d="M17.4085 4.82268C17.2122 4.62638 16.9431 4.52052 16.6657 4.53042L5.83154 4.91736L6.89816 5.98398L18.1375 5.55169L17.4085 4.82268ZM19.5 7.50077L7.5 7.96231V19.9636L18.5357 19.5695C19.0737 19.5503 19.5 19.1085 19.5 18.5701V7.50077ZM16.5943 2.5317C17.4266 2.50197 18.2338 2.81957 18.8227 3.40847L20.6213 5.2071C21.1839 5.76971 21.5 6.53277 21.5 7.32842V18.5701C21.5 20.1853 20.2212 21.5106 18.6071 21.5682L7.49856 21.965C6.58589 21.9976 5.70806 21.6126 5.11372 20.9193L3.22223 18.7125C2.75618 18.1688 2.5 17.4763 2.5 16.7601V5.92984C2.5 4.31465 3.77877 2.9894 5.39293 2.93175L16.5943 2.5317ZM16.5 9.5C17.0523 9.5 17.5 9.94772 17.5 10.5V16.5C17.5 16.8966 17.2657 17.2557 16.9027 17.4153C16.5397 17.575 16.1166 17.5051 15.8243 17.2372L11.5 13.2732V17C11.5 17.5523 11.0523 18 10.5 18C9.94772 18 9.5 17.5523 9.5 17V11C9.5 10.6034 9.73434 10.2443 10.0973 10.0847C10.4603 9.92497 10.8834 9.99488 11.1757 10.2628L15.5 14.2268V10.5C15.5 9.94772 15.9477 9.5 16.5 9.5Z" fill="black"/>
</svg>
