<svg width="24" height="24" viewBox="0 0 24 24" fill="none" xmlns="http://www.w3.org/2000/svg">
<path fill-rule="evenodd" clip-rule="evenodd" d="M13.8069 4.59026C13.0819 3.07413 10.9235 3.07407 10.1984 4.59016L4.55115 16.3972C3.64128 18.2995 5.028 20.4999 7.13672 20.4999C8.09531 20.4999 8.98721 20.1481 9.61532 19.5003C9.95312 19.1519 10.3227 18.7567 10.6985 18.332C9.83956 17.2384 9.03226 16.0252 8.57276 14.8693C8.03049 13.5052 8.1662 12.0652 8.79081 10.9486C9.41759 9.82808 10.5662 8.99992 12.002 8.99992C13.4378 8.99992 14.5865 9.82805 15.2133 10.9485C15.838 12.0652 15.9737 13.5053 15.4312 14.8694C14.9716 16.0253 14.1643 17.2384 13.3054 18.332C13.6812 18.7567 14.0508 19.1519 14.3887 19.5003C15.0168 20.1481 15.9087 20.4999 16.8673 20.4999C18.9762 20.4999 20.363 18.2994 19.4532 16.3969L13.8069 4.59026ZM12.0019 19.8758C12.3418 20.2533 12.6654 20.5961 12.9528 20.8926C13.9959 21.9683 15.4252 22.4999 16.8673 22.4999C20.4476 22.4999 22.8021 18.764 21.2575 15.5341L15.6112 3.7274C14.1611 0.695126 9.84442 0.695005 8.39413 3.7272L2.74691 15.5342C1.20211 18.764 3.5565 22.4999 7.13672 22.4999C8.57889 22.4999 10.0081 21.9683 11.0512 20.8925C11.3386 20.5961 11.6622 20.2532 12.0019 19.8758ZM12.0019 16.747C12.6635 15.8707 13.2423 14.9614 13.5728 14.1304C13.8926 13.3262 13.7986 12.5162 13.4679 11.925C13.1393 11.3376 12.6069 10.9999 12.002 10.9999C11.3972 10.9999 10.8649 11.3376 10.5363 11.925C10.2056 12.5162 10.1116 13.3262 10.4313 14.1305C10.7616 14.9615 11.3404 15.8707 12.0019 16.747Z" fill="black"/>
</svg>
