<svg width="24" height="24" viewBox="0 0 24 24" fill="none" xmlns="http://www.w3.org/2000/svg">
<path fill-rule="evenodd" clip-rule="evenodd" d="M5.16865 6.06242C4.77812 5.6719 4.14496 5.6719 3.75443 6.06242L0.792893 9.02396C0.402369 9.41449 0.402369 10.0477 0.792893 10.4382L3.75443 13.3997C4.14496 13.7902 4.77812 13.7902 5.16865 13.3997L8.13018 10.4382C8.16722 10.4011 8.20075 10.3619 8.23076 10.3209C8.26078 10.3619 8.29431 10.4011 8.33135 10.4382L11.2929 13.3997C11.3299 13.4367 11.3691 13.4702 11.4101 13.5002C11.3691 13.5302 11.3299 13.5637 11.2929 13.6008L8.33135 16.5623C7.94082 16.9528 7.94082 17.586 8.33135 17.9765L11.2929 20.938C11.6834 21.3286 12.3166 21.3286 12.7071 20.938L15.6686 17.9765C16.0592 17.586 16.0592 16.9528 15.6686 16.5623L12.7071 13.6008C12.6701 13.5637 12.6309 13.5302 12.5899 13.5002C12.6309 13.4702 12.6701 13.4367 12.7071 13.3997L15.6686 10.4382C15.7057 10.4011 15.7392 10.3619 15.7692 10.3209C15.7992 10.3619 15.8328 10.4011 15.8698 10.4382L18.8313 13.3997C19.2219 13.7902 19.855 13.7902 20.2456 13.3997L23.2071 10.4382C23.5976 10.0477 23.5976 9.41449 23.2071 9.02396L20.2456 6.06242C19.855 5.6719 19.2219 5.6719 18.8313 6.06242L15.8698 9.02396C15.8328 9.061 15.7992 9.10023 15.7692 9.14122C15.7392 9.10023 15.7057 9.061 15.6686 9.02396L12.7071 6.06242C12.3166 5.6719 11.6834 5.6719 11.2929 6.06242L8.33135 9.02396C8.29431 9.061 8.26078 9.10023 8.23076 9.14122C8.20075 9.10023 8.16722 9.061 8.13018 9.02396L5.16865 6.06242Z" fill="black"/>
</svg>
