<svg width="24" height="24" viewBox="0 0 24 24" fill="none" xmlns="http://www.w3.org/2000/svg">
<path fill-rule="evenodd" clip-rule="evenodd" d="M6.96771 5.70236C5.78525 7.05617 5.06519 9.15118 5.06519 12.0663C5.06519 14.5689 5.67051 16.6487 6.79386 18.0801C7.89078 19.4778 9.55759 20.3575 11.9391 20.3575C16.3679 20.3575 18.0661 17.902 18.0661 15.9951C18.0661 15.0447 17.7191 14.1696 16.9798 13.5204C16.8711 13.4249 16.7517 13.3324 16.621 13.2442C16.4942 14.0674 16.2583 14.8503 15.8648 15.5196C15.1565 16.7244 13.9772 17.4841 12.327 17.4841C10.8201 17.4841 9.72817 17.0119 9.01434 16.2761C8.32214 15.5626 8.07184 14.6883 8.07184 14.0238C8.07184 13.3883 8.28118 12.4394 9.08179 11.6501C9.89073 10.8525 11.1663 10.3522 13.0311 10.3522C13.6039 10.3522 14.144 10.3899 14.6509 10.4631C14.532 9.85347 14.3092 9.41996 14.0423 9.12329C13.6555 8.69329 13.0594 8.42071 12.1735 8.42071C11.197 8.42071 10.4801 8.95086 10.1854 9.22827C9.7832 9.6068 9.15033 9.58764 8.7718 9.18548C8.39327 8.78331 8.41243 8.15044 8.81459 7.77191C9.29023 7.32422 10.4757 6.42071 12.1735 6.42071C13.4932 6.42071 14.6823 6.84417 15.5292 7.78574C16.2729 8.61242 16.6565 9.73174 16.7305 11.0349C17.3288 11.2949 17.8524 11.6249 18.2995 12.0176C19.517 13.0867 20.0661 14.533 20.0661 15.9951C20.0661 19.2713 17.1876 22.3575 11.9391 22.3575C9.00078 22.3575 6.73061 21.239 5.22052 19.3148C3.73688 17.4243 3.06519 14.8586 3.06519 12.0663C3.06519 8.84704 3.85955 6.22066 5.46138 4.38669C7.08038 2.53307 9.40646 1.62354 12.1735 1.62354C15.0028 1.62354 17.0004 2.5641 18.3722 3.83171C19.7221 5.07901 20.4047 6.58448 20.7357 7.64721C20.9 8.17451 20.6057 8.73511 20.0784 8.89936C19.5511 9.0636 18.9905 8.76928 18.8262 8.24198C18.561 7.39033 18.0264 6.23528 17.0149 5.30064C16.0254 4.38631 14.5174 3.62354 12.1735 3.62354C9.86107 3.62354 8.133 4.36819 6.96771 5.70236ZM14.6992 12.4981C14.211 12.4048 13.6572 12.3522 13.0311 12.3522C11.5156 12.3522 10.8115 12.7532 10.4859 13.0743C10.152 13.4035 10.0718 13.7904 10.0718 14.0238C10.0718 14.2282 10.1593 14.584 10.4498 14.8835C10.7187 15.1606 11.2543 15.4841 12.327 15.4841C13.2562 15.4841 13.7854 15.1102 14.1407 14.506C14.4322 14.0101 14.6192 13.327 14.6992 12.4981Z" fill="black"/>
</svg>
