<svg width="24" height="24" viewBox="0 0 24 24" fill="none" xmlns="http://www.w3.org/2000/svg">
<path fill-rule="evenodd" clip-rule="evenodd" d="M4.63214 5.23866C6.46002 3.24786 9.08428 2 12 2C15.7014 2 18.9331 4.011 20.6622 7.00002H11.9999C9.93623 7.00002 8.1646 8.25019 7.40101 10.0345L4.63214 5.23866ZM3.33874 6.99842C2.48732 8.46965 2 10.1779 2 12C2 16.7766 5.34904 20.7711 9.8271 21.7633L12.5976 16.9647C12.4016 16.988 12.2021 17 11.9999 17C10.1143 17 8.47245 15.9562 7.62068 14.415L3.33874 6.99842ZM11.9998 22C11.9999 22 11.9999 22 12 22C17.5228 22 22 17.5228 22 12C22 10.9548 21.8396 9.94705 21.5422 9.00002H16.0002C16.6279 9.83568 16.9999 10.8744 16.9999 12C16.9999 12.9427 16.739 13.8245 16.2854 14.5771L11.9998 22ZM9.41549 13.5244C9.93759 14.4077 10.8995 15 11.9999 15C13.0908 15 14.0457 14.4178 14.5707 13.547L14.5979 13.5C14.6028 13.4915 14.6079 13.483 14.613 13.4747C14.8593 13.0392 14.9999 12.536 14.9999 12C14.9999 10.3432 13.6567 9.00002 11.9999 9.00002C10.343 9.00002 8.99986 10.3432 8.99986 12C8.99986 12.5252 9.13482 13.0189 9.37194 13.4482L9.40184 13.5C9.40651 13.5081 9.41106 13.5163 9.41549 13.5244Z" fill="black"/>
</svg>
