<svg width="24" height="24" viewBox="0 0 24 24" fill="none" xmlns="http://www.w3.org/2000/svg">
<path fill-rule="evenodd" clip-rule="evenodd" d="M2.5 5.5C2.5 3.84315 3.84315 2.5 5.5 2.5H18.5C20.1569 2.5 21.5 3.84315 21.5 5.5V18.5C21.5 20.1569 20.1569 21.5 18.5 21.5H5.5C3.84315 21.5 2.5 20.1569 2.5 18.5V5.5ZM5.5 4.5C4.94772 4.5 4.5 4.94772 4.5 5.5V18.5C4.5 19.0523 4.94772 19.5 5.5 19.5H18.5C19.0523 19.5 19.5 19.0523 19.5 18.5V5.5C19.5 4.94772 19.0523 4.5 18.5 4.5H5.5ZM9.5 8.5C8.94772 8.5 8.5 8.94772 8.5 9.5V14.5C8.5 15.0523 8.94772 15.5 9.5 15.5H14.5C15.0523 15.5 15.5 15.0523 15.5 14.5V9.5C15.5 8.94772 15.0523 8.5 14.5 8.5H9.5Z" fill="black"/>
</svg>
