<svg width="24" height="24" viewBox="0 0 24 24" fill="none" xmlns="http://www.w3.org/2000/svg">
<path fill-rule="evenodd" clip-rule="evenodd" d="M7 2.5C6.44772 2.5 6 2.94772 6 3.5C6 4.05228 6.44772 4.5 7 4.5H13.75C15.5449 4.5 17 5.95507 17 7.75C17 9.54493 15.5449 11 13.75 11H11C10.613 11 10.2608 11.2233 10.0956 11.5732C9.9305 11.9232 9.98207 12.337 10.2281 12.6357L17.2281 21.1357C17.5792 21.562 18.2094 21.623 18.6357 21.2719C19.062 20.9208 19.123 20.2906 18.7719 19.8643L13.119 13H13.75C16.6495 13 19 10.6495 19 7.75C19 4.85051 16.6495 2.5 13.75 2.5H7ZM8 7.5C8 6.94772 7.55228 6.5 7 6.5C6.44772 6.5 6 6.94772 6 7.5V20.5C6 21.0523 6.44772 21.5 7 21.5C7.55228 21.5 8 21.0523 8 20.5V7.5Z" fill="black"/>
</svg>
