<svg width="24" height="24" viewBox="0 0 24 24" fill="none" xmlns="http://www.w3.org/2000/svg">
<path fill-rule="evenodd" clip-rule="evenodd" d="M2.5 5.5C2.5 3.84315 3.84315 2.5 5.5 2.5H18.5C20.1569 2.5 21.5 3.84315 21.5 5.5V18.5C21.5 20.1569 20.1569 21.5 18.5 21.5H5.5C3.84315 21.5 2.5 20.1569 2.5 18.5V5.5ZM9 8C9 8.55228 8.55228 9 8 9C7.44772 9 7 8.55228 7 8C7 7.44772 7.44772 7 8 7C8.55228 7 9 7.44772 9 8ZM9 11C9 10.4477 8.55229 10 8 10C7.44772 10 7 10.4477 7 11V16C7 16.5523 7.44772 17 8 17C8.55229 17 9 16.5523 9 16V11ZM12.2669 10.3582C12.0834 10.1392 11.808 10 11.5 10C10.9477 10 10.5 10.4477 10.5 11V13.25V16C10.5 16.5523 10.9477 17 11.5 17C12.0523 17 12.5 16.5523 12.5 16V13.25C12.5 13.0858 12.5323 12.9233 12.5951 12.7716C12.658 12.62 12.75 12.4822 12.8661 12.3661C12.9822 12.25 13.12 12.158 13.2716 12.0951C13.4233 12.0323 13.5858 12 13.75 12C13.9142 12 14.0767 12.0323 14.2284 12.0951C14.38 12.158 14.5178 12.25 14.6339 12.3661C14.75 12.4822 14.842 12.62 14.9049 12.7716C14.9677 12.9233 15 13.0858 15 13.25C15 13.2923 15.0026 13.3341 15.0077 13.375C15.0026 13.4159 15 13.4577 15 13.5V16C15 16.5523 15.4477 17 16 17C16.5523 17 17 16.5523 17 16V13.5C17 13.4577 16.9974 13.4159 16.9923 13.375C16.9974 13.3341 17 13.2923 17 13.25C17 12.8232 16.9159 12.4006 16.7526 12.0063C16.5893 11.612 16.3499 11.2537 16.0481 10.9519C15.7463 10.6501 15.388 10.4107 14.9937 10.2474C14.5994 10.0841 14.1768 10 13.75 10C13.3232 10 12.9006 10.0841 12.5063 10.2474C12.4249 10.2811 12.345 10.3181 12.2669 10.3582Z" fill="black"/>
</svg>
