<svg width="24" height="24" viewBox="0 0 24 24" fill="none" xmlns="http://www.w3.org/2000/svg">
<path fill-rule="evenodd" clip-rule="evenodd" d="M7.71339 5.2454C9.28521 4.24788 11.1557 3.82978 13.0027 4.0631C14.8496 4.29643 16.5574 5.16657 17.8317 6.52364C18.2098 6.92624 18.8427 6.94613 19.2453 6.56806C19.6479 6.19 19.6678 5.55715 19.2897 5.15455C17.6967 3.45821 15.562 2.37053 13.2533 2.07887C10.9446 1.78722 8.60652 2.30985 6.64173 3.55674C4.67695 4.80363 3.20853 6.6967 2.48944 8.90985C1.77034 11.123 1.8456 13.5176 2.70224 15.6813C3.55888 17.8449 5.14326 19.642 7.18246 20.7631C9.22166 21.8841 11.588 22.2589 13.8738 21.8229C16.1596 21.3868 18.2218 20.1673 19.7051 18.3743C21.1884 16.5812 22 14.3271 22 12C22 11.4477 21.5523 11 21 11M20.9952 11H12.5C11.9477 11 11.5 11.4477 11.5 12C11.5 12.5523 11.9477 13 12.5 13H19.9373C19.7483 14.5003 19.1367 15.9238 18.1641 17.0994C16.9775 18.5338 15.3277 19.5095 13.4991 19.8583C11.6704 20.2072 9.77733 19.9073 8.14597 19.0105C6.51461 18.1136 5.2471 16.6759 4.56179 14.945C3.87648 13.2141 3.81627 11.2984 4.39155 9.52788C4.96682 7.75737 6.14156 6.24291 7.71339 5.2454" fill="black"/>
</svg>
