<svg width="24" height="24" viewBox="0 0 24 24" fill="none" xmlns="http://www.w3.org/2000/svg">
<path fill-rule="evenodd" clip-rule="evenodd" d="M16.9472 1.60561C16.556 1.41 16.0831 1.49133 15.7797 1.80639L7.35185 10.5584L4.22032 7.30639C3.83723 6.90857 3.20418 6.89662 2.80636 7.27971C2.40854 7.6628 2.39659 8.29585 2.77968 8.69367L5.96358 12L2.77968 15.3064C2.39659 15.7042 2.40854 16.3373 2.80636 16.7204C3.20418 17.1034 3.83723 17.0915 4.22032 16.6937L7.35185 13.4417L15.7797 22.1937C16.0831 22.5087 16.556 22.5901 16.9472 22.3945L20.3944 20.6709C21.072 20.3321 21.5 19.6395 21.5 18.882V5.11807C21.5 4.36052 21.072 3.668 20.3944 3.32921L16.9472 1.60561ZM15.5 19.0199L8.74012 12L15.5 4.98016V19.0199Z" fill="black"/>
</svg>
