<svg width="24" height="24" viewBox="0 0 24 24" fill="none" xmlns="http://www.w3.org/2000/svg">
<path fill-rule="evenodd" clip-rule="evenodd" d="M19.7411 3.57409C20.7365 3.01767 22 3.7258 22 4.89493V17.1054C22 18.2745 20.7365 18.9826 19.7411 18.4262C18.8308 17.9174 17.183 17.0528 15.2879 16.3177C13.5509 15.644 11.6758 15.1069 9.9999 15.0143C9.99996 15.0096 10 15.0049 10 15.0002V6.98599C11.6758 6.89335 13.5509 6.35631 15.2879 5.68258C17.183 4.94751 18.8308 4.08286 19.7411 3.57409ZM8 7.00015H6C3.79086 7.00015 2 8.79101 2 11.0002C2 13.2093 3.79086 15.0002 6 15.0002H6.04466C6.08133 15.2793 6.13567 15.5875 6.21467 15.9193C6.56602 17.395 7.40029 19.3147 9.29287 21.2073C9.68339 21.5978 10.3166 21.5978 10.7071 21.2073C11.0976 20.8167 11.0976 20.1836 10.7071 19.7931C9.09966 18.1856 8.43393 16.6053 8.16028 15.456C8.12213 15.2958 8.0915 15.1435 8.06701 15.0002H8.07017C8.02489 14.8358 8 14.6652 8 14.5002V7.00015Z" fill="black"/>
</svg>
