<svg width="24" height="24" viewBox="0 0 24 24" fill="none" xmlns="http://www.w3.org/2000/svg">
<path fill-rule="evenodd" clip-rule="evenodd" d="M11.0001 1.54494C8.77022 1.74586 6.73252 2.61212 5.08675 3.94367L7.04031 7.91592C7.28404 8.41151 7.07987 9.01085 6.58428 9.25459C6.08869 9.49832 5.48934 9.29415 5.24561 8.79856L3.58308 5.41809C2.36893 6.85983 1.51835 8.61794 1.17249 10.5511C0.895491 12.0993 1.63322 13.5152 2.65536 14.4351L7.16137 18.4905L6.15635 19.2945C4.8277 20.3574 5.57931 22.5001 7.28081 22.5001H16.7196C18.4211 22.5001 19.1727 20.3574 17.844 19.2945L16.839 18.4905L21.345 14.4351C22.3671 13.5152 23.1049 12.0993 22.8279 10.5511C22.482 8.61789 21.6314 6.85973 20.4172 5.41797L18.7546 8.79856C18.5109 9.29415 17.9115 9.49832 17.4159 9.25459C16.9203 9.01085 16.7162 8.41151 16.9599 7.91592L18.9135 3.94358C17.2677 2.61205 15.23 1.74581 13.0001 1.54492V7.5001C13.0001 8.05238 12.5524 8.5001 12.0001 8.5001C11.4478 8.5001 11.0001 8.05238 11.0001 7.5001V1.54494Z" fill="black"/>
</svg>
