<svg width="24" height="24" viewBox="0 0 24 24" fill="none" xmlns="http://www.w3.org/2000/svg">
<path fill-rule="evenodd" clip-rule="evenodd" d="M9.57367 4.01891C9.72305 3.64718 9.63617 3.22219 9.35289 2.93892C9.06962 2.65564 8.64462 2.56877 8.2729 2.71815C4.5977 4.19512 2 7.79309 2 12.0002C2 17.5231 6.47715 22.0002 12 22.0002C16.2071 22.0002 19.8051 19.4025 21.2821 15.7272C21.4315 15.3555 21.3446 14.9305 21.0613 14.6472C20.778 14.3639 20.353 14.2771 19.9813 14.4265C19.0613 14.7962 18.0557 15.0002 17 15.0002C12.5817 15.0002 9 11.4184 9 7.00016C9 5.94449 9.20395 4.93892 9.57367 4.01891Z" fill="black"/>
</svg>
