<svg width="24" height="24" viewBox="0 0 24 24" fill="none" xmlns="http://www.w3.org/2000/svg">
<path fill-rule="evenodd" clip-rule="evenodd" d="M2 6C2 4.34315 3.34315 3 5 3H19C20.6569 3 22 4.34315 22 6V11H16C14.3431 11 13 12.3431 13 14V21H5C3.34315 21 2 19.6569 2 18V6ZM15 20.3757L21.4538 13H16C15.4477 13 15 13.4477 15 14V20.3757ZM18 9C18.5523 9 19 8.55228 19 8C19 7.44772 18.5523 7 18 7H6C5.44771 7 5 7.44772 5 8C5 8.55228 5.44771 9 6 9H18ZM10.5 12C10.5 12.5523 10.0523 13 9.5 13H6C5.44772 13 5 12.5523 5 12C5 11.4477 5.44772 11 6 11H9.5C10.0523 11 10.5 11.4477 10.5 12Z" fill="black"/>
</svg>
