<svg width="24" height="24" viewBox="0 0 24 24" fill="none" xmlns="http://www.w3.org/2000/svg">
<path fill-rule="evenodd" clip-rule="evenodd" d="M8.4142 2.33789C8.14899 2.33789 7.89463 2.44325 7.7071 2.63078L2.63298 7.7049C2.44544 7.89244 2.34009 8.14679 2.34009 8.41201V15.5879C2.34009 15.8531 2.44544 16.1075 2.63298 16.295L7.7071 21.3691C7.89463 21.5567 8.14899 21.662 8.4142 21.662H15.5901C15.8553 21.662 16.1097 21.5566 16.2972 21.3691L21.3713 16.295C21.5588 16.1075 21.6642 15.8531 21.6642 15.5879V8.41201C21.6642 8.14679 21.5588 7.89244 21.3713 7.7049L16.2972 2.63078C16.1097 2.44325 15.8553 2.33789 15.5901 2.33789H8.4142Z" fill="black"/>
</svg>
