<svg width="24" height="24" viewBox="0 0 24 24" fill="none" xmlns="http://www.w3.org/2000/svg">
<path fill-rule="evenodd" clip-rule="evenodd" d="M17 5C17.8284 5 18.5 4.32843 18.5 3.5C18.5 2.67157 17.8284 2 17 2C16.1716 2 15.5 2.67157 15.5 3.5C15.5 4.32843 16.1716 5 17 5ZM5.7464 2.84094C6.42969 2.60787 7.15902 2.54261 7.87283 2.65068C8.58665 2.75876 9.26398 3.03699 9.84765 3.46188C10.4313 3.88678 10.9042 4.44587 11.2263 5.09196C11.5485 5.73804 11.7105 6.45216 11.6986 7.174C11.6867 7.89585 11.5013 8.60425 11.1581 9.23939C11.0279 9.48039 10.8763 9.70815 10.7058 9.92019C10.8276 9.96834 10.9481 10.0206 11.067 10.0769C11.5988 10.3286 12.0874 10.6556 12.5192 11.0452L12.5335 11.0533C12.5534 11.0644 12.586 11.0822 12.6292 11.1045C12.7164 11.1493 12.8436 11.2104 12.9964 11.2715C13.3171 11.3998 13.6815 11.5 14 11.5C14.4952 11.5 14.8106 11.3517 15.3028 11.1056L15.3302 11.0919C15.8352 10.8392 16.5131 10.5 17.5 10.5C18.8879 10.5 19.9284 11.2148 20.5821 12.1953C21.2159 13.1461 21.5 14.3517 21.5 15.5C21.5 16.3362 21.2739 17.0465 21.0577 17.5377C20.9485 17.7858 20.8384 17.9857 20.7529 18.1274C20.71 18.1985 20.6729 18.2556 20.6446 18.2976C20.6305 18.3185 20.6185 18.3358 20.6091 18.3491L20.5968 18.3662L20.5922 18.3725L20.5903 18.3751L20.5895 18.3763C20.5893 18.3766 20.5887 18.3774 19.7849 17.7825L20.5887 18.3774C20.2601 18.8213 19.6339 18.9148 19.19 18.5863C18.748 18.2592 18.6533 17.6369 18.9768 17.1934L18.9865 17.1792C18.9974 17.1632 19.0161 17.1345 19.0403 17.0945C19.0889 17.0139 19.1576 16.8899 19.2272 16.7319C19.3685 16.4109 19.5 15.98 19.5 15.5C19.5 14.6483 19.2841 13.8539 18.918 13.3047C18.5716 12.7852 18.1121 12.5 17.5 12.5C17.0048 12.5 16.6894 12.6483 16.1972 12.8944L16.1698 12.9081C15.6918 13.1473 15.0589 13.4639 14.1558 13.4971C14.4438 14.3103 14.5545 15.1802 14.475 16.0476C14.3628 17.2721 13.877 18.4325 13.0835 19.3719C12.29 20.3112 11.2271 20.9841 10.0386 21.2994C8.85007 21.6147 7.59337 21.5572 6.43859 21.1348C5.28381 20.7123 4.28671 19.9452 3.58225 18.9374C2.8778 17.9296 2.5 16.7296 2.5 15.5C2.5 14.9477 2.94772 14.5 3.5 14.5C4.05228 14.5 4.5 14.9477 4.5 15.5C4.5 16.3198 4.75186 17.1197 5.2215 17.7916C5.69114 18.4635 6.35588 18.9749 7.12573 19.2565C7.89558 19.5382 8.73338 19.5765 9.52573 19.3663C10.3181 19.156 11.0267 18.7075 11.5557 18.0812C12.0847 17.455 12.4085 16.6814 12.4833 15.865C12.5581 15.0487 12.3803 14.2291 11.9739 13.5171C11.5676 12.8052 10.9523 12.2353 10.2113 11.8846C9.47041 11.5339 8.6396 11.4193 7.83138 11.5563C7.79951 11.5617 7.76773 11.5655 7.73613 11.5678L7.7261 11.569C7.17762 11.6337 6.68056 11.2415 6.61589 10.693C6.55122 10.1445 6.94344 9.64745 7.49192 9.58278C7.89024 9.53582 8.27142 9.39371 8.60327 9.16845C8.93512 8.94319 9.2079 8.64139 9.39859 8.28854C9.58927 7.93568 9.69226 7.54213 9.69886 7.1411C9.70545 6.74008 9.61547 6.34335 9.4365 5.98441C9.25752 5.62548 8.99482 5.31487 8.67056 5.07881C8.3463 4.84276 7.97 4.68819 7.57344 4.62815C7.17688 4.56811 6.77169 4.60436 6.39208 4.73385C6.01248 4.86333 5.6696 5.08225 5.3924 5.37212C5.01069 5.77127 4.37768 5.7854 3.97854 5.4037C3.57939 5.02199 3.56525 4.38898 3.94696 3.98984C4.44593 3.46807 5.06311 3.07402 5.7464 2.84094ZM21.3796 6.327C21.7137 5.88722 21.628 5.25988 21.1882 4.9258C20.7484 4.59172 20.1211 4.67741 19.787 5.1172C19.4848 5.51506 19.1009 5.8436 18.6611 6.08073C18.2213 6.31786 17.7358 6.45808 17.2374 6.49197C16.7389 6.52586 16.2389 6.45262 15.7711 6.27719C15.3032 6.10176 14.8784 5.8282 14.5251 5.4749C14.1346 5.08438 13.5014 5.08438 13.1109 5.4749C12.7204 5.86543 12.7204 6.49859 13.1109 6.88912C13.6661 7.4443 14.3337 7.87418 15.0688 8.14986C15.804 8.42553 16.5897 8.54062 17.373 8.48736C18.1563 8.43411 18.9192 8.21376 19.6103 7.84113C20.3014 7.46849 20.9047 6.95222 21.3796 6.327Z" fill="black"/>
</svg>
