<svg width="24" height="24" viewBox="0 0 24 24" fill="none" xmlns="http://www.w3.org/2000/svg">
<path fill-rule="evenodd" clip-rule="evenodd" d="M17.8289 6.77169C17.817 3.56198 15.2054 0.969612 11.9957 0.981486C8.78599 0.993359 6.19362 3.60497 6.2055 6.81469C6.21439 9.21973 7.68292 11.2782 9.76898 12.1541C7.83999 12.4364 6.35208 13.0883 5.2156 13.9576C3.68024 15.1321 2.87554 16.6351 2.45756 17.9317C2.0957 19.0541 2.41359 20.1154 3.10173 20.861C3.7697 21.5848 4.76569 22 5.8116 21.9999L13.022 21.9999C12.3752 20.9896 12.0002 19.7886 12.0002 18.4999C12.0002 15.8228 13.6187 13.5236 15.9306 12.5276C15.4136 12.3716 14.8565 12.2468 14.2566 12.1578C16.362 11.278 17.8379 9.19535 17.8289 6.77169ZM18.5002 15.9999C17.1195 15.9999 16.0002 17.1192 16.0002 18.4999C16.0002 18.8224 16.0612 19.1305 16.1724 19.4135L19.4138 16.1721C19.1308 16.061 18.8226 15.9999 18.5002 15.9999ZM18.5002 20.9999C18.1778 20.9999 17.8696 20.9389 17.5866 20.8277L20.828 17.5863C20.9391 17.8693 21.0002 18.1775 21.0002 18.4999C21.0002 19.8807 19.8809 20.9999 18.5002 20.9999ZM14.0002 18.4999C14.0002 16.0147 16.0149 13.9999 18.5002 13.9999C20.9855 13.9999 23.0002 16.0147 23.0002 18.4999C23.0002 20.9852 20.9855 22.9999 18.5002 22.9999C16.0149 22.9999 14.0002 20.9852 14.0002 18.4999Z" fill="black"/>
</svg>
