<svg width="24" height="24" viewBox="0 0 24 24" fill="none" xmlns="http://www.w3.org/2000/svg">
<path fill-rule="evenodd" clip-rule="evenodd" d="M17.8289 6.77169C17.817 3.56198 15.2054 0.969612 11.9957 0.981486C8.78599 0.993359 6.19362 3.60497 6.2055 6.81469C6.21439 9.21973 7.68292 11.2782 9.76898 12.1541C7.83999 12.4364 6.35208 13.0883 5.2156 13.9576C3.68024 15.1321 2.87554 16.6351 2.45756 17.9317C2.0957 19.0541 2.41359 20.1154 3.10173 20.861C3.7697 21.5848 4.76569 22 5.81159 21.9999L13.5419 21.9999C13.3864 21.0754 13.6654 20.092 14.3789 19.3786L14.7575 18.9999L14.3789 18.6213C13.2073 17.4497 13.2073 15.5502 14.3789 14.3786C15.5504 13.207 17.4499 13.207 18.6215 14.3786L19.0002 14.7573L19.3364 14.4211C19.1639 14.262 18.9803 14.1072 18.7848 13.9576C17.6533 13.0921 16.1734 12.4421 14.2566 12.1578C16.362 11.278 17.8379 9.19535 17.8289 6.77169ZM22.2073 22.207C21.8168 22.5976 21.1836 22.5976 20.7931 22.207L19.0002 20.4142L17.2073 22.207C16.8168 22.5976 16.1836 22.5976 15.7931 22.207C15.4026 21.8165 15.4026 21.1834 15.7931 20.7928L17.586 18.9999L15.7931 17.207C15.4026 16.8165 15.4026 16.1834 15.7931 15.7928C16.1836 15.4023 16.8168 15.4023 17.2073 15.7928L19.0002 17.5857L20.7931 15.7928C21.1836 15.4023 21.8168 15.4023 22.2073 15.7928C22.5978 16.1834 22.5978 16.8165 22.2073 17.207L20.4144 18.9999L22.2073 20.7928C22.5978 21.1834 22.5978 21.8165 22.2073 22.207Z" fill="black"/>
</svg>
