<svg width="24" height="24" viewBox="0 0 24 24" fill="none" xmlns="http://www.w3.org/2000/svg">
<path fill-rule="evenodd" clip-rule="evenodd" d="M17.8287 6.77169C17.8168 3.56198 15.2052 0.969612 11.9955 0.981486C8.78574 0.993359 6.19338 3.60497 6.20525 6.81469C6.21415 9.21973 7.68267 11.2782 9.76874 12.1541C7.83975 12.4364 6.35183 13.0883 5.21536 13.9576C3.68 15.1321 2.87529 16.6351 2.45731 17.9317C2.09546 19.0541 2.41334 20.1154 3.10148 20.861C3.76945 21.5848 4.76544 22 5.81135 21.9999L18.1885 21.9999L18.194 21.9999H16C14.3431 21.9999 13 20.6568 13 18.9999C13 17.3431 14.3431 15.9999 16 15.9999H20.6473C20.1943 15.2802 19.59 14.5737 18.7845 13.9576C17.653 13.0921 16.1731 12.4421 14.2564 12.1578C16.3617 11.278 17.8376 9.19535 17.8287 6.77169ZM16 17.9999C15.4477 17.9999 15 18.4477 15 18.9999C15 19.5522 15.4477 19.9999 16 19.9999H22C22.5523 19.9999 23 19.5522 23 18.9999C23 18.4477 22.5523 17.9999 22 17.9999H16Z" fill="black"/>
</svg>
