<svg width="24" height="24" viewBox="0 0 24 24" fill="none" xmlns="http://www.w3.org/2000/svg">
<path fill-rule="evenodd" clip-rule="evenodd" d="M17.8287 6.77169C17.8168 3.56198 15.2052 0.969612 11.9955 0.981486C8.78574 0.993359 6.19338 3.60497 6.20525 6.81469C6.21415 9.21973 7.68267 11.2782 9.76874 12.1541C7.83975 12.4364 6.35183 13.0883 5.21536 13.9576C3.68 15.1321 2.87529 16.6351 2.45731 17.9317C2.09546 19.0541 2.41334 20.1154 3.10148 20.861C3.76945 21.5848 4.76544 22 5.81135 21.9999L15.4999 21.9999C15.4999 21.4533 15.6461 20.9408 15.9016 20.4994C15.5924 19.9635 15.4483 19.333 15.5153 18.6918C15.2138 18.587 14.924 18.432 14.6581 18.2251C13.3503 17.2079 13.1147 15.3231 14.1319 14.0153L15.6207 15.1733C15.1392 14.7986 14.1324 14.0146 14.1336 14.013L14.1354 14.0107L14.139 14.0061L14.1465 13.9966L14.1626 13.9765C14.1737 13.9626 14.1858 13.9477 14.1989 13.932C14.225 13.9005 14.255 13.8654 14.289 13.8272C14.3567 13.7509 14.4411 13.6614 14.5425 13.5636C14.744 13.3693 15.0213 13.1341 15.3777 12.905C15.567 12.7833 15.7788 12.6634 16.0124 12.5527C15.4724 12.3849 14.8881 12.2515 14.2564 12.1578C16.3617 11.278 17.8376 9.19535 17.8287 6.77169ZM21.1519 20.5483L21.1372 20.5688L21.132 20.5593L21.1519 20.5483ZM16.4592 14.5873C16.9229 14.2892 17.6078 13.9999 18.4999 13.9999C19.3887 13.9999 20.1494 14.2906 20.6941 14.8158C21.2317 15.3342 21.4999 16.0267 21.4999 16.7142C21.4999 17.2914 21.3223 17.7733 20.9996 18.157C20.708 18.5037 20.3425 18.7119 20.1038 18.8421C19.4952 19.1741 19.4843 19.1963 19.4599 19.2799C19.3053 19.8101 18.7501 20.1146 18.2199 19.9599C17.6897 19.8053 17.3853 19.2501 17.5399 18.7199C17.8184 17.7651 18.6496 17.3408 19.0364 17.1434C19.0787 17.1218 19.1157 17.1029 19.1461 17.0863C19.3657 16.9665 19.4377 16.9069 19.4691 16.8696C19.4707 16.8685 19.4999 16.848 19.4999 16.7142C19.4999 16.5446 19.4348 16.3799 19.3058 16.2555C19.1838 16.1378 18.9445 15.9999 18.4999 15.9999C18.0587 15.9999 17.7436 16.1392 17.5407 16.2697C17.4373 16.3362 17.363 16.4006 17.3191 16.443C17.2973 16.464 17.2838 16.4788 17.2786 16.4846L17.2779 16.4854C16.9363 16.9087 16.3171 16.9817 15.886 16.6464C15.4501 16.3074 15.3715 15.6791 15.7106 15.2431C16.4687 15.8328 16.3546 15.7438 16.1212 15.5617C15.9489 15.4273 15.7114 15.242 15.7118 15.2416L15.7131 15.24L15.7158 15.2365L15.7221 15.2286L15.7381 15.209C15.7503 15.1943 15.7655 15.1764 15.7838 15.1559C15.8203 15.1148 15.8692 15.0627 15.9308 15.0033C16.0535 14.885 16.2293 14.7351 16.4592 14.5873ZM19.4999 21.9999C19.4999 22.5522 19.0522 22.9999 18.4999 22.9999C17.9477 22.9999 17.4999 22.5522 17.4999 21.9999C17.4999 21.4477 17.9477 20.9999 18.4999 20.9999C19.0522 20.9999 19.4999 21.4477 19.4999 21.9999Z" fill="black"/>
</svg>
