<svg width="24" height="24" viewBox="0 0 24 24" fill="none" xmlns="http://www.w3.org/2000/svg">
<path fill-rule="evenodd" clip-rule="evenodd" d="M16.6487 7.19511C19.2556 9.77298 21.1038 13.0178 21.9912 16.575C22.1249 17.1109 21.7989 17.6537 21.263 17.7874C20.7272 17.9211 20.1844 17.595 20.0507 17.0592C19.9436 16.6297 19.8209 16.2053 19.6831 15.7868C19.6908 15.8278 19.6973 15.8688 19.7027 15.9097C18.8057 13.1204 17.2355 10.5772 15.1119 8.51485C13.1171 6.57764 10.7125 5.14087 8.0955 4.2982C8.13187 4.30312 8.16832 4.30894 8.20485 4.31566C7.72614 4.15837 7.23987 4.02087 6.74721 3.9038C6.20988 3.77613 5.8778 3.23704 6.00547 2.69971C6.13315 2.16239 6.67224 1.8303 7.20956 1.95798C10.7765 2.80554 14.0418 4.61724 16.6487 7.19511ZM5.60633 5.72115C8.65608 6.30838 11.4781 7.77385 13.7185 9.94961C16.0715 12.2347 17.6601 15.184 18.2779 18.3933C18.1486 18.4517 18.0133 18.4995 17.8733 18.5353L5.28555 21.7554C3.44546 22.2261 1.77324 20.5539 2.24396 18.7138L5.46388 6.12687C5.49981 5.98641 5.54772 5.85078 5.60633 5.72115ZM10.002 13.0003C10.002 14.1049 9.10653 15.0003 8.00196 15.0003C6.89739 15.0003 6.00196 14.1049 6.00196 13.0003C6.00196 11.8958 6.89739 11.0003 8.00196 11.0003C9.10653 11.0003 10.002 11.8958 10.002 13.0003ZM15.002 15.5003C15.002 16.3288 14.3304 17.0003 13.502 17.0003C12.6735 17.0003 12.002 16.3288 12.002 15.5003C12.002 14.6719 12.6735 14.0003 13.502 14.0003C14.3304 14.0003 15.002 14.6719 15.002 15.5003Z" fill="black"/>
</svg>
