<svg width="24" height="24" viewBox="0 0 24 24" fill="none" xmlns="http://www.w3.org/2000/svg">
<path fill-rule="evenodd" clip-rule="evenodd" d="M7.5 2C3.35786 2 0 5.35786 0 9.5C0 11.3604 0.678419 13.0638 1.79959 14.3741C1.59734 14.7893 1.25481 15.1255 0.8329 15.3191C0.477705 15.4822 0.250029 15.8372 0.250029 16.228C0.250029 16.6188 0.477705 16.9738 0.8329 17.1368C1.34164 17.3703 1.90706 17.5 2.50003 17.5C3.46583 17.5 4.35205 17.157 5.04268 16.5879C5.81346 16.8551 6.64063 17 7.5 17C11.6421 17 15 13.6421 15 9.5C15 5.35786 11.6421 2 7.5 2ZM6.20711 6.79289C5.81658 6.40237 5.18342 6.40237 4.79289 6.79289C4.40237 7.18342 4.40237 7.81658 4.79289 8.20711L6.08579 9.5L4.79289 10.7929C4.40237 11.1834 4.40237 11.8166 4.79289 12.2071C5.18342 12.5976 5.81658 12.5976 6.20711 12.2071L7.5 10.9142L8.79289 12.2071C9.18342 12.5976 9.81658 12.5976 10.2071 12.2071C10.5976 11.8166 10.5976 11.1834 10.2071 10.7929L8.91421 9.5L10.2071 8.20711C10.5976 7.81658 10.5976 7.18342 10.2071 6.79289C9.81658 6.40237 9.18342 6.40237 8.79289 6.79289L7.5 8.08579L6.20711 6.79289ZM16.5 22C13.8729 22 11.5612 20.6493 10.2217 18.6044C11.8866 18.1074 13.3599 17.1662 14.504 15.9183L15.7929 17.2071C16.1834 17.5976 16.8165 17.5976 17.2071 17.2071L20.2071 14.2071C20.5976 13.8166 20.5976 13.1834 20.2071 12.7929C19.8165 12.4024 19.1834 12.4024 18.7929 12.7929L16.5 15.0858L15.7071 14.2929L15.7052 14.291C16.5282 12.8845 17 11.2473 17 9.50001C17 8.63546 16.8845 7.79788 16.6681 7.00186C20.7326 7.09126 24 10.4141 24 14.5C24 16.3604 23.3215 18.0638 22.2004 19.3741C22.4026 19.7893 22.7452 20.1255 23.1671 20.3191C23.5223 20.4822 23.7499 20.8372 23.7499 21.228C23.7499 21.6188 23.5223 21.9738 23.1671 22.1368C22.6583 22.3703 22.0929 22.5 21.4999 22.5C20.5341 22.5 19.6479 22.157 18.9573 21.5879C18.1865 21.8551 17.3593 22 16.5 22Z" fill="black"/>
</svg>
