<svg width="24" height="24" viewBox="0 0 24 24" fill="none" xmlns="http://www.w3.org/2000/svg">
<path fill-rule="evenodd" clip-rule="evenodd" d="M12 1.75C9.79086 1.75 8 3.54086 8 5.75C8 7.22661 8.80011 8.51635 9.99044 9.20932C8.28625 9.5987 7.24527 10.4868 6.65388 11.4935L6.65006 11.5H17.3499L17.3461 11.4935C16.7547 10.4868 15.7137 9.5987 14.0096 9.20932C15.1999 8.51635 16 7.22661 16 5.75C16 3.54086 14.2091 1.75 12 1.75ZM3 13.5C2.44772 13.5 2 13.9477 2 14.5C2 15.0523 2.44772 15.5 3 15.5H4V21C4 21.5523 4.44772 22 5 22H19C19.5523 22 20 21.5523 20 21V15.5H21C21.5523 15.5 22 15.0523 22 14.5C22 13.9477 21.5523 13.5 21 13.5H17.982H6.01797H3ZM11.7578 15.6845C11.915 15.3915 12.335 15.3915 12.4922 15.6845L12.9779 16.59L13.9892 16.7721C14.3164 16.8311 14.4462 17.2306 14.2162 17.4706L13.5051 18.2123L13.6443 19.2304C13.6894 19.5598 13.3495 19.8067 13.0502 19.6621L12.125 19.215L11.1998 19.6621C10.9005 19.8067 10.5606 19.5598 10.6057 19.2304L10.745 18.2123L10.0339 17.4706C9.80384 17.2306 9.93364 16.8311 10.2608 16.7721L11.2721 16.59L11.7578 15.6845Z" fill="black"/>
</svg>
