<svg width="24" height="24" viewBox="0 0 24 24" fill="none" xmlns="http://www.w3.org/2000/svg">
<path fill-rule="evenodd" clip-rule="evenodd" d="M7.99996 9.00276L8.00001 8.99892C8.00011 8.99311 8.00034 8.98199 8.00087 8.96593C8.00194 8.93378 8.00424 8.882 8.00914 8.81343C8.01896 8.67596 8.03908 8.47303 8.0801 8.2269C8.16294 7.72989 8.32675 7.0825 8.64439 6.44721C8.96007 5.81584 9.4179 5.21489 10.0859 4.76955C10.7477 4.32838 11.6749 4 13 4C15.3011 4 16.471 4.98953 17.1221 6.03036C17.415 6.49857 18.032 6.64068 18.5002 6.34777C18.9684 6.05487 19.1105 5.43786 18.8176 4.96964C17.8222 3.37837 16.0294 2 13 2C11.325 2 10.0023 2.42162 8.97651 3.10545C7.95703 3.78511 7.28985 4.68416 6.85553 5.55279C6.42318 6.4175 6.21198 7.27011 6.10732 7.8981C5.93945 8.90531 5.96204 9.93054 5.98453 10.9515C5.99225 11.3018 5.99996 11.6516 5.99996 12H4C3.44772 12 3 12.4477 3 13C3 13.5523 3.44772 14 4 14H5.99996V15C5.99996 16.1994 5.38471 17.4951 4.66791 18.5703C4.32036 19.0916 3.97134 19.5281 3.70945 19.8336C3.57896 19.9858 3.47128 20.1042 3.39781 20.1829C3.36111 20.2222 3.33304 20.2516 3.31505 20.2702L3.29583 20.2899L3.29285 20.2929C2.9029 20.6835 2.90252 21.3168 3.29285 21.7071C3.55221 21.9665 3.91857 22.0536 4.24981 21.9684C4.32978 21.989 4.41361 22 4.5 22H20C20.5523 22 21 21.5523 21 21C21 20.4477 20.5523 20 20 20H6.113C6.18736 19.894 6.26035 19.7872 6.33201 19.6797C7.11522 18.5049 7.99996 16.8006 7.99996 15V14H13C13.5523 14 14 13.5523 14 13C14 12.4477 13.5523 12 13 12H7.99996V9.00412V9.00276Z" fill="black"/>
</svg>
