<svg width="24" height="24" viewBox="0 0 24 24" fill="none" xmlns="http://www.w3.org/2000/svg">
<path fill-rule="evenodd" clip-rule="evenodd" d="M14.43 5.50246C14.796 5.47678 15.1467 5.65359 15.3437 5.96313L18.5489 11H22C22.5523 11 23 11.4477 23 12C23 12.5523 22.5523 13 22 13H18C17.6581 13 17.3399 12.8253 17.1563 12.5369L14.6469 8.59346L10.4104 17.9138C10.2585 18.2478 9.936 18.4719 9.56999 18.4976C9.20399 18.5232 8.85332 18.3464 8.65634 18.0369L5.45105 13H2C1.44772 13 1 12.5523 1 12C1 11.4477 1.44772 11 2 11H6C6.3419 11 6.6601 11.1747 6.84366 11.4631L9.35311 15.4066L13.5896 6.08621C13.7415 5.75219 14.064 5.52814 14.43 5.50246Z" fill="black"/>
</svg>
