<svg width="24" height="24" viewBox="0 0 24 24" fill="none" xmlns="http://www.w3.org/2000/svg">
<path fill-rule="evenodd" clip-rule="evenodd" d="M0.5 10C0.5 6.96243 2.96243 4.5 6 4.5C9.0289 4.5 11.4859 6.9484 11.4999 9.97402C11.5002 9.98265 11.5003 9.99131 11.5003 10L11.5003 10.0019L11.5003 10.0045L11.5002 10.0118L11.5 10.0344L11.4998 10.0501C11.4988 10.1601 11.4946 10.2694 11.4872 10.3778L11.487 10.3822C11.4741 10.6118 11.4487 10.9363 11.3985 11.3298C11.2984 12.1139 11.0979 13.1865 10.6933 14.3328C9.88646 16.6188 8.21903 19.3145 4.8165 20.4487C4.29256 20.6233 3.72624 20.3402 3.55159 19.8162C3.37694 19.2923 3.6601 18.726 4.18404 18.5513C6.17683 17.8871 7.42509 16.5233 8.21131 15.0374C7.53462 15.3349 6.7866 15.5 6 15.5C2.96243 15.5 0.5 13.0376 0.5 10ZM12.5 10C12.5 6.96243 14.9624 4.5 18 4.5C21.0289 4.5 23.4859 6.94841 23.4999 9.97402C23.5002 9.98265 23.5003 9.99131 23.5003 10V10.0019L23.5003 10.0045L23.5002 10.0118L23.5 10.0344L23.4998 10.0501C23.4988 10.1601 23.4946 10.2694 23.4872 10.3778L23.487 10.3822C23.4741 10.6118 23.4487 10.9363 23.3985 11.3298C23.2984 12.1139 23.0979 13.1865 22.6933 14.3328C21.8865 16.6188 20.219 19.3145 16.8165 20.4487C16.2926 20.6233 15.7262 20.3402 15.5516 19.8162C15.3769 19.2923 15.6601 18.726 16.184 18.5513C18.1768 17.8871 19.4251 16.5233 20.2113 15.0374C19.5346 15.3349 18.7866 15.5 18 15.5C14.9624 15.5 12.5 13.0376 12.5 10Z" fill="black"/>
</svg>
