<svg width="24" height="24" viewBox="0 0 24 24" fill="none" xmlns="http://www.w3.org/2000/svg">
<path fill-rule="evenodd" clip-rule="evenodd" d="M9 2C8.44772 2 8 2.44772 8 3V11H5C4.44772 11 4 11.4477 4 12C4 12.5523 4.44772 13 5 13H8V15L5 15C4.44772 15 4 15.4477 4 16C4 16.5523 4.44772 17 5 17L8 17V21C8 21.5523 8.44772 22 9 22C9.55228 22 10 21.5523 10 21V17L16 17C16.5523 17 17 16.5523 17 16C17 15.4477 16.5523 15 16 15L10 15V13H14.4866C14.4911 13.0001 14.4955 13.0001 14.5 13.0001C15.929 13.0001 17.3019 12.4439 18.328 11.4493C19.3541 10.4547 19.9528 9.09975 19.9973 7.67142C20.0418 6.24309 19.5287 4.85352 18.5665 3.79694C17.6044 2.74036 16.2688 2.09975 14.8425 2.01076C14.7844 2.00714 14.7272 2.00855 14.6713 2.01461C14.6156 2.00501 14.5584 2 14.5 2H9ZM14.5118 11.0001C15.4169 10.997 16.2859 10.6434 16.936 10.0132C17.589 9.38028 17.97 8.51806 17.9983 7.60912C18.0266 6.70018 17.7001 5.81591 17.0878 5.14354C16.4755 4.47117 15.6256 4.06351 14.718 4.00688C14.681 4.00458 14.6446 4.00029 14.609 3.99413C14.5732 3.99801 14.5368 4 14.5 4H10V11H14.5C14.5039 11 14.5079 11 14.5118 11.0001Z" fill="black"/>
</svg>
