<svg width="24" height="24" viewBox="0 0 24 24" fill="none" xmlns="http://www.w3.org/2000/svg">
<path fill-rule="evenodd" clip-rule="evenodd" d="M5 3C4.44772 3 4 3.44772 4 4C4 4.55228 4.44772 5 5 5L9.69571 5C9.7235 5.00409 9.75169 5.00705 9.78023 5.00884C10.9472 5.08165 12.0399 5.60578 12.8272 6.47025C13.2351 6.91818 13.5443 7.43926 13.7426 8L5 8C4.44772 8 4 8.44772 4 9C4 9.55228 4.44772 10 5 10L13.9722 10C13.8565 11.0346 13.3849 12.0015 12.632 12.7313C11.7956 13.542 10.6775 13.9967 9.51297 14.0001C9.50865 14 9.50433 14 9.5 14H7.00048H7C6.84324 14 6.6949 14.0361 6.56284 14.1004C6.24865 14.2533 6.02656 14.566 6.00222 14.9328C6.00073 14.9552 5.99999 14.9776 6 15C6 15.1517 6.03378 15.2955 6.09422 15.4243C6.14895 15.5413 6.22731 15.6495 6.32873 15.7412C6.337 15.7487 6.3454 15.7561 6.35392 15.7633L13.3492 21.7593C13.7686 22.1187 14.3999 22.0701 14.7593 21.6508C15.1187 21.2315 15.0701 20.6002 14.6508 20.2408L9.69979 15.997C11.3164 15.9474 12.8593 15.2964 14.024 14.1673C15.1652 13.0611 15.8591 11.5778 15.9808 10L19 10C19.5523 10 20 9.55229 20 9C20 8.44772 19.5523 8 19 8L15.8245 8C15.5724 6.9369 15.054 5.94512 14.3059 5.12365C14.2679 5.08188 14.2293 5.04066 14.1903 5L19 5C19.5523 5 20 4.55229 20 4C20 3.44772 19.5523 3 19 3H5Z" fill="black"/>
</svg>
