<svg width="24" height="24" viewBox="0 0 24 24" fill="none" xmlns="http://www.w3.org/2000/svg">
<path fill-rule="evenodd" clip-rule="evenodd" d="M7.22335 10H12.0001H16.777L13.6417 15.4868C13.5881 15.5762 13.5481 15.6746 13.5246 15.7793C13.5068 15.8578 13.4988 15.9373 13.5001 16.0163C13.5089 18.7702 15.7441 21 18.5001 21C21.2541 21 23.4881 18.7734 23.5001 16.0223C23.5025 15.9172 23.4884 15.811 23.4567 15.7076C23.4333 15.631 23.401 15.5583 23.3609 15.4908L19.3768 8.51847C19.3121 8.40094 19.2244 8.29782 19.1199 8.21515C18.9495 8.08043 18.7342 8.00001 18.5002 8M18.5001 8C18.5001 8 18.5001 8 18.5001 8H13.0001V4C13.0001 3.44772 12.5524 3 12.0001 3C11.4478 3 11.0001 3.44772 11.0001 4V8H5.50017H5.50012C5.12071 8 4.79065 8.2113 4.6212 8.52264L0.641695 15.4868C0.588134 15.5762 0.54814 15.6746 0.524561 15.7793C0.506774 15.8578 0.49879 15.9373 0.500148 16.0163C0.508915 18.7702 2.74412 21 5.50012 21C8.25412 21 10.4881 18.7734 10.5001 16.0223C10.5025 15.9172 10.4884 15.811 10.4567 15.7076C10.4333 15.631 10.401 15.5583 10.3609 15.4908L7.22335 10M7.77699 15L5.50017 11.0156L3.22335 15H7.77699ZM16.2234 15L18.5002 11.0156L20.777 15H16.2234Z" fill="black"/>
</svg>
