<svg width="24" height="24" viewBox="0 0 24 24" fill="none" xmlns="http://www.w3.org/2000/svg">
<path fill-rule="evenodd" clip-rule="evenodd" d="M4 6C4 4.89543 4.89543 4 6 4C7.10457 4 8 4.89543 8 6C8 7.10457 7.10457 8 6 8C4.89543 8 4 7.10457 4 6ZM6 2C3.79086 2 2 3.79086 2 6C2 7.15044 2.48568 8.18745 3.26318 8.91717C3.33778 9.02362 3.43672 9.1155 3.55745 9.18368L3.64205 9.23145C3.89287 9.41479 4.16585 9.56963 4.45621 9.69121L8.54469 12L4.45621 14.3088C4.16585 14.4304 3.89287 14.5852 3.64205 14.7686L3.55745 14.8163C3.43672 14.8845 3.33778 14.9764 3.26318 15.0828C2.48568 15.8125 2 16.8496 2 18C2 20.2091 3.79086 22 6 22C8.20914 22 10 20.2091 10 18C10 16.4609 9.13071 15.1248 7.85631 14.4559L10.375 13.0336L20.5575 18.7837C20.9903 19.0281 21.5393 18.8754 21.7837 18.4425C22.0281 18.0097 21.8754 17.4607 21.4425 17.2163L12.2053 12L21.4425 6.78368C21.8754 6.53927 22.0281 5.99027 21.7837 5.55745C21.5393 5.12464 20.9903 4.97191 20.5575 5.21632L10.375 10.9664L7.85631 9.5441C9.13071 8.87522 10 7.53913 10 6C10 3.79086 8.20914 2 6 2ZM4 18C4 16.8954 4.89543 16 6 16C7.10457 16 8 16.8954 8 18C8 19.1046 7.10457 20 6 20C4.89543 20 4 19.1046 4 18Z" fill="black"/>
</svg>
