<svg width="24" height="24" viewBox="0 0 24 24" fill="none" xmlns="http://www.w3.org/2000/svg">
<path fill-rule="evenodd" clip-rule="evenodd" d="M2.5 5.5C2.5 3.84315 3.84315 2.5 5.5 2.5H8C8.55228 2.5 9 2.94772 9 3.5C9 4.05228 8.55228 4.5 8 4.5H5.5C4.94772 4.5 4.5 4.94772 4.5 5.5V8C4.5 8.55228 4.05228 9 3.5 9C2.94772 9 2.5 8.55228 2.5 8V5.5ZM15 3.5C15 2.94772 15.4477 2.5 16 2.5H18.5C20.1569 2.5 21.5 3.84315 21.5 5.5V8C21.5 8.55228 21.0523 9 20.5 9C19.9477 9 19.5 8.55228 19.5 8V5.5C19.5 4.94772 19.0523 4.5 18.5 4.5H16C15.4477 4.5 15 4.05228 15 3.5ZM3.5 15C4.05228 15 4.5 15.4477 4.5 16V18.5C4.5 19.0523 4.94772 19.5 5.5 19.5H8C8.55228 19.5 9 19.9477 9 20.5C9 21.0523 8.55228 21.5 8 21.5H5.5C3.84315 21.5 2.5 20.1569 2.5 18.5V16C2.5 15.4477 2.94772 15 3.5 15ZM20.5 15C21.0523 15 21.5 15.4477 21.5 16V18.5C21.5 20.1569 20.1569 21.5 18.5 21.5H16C15.4477 21.5 15 21.0523 15 20.5C15 19.9477 15.4477 19.5 16 19.5H18.5C19.0523 19.5 19.5 19.0523 19.5 18.5V16C19.5 15.4477 19.9477 15 20.5 15ZM11.25 8.5C9.73122 8.5 8.5 9.73122 8.5 11.25C8.5 12.7688 9.73122 14 11.25 14C12.7688 14 14 12.7688 14 11.25C14 9.73122 12.7688 8.5 11.25 8.5ZM6.5 11.25C6.5 8.62665 8.62665 6.5 11.25 6.5C13.8734 6.5 16 8.62665 16 11.25C16 12.1998 15.7212 13.0845 15.241 13.8268L17.2071 15.7929C17.5976 16.1834 17.5976 16.8166 17.2071 17.2071C16.8166 17.5976 16.1834 17.5976 15.7929 17.2071L13.8268 15.241C13.0845 15.7212 12.1998 16 11.25 16C8.62665 16 6.5 13.8734 6.5 11.25Z" fill="black"/>
</svg>
