<svg width="24" height="24" viewBox="0 0 24 24" fill="none" xmlns="http://www.w3.org/2000/svg">
<path fill-rule="evenodd" clip-rule="evenodd" d="M13.8136 2.39966C12.812 1.39803 11.188 1.39803 10.1864 2.39966C8.98733 3.59872 7.21372 4.01741 5.60502 3.48118L5.40894 3.41582C4.22384 3.02078 3 3.90288 3 5.15209V12.5663C3 15.6694 4.59858 18.5536 7.23001 20.1983L10.41 22.1858C11.3828 22.7938 12.6172 22.7938 13.59 22.1858L16.77 20.1983C19.4014 18.5536 21 15.6694 21 12.5663V5.15209C21 3.90288 19.7762 3.02078 18.5911 3.41582L18.395 3.48118C16.7863 4.01741 15.0127 3.59872 13.8136 2.39966Z" fill="black"/>
</svg>
