<svg width="24" height="24" viewBox="0 0 24 24" fill="none" xmlns="http://www.w3.org/2000/svg">
<path fill-rule="evenodd" clip-rule="evenodd" d="M9.51448 2.14266C9.98806 2.42681 10.1416 3.04107 9.85748 3.51465L7.76618 7.00015H16.2338L14.1425 3.51465C13.8583 3.04107 14.0119 2.42681 14.4855 2.14266C14.9591 1.85851 15.5733 2.01208 15.8575 2.48566L18.5662 7.00015H19.6688C21.5074 7.00015 22.9135 8.63905 22.6339 10.4563L21.3797 18.6084C21.0795 20.5597 19.4005 22.0002 17.4262 22.0002H6.57375C4.59946 22.0002 2.92046 20.5597 2.62026 18.6084L1.3661 10.4563C1.08651 8.63905 2.49256 7.00015 4.33121 7.00015H5.4338L8.1425 2.48566C8.42664 2.01208 9.0409 1.85851 9.51448 2.14266ZM8.99998 12.0001C8.99998 11.4478 8.55227 11.0001 7.99998 11.0001C7.4477 11.0001 6.99998 11.4478 6.99998 12.0001V17.0001C6.99998 17.5524 7.4477 18.0001 7.99998 18.0001C8.55227 18.0001 8.99998 17.5524 8.99998 17.0001V12.0001ZM13 12.0001C13 11.4478 12.5523 11.0001 12 11.0001C11.4477 11.0001 11 11.4478 11 12.0001V17.0001C11 17.5524 11.4477 18.0001 12 18.0001C12.5523 18.0001 13 17.5524 13 17.0001V12.0001ZM16 11.0001C16.5523 11.0001 17 11.4478 17 12.0001V17.0001C17 17.5524 16.5523 18.0001 16 18.0001C15.4477 18.0001 15 17.5524 15 17.0001V12.0001C15 11.4478 15.4477 11.0001 16 11.0001Z" fill="black"/>
</svg>
