<svg width="24" height="24" viewBox="0 0 24 24" fill="none" xmlns="http://www.w3.org/2000/svg">
<path fill-rule="evenodd" clip-rule="evenodd" d="M3.1802 2.5C4.13356 2.5 4.95439 3.17292 5.14136 4.10777L5.3198 5H19.681C21.7476 5 23.1953 7.04052 22.5126 8.99105L20.4126 14.9911C19.9915 16.1943 18.8559 17 17.581 17H7.72237C6.23739 17 4.97585 15.9136 4.75557 14.445L3.51467 6.17236L3.1802 4.5L2 4.5C1.44772 4.5 1 4.05228 1 3.5C1 2.94772 1.44772 2.5 2 2.5H3.1802ZM8 23C9.10457 23 10 22.1046 10 21C10 19.8954 9.10457 19 8 19C6.89543 19 6 19.8954 6 21C6 22.1046 6.89543 23 8 23ZM19 21C19 22.1046 18.1046 23 17 23C15.8954 23 15 22.1046 15 21C15 19.8954 15.8954 19 17 19C18.1046 19 19 19.8954 19 21Z" fill="black"/>
</svg>
