<svg width="24" height="24" viewBox="0 0 24 24" fill="none" xmlns="http://www.w3.org/2000/svg">
<path fill-rule="evenodd" clip-rule="evenodd" d="M8.99994 6C8.99994 4.34315 10.3431 3 11.9999 3C13.6568 3 14.9999 4.34315 14.9999 6H8.99994ZM6.99994 6C6.99994 3.23858 9.23852 1 11.9999 1C14.7614 1 16.9999 3.23858 16.9999 6H19.395C20.5782 6 21.5028 7.02164 21.385 8.19901L20.2651 19.398C20.0606 21.4428 18.34 23 16.285 23H7.71491C5.6599 23 3.93924 21.4428 3.73476 19.398L2.61486 8.19901C2.49712 7.02164 3.42169 6 4.60493 6H6.99994Z" fill="black"/>
</svg>
