<svg width="24" height="24" viewBox="0 0 24 24" fill="none" xmlns="http://www.w3.org/2000/svg">
<path fill-rule="evenodd" clip-rule="evenodd" d="M18.2071 1.79289C17.8166 1.40237 17.1834 1.40237 16.7929 1.79289C16.4024 2.18342 16.4024 2.81658 16.7929 3.20711L18.5858 5H14.6056C13.2681 5 12.0192 5.6684 11.2773 6.7812L11.1679 6.9453C10.8616 7.40483 10.9858 8.0257 11.4453 8.33205C11.9048 8.6384 12.5257 8.51423 12.832 8.0547L12.9415 7.8906C13.3124 7.3342 13.9368 7 14.6056 7H18.5858L16.7929 8.79289C16.4024 9.18342 16.4024 9.81658 16.7929 10.2071C17.1834 10.5976 17.8166 10.5976 18.2071 10.2071L21.7071 6.70711C21.8984 6.51578 21.996 6.2662 21.9999 6.01546C22 6.006 22 5.99655 21.9999 5.98709C21.9983 5.86152 21.9732 5.73619 21.9246 5.61827C21.8758 5.49993 21.8033 5.38905 21.7071 5.29289L18.2071 1.79289ZM15.1667 19C13.1482 19 11.3276 17.7863 10.5513 15.9231L7.60256 8.84615C7.13676 7.72821 6.04444 7 4.83333 7H3C2.44772 7 2 6.55229 2 6C2 5.44771 2.44772 5 3 5H4.83333C6.85184 5 8.67237 6.21369 9.44872 8.07692L12.3974 15.1538C12.8632 16.2718 13.9556 17 15.1667 17H18.5858L16.7929 15.2071C16.4024 14.8166 16.4024 14.1834 16.7929 13.7929C17.1834 13.4024 17.8166 13.4024 18.2071 13.7929L21.7071 17.2929C22.0976 17.6834 22.0976 18.3166 21.7071 18.7071L18.2071 22.2071C17.8166 22.5976 17.1834 22.5976 16.7929 22.2071C16.4024 21.8166 16.4024 21.1834 16.7929 20.7929L18.5858 19H15.1667ZM8.83205 17.0547C9.1384 16.5952 9.01423 15.9743 8.5547 15.6679C8.09517 15.3616 7.4743 15.4858 7.16795 15.9453L7.05855 16.1094C6.68762 16.6658 6.06316 17 5.39445 17H3C2.44772 17 2 17.4477 2 18C2 18.5523 2.44772 19 3 19H5.39445C6.73186 19 7.98079 18.3316 8.72265 17.2188L8.83205 17.0547Z" fill="black"/>
</svg>
