<svg width="24" height="24" viewBox="0 0 24 24" fill="none" xmlns="http://www.w3.org/2000/svg">
<path fill-rule="evenodd" clip-rule="evenodd" d="M2.5 6.5C2.5 4.29086 4.29086 2.5 6.5 2.5H17.5C19.7091 2.5 21.5 4.29086 21.5 6.5V17.5C21.5 19.7091 19.7091 21.5 17.5 21.5H6.5C4.29086 21.5 2.5 19.7091 2.5 17.5V6.5ZM15.3481 8.53C15.6408 8.06166 15.4985 7.44471 15.0301 7.152C14.5618 6.85929 13.9448 7.00166 13.6521 7.47L8.65214 15.47C8.35943 15.9383 8.5018 16.5553 8.97013 16.848C9.43847 17.1407 10.0554 16.9983 10.3481 16.53L15.3481 8.53Z" fill="black"/>
</svg>
