<svg width="24" height="24" viewBox="0 0 24 24" fill="none" xmlns="http://www.w3.org/2000/svg">
<path fill-rule="evenodd" clip-rule="evenodd" d="M18.407 1.49309C18.7458 1.83192 18.7907 2.3534 18.5416 2.74059C19.1377 2.96603 19.68 3.31588 20.1319 3.76772C20.634 4.26987 21.0102 4.88374 21.2296 5.55913C21.4491 6.23452 21.5056 6.95225 21.3945 7.65366C21.3081 8.19914 20.7959 8.57131 20.2504 8.48491C19.7049 8.39852 19.3327 7.88627 19.4191 7.34079C19.4808 6.95112 19.4494 6.55238 19.3275 6.17716C19.2056 5.80194 18.9966 5.46091 18.7177 5.18194C18.6947 5.15902 18.6714 5.13658 18.6477 5.11462C18.6 5.25622 18.5198 5.38928 18.407 5.50209C18.0165 5.89261 17.3833 5.89261 16.9928 5.50209L15.6954 4.2047C15.5105 4.01982 15.4132 3.78058 15.4033 3.53844C15.3884 3.22064 15.5261 2.92368 15.7579 2.72796L16.9928 1.49309C17.3833 1.10256 18.0165 1.10256 18.407 1.49309ZM3.16132 6.69636C1.59922 8.25846 1.59922 10.7911 3.16132 12.3532L11.6466 20.8385C13.2087 22.4006 15.7414 22.4006 17.3035 20.8385L20.839 17.303C22.4011 15.7409 22.4011 13.2082 20.839 11.6461L12.3537 3.16083C10.7916 1.59873 8.25895 1.59873 6.69685 3.16083L3.16132 6.69636ZM5.28264 8.81759C4.89212 8.42707 4.89212 7.7939 5.28264 7.40338L7.40396 5.28206C7.79449 4.89153 8.42765 4.89153 8.81818 5.28206C9.2087 5.67258 9.2087 6.30575 8.81818 6.69627L6.69686 8.81759C6.30633 9.20812 5.67317 9.20812 5.28264 8.81759ZM16.9499 14.8281C17.5357 15.4139 17.5357 16.3637 16.9499 16.9495C16.3641 17.5353 15.4144 17.5353 14.8286 16.9495C14.2428 16.3637 14.2428 15.4139 14.8286 14.8281C15.4144 14.2424 16.3641 14.2424 16.9499 14.8281ZM8.12534 21.1847L6.89973 22.4103C6.50921 22.8008 5.87604 22.8008 5.48552 22.4103C5.14516 22.0699 5.10144 21.5453 5.35436 21.1576C4.7595 20.9321 4.21839 20.5827 3.76739 20.1317C3.26524 19.6295 2.88906 19.0157 2.66962 18.3403C2.45017 17.6649 2.39368 16.9472 2.50477 16.2458C2.59117 15.7003 3.10341 15.3281 3.6489 15.4145C4.19438 15.5009 4.56655 16.0131 4.48015 16.5586C4.41843 16.9483 4.44981 17.347 4.57173 17.7223C4.69364 18.0975 4.90263 18.4385 5.1816 18.7175C5.2032 18.7391 5.22517 18.7603 5.2475 18.781C5.29544 18.6423 5.37477 18.512 5.48552 18.4013C5.87604 18.0108 6.50921 18.0108 6.89973 18.4013L8.1356 19.6372C8.31611 19.7869 8.44501 20.0004 8.48458 20.2502C8.54255 20.6162 8.39408 20.9672 8.12534 21.1847Z" fill="black"/>
</svg>
