<svg width="24" height="24" viewBox="0 0 24 24" fill="none" xmlns="http://www.w3.org/2000/svg">
<path fill-rule="evenodd" clip-rule="evenodd" d="M2 12C2 6.47715 6.47715 2 12 2C17.5228 2 22 6.47715 22 12C22 17.5228 17.5228 22 12 22C6.47715 22 2 17.5228 2 12ZM17 14L17.9845 14.1753C18.0365 13.8837 17.9564 13.5839 17.7659 13.357C17.5754 13.1301 17.2941 12.9994 16.9978 13L6.99782 13.0219C6.70154 13.0226 6.42081 13.1546 6.23131 13.3823C6.04181 13.6101 5.96305 13.9101 6.01628 14.2016L7.00001 14.0219C6.01628 14.2016 6.0165 14.2028 6.0165 14.2028L6.01674 14.2041L6.01728 14.207L6.01856 14.2137L6.02197 14.2309C6.02465 14.2441 6.02814 14.2606 6.03255 14.2801C6.04136 14.3193 6.05388 14.3709 6.07098 14.4333C6.10511 14.5578 6.15784 14.7266 6.23634 14.9248C6.39267 15.3196 6.65591 15.8434 7.08783 16.3685C7.97906 17.4519 9.51238 18.4444 12.0058 18.4444C14.5018 18.4444 16.0334 17.4442 16.9212 16.3535C17.3513 15.8252 17.6126 15.2984 17.7673 14.9016C17.8451 14.7023 17.8971 14.5328 17.9308 14.4077C17.9476 14.3451 17.9599 14.2932 17.9686 14.254C17.9729 14.2344 17.9763 14.2179 17.979 14.2047L17.9823 14.1874L17.9835 14.1807L17.9841 14.1779L17.9843 14.1766C17.9843 14.1766 17.9845 14.1753 17 14ZM14.0279 10.3815C13.5411 10.1208 13.3578 9.5147 13.6185 9.02785C13.6184 9.02818 13.6185 9.02785 14.5001 9.49999L13.6185 9.02785L13.62 9.02507L13.6217 9.02191L13.6258 9.01445L13.6367 8.99507C13.6451 8.98026 13.6559 8.96165 13.6691 8.93978C13.6955 8.89617 13.7318 8.83889 13.778 8.77246C13.8693 8.64126 14.0055 8.46553 14.187 8.28697C14.5391 7.94078 15.1517 7.49999 15.9983 7.49999C16.8445 7.49999 17.4576 7.94033 17.8101 8.28578C17.992 8.46406 18.1286 8.63953 18.2202 8.77055C18.2666 8.83688 18.3031 8.89408 18.3295 8.93762C18.3428 8.95944 18.3537 8.97802 18.3621 8.9928L18.373 9.01212L18.3771 9.01957L18.3788 9.02272L18.3796 9.02415C18.3798 9.02448 18.3803 9.02548 17.5001 9.49999L18.3803 9.02548C18.6424 9.51163 18.4607 10.1182 17.9746 10.3802C17.4914 10.6407 16.8894 10.4629 16.6248 9.98357L16.6205 9.97642C16.6137 9.96527 16.6005 9.94434 16.5814 9.91693C16.5418 9.86044 16.4834 9.78592 16.4103 9.7142C16.2525 9.55964 16.1148 9.49999 15.9983 9.49999C15.8823 9.49999 15.7457 9.5592 15.5893 9.71301C15.5167 9.78445 15.4587 9.85871 15.4195 9.91502C15.4005 9.94234 15.3875 9.96318 15.3808 9.97426L15.3766 9.98128C15.1132 10.4613 14.5117 10.6406 14.0279 10.3815ZM5.61853 9.02785C5.35777 9.5147 5.54106 10.1208 6.02791 10.3815C6.5117 10.6406 7.1132 10.4613 7.37661 9.98128L7.38079 9.97426C7.38748 9.96318 7.40052 9.94234 7.41953 9.91502C7.45872 9.85871 7.51668 9.78445 7.58933 9.71301C7.74574 9.5592 7.88231 9.49999 7.99832 9.49999C8.11481 9.49999 8.25255 9.55964 8.41025 9.7142C8.48344 9.78592 8.54185 9.86044 8.58136 9.91693C8.60053 9.94434 8.6137 9.96527 8.62048 9.97642L8.62475 9.98357C8.88944 10.4629 9.49145 10.6407 9.97456 10.3802C10.4607 10.1182 10.6424 9.51163 10.3803 9.02548L9.50005 9.49999C10.3803 9.02548 10.3798 9.02448 10.3796 9.02415L10.3788 9.02272L10.3771 9.01957L10.373 9.01212L10.3621 8.9928C10.3537 8.97802 10.3428 8.95944 10.3295 8.93762C10.3031 8.89408 10.2666 8.83688 10.2202 8.77055C10.1286 8.63953 9.99203 8.46406 9.81012 8.28578C9.45762 7.94033 8.8445 7.49999 7.99832 7.49999C7.15166 7.49999 6.53909 7.94078 6.18704 8.28697C6.00546 8.46553 5.86934 8.64126 5.77802 8.77246C5.73178 8.83889 5.69546 8.89617 5.6691 8.93978C5.65589 8.96165 5.64507 8.98026 5.63666 8.99507L5.62582 9.01445L5.62173 9.02191L5.62002 9.02507L5.61853 9.02785ZM5.61853 9.02785L5.61852 9.02785C5.61839 9.02819 5.62424 9.0309 6.50005 9.49999L5.61853 9.02785Z" fill="black"/>
</svg>
