<svg width="24" height="24" viewBox="0 0 24 24" fill="none" xmlns="http://www.w3.org/2000/svg">
<path fill-rule="evenodd" clip-rule="evenodd" d="M2 12C2 6.47715 6.47715 2 12 2C17.5228 2 22 6.47715 22 12C22 17.5228 17.5228 22 12 22C6.47715 22 2 17.5228 2 12ZM8.99997 11C9.8284 11 10.5 10.3284 10.5 9.5C10.5 8.67157 9.8284 8 8.99997 8C8.17155 8 7.49997 8.67157 7.49997 9.5C7.49997 10.3284 8.17155 11 8.99997 11ZM16.398 17.6215C16.6607 18.1073 17.2675 18.2881 17.7533 18.0254C18.2391 17.7627 18.4199 17.1559 18.1572 16.6701C17.5591 15.5641 16.674 14.6396 15.5951 13.9938C14.5162 13.3479 13.2832 13.0047 12.0258 13C10.7684 12.9954 9.53294 13.3295 8.44928 13.9674C7.36562 14.6052 6.47377 15.5231 5.86746 16.6247C5.60116 17.1086 5.77751 17.7167 6.26135 17.983C6.74519 18.2493 7.3533 18.0729 7.6196 17.5891C8.05268 16.8022 8.68972 16.1466 9.46376 15.691C10.2378 15.2354 11.1203 14.9967 12.0184 15C12.9166 15.0033 13.7973 15.2485 14.5679 15.7098C15.3386 16.1711 15.9707 16.8315 16.398 17.6215ZM16.5 9.5C16.5 10.3284 15.8284 11 15 11C14.1715 11 13.5 10.3284 13.5 9.5C13.5 8.67157 14.1715 8 15 8C15.8284 8 16.5 8.67157 16.5 9.5Z" fill="black"/>
</svg>
