<svg width="24" height="24" viewBox="0 0 24 24" fill="none" xmlns="http://www.w3.org/2000/svg">
<path fill-rule="evenodd" clip-rule="evenodd" d="M13.0002 2.5C13.0002 1.94772 12.5525 1.5 12.0002 1.5C11.4479 1.5 11.0002 1.94772 11.0002 2.5V3V4.08579L9.7073 2.79289C9.31677 2.40237 8.68361 2.40237 8.29308 2.79289C7.90256 3.18342 7.90256 3.81658 8.29308 4.20711L11.0002 6.91421V10.2675L8.09559 8.59051L7.10485 4.89299C6.96191 4.35953 6.41357 4.04294 5.8801 4.18589C5.34664 4.32883 5.03005 4.87717 5.17299 5.41063L5.6461 7.1763L4.2727 6.38336C3.79441 6.10722 3.18282 6.27109 2.90667 6.74939C2.63053 7.22768 2.79441 7.83927 3.2727 8.11541L4.64669 8.90868L2.8801 9.38204C2.34663 9.52498 2.03005 10.0733 2.17299 10.6068C2.31594 11.1402 2.86427 11.4568 3.39774 11.3139L7.09618 10.3229L10.0005 11.9997L7.09567 13.6769L3.39774 12.686C2.86427 12.5431 2.31594 12.8596 2.173 13.3931C2.03005 13.9266 2.34664 14.4749 2.8801 14.6179L4.64618 15.0911L3.70586 15.634L3.69746 15.6389L3.27294 15.884C2.79465 16.1601 2.63077 16.7717 2.90692 17.25C3.18306 17.7283 3.79465 17.8922 4.27294 17.616L5.64622 16.8232L5.17299 18.5893C5.03005 19.1227 5.34663 19.6711 5.8801 19.814C6.41357 19.957 6.9619 19.6404 7.10485 19.1069L8.09571 15.4089L11.0002 13.732V17.0858L8.29308 19.7929C7.90256 20.1834 7.90256 20.8166 8.29308 21.2071C8.68361 21.5976 9.31677 21.5976 9.7073 21.2071L11.0002 19.9142V21V21.5C11.0002 22.0523 11.4479 22.5 12.0002 22.5C12.5525 22.5 13.0002 22.0523 13.0002 21.5V21V19.9142L14.2931 21.2071C14.6836 21.5976 15.3168 21.5976 15.7073 21.2071C16.0978 20.8166 16.0978 20.1834 15.7073 19.7929L13.0002 17.0858V13.7316L15.9045 15.4084L16.8955 19.107C17.0385 19.6405 17.5868 19.9571 18.1203 19.8141C18.6537 19.6712 18.9703 19.1228 18.8274 18.5894L18.354 16.8226L19.7272 17.6154C20.2055 17.8916 20.8171 17.7277 21.0932 17.2494C21.3693 16.7711 21.2055 16.1595 20.7272 15.8834L19.3548 15.091L21.1203 14.618C21.6537 14.475 21.9703 13.9267 21.8274 13.3932C21.6844 12.8598 21.1361 12.5432 20.6026 12.6861L16.9053 13.6768L14.0006 11.9998L16.9046 10.3231L20.6026 11.314C21.1361 11.4569 21.6844 11.1404 21.8274 10.6069C21.9703 10.0734 21.6537 9.52508 21.1203 9.38214L19.3541 8.9089L20.7274 8.11602C21.2057 7.83988 21.3696 7.22829 21.0935 6.75C20.8173 6.27171 20.2057 6.10783 19.7274 6.38397L19.3028 6.62915L19.2943 6.63397L18.3542 7.17676L18.8274 5.41073C18.9703 4.87727 18.6537 4.32893 18.1203 4.18599C17.5868 4.04305 17.0385 4.35963 16.8955 4.8931L15.9047 8.59098L13.0002 10.2679V6.91421L15.7073 4.20711C16.0978 3.81658 16.0978 3.18342 15.7073 2.79289C15.3168 2.40237 14.6836 2.40237 14.2931 2.79289L13.0002 4.08579V3V2.5Z" fill="black"/>
</svg>
