<svg width="24" height="24" viewBox="0 0 24 24" fill="none" xmlns="http://www.w3.org/2000/svg">
<path fill-rule="evenodd" clip-rule="evenodd" d="M10.2057 2.39068C10.5791 1.659 11.2906 1.29538 12 1.29985C12 1.29989 12 1.29993 12 1.29997C12.7009 1.30433 13.3998 1.66794 13.7687 2.3908L16.0941 6.94744L21.1463 7.75095C22.759 8.00743 23.4012 9.98401 22.2472 11.1394L18.6322 14.7591L19.4293 19.8123C19.6837 21.4253 18.0023 22.6469 16.5468 21.9065L11.9872 19.587L7.42762 21.9065C6.59042 22.3324 5.67846 22.1091 5.10318 21.5356C4.67828 21.1121 4.437 20.4975 4.54508 19.8122L5.34211 14.759L1.72721 11.1394L1.72708 11.1393C0.573147 9.98389 1.21538 8.00731 2.82807 7.75083L7.88027 6.94731L10.2057 2.39068ZM11.9904 17.587C12.3003 17.5875 12.6101 17.6599 12.8941 17.8044L17.4537 20.1239L16.6566 15.0707C16.557 14.4392 16.7653 13.7981 17.2171 13.3458L20.8321 9.72612L15.7799 8.92261C15.1486 8.8222 14.6032 8.426 14.3126 7.85656L11.9961 3.31731C11.9936 5.28745 11.9936 7.55875 11.9936 9.92334C11.9936 12.456 11.9936 15.0957 11.9904 17.587Z" fill="black"/>
</svg>
