<svg width="24" height="24" viewBox="0 0 24 24" fill="none" xmlns="http://www.w3.org/2000/svg">
<path fill-rule="evenodd" clip-rule="evenodd" d="M13.3205 1.7874C12.7335 0.770735 11.2661 0.770736 10.6791 1.7874L8.39138 5.74985H3.81585C2.6419 5.74985 1.90819 7.02069 2.49516 8.03735L4.78293 11.9999L2.49516 15.9624C1.90819 16.9791 2.6419 18.2499 3.81585 18.2499H8.39138L10.6791 22.2124C11.2661 23.229 12.7335 23.229 13.3205 22.2124L15.6082 18.2499H20.1837C21.3577 18.2499 22.0914 16.9791 21.5044 15.9624L19.2167 11.9999L21.5044 8.03735C22.0914 7.02069 21.3577 5.74985 20.1837 5.74985H15.6082L13.3205 1.7874ZM13.2988 5.74985L11.9998 3.4999L10.7008 5.74985H13.2988ZM9.54608 7.74985H14.4535L16.9073 11.9999L14.4535 16.2499H9.54608L7.09233 11.9999L9.54608 7.74985ZM7.23668 7.74985H4.63857L5.93763 9.99988L7.23668 7.74985ZM5.93763 13.9999L4.63857 16.2499H7.23668L5.93763 13.9999ZM10.7008 18.2499L11.9998 20.4999L13.2988 18.2499H10.7008ZM16.7629 16.2499H19.361L18.062 13.9999L16.7629 16.2499ZM18.062 9.99988L16.7629 7.74985H19.361L18.062 9.99988Z" fill="black"/>
</svg>
