<svg width="24" height="24" viewBox="0 0 24 24" fill="none" xmlns="http://www.w3.org/2000/svg">
<path fill-rule="evenodd" clip-rule="evenodd" d="M8.59883 4C7.86153 4 7.18403 4.40565 6.83587 5.05556L0.407295 17.0556C-0.306454 18.3879 0.658784 20 2.17026 20H6H21.8298H21.8299C21.9244 20 22.0167 19.9937 22.1066 19.9816C23.4555 19.7996 24.262 18.3046 23.5929 17.0556L17.1643 5.05556C16.8161 4.40565 16.1386 4 15.4013 4H15.4013H9.67017H8.59883ZM6 18H5.99923H4.83415C5.66384 17.4533 6.39434 16.6947 7 15.755V18H6ZM6.98219 9.01772C6.79998 11.2204 6.28482 12.9733 5.56456 14.2622C4.81928 15.5958 3.87165 16.4164 2.82397 16.7797L6.98219 9.01772ZM9 18V8.98452L13.8297 18H9Z" fill="black"/>
</svg>
