<svg width="24" height="24" viewBox="0 0 24 24" fill="none" xmlns="http://www.w3.org/2000/svg">
<path fill-rule="evenodd" clip-rule="evenodd" d="M8.04648 3.5C6.92704 3.5 5.84778 3.91725 5.01946 4.67027L1.33697 8.01799C0.764476 8.53843 0.681756 9.40893 1.14598 10.0279L2.98101 12.4746C3.48909 13.152 4.45683 13.2749 5.11806 12.7459L6.00006 12.0403V18.5C6.00006 19.8807 7.11935 21 8.50006 21H15.5001C16.8808 21 18.0001 19.8807 18.0001 18.5V12.0403L18.8821 12.7459C19.5433 13.2749 20.511 13.152 21.0191 12.4746L22.8541 10.0279C23.3184 9.40893 23.2356 8.53844 22.6631 8.01799L18.9807 4.67027C18.1523 3.91725 17.0731 3.5 15.9536 3.5H14.7952C14.4287 3.5 14.1216 3.69643 13.9355 3.94663L14.3362 4.24465L13.9355 3.94663C13.6514 4.32856 13.0046 5 12.0001 5C10.9955 5 10.3487 4.32856 10.0646 3.94663C9.87848 3.69643 9.5714 3.5 9.20488 3.5H8.04648Z" fill="black"/>
</svg>
