<svg width="24" height="24" viewBox="0 0 24 24" fill="none" xmlns="http://www.w3.org/2000/svg">
<g clip-path="url(#clip0_1215_6953)">
<path fill-rule="evenodd" clip-rule="evenodd" d="M15.1251 4.61058C14.5094 4.22373 13.7808 4 13 4H5C2.79086 4 1 5.79086 1 8V16C1 16.7808 1.22373 17.5094 1.61058 18.1251L15.1251 4.61058ZM3.06336 19.5008C3.06801 19.5033 3.07266 19.5059 3.07732 19.5085L0.292893 22.2929C-0.0976311 22.6834 -0.0976311 23.3166 0.292893 23.7071C0.683417 24.0976 1.31658 24.0976 1.70711 23.7071L5.41421 20H13C15.2091 20 17 18.2091 17 16V14.2732L19.6486 16.7011C20.9314 17.877 23 16.967 23 15.2268V8.77324C23 7.03302 20.9313 6.12303 19.6486 7.29893L17 9.72676V8.41421L23.7071 1.70711C24.0976 1.31658 24.0976 0.683417 23.7071 0.292893C23.3166 -0.0976311 22.6834 -0.0976311 22.2929 0.292893L16.5085 6.07732C16.5059 6.07266 16.5033 6.06801 16.5008 6.06336L3.06336 19.5008Z" fill="black"/>
</g>
<defs>
<clipPath id="clip0_1215_6953">
<rect width="24" height="24" fill="white"/>
</clipPath>
</defs>
</svg>
