<svg width="24" height="24" viewBox="0 0 24 24" fill="none" xmlns="http://www.w3.org/2000/svg">
<path fill-rule="evenodd" clip-rule="evenodd" d="M14 5.8686C14 4.27121 12.2197 3.31842 10.8906 4.2045L6.69722 7.00008H4C2.34315 7.00008 1 8.34323 1 10.0001V14.0001C1 15.6569 2.34315 17.0001 4 17.0001H6.69722L10.8906 19.7957C12.2197 20.6817 14 19.729 14 18.1316V5.8686ZM22.0424 8.466C22.6759 9.54912 23.0066 10.7826 22.9999 12.0374C22.9932 13.2921 22.6494 14.522 22.0044 15.5983C21.3594 16.6746 20.4369 17.5578 19.3336 18.1553C18.8479 18.4184 18.241 18.2379 17.978 17.7522C17.715 17.2666 17.8955 16.6597 18.3811 16.3967C19.1692 15.9699 19.8281 15.3391 20.2888 14.5703C20.7496 13.8015 20.9952 12.923 20.9999 12.0267C21.0047 11.1305 20.7685 10.2494 20.316 9.47574C19.8635 8.70208 19.2113 8.06428 18.4278 7.62908C17.945 7.36091 17.771 6.75212 18.0392 6.26932C18.3074 5.78651 18.9162 5.61251 19.399 5.88068C20.4959 6.48996 21.4089 7.38288 22.0424 8.466ZM19 12.016C19.0028 11.4783 18.8611 10.9496 18.5896 10.4854C18.3181 10.0212 17.9268 9.63857 17.4567 9.37745C16.9739 9.10928 16.3651 9.28327 16.0969 9.76608C15.8288 10.2489 16.0028 10.8577 16.4856 11.1258C16.6423 11.2129 16.7727 11.3404 16.8632 11.4952C16.9537 11.6499 17.0009 11.8261 17 12.0054C16.999 12.1846 16.9499 12.3603 16.8578 12.5141C16.7656 12.6678 16.6338 12.794 16.4762 12.8794C15.9906 13.1424 15.8101 13.7493 16.0731 14.2349C16.3361 14.7206 16.943 14.901 17.4287 14.638C17.9015 14.3819 18.2969 14.0034 18.5733 13.5422C18.8497 13.0809 18.9971 12.5538 19 12.016Z" fill="black"/>
</svg>
