<svg width="24" height="24" viewBox="0 0 24 24" fill="none" xmlns="http://www.w3.org/2000/svg">
<path fill-rule="evenodd" clip-rule="evenodd" d="M10.5 5.5C10.5 4.67157 11.1716 4 12 4C12.8284 4 13.5 4.67157 13.5 5.5C13.5 6.32843 12.8284 7 12 7C11.1716 7 10.5 6.32843 10.5 5.5ZM15.1632 7C15.3792 6.54537 15.5 6.0368 15.5 5.5C15.5 3.567 13.933 2 12 2C10.067 2 8.5 3.567 8.5 5.5C8.5 6.0368 8.62085 6.54537 8.83682 7H7.67449C6.22108 7 4.97671 8.04184 4.72121 9.47263L2.93549 19.4726C2.60714 21.3114 4.0209 23 5.88878 23H18.1112C19.9791 23 21.3929 21.3114 21.0645 19.4726L19.2788 9.47263C19.0233 8.04184 17.7789 7 16.3255 7H15.1632Z" fill="black"/>
</svg>
