<svg width="24" height="24" viewBox="0 0 24 24" fill="none" xmlns="http://www.w3.org/2000/svg">
<path fill-rule="evenodd" clip-rule="evenodd" d="M16.332 10.8861L16.3328 10.8861C16.1866 10.8801 16.0401 10.8821 15.894 10.8921H15.8951C14.9642 10.9554 14.0513 11.3428 13.3397 12.0544L13.0569 12.3372L11.9108 13.4885C13.3311 13.5687 14.7282 14.1513 15.8132 15.2363L16.6874 16.1105C17.3991 16.0714 18.0994 15.78 18.643 15.2364L20.0573 13.8222C20.2525 13.6269 20.2525 13.3103 20.0573 13.115L18.9966 12.0544C18.2572 11.315 17.3004 10.9256 16.332 10.8861ZM7.4227 15.1623L7.2912 15.2944C6.90157 15.6858 6.90302 16.319 7.29443 16.7086C7.68585 17.0983 8.31901 17.0968 8.70864 16.7054L8.99149 16.4213C10.5631 15.0928 12.9175 15.1692 14.3989 16.6507L15.4651 17.7169C15.6582 17.91 15.6607 18.2223 15.4707 18.4184L14.5962 19.3208C13.1341 20.8298 10.7538 20.9503 9.14677 19.5968L7.32841 18.0654L4.62107 20.7719C4.23049 21.1624 3.59732 21.1623 3.20686 20.7717C2.81639 20.3811 2.81648 19.748 3.20706 19.3575L7.41307 15.1527L7.4227 15.1623ZM11.913 10.6528L11.9123 10.6522L11.6209 10.9449L10.865 11.7007L10.8644 11.7001L10.4904 12.0741C10.4116 10.6517 9.82892 9.25196 8.74228 8.16532L7.86958 7.29262C7.90866 6.58091 8.20004 5.88047 8.74372 5.33678L10.1579 3.92257C10.3532 3.72731 10.6698 3.72731 10.865 3.92257L11.9257 4.98323C13.4878 6.54533 13.4878 9.07799 11.9257 10.6401L11.913 10.6528ZM14.9788 9.00115C16.4301 8.70905 17.9686 8.95738 19.2717 9.74612C20.38 8.82901 21.0861 7.44301 21.0861 5.89209V3.89209C21.0861 3.33981 20.6384 2.89209 20.0861 2.89209H18.0861C16.5354 2.89209 15.1496 3.59802 14.2325 4.70605C15.0223 6.00964 15.271 7.54902 14.9788 9.00115ZM7.32802 15.2364L5.91381 16.6506L4.38787 14.8373C3.04097 13.2368 3.15475 10.8687 4.64891 9.4047L5.56029 8.51171C5.75611 8.31983 6.06992 8.32143 6.26378 8.51529L7.32802 9.57953C8.89012 11.1416 8.89012 13.6743 7.32802 15.2364Z" fill="black"/>
</svg>
