<svg width="24" height="24" viewBox="0 0 24 24" fill="none" xmlns="http://www.w3.org/2000/svg">
<path fill-rule="evenodd" clip-rule="evenodd" d="M12.0253 5.00002C9.87265 4.99612 7.74808 5.48869 5.81674 6.43943C3.8854 7.39018 2.19932 8.77349 0.889556 10.4818C0.553524 10.9201 0.636423 11.5479 1.07472 11.8839C1.51301 12.2199 2.14072 12.137 2.47676 11.6987C3.59941 10.2344 5.04463 9.04872 6.70006 8.2338C8.35549 7.41888 10.1765 6.99668 12.0217 7.00002C13.8668 7.00336 15.6863 7.43215 17.3388 8.25306C18.9913 9.07398 20.4322 10.2649 21.5495 11.7333C21.884 12.1728 22.5114 12.2579 22.9509 11.9235C23.3904 11.5891 23.4756 10.9616 23.1411 10.5221C21.8376 8.80905 20.1565 7.41964 18.2286 6.46191C16.3007 5.50418 14.178 5.00392 12.0253 5.00002ZM16.5895 10.1154C15.1646 9.37937 13.5837 8.99682 11.98 9.00002C10.3763 9.00321 8.79692 9.39206 7.37505 10.1337C5.95317 10.8754 4.73053 11.9482 3.81027 13.2616C3.49335 13.7139 3.60309 14.3375 4.05539 14.6544C4.5077 14.9713 5.13128 14.8616 5.4482 14.4093C6.18441 13.3586 7.16253 12.5003 8.30003 11.907C9.43753 11.3136 10.701 11.0026 11.984 11C13.267 10.9975 14.5317 11.3035 15.6716 11.8923C16.8114 12.4811 17.7929 13.3354 18.5333 14.3832C18.852 14.8342 19.4761 14.9415 19.9271 14.6228C20.3781 14.3041 20.4854 13.68 20.1667 13.229C19.2412 11.9193 18.0143 10.8514 16.5895 10.1154ZM8.97075 13.8208C9.89914 13.2778 10.9564 12.9944 12.0319 13.0001C13.1074 13.0058 14.1616 13.3005 15.0842 13.8534C16.0067 14.4062 16.7637 15.1969 17.2759 16.1426C17.5389 16.6283 17.3584 17.2352 16.8728 17.4982C16.3872 17.7612 15.7803 17.5807 15.5173 17.0951C15.1758 16.4646 14.6711 15.9375 14.0561 15.5689C13.4411 15.2004 12.7383 15.0039 12.0213 15.0001C11.3043 14.9962 10.5994 15.1852 9.98049 15.5472C9.36157 15.9092 8.85133 16.4309 8.50317 17.0577C8.235 17.5405 7.62621 17.7145 7.1434 17.4464C6.66059 17.1782 6.4866 16.5694 6.75477 16.0866C7.277 15.1464 8.04237 14.3638 8.97075 13.8208ZM12 17.5C11.7373 17.5 11.4772 17.5517 11.2346 17.6522C10.9919 17.7528 10.7715 17.9001 10.5857 18.0858C10.1952 18.4763 10.1952 19.1095 10.5857 19.5C10.9763 19.8905 11.6094 19.8905 12 19.5C12.3905 19.8905 13.0236 19.8905 13.4142 19.5C13.8047 19.1095 13.8047 18.4763 13.4142 18.0858C13.2284 17.9001 13.008 17.7528 12.7653 17.6522C12.5227 17.5517 12.2626 17.5 12 17.5Z" fill="black"/>
</svg>
