<svg width="1392" height="192" viewBox="0 0 1392 192" fill="none" xmlns="http://www.w3.org/2000/svg">
<g clip-path="url(#clip0_11_32)">
<path fill-rule="evenodd" clip-rule="evenodd" d="M96 16C51.8174 16 16 51.8172 16 96C16 140.183 51.8174 176 96 176H608C652.182 176 688 140.183 688 96C688 51.8172 652.182 16 608 16H96ZM0 96C0 42.9806 42.9805 0 96 0H608C661.019 0 704 42.9806 704 96C704 149.019 661.019 192 608 192H96C42.9805 192 0 149.019 0 96ZM580.702 136C564.062 136 555.143 119.095 555.143 96.3768C555.143 73.0121 564.822 56 582.659 56C596.689 56 605.498 66.4442 607.13 81.3032H594.949C593.862 71.5047 589.294 66.2288 582.55 66.2288C571.022 66.2288 567.324 81.5184 567.324 95.9464C567.324 110.374 570.695 125.771 582.115 125.771C590.707 125.771 595.71 117.481 595.819 104.13H582.659V94.2232H608V134.493H599.734L597.886 123.833H597.668C594.296 132.124 588.641 136 580.702 136ZM481.121 57.5074V134.493H492.866L492.54 75.2733H492.758L517.338 134.493H530.714V57.5074H518.969V116.726H518.751L494.498 57.5074H481.121ZM406.01 134.493V124.264H423.738V67.7362H406.01V57.5074H453.647V67.7362H435.81V124.264H453.647V134.493H406.01ZM329.814 57.5074V134.493H341.559V111.451L351.13 98.7456L370.598 134.493H384.41L358.199 89.3784L382.344 57.5074H369.184L341.559 95.8384V57.5074H329.814ZM254.268 134.493V57.5074H282.11C296.249 57.5074 304.189 65.4751 304.189 79.6878C304.189 89.4856 299.294 96.592 292.007 98.5304V98.7456C302.237 101.004 303.005 115.637 303.51 125.264C303.752 129.864 303.934 133.322 305.058 133.739V134.493H292.551C291.66 133.512 291.6 130.347 291.526 126.415C291.358 117.398 291.114 104.345 280.588 104.345H266.231V134.493H254.268ZM266.231 94.116H279.718C287.766 94.116 292.334 89.4856 292.334 80.4416C292.334 72.1507 288.527 67.7362 279.826 67.7362H266.231V94.116ZM173.938 95.9464C173.938 121.142 184.596 136 201.671 136C218.638 136 229.187 121.142 229.187 95.9464C229.187 70.751 218.638 56 201.671 56C184.596 56 173.938 70.751 173.938 95.9464ZM201.671 125.771C190.251 125.771 186.118 113.82 186.118 95.9464C186.118 78.0726 190.251 66.2288 201.671 66.2288C212.765 66.2288 217.006 77.7497 217.006 95.9464C217.006 114.035 212.765 125.771 201.671 125.771ZM106.223 134.493L96 57.5074H107.529L112.749 117.158H112.966L120.579 76.35H130.368L137.981 117.158H138.09L143.419 57.5074H154.947L144.724 134.493H133.63L125.474 87.3328H125.365L117.317 134.493H106.223ZM848 24C854.624 24 860 18.6274 860 12C860 5.37258 854.624 0 848 0C841.376 0 836 5.37258 836 12C836 18.6274 841.376 24 848 24ZM920 96C920 102.627 925.376 108 932 108C938.624 108 944 102.627 944 96C944 89.3728 938.624 84 932 84C925.376 84 920 89.3728 920 96ZM780.118 146.912C784.804 142.226 792.402 142.226 797.088 146.912C801.776 151.598 801.776 159.196 797.088 163.882C792.402 168.569 784.804 168.569 780.118 163.882C775.431 159.196 775.431 151.598 780.118 146.912ZM898.912 146.912C894.224 151.598 894.224 159.196 898.912 163.882C903.6 168.569 911.192 168.569 915.88 163.882C920.568 159.196 920.568 151.598 915.88 146.912C911.192 142.226 903.6 142.226 898.912 146.912ZM860 180C860 186.627 854.624 192 848 192C841.376 192 836 186.627 836 180C836 173.373 841.376 168 848 168C854.624 168 860 173.373 860 180ZM752 96C752 102.627 757.373 108 764 108C770.627 108 776 102.627 776 96C776 89.3728 770.627 84 764 84C757.373 84 752 89.3728 752 96ZM898.912 28.1178C903.6 23.4314 911.192 23.4314 915.88 28.1178C920.568 32.8041 920.568 40.402 915.88 45.0883C911.192 49.7746 903.6 49.7746 898.912 45.0883C894.224 40.402 894.224 32.8041 898.912 28.1178ZM780.118 28.1178C775.431 32.804 775.431 40.402 780.118 45.0883C784.804 49.7746 792.402 49.7746 797.088 45.0883C801.776 40.402 801.776 32.804 797.088 28.1178C792.402 23.4314 784.804 23.4314 780.118 28.1178ZM1088 0H1296C1349.02 0 1392 42.9806 1392 96C1392 149.019 1349.02 192 1296 192H1088C1034.98 192 992 149.019 992 96C992 42.9806 1034.98 0 1088 0ZM1113.54 136H1088V56H1113.1C1129.99 56 1140.62 70.5454 1140.62 96.056C1140.62 121.566 1130.54 136 1113.54 136ZM1099.84 125.37H1112.01C1124.73 125.37 1128.34 111.608 1128.34 96.056C1128.34 80.5032 1124.62 66.6294 1112.01 66.6294H1099.84V125.37ZM1215.24 56H1166.46V136H1216.23V125.37H1178.62V99.972H1210.53V89.3424H1178.62V66.6294H1215.24V56ZM1249.74 56H1236.58L1260.04 136H1273.09L1296 56H1283.39L1266.73 123.021H1266.62L1249.74 56Z" fill="#ECEEED"/>
</g>
<defs>
<clipPath id="clip0_11_32">
<rect width="1392" height="192" fill="white"/>
</clipPath>
</defs>
</svg>
