<svg width="24" height="24" viewBox="0 0 24 24" fill="none" xmlns="http://www.w3.org/2000/svg">
<path fill-rule="evenodd" clip-rule="evenodd" d="M6 2C3.79086 2 2 3.79086 2 6V18C2 20.2091 3.79086 22 6 22H18C20.2091 22 22 20.2091 22 18V6C22 3.79086 20.2091 2 18 2H6ZM18 7.82574C18 6.49698 16.7282 5.53766 15.4506 5.90269L10.4506 7.33126C9.59195 7.57658 9 8.36135 9 9.25431V12.6707C8.68722 12.5602 8.35064 12.5 8 12.5C6.34315 12.5 5 13.8431 5 15.5C5 17.1569 6.34315 18.5 8 18.5C9.65577 18.5 10.9982 17.1586 11 15.5032L11 15.5V9.25431L16 7.82574V10.6707C15.6872 10.5602 15.3506 10.5 15 10.5C13.3431 10.5 12 11.8431 12 13.5C12 15.1569 13.3431 16.5 15 16.5C16.6558 16.5 17.9982 15.1586 18 13.5032C18 13.5022 18 13.5011 18 13.5V7.82574ZM9 15.5C9 14.9477 8.55228 14.5 8 14.5C7.44772 14.5 7 14.9477 7 15.5C7 16.0523 7.44772 16.5 8 16.5C8.55228 16.5 9 16.0523 9 15.5ZM14 13.5C14 12.9477 14.4477 12.5 15 12.5C15.5523 12.5 16 12.9477 16 13.5C16 14.0523 15.5523 14.5 15 14.5C14.4477 14.5 14 14.0523 14 13.5Z" fill="black"/>
</svg>
