<svg width="24" height="24" viewBox="0 0 24 24" fill="none" xmlns="http://www.w3.org/2000/svg">
<path fill-rule="evenodd" clip-rule="evenodd" d="M4 14.8C4 16.015 4.98498 17 6.2 17H8.8C10.015 17 11 16.015 11 14.8L11 5.2C11 3.98497 10.015 3 8.8 3H6.2C4.98497 3 4 3.98497 4 5.2L4 14.8ZM1.5 20C1.5 19.4477 1.94772 19 2.5 19L21.5 19C22.0523 19 22.5 19.4477 22.5 20C22.5 20.5523 22.0523 21 21.5 21L2.5 21C1.94772 21 1.5 20.5523 1.5 20ZM13 14.8C13 16.015 13.985 17 15.2 17H17.8C19.015 17 20 16.015 20 14.8V8.2C20 6.98497 19.015 6 17.8 6L15.2 6C13.985 6 13 6.98497 13 8.2L13 14.8Z" fill="black"/>
</svg>
