<svg width="24" height="24" viewBox="0 0 24 24" fill="none" xmlns="http://www.w3.org/2000/svg">
<path fill-rule="evenodd" clip-rule="evenodd" d="M12 1.5C11.4477 1.5 11 1.94772 11 2.5V4H8.7C7.48497 4 6.5 4.98497 6.5 6.2V8.8C6.5 10.015 7.48497 11 8.7 11H11V13H5.2C3.98497 13 3 13.985 3 15.2V17.8C3 19.015 3.98497 20 5.2 20H11V21.5C11 22.0523 11.4477 22.5 12 22.5C12.5523 22.5 13 22.0523 13 21.5V20H18.8C20.015 20 21 19.015 21 17.8V15.2C21 13.985 20.015 13 18.8 13H13V11H15.3C16.515 11 17.5 10.015 17.5 8.8V6.2C17.5 4.98497 16.515 4 15.3 4H13V2.5C13 1.94772 12.5523 1.5 12 1.5Z" fill="black"/>
</svg>
