<svg width="24" height="24" viewBox="0 0 24 24" fill="none" xmlns="http://www.w3.org/2000/svg">
<path fill-rule="evenodd" clip-rule="evenodd" d="M10.2929 4.70741C9.57885 3.99336 8.42115 3.99336 7.70711 4.70741C6.99306 5.42145 6.99306 6.57915 7.70711 7.2932L9 8.58609L10.2929 7.2932C11.0069 6.57915 11.0069 5.42145 10.2929 4.70741ZM10.4142 10.0003L11.7071 8.70741C13.2022 7.21232 13.2022 4.78829 11.7071 3.2932C10.212 1.7981 7.78799 1.7981 6.2929 3.2932C4.7978 4.78829 4.7978 7.21232 6.2929 8.70741L7.58579 10.0003L5.04289 12.5432C2.85745 14.7286 2.85745 18.272 5.0429 20.4574C7.22834 22.6429 10.7717 22.6429 12.9571 20.4574L15.5 17.9145L18.7929 21.2074C19.1834 21.5979 19.8166 21.5979 20.2071 21.2074C20.5976 20.8169 20.5976 20.1837 20.2071 19.7932L16.9142 16.5003L20.2071 13.2074C20.5976 12.8169 20.5976 12.1837 20.2071 11.7932C19.8166 11.4027 19.1834 11.4027 18.7929 11.7932L15.5 15.0861L10.4142 10.0003ZM9 11.4145L6.45711 13.9574C5.05271 15.3618 5.05271 17.6388 6.45711 19.0432C7.86151 20.4476 10.1385 20.4476 11.5429 19.0432L14.0858 16.5003L9 11.4145Z" fill="black"/>
</svg>
