<svg width="24" height="24" viewBox="0 0 24 24" fill="none" xmlns="http://www.w3.org/2000/svg">
<path fill-rule="evenodd" clip-rule="evenodd" d="M8.50024 5C8.50024 3.067 10.0672 1.5 12.0002 1.5C13.9332 1.5 15.5002 3.067 15.5002 5C15.5002 6.58551 14.446 7.92479 13.0002 8.35506V9.5H15.5002C16.0525 9.5 16.5002 9.94771 16.5002 10.5C16.5002 11.0523 16.0525 11.5 15.5002 11.5H13.0002V20.4373C14.7532 20.2165 16.3945 19.4195 17.6571 18.1569C18.8158 16.9981 19.5824 15.5206 19.8714 13.9304L18.3164 14.4487C17.7925 14.6234 17.2262 14.3402 17.0515 13.8163C16.8769 13.2923 17.16 12.726 17.684 12.5513L20.6612 11.5589C20.7214 11.5373 20.7842 11.5212 20.8492 11.5113C20.9578 11.4946 21.0663 11.4963 21.1709 11.5145C21.3314 11.5421 21.4789 11.608 21.6036 11.7024C21.8074 11.8569 21.9502 12.0876 21.9894 12.3522C21.998 12.4095 22.0015 12.4667 22.0002 12.5234C21.994 15.1671 20.9412 17.7012 19.0713 19.5711C17.1959 21.4464 14.6524 22.5 12.0002 22.5C9.34808 22.5 6.80454 21.4464 4.92918 19.5711C3.05932 17.7012 2.00644 15.1671 2.00027 12.5234C1.99895 12.4667 2.00246 12.4095 2.01109 12.3522C2.05039 12.0869 2.19385 11.8556 2.39856 11.7012C2.52239 11.6078 2.66862 11.5425 2.82776 11.5148C2.93304 11.4963 3.0423 11.4945 3.15168 11.5114C3.21646 11.5212 3.27919 11.5373 3.33926 11.5589L6.3165 12.5513C6.84044 12.726 7.1236 13.2923 6.94895 13.8163C6.77431 14.3402 6.20799 14.6234 5.68404 14.4487L4.12913 13.9304C4.41812 15.5206 5.18468 16.9981 6.34339 18.1569C7.60602 19.4195 9.24724 20.2165 11.0002 20.4373V11.5H8.50024C7.94796 11.5 7.50024 11.0523 7.50024 10.5C7.50024 9.94771 7.94796 9.5 8.50024 9.5H11.0002V8.35506C9.5545 7.92479 8.50024 6.58551 8.50024 5Z" fill="black"/>
</svg>
