<svg width="24" height="24" viewBox="0 0 24 24" fill="none" xmlns="http://www.w3.org/2000/svg">
<path fill-rule="evenodd" clip-rule="evenodd" d="M7.99988 2.5C7.99988 1.94772 8.44759 1.5 8.99988 1.5C11.209 1.5 12.9999 3.29086 12.9999 5.5V6.35889C13.061 6.32521 13.1196 6.28841 13.1754 6.24848C14.4326 5.34887 15.9361 4.9022 17.4625 5.22665C19.2971 5.61662 20.6381 7.00251 21.3841 8.73814C22.1314 10.4766 22.3286 12.6473 21.8601 14.8513C21.3916 17.0553 20.3286 18.9581 18.9388 20.2423C17.5513 21.5245 15.7626 22.2451 13.928 21.8552C13.6959 21.8058 13.4701 21.74 13.2512 21.6586C12.465 21.3662 11.4314 21.3782 10.6293 21.6822C10.41 21.7653 10.1835 21.8322 9.95039 21.8817C8.1393 22.2667 6.37899 21.5279 5.01919 20.2424C3.65572 18.9534 2.6101 17.0503 2.14271 14.8514C1.67531 12.6525 1.85649 10.4886 2.57779 8.75647C3.29714 7.02897 4.6048 5.63814 6.41589 5.25318C7.89277 4.93926 9.3457 5.37535 10.5639 6.24558C10.6955 6.33963 10.8428 6.41644 10.9999 6.47603V5.5C10.9999 4.39543 10.1044 3.5 8.99988 3.5C8.44759 3.5 7.99988 3.05228 7.99988 2.5ZM16.5071 9.21268C16.8293 9.25465 17.1551 9.41529 17.454 9.73748C17.7591 10.0662 18.0247 10.554 18.1899 11.1901C18.3287 11.7246 18.8746 12.0454 19.4091 11.9066C19.9437 11.7677 20.2645 11.2219 20.1256 10.6873C19.8952 9.80002 19.4943 8.99592 18.9202 8.37716C18.34 7.75186 17.6009 7.33826 16.7654 7.22944C16.2178 7.1581 15.716 7.54424 15.6446 8.0919C15.5733 8.63956 15.9594 9.14135 16.5071 9.21268Z" fill="black"/>
</svg>
