<svg width="24" height="24" viewBox="0 0 24 24" fill="none" xmlns="http://www.w3.org/2000/svg">
<path fill-rule="evenodd" clip-rule="evenodd" d="M4.92893 19.0711C1.02369 15.1658 1.02369 8.83417 4.92893 4.92893C8.83418 1.02369 15.1658 1.02369 19.0711 4.92893C22.9763 8.83418 22.9763 15.1658 19.0711 19.0711C15.1658 22.9763 8.83417 22.9763 4.92893 19.0711ZM10.1719 9.17157L10.1719 12.4135L14.1209 8.46446C14.5114 8.07394 15.1446 8.07394 15.5351 8.46446C15.9256 8.85499 15.9256 9.48815 15.5351 9.87868L11.5853 13.8284H14.8287C15.381 13.8284 15.8287 14.2761 15.8287 14.8284C15.8287 15.3807 15.381 15.8284 14.8287 15.8284L9.17188 15.8284C8.61959 15.8284 8.17188 15.3807 8.17188 14.8284V9.17157C8.17188 8.61929 8.61959 8.17157 9.17188 8.17157C9.72416 8.17157 10.1719 8.61929 10.1719 9.17157Z" fill="black"/>
</svg>
