<svg width="24" height="24" viewBox="0 0 24 24" fill="none" xmlns="http://www.w3.org/2000/svg">
<path fill-rule="evenodd" clip-rule="evenodd" d="M20.7071 14.2929C20.3166 13.9024 19.6834 13.9024 19.2929 14.2929L16 17.5858L16 9.5C16 5.91015 13.0899 3 9.5 3C5.91015 3 3 5.91015 3 9.5L3 13C3 13.5523 3.44772 14 4 14C4.55228 14 5 13.5523 5 13L5 9.5C5 7.01472 7.01472 5 9.5 5C11.9853 5 14 7.01472 14 9.5L14 17.5858L10.7071 14.2929C10.3166 13.9024 9.68342 13.9024 9.29289 14.2929C8.90237 14.6834 8.90237 15.3166 9.29289 15.7071L14.2929 20.7071C14.6834 21.0976 15.3166 21.0976 15.7071 20.7071L20.7071 15.7071C21.0976 15.3166 21.0976 14.6834 20.7071 14.2929Z" fill="black"/>
</svg>
