<svg width="24" height="24" viewBox="0 0 24 24" fill="none" xmlns="http://www.w3.org/2000/svg">
<path fill-rule="evenodd" clip-rule="evenodd" d="M13.2929 21.2071C13.6834 21.5976 14.3166 21.5976 14.7071 21.2071L20.7071 15.2071C21.0976 14.8166 21.0976 14.1834 20.7071 13.7929L14.7071 7.79289C14.3166 7.40237 13.6834 7.40237 13.2929 7.79289C12.9024 8.18342 12.9024 8.81658 13.2929 9.20711L17.5858 13.5H8C7.44772 13.5 7 13.0523 7 12.5V3.5C7 2.94772 6.55228 2.5 6 2.5C5.44772 2.5 5 2.94772 5 3.5V12.5C5 14.1569 6.34315 15.5 8 15.5H17.5858L13.2929 19.7929C12.9024 20.1834 12.9024 20.8166 13.2929 21.2071Z" fill="black"/>
</svg>
