<svg width="24" height="24" viewBox="0 0 24 24" fill="none" xmlns="http://www.w3.org/2000/svg">
<path fill-rule="evenodd" clip-rule="evenodd" d="M18.7428 16.3051C19.774 14.6901 20.1912 12.7586 19.9186 10.862C19.646 8.96535 18.7018 7.22955 17.2576 5.97027C15.8134 4.711 13.9652 4.01191 12.0491 4.00015C10.133 3.98839 8.27633 4.66475 6.81677 5.9062C5.35722 7.14765 4.39173 8.87174 4.0959 10.7649C4.01063 11.3105 3.49916 11.6838 2.9535 11.5985C2.40783 11.5132 2.03461 11.0018 2.11988 10.4561C2.48966 8.08967 3.69653 5.93457 5.52097 4.38275C7.34542 2.83093 9.66624 1.98549 12.0613 2.00019C14.4564 2.01489 16.7667 2.88875 18.572 4.46284C20.3772 6.03693 21.5576 8.20669 21.8983 10.5775C22.239 12.9483 21.7175 15.3626 20.4286 17.3814C19.1396 19.4001 17.1689 20.8892 14.8749 21.5778C12.5809 22.2664 10.1159 22.1088 7.92829 21.1335C6.36339 20.4359 5.0148 19.3531 4 18.0001V21C4 21.5523 3.55228 22 3 22C2.44772 22 2 21.5523 2 21V15C2 14.4477 2.44772 14 3 14H9C9.55228 14 10 14.4477 10 15C10 15.5523 9.55228 16 9 16H5.07176C5.91294 17.457 7.19568 18.6172 8.74263 19.3068C10.4927 20.087 12.4647 20.2131 14.2999 19.6623C16.1352 19.1114 17.7117 17.9201 18.7428 16.3051Z" fill="black"/>
</svg>
