<svg width="24" height="24" viewBox="0 0 24 24" fill="none" xmlns="http://www.w3.org/2000/svg">
<path fill-rule="evenodd" clip-rule="evenodd" d="M21.2071 10.7071C21.5976 10.3166 21.5976 9.68342 21.2071 9.29289L15.2071 3.29289C14.8166 2.90237 14.1834 2.90237 13.7929 3.29289L7.79289 9.29289C7.40237 9.68342 7.40237 10.3166 7.79289 10.7071C8.18342 11.0976 8.81658 11.0976 9.20711 10.7071L13.5 6.41421L13.5 16C13.5 16.5523 13.0523 17 12.5 17L3.5 17C2.94772 17 2.5 17.4477 2.5 18C2.5 18.5523 2.94772 19 3.5 19L12.5 19C14.1569 19 15.5 17.6569 15.5 16L15.5 6.41421L19.7929 10.7071C20.1834 11.0976 20.8166 11.0976 21.2071 10.7071Z" fill="black"/>
</svg>
