<svg width="24" height="24" viewBox="0 0 24 24" fill="none" xmlns="http://www.w3.org/2000/svg">
<path fill-rule="evenodd" clip-rule="evenodd" d="M13 3C13 2.44772 13.4477 2 14 2H19C20.6569 2 22 3.34315 22 5V19C22 20.6569 20.6569 22 19 22H14C13.4477 22 13 21.5523 13 21C13 20.4477 13.4477 20 14 20H19C19.5523 20 20 19.5523 20 19V5C20 4.44772 19.5523 4 19 4H14C13.4477 4 13 3.55228 13 3ZM8.29289 18.7071C7.90237 18.3166 7.90237 17.6834 8.29289 17.2929L12.5858 13H2C1.44772 13 1 12.5523 1 12C1 11.4477 1.44772 11 2 11H12.5858L8.29289 6.70711C7.90237 6.31658 7.90237 5.68342 8.29289 5.29289C8.68342 4.90237 9.31658 4.90237 9.70711 5.29289L15.7071 11.2929C15.8924 11.4782 15.9975 11.7288 16 11.9906M16 12.0094C15.9975 12.2712 15.8924 12.5218 15.7071 12.7071L9.70711 18.7071C9.31658 19.0976 8.68342 19.0976 8.29289 18.7071" fill="black"/>
</svg>
