<svg width="24" height="24" viewBox="0 0 24 24" fill="none" xmlns="http://www.w3.org/2000/svg">
<path fill-rule="evenodd" clip-rule="evenodd" d="M10.7851 4.59905C11.3301 4.50959 11.6994 3.99526 11.6099 3.45027C11.5205 2.90528 11.0061 2.53601 10.4611 2.62547C8.4613 2.95375 6.61885 3.91296 5.20299 5.36295C3.78713 6.81293 2.87206 8.6777 2.59149 10.6848C2.31092 12.6919 2.67955 14.7361 3.64352 16.5188C4.27331 17.6834 5.13565 18.6966 6.16905 19.5H3.50001C2.94773 19.5 2.50001 19.9477 2.50001 20.5C2.50001 21.0523 2.94773 21.5 3.50001 21.5H9.16668C9.71896 21.5 10.1667 21.0523 10.1667 20.5V14.8333C10.1667 14.281 9.71896 13.8333 9.16668 13.8333C8.61439 13.8333 8.16668 14.281 8.16668 14.8333V18.4464C7.00612 17.7563 6.04926 16.763 5.40278 15.5674C4.64176 14.1601 4.35073 12.5462 4.57223 10.9617C4.79374 9.37713 5.51616 7.90495 6.63394 6.76022C7.75173 5.61549 9.20629 4.85822 10.7851 4.59905ZM13.2149 19.4009C12.6699 19.4904 12.3006 20.0047 12.3901 20.5497C12.4796 21.0947 12.9939 21.464 13.5389 21.3745C15.5387 21.0463 17.3812 20.087 18.797 18.6371C20.2129 17.1871 21.128 15.3223 21.4085 13.3152C21.6891 11.3081 21.3205 9.26391 20.3565 7.48125C19.7267 6.31659 18.8644 5.30345 17.831 4.5H20.5C21.0523 4.5 21.5 4.05228 21.5 3.5C21.5 2.94772 21.0523 2.5 20.5 2.5H14.8333C14.2811 2.5 13.8333 2.94772 13.8333 3.5L13.8333 9.16667C13.8333 9.71895 14.2811 10.1667 14.8333 10.1667C15.3856 10.1667 15.8333 9.71895 15.8333 9.16667V5.55363C16.9939 6.24374 17.9508 7.23704 18.5972 8.43256C19.3583 9.83993 19.6493 11.4538 19.4278 13.0383C19.2063 14.6229 18.4839 16.0951 17.3661 17.2398C16.2483 18.3845 14.7937 19.1418 13.2149 19.4009Z" fill="black"/>
</svg>
