<svg width="24" height="24" viewBox="0 0 24 24" fill="none" xmlns="http://www.w3.org/2000/svg">
<path fill-rule="evenodd" clip-rule="evenodd" d="M2 12C2 6.47715 6.47715 2 12 2C17.5228 2 22 6.47715 22 12C22 17.5228 17.5228 22 12 22C6.47715 22 2 17.5228 2 12ZM12 6C12.5523 6 13 6.44772 13 7L13 14.5858L16.2929 11.2929C16.6834 10.9024 17.3166 10.9024 17.7071 11.2929C18.0976 11.6834 18.0976 12.3166 17.7071 12.7071L12.7071 17.7071C12.6112 17.803 12.5007 17.8753 12.3828 17.9241C12.2649 17.973 12.1356 18 12 18C11.8633 18 11.7331 17.9726 11.6144 17.9229C11.5029 17.8764 11.3981 17.8088 11.3062 17.7201L11.2913 17.7055L6.29289 12.7071C5.90237 12.3166 5.90237 11.6834 6.29289 11.2929C6.68342 10.9024 7.31658 10.9024 7.70711 11.2929L11 14.5858L11 7C11 6.44771 11.4477 6 12 6Z" fill="black"/>
</svg>
