<svg width="24" height="24" viewBox="0 0 24 24" fill="none" xmlns="http://www.w3.org/2000/svg">
<path fill-rule="evenodd" clip-rule="evenodd" d="M19.0711 4.92893C22.9763 8.83417 22.9763 15.1658 19.0711 19.0711C15.1658 22.9763 8.83417 22.9763 4.92893 19.0711C1.02369 15.1658 1.02369 8.83417 4.92893 4.92893C8.83418 1.02369 15.1658 1.02369 19.0711 4.92893ZM14.8287 15.8284C14.2764 15.8284 13.8287 15.3807 13.8287 14.8284L13.8287 11.5865L9.87974 15.5355C9.48921 15.9261 8.85605 15.9261 8.46552 15.5355C8.075 15.145 8.075 14.5118 8.46552 14.1213L12.4153 10.1716L9.17188 10.1716C8.61959 10.1716 8.17188 9.72386 8.17188 9.17157C8.17188 8.61929 8.61959 8.17157 9.17188 8.17157H14.8287L14.8323 8.17158C15.0873 8.1723 15.3421 8.26993 15.5366 8.46447C15.7418 8.66965 15.8392 8.94181 15.8287 9.21056L15.8287 14.8284C15.8287 15.3807 15.381 15.8284 14.8287 15.8284Z" fill="black"/>
</svg>
