<svg width="24" height="24" viewBox="0 0 24 24" fill="none" xmlns="http://www.w3.org/2000/svg">
<path fill-rule="evenodd" clip-rule="evenodd" d="M14.2929 20.7071C13.9024 20.3166 13.9024 19.6834 14.2929 19.2929L17.5858 16H9.5C5.91015 16 3 13.0899 3 9.5C3 5.91015 5.91015 3 9.5 3H13C13.5523 3 14 3.44772 14 4C14 4.55229 13.5523 5 13 5H9.5C7.01472 5 5 7.01472 5 9.5C5 11.9853 7.01472 14 9.5 14H17.5858L14.2929 10.7071C13.9024 10.3166 13.9024 9.68342 14.2929 9.29289C14.6834 8.90237 15.3166 8.90237 15.7071 9.29289L20.7071 14.2929C21.0976 14.6834 21.0976 15.3166 20.7071 15.7071L15.7071 20.7071C15.3166 21.0976 14.6834 21.0976 14.2929 20.7071Z" fill="black"/>
</svg>
