<svg width="24" height="24" viewBox="0 0 24 24" fill="none" xmlns="http://www.w3.org/2000/svg">
<path fill-rule="evenodd" clip-rule="evenodd" d="M4.29289 9.24271C3.90237 9.63324 3.90237 10.2664 4.2929 10.6569C4.68343 11.0474 5.31659 11.0474 5.70711 10.6569L10.9497 5.41423L10.9497 15.3138C10.9497 15.8661 11.3975 16.3138 11.9498 16.3138C12.502 16.3138 12.9497 15.8661 12.9497 15.3138L12.9497 5.41423L18.1923 10.6569C18.5828 11.0474 19.216 11.0474 19.6065 10.6569C19.9971 10.2663 19.9971 9.63316 19.6065 9.24264L12.6568 2.29289C12.4693 2.10536 12.2149 2 11.9497 2C11.6845 2 11.4301 2.10536 11.2426 2.2929L4.29289 9.24271ZM4 13.9999C4 13.4476 3.55228 12.9999 3 12.9999C2.44772 12.9999 2 13.4476 2 13.9999V17.9999C2 20.2091 3.79086 21.9999 6 21.9999H18C20.2091 21.9999 22 20.2091 22 17.9999V13.9999C22 13.4476 21.5523 12.9999 21 12.9999C20.4477 12.9999 20 13.4476 20 13.9999V17.9999C20 19.1045 19.1046 19.9999 18 19.9999H6C4.89543 19.9999 4 19.1045 4 17.9999V13.9999Z" fill="black"/>
</svg>
