<svg width="24" height="24" viewBox="0 0 24 24" fill="none" xmlns="http://www.w3.org/2000/svg">
<path fill-rule="evenodd" clip-rule="evenodd" d="M18.7071 9.70711C19.0976 9.31658 19.0976 8.68342 18.7071 8.29289C18.3166 7.90237 17.6834 7.90237 17.2929 8.29289L13 12.5858V2C13 1.44772 12.5523 1 12 1C11.4477 1 11 1.44772 11 2V12.5858L6.70711 8.29289C6.31658 7.90237 5.68342 7.90237 5.29289 8.29289C4.90237 8.68342 4.90237 9.31658 5.29289 9.70711L11.2929 15.7071C11.6834 16.0976 12.3166 16.0976 12.7071 15.7071L18.7071 9.70711ZM21.5 17.5C21.5 19.7091 19.7091 21.5 17.5 21.5H6.5C4.29086 21.5 2.5 19.7091 2.5 17.5V13.5C2.5 12.9477 2.94772 12.5 3.5 12.5C4.05228 12.5 4.5 12.9477 4.5 13.5V17.5C4.5 18.6046 5.39543 19.5 6.5 19.5H17.5C18.6046 19.5 19.5 18.6046 19.5 17.5V13.5C19.5 12.9477 19.9477 12.5 20.5 12.5C21.0523 12.5 21.5 12.9477 21.5 13.5V17.5Z" fill="black"/>
</svg>
