<svg width="24" height="24" viewBox="0 0 24 24" fill="none" xmlns="http://www.w3.org/2000/svg">
<path fill-rule="evenodd" clip-rule="evenodd" d="M9.70711 3.29289C10.0976 3.68342 10.0976 4.31658 9.70711 4.70711L6.41421 8H14.5C18.0899 8 21 10.9101 21 14.5C21 18.0899 18.0899 21 14.5 21H11C10.4477 21 10 20.5523 10 20C10 19.4477 10.4477 19 11 19H14.5C16.9853 19 19 16.9853 19 14.5C19 12.0147 16.9853 10 14.5 10H6.41421L9.70711 13.2929C10.0976 13.6834 10.0976 14.3166 9.70711 14.7071C9.31658 15.0976 8.68342 15.0976 8.29289 14.7071L3.29289 9.70711C2.90237 9.31658 2.90237 8.68342 3.29289 8.29289L8.29289 3.29289C8.68342 2.90237 9.31658 2.90237 9.70711 3.29289Z" fill="black"/>
</svg>
