<svg width="24" height="24" viewBox="0 0 24 24" fill="none" xmlns="http://www.w3.org/2000/svg">
<path fill-rule="evenodd" clip-rule="evenodd" d="M18.7071 8.29289C19.0976 8.68342 19.0976 9.31658 18.7071 9.70711C18.3166 10.0976 17.6834 10.0976 17.2929 9.70711L13 5.41421V15C13 15.5523 12.5523 16 12 16C11.4477 16 11 15.5523 11 15V5.41421L6.70711 9.70711C6.31658 10.0976 5.68342 10.0976 5.29289 9.70711C4.90237 9.31658 4.90237 8.68342 5.29289 8.29289L11.2929 2.29289C11.6834 1.90237 12.3166 1.90237 12.7071 2.29289L18.7071 8.29289ZM21 19C21.5523 19 22 19.4477 22 20C22 20.5523 21.5523 21 21 21H3C2.44772 21 2 20.5523 2 20C2 19.4477 2.44772 19 3 19H21Z" fill="black"/>
</svg>
