<svg width="24" height="24" viewBox="0 0 24 24" fill="none" xmlns="http://www.w3.org/2000/svg">
<path fill-rule="evenodd" clip-rule="evenodd" d="M9.45861 1.01245C10.1774 0.663039 11.0156 0.5 12 0.5C12.9844 0.5 13.8226 0.663039 14.5414 1.01245C15.2672 1.3653 15.8063 1.87664 16.2351 2.47211C16.6538 3.05338 16.9738 3.72461 17.2639 4.40629C17.3963 4.7172 17.5278 5.04362 17.6604 5.37279L17.702 5.47597C17.8502 5.84356 18.0022 6.2184 18.1685 6.60457C18.4185 7.18517 18.7062 7.72908 19.01 8.27871C19.083 8.41082 19.1579 8.54493 19.2337 8.68052L19.2337 8.68054L19.2337 8.68056C19.4656 9.09564 19.7052 9.52457 19.9217 9.9522C20.5098 11.1136 21 12.3988 21 14C21 18.4686 17.6324 23 12 23C6.36759 23 3 18.4686 3 14C3 12.3988 3.49024 11.1136 4.07829 9.9522C4.29481 9.52456 4.53443 9.09562 4.76631 8.68053L4.76633 8.6805C4.84207 8.54492 4.91698 8.41081 4.99 8.27871C5.29379 7.72908 5.58155 7.18517 5.8315 6.60457C5.99776 6.2184 6.14977 5.84356 6.29797 5.47597L6.33961 5.37265C6.47223 5.04353 6.60374 4.71716 6.73606 4.40629C7.02622 3.72461 7.34624 3.05338 7.76485 2.47211C8.19369 1.87664 8.73276 1.3653 9.45861 1.01245ZM8.15288 6.22383C8.00438 6.59215 7.84479 6.98594 7.6685 7.39543C7.37906 8.06772 7.05337 8.67999 6.74041 9.24621C6.65722 9.39671 6.57593 9.54226 6.49651 9.68446C6.2702 10.0896 6.05908 10.4676 5.86262 10.8556C5.34537 11.8772 5 12.8391 5 14C5 17.5314 7.63241 21 12 21C16.3676 21 19 17.5314 19 14C19 12.8391 18.6546 11.8772 18.1374 10.8556C17.9409 10.4676 17.7298 10.0896 17.5035 9.68448C17.4241 9.54227 17.3428 9.39672 17.2596 9.24621C16.9466 8.67999 16.6209 8.06772 16.3315 7.39543C16.1552 6.98594 15.9956 6.59215 15.8471 6.22383L15.8062 6.1223C15.6721 5.78958 15.548 5.48155 15.4237 5.18959C15.1479 4.54164 14.8973 4.03679 14.6122 3.6409C14.3373 3.25919 14.0396 2.99229 13.667 2.81118C13.2874 2.62663 12.7656 2.5 12 2.5C11.2344 2.5 10.7126 2.62663 10.333 2.81118C9.96045 2.99229 9.66268 3.25919 9.38779 3.6409C9.10268 4.03679 8.85209 4.54164 8.57629 5.18959C8.45202 5.48153 8.3279 5.78955 8.19383 6.12224L8.15288 6.22383ZM12 9C9.23858 9 7 11.2386 7 14C7 16.7614 9.23858 19 12 19C14.7614 19 17 16.7614 17 14C17 11.2386 14.7614 9 12 9Z" fill="black"/>
</svg>
