<svg width="24" height="24" viewBox="0 0 24 24" fill="none" xmlns="http://www.w3.org/2000/svg">
<path fill-rule="evenodd" clip-rule="evenodd" d="M5.07542 4.57542C8.98066 0.670174 15.3123 0.670174 19.2176 4.57542C23.1228 8.48066 23.1228 14.8123 19.2176 18.7176C15.3123 22.6228 8.98066 22.6228 5.07542 18.7176C1.17017 14.8123 1.17017 8.48066 5.07542 4.57542ZM11.7207 3.37664C12.2667 3.45977 12.6419 3.96978 12.5587 4.51577C12.2701 6.4113 11.3837 8.16512 10.0286 9.52163C8.67359 10.8781 6.92072 11.7664 5.0255 12.0571C4.4796 12.1408 3.96919 11.7661 3.88547 11.2202C3.80176 10.6743 4.17644 10.1639 4.72234 10.0802C6.1964 9.85415 7.55974 9.16324 8.61368 8.10818C9.66762 7.05311 10.3571 5.68903 10.5815 4.21473C10.6647 3.66874 11.1747 3.29351 11.7207 3.37664ZM20.2695 12.1725C20.1875 11.6263 19.6782 11.2501 19.1321 11.3321C17.279 11.6104 15.5812 12.4564 14.2725 13.7632C12.9638 15.07 12.1152 16.7665 11.8343 18.6191C11.7515 19.1651 12.127 19.6749 12.6731 19.7577C13.2191 19.8405 13.7289 19.465 13.8117 18.9189C14.03 17.4795 14.686 16.1766 15.6856 15.1785C16.6853 14.1803 17.9892 13.5262 19.4291 13.3099C19.9753 13.2279 20.3515 12.7186 20.2695 12.1725Z" fill="black"/>
</svg>
