<svg width="24" height="24" viewBox="0 0 24 24" fill="none" xmlns="http://www.w3.org/2000/svg">
<path fill-rule="evenodd" clip-rule="evenodd" d="M4.92893 4.92893C8.83417 1.02369 15.1658 1.02369 19.0711 4.92893C22.9763 8.83417 22.9763 15.1658 19.0711 19.0711C15.1658 22.9763 8.83417 22.9763 4.92893 19.0711C1.02369 15.1658 1.02369 8.83417 4.92893 4.92893ZM12.5561 4.03526C13.1005 4.12771 13.467 4.64405 13.3746 5.18854C13.3054 5.59574 13.2114 5.99667 13.0936 6.38927C12.9348 6.91824 12.3773 7.21836 11.8483 7.0596C11.3194 6.90085 11.0192 6.34333 11.178 5.81435C11.2723 5.5003 11.3475 5.17956 11.4028 4.85377C11.4952 4.30928 12.0116 3.94282 12.5561 4.03526ZM11.2304 8.25622C11.6661 8.5956 11.7442 9.22393 11.4049 9.65964C11.153 9.98301 10.8805 10.2918 10.5885 10.5839C10.2966 10.8761 9.98792 11.1487 9.66468 11.4007C9.22915 11.7403 8.60078 11.6626 8.26118 11.227C7.92157 10.7915 7.99934 10.1631 8.43487 9.82352C8.69345 9.6219 8.94036 9.40381 9.17397 9.17008C9.40757 8.93636 9.62554 8.68933 9.82702 8.43065C10.1664 7.99494 10.7947 7.91685 11.2304 8.25622ZM7.06488 11.8456C7.22391 12.3744 6.92408 12.9321 6.39519 13.0911C6.00266 13.2092 5.60177 13.3034 5.19461 13.3727C4.65016 13.4655 4.13363 13.0993 4.04091 12.5548C3.94818 12.0104 4.31437 11.4939 4.85881 11.4011C5.18457 11.3457 5.50528 11.2703 5.81928 11.1759C6.34817 11.0168 6.90584 11.3167 7.06488 11.8456ZM19.9309 11.4468C19.8365 10.9027 19.3188 10.5381 18.7746 10.6326C18.369 10.703 17.9697 10.7981 17.5787 10.9169C17.0502 11.0774 16.752 11.6359 16.9125 12.1643C17.073 12.6928 17.6315 12.991 18.1599 12.8305C18.4727 12.7355 18.7922 12.6594 19.1167 12.6031C19.6609 12.5087 20.0254 11.991 19.9309 11.4468ZM15.7269 12.7806C15.3866 12.3457 14.7581 12.2689 14.3231 12.6092C14.0013 12.861 13.694 13.1332 13.4033 13.4248C13.1126 13.7163 12.8413 14.0244 12.5905 14.347C12.2515 14.783 12.3301 15.4113 12.7661 15.7503C13.2021 16.0893 13.8304 16.0107 14.1694 15.5747C14.37 15.3166 14.5871 15.0701 14.8196 14.8369C15.0522 14.6036 15.298 14.3858 15.5555 14.1844C15.9905 13.8441 16.0672 13.2156 15.7269 12.7806ZM12.1534 16.9377C11.6245 16.7788 11.0669 17.0787 10.9079 17.6077C10.7904 17.999 10.6964 18.3986 10.6272 18.8045C10.5344 19.3489 10.9005 19.8655 11.4449 19.9583C11.9894 20.0512 12.506 19.6851 12.5988 19.1406C12.6542 18.8159 12.7293 18.4962 12.8233 18.1832C12.9823 17.6543 12.6823 17.0966 12.1534 16.9377Z" fill="black"/>
</svg>
