<svg width="24" height="24" viewBox="0 0 24 24" fill="none" xmlns="http://www.w3.org/2000/svg">
<path fill-rule="evenodd" clip-rule="evenodd" d="M2 16C2 8.26801 8.26801 2 16 2C17.067 2 18.1072 2.11954 19.1077 2.34636C20.3764 2.634 21.366 3.62365 21.6536 4.89233C21.8805 5.89277 22 6.93304 22 8C22 15.732 15.732 22 8 22C6.93304 22 5.89277 21.8805 4.89233 21.6536C3.62365 21.366 2.634 20.3764 2.34636 19.1077C2.11954 18.1072 2 17.067 2 16ZM19.7071 7.29289L16.7071 4.29289C16.3166 3.90237 15.6834 3.90237 15.2929 4.29289C14.9024 4.68342 14.9024 5.31658 15.2929 5.70711L18.2929 8.70711C18.6834 9.09763 19.3166 9.09763 19.7071 8.70711C20.0976 8.31658 20.0976 7.68342 19.7071 7.29289ZM15.7071 9.70711C16.0976 9.31658 16.0976 8.68342 15.7071 8.29289C15.3166 7.90237 14.6834 7.90237 14.2929 8.29289L13.5 9.08579L12.7071 8.29289C12.3166 7.90237 11.6834 7.90237 11.2929 8.29289C10.9024 8.68342 10.9024 9.31658 11.2929 9.70711L12.0858 10.5L10.5 12.0858L9.70711 11.2929C9.31658 10.9024 8.68342 10.9024 8.29289 11.2929C7.90237 11.6834 7.90237 12.3166 8.29289 12.7071L9.08579 13.5L8.29289 14.2929C7.90237 14.6834 7.90237 15.3166 8.29289 15.7071C8.68342 16.0976 9.31658 16.0976 9.70711 15.7071L10.5 14.9142L11.2929 15.7071C11.6834 16.0976 12.3166 16.0976 12.7071 15.7071C13.0976 15.3166 13.0976 14.6834 12.7071 14.2929L11.9142 13.5L13.5 11.9142L14.2929 12.7071C14.6834 13.0976 15.3166 13.0976 15.7071 12.7071C16.0976 12.3166 16.0976 11.6834 15.7071 11.2929L14.9142 10.5L15.7071 9.70711ZM4.29289 15.2929C4.68342 14.9024 5.31658 14.9024 5.70711 15.2929L8.70711 18.2929C9.09763 18.6834 9.09763 19.3166 8.70711 19.7071C8.31658 20.0976 7.68342 20.0976 7.29289 19.7071L4.29289 16.7071C3.90237 16.3166 3.90237 15.6834 4.29289 15.2929Z" fill="black"/>
</svg>
