<svg width="24" height="24" viewBox="0 0 24 24" fill="none" xmlns="http://www.w3.org/2000/svg">
<path fill-rule="evenodd" clip-rule="evenodd" d="M11.4454 2.16795C11.7813 1.94402 12.2189 1.94402 12.5548 2.16795L21.5548 8.16795C21.9214 8.41239 22.0849 8.86803 21.9572 9.28978C21.8295 9.71154 21.4407 10 21.0001 10H19.0001V16H19.5001C20.0524 16 20.5001 16.4477 20.5001 17C20.5001 17.5523 20.0524 18 19.5001 18H19.0001H5.00009H4.50009C3.94781 18 3.50009 17.5523 3.50009 17C3.50009 16.4477 3.94781 16 4.50009 16H5.00009V10H3.00008C2.55941 10 2.17068 9.71154 2.04299 9.28978C1.91529 8.86803 2.07872 8.41239 2.44538 8.16795L11.4454 2.16795ZM3.00009 20C2.44781 20 2.00009 20.4477 2.00009 21C2.00009 21.5523 2.44781 22 3.00009 22H21.0001C21.5524 22 22.0001 21.5523 22.0001 21C22.0001 20.4477 21.5524 20 21.0001 20H3.00009ZM13.5001 6.5C13.5001 7.32843 12.8285 8 12.0001 8C11.1717 8 10.5001 7.32843 10.5001 6.5C10.5001 5.67157 11.1717 5 12.0001 5C12.8285 5 13.5001 5.67157 13.5001 6.5ZM8.00009 10C8.55238 10 9.00009 10.4477 9.00009 11V15C9.00009 15.5523 8.55238 16 8.00009 16C7.44781 16 7.00009 15.5523 7.00009 15V11C7.00009 10.4477 7.44781 10 8.00009 10ZM12.0001 10C12.5524 10 13.0001 10.4477 13.0001 11V15C13.0001 15.5523 12.5524 16 12.0001 16C11.4478 16 11.0001 15.5523 11.0001 15V11C11.0001 10.4477 11.4478 10 12.0001 10ZM17.0001 11C17.0001 10.4477 16.5524 10 16.0001 10C15.4478 10 15.0001 10.4477 15.0001 11V15C15.0001 15.5523 15.4478 16 16.0001 16C16.5524 16 17.0001 15.5523 17.0001 15V11Z" fill="black"/>
</svg>
