<svg width="24" height="24" viewBox="0 0 24 24" fill="none" xmlns="http://www.w3.org/2000/svg">
<path fill-rule="evenodd" clip-rule="evenodd" d="M13 2H17V5H13V2ZM7 2H11V5H7V2ZM22 5C22 3.34315 20.6569 2 19 2V5C19 6.10457 18.1046 7 17 7H13C12.6357 7 12.2942 6.90261 12 6.73243C11.7058 6.90261 11.3643 7 11 7H7C5.89543 7 5 6.10457 5 5V2C3.34315 2 2 3.34315 2 5V9.53513C2.58835 9.19479 3.27143 9 4 9H20C20.7286 9 21.4117 9.19479 22 9.53513V5ZM22 19V13C22 11.8954 21.1046 11 20 11H4C2.89543 11 2 11.8954 2 13V19C2 20.6569 3.34315 22 5 22H19C20.6569 22 22 20.6569 22 19Z" fill="black"/>
</svg>
