<svg width="24" height="24" viewBox="0 0 24 24" fill="none" xmlns="http://www.w3.org/2000/svg">
<path fill-rule="evenodd" clip-rule="evenodd" d="M12 1C8.68629 1 6 3.68629 6 7V9.79032C6 10.2371 5.78966 10.6578 5.43226 10.9258L5.1027 11.173C3.77902 12.1657 3 13.7238 3 15.3784C3 16.8263 4.17374 18 5.62162 18H18.3784C19.8263 18 21 16.8263 21 15.3784C21 13.7238 20.221 12.1657 18.8973 11.173L18.5677 10.9258C18.2103 10.6578 18 10.2371 18 9.79032V7C18 3.68629 15.3137 1 12 1ZM8.46452 20.1213C8.85505 19.7307 9.48821 19.7307 9.87874 20.1213C10.1573 20.3998 10.488 20.6208 10.852 20.7716C11.216 20.9223 11.6061 20.9999 12.0001 20.9999C12.394 20.9999 12.7841 20.9223 13.1481 20.7716C13.5121 20.6208 13.8428 20.3998 14.1214 20.1213C14.5119 19.7307 15.1451 19.7307 15.5356 20.1213C15.9261 20.5118 15.9261 21.145 15.5356 21.5355C15.0713 21.9998 14.5201 22.3681 13.9135 22.6193C13.3068 22.8706 12.6567 22.9999 12.0001 22.9999C11.3434 22.9999 10.6933 22.8706 10.0866 22.6193C9.48001 22.3681 8.92882 21.9998 8.46452 21.5355C8.074 21.145 8.074 20.5118 8.46452 20.1213ZM12 7C12.5523 7 13 7.44772 13 8V10H15C15.5523 10 16 10.4477 16 11C16 11.5523 15.5523 12 15 12H13V14C13 14.5523 12.5523 15 12 15C11.4477 15 11 14.5523 11 14V12H9C8.44772 12 8 11.5523 8 11C8 10.4477 8.44772 10 9 10H11V8C11 7.44772 11.4477 7 12 7Z" fill="black"/>
</svg>
