<svg width="24" height="24" viewBox="0 0 24 24" fill="none" xmlns="http://www.w3.org/2000/svg">
<path fill-rule="evenodd" clip-rule="evenodd" d="M12 1C13.1761 1 14.2731 1.33837 15.1991 1.92308C15.0705 2.25734 15 2.62044 15 3C13.3431 3 12 4.34315 12 6C12 7.65685 13.3431 9 15 9C15 10.6569 16.3431 12 18 12C18.5196 12 19.0083 11.8679 19.4344 11.6355C20.4291 12.6163 21 13.962 21 15.3784C21 16.8263 19.8263 18 18.3784 18H5.62162C4.17374 18 3 16.8263 3 15.3784C3 13.7238 3.77902 12.1657 5.1027 11.173L5.43226 10.9258C5.78966 10.6578 6 10.2371 6 9.79032V7C6 3.68629 8.68629 1 12 1ZM9.87874 20.1213C9.48821 19.7307 8.85505 19.7307 8.46452 20.1213C8.074 20.5118 8.074 21.145 8.46452 21.5355C8.92882 21.9998 9.48001 22.3681 10.0866 22.6193C10.6933 22.8706 11.3434 22.9999 12.0001 22.9999C12.6567 22.9999 13.3068 22.8706 13.9135 22.6193C14.5201 22.3681 15.0713 21.9998 15.5356 21.5355C15.9261 21.145 15.9261 20.5118 15.5356 20.1213C15.1451 19.7307 14.5119 19.7307 14.1214 20.1213C13.8428 20.3998 13.5121 20.6208 13.1481 20.7716C12.7841 20.9223 12.394 20.9999 12.0001 20.9999C11.6061 20.9999 11.216 20.9223 10.852 20.7716C10.488 20.6208 10.1573 20.3998 9.87874 20.1213ZM19 3C19 2.44772 18.5523 2 18 2C17.4477 2 17 2.44772 17 3V5H15C14.4477 5 14 5.44772 14 6C14 6.55228 14.4477 7 15 7H17V9C17 9.55228 17.4477 10 18 10C18.5523 10 19 9.55228 19 9V7H21C21.5523 7 22 6.55228 22 6C22 5.44772 21.5523 5 21 5H19V3Z" fill="black"/>
</svg>
