<svg width="24" height="24" viewBox="0 0 24 24" fill="none" xmlns="http://www.w3.org/2000/svg">
<g clip-path="url(#clip0_1215_6427)">
<path fill-rule="evenodd" clip-rule="evenodd" d="M12.6726 7.06305L13.5206 2.6115C13.8266 1.00494 11.7061 0.138017 10.799 1.49878L3.16795 12.9453C2.96338 13.2522 2.94431 13.6467 3.11833 13.9719C3.29235 14.297 3.63121 14.5 4 14.5H5.23568L12.6726 7.06305ZM13.0641 9.50001L8.0641 14.5H8.08577L0.292893 22.2929C-0.0976311 22.6834 -0.0976311 23.3166 0.292893 23.7071C0.683417 24.0976 1.31658 24.0976 1.70711 23.7071L10.7627 14.6515L9.47945 21.3885C9.17344 22.9951 11.2938 23.862 12.201 22.5012L19.8321 11.0547C20.0366 10.7479 20.0557 10.3533 19.8817 10.0282C19.7077 9.703 19.3688 9.50001 19 9.50001H15.9142L23.7071 1.70711C24.0976 1.31658 24.0976 0.683417 23.7071 0.292893C23.3166 -0.0976311 22.6834 -0.0976311 22.2929 0.292893L13.0858 9.50001H13.0641Z" fill="black"/>
</g>
<defs>
<clipPath id="clip0_1215_6427">
<rect width="24" height="24" fill="white"/>
</clipPath>
</defs>
</svg>
