<svg width="24" height="24" viewBox="0 0 24 24" fill="none" xmlns="http://www.w3.org/2000/svg">
<path fill-rule="evenodd" clip-rule="evenodd" d="M4 2.5C3.17157 2.5 2.5 3.17157 2.5 4V20C2.5 20.8284 3.17157 21.5 4 21.5H9.5C10.3284 21.5 11 20.8284 11 20V7.33032L14.537 20.5306C14.7514 21.3308 15.5739 21.8057 16.3741 21.5913L21.6867 20.1678C22.4869 19.9534 22.9618 19.1309 22.7474 18.3307L19.1239 4.8077C18.9095 4.0075 18.087 3.53263 17.2868 3.74704L11.9742 5.17055C11.5262 5.29058 11.1802 5.60122 11 5.99183V4C11 3.17157 10.3284 2.5 9.5 2.5H4ZM4.5 6.5V4.5H9V6.5H4.5ZM4.5 19.5V17.5H9V19.5H4.5ZM14.9405 8.51657C14.4071 8.65951 14.0905 9.20785 14.2334 9.74132C14.3764 10.2748 14.9247 10.5914 15.4582 10.4484L16.9071 10.0602C17.4405 9.91725 17.7571 9.36892 17.6142 8.83545C17.4712 8.30198 16.9229 7.9854 16.3894 8.12834L14.9405 8.51657ZM16.3401 19.5301L15.8225 17.5983L20.1692 16.4336L20.6868 18.3654L16.3401 19.5301Z" fill="black"/>
</svg>
