<svg width="24" height="24" viewBox="0 0 24 24" fill="none" xmlns="http://www.w3.org/2000/svg">
<g clip-path="url(#clip0_1215_6452)">
<path fill-rule="evenodd" clip-rule="evenodd" d="M16.2284 3.50775C15.7457 3.18426 15.1683 3 14.5585 3H9.44152C8.15023 3 7.00381 3.82629 6.59547 5.05132L6.27924 6H5.5C3.29086 6 1.5 7.79086 1.5 10V16.5C1.5 17.0156 1.59755 17.5084 1.7752 17.961L7.50014 12.236C7.50005 12.224 7.5 12.212 7.5 12.2C7.5 9.71473 9.51472 7.70001 12 7.70001C12.012 7.70001 12.024 7.70006 12.036 7.70015L16.2284 3.50775ZM12.7501 9.8145C12.7555 9.81618 12.7608 9.81789 12.7662 9.81961L14.2713 8.31445C14.2669 8.31184 14.2624 8.30924 14.258 8.30665L17.4317 5.13288L17.437 5.14877L22.2929 0.292893C22.6834 -0.0976311 23.3166 -0.0976311 23.7071 0.292893C24.0976 0.683417 24.0976 1.31658 23.7071 1.70711L19.3283 6.08587C21.14 6.46736 22.5 8.07486 22.5 10V16.5C22.5 18.7091 20.7091 20.5 18.5 20.5H5.5C5.31393 20.5 5.13083 20.4873 4.95151 20.4627L1.70711 23.7071C1.31658 24.0976 0.683417 24.0976 0.292893 23.7071C-0.0976311 23.3166 -0.0976311 22.6834 0.292893 22.2929L2.97958 19.6062C2.97568 19.603 2.9718 19.5999 2.96791 19.5967L8.10663 14.458C8.10923 14.4624 8.11183 14.4669 8.11444 14.4713L9.61959 12.9662C9.61787 12.9608 9.61617 12.9555 9.61448 12.9501L12.7501 9.8145ZM15.731 9.68326L14.2678 11.1464C14.4168 11.4666 14.5 11.8236 14.5 12.2C14.5 13.5807 13.3807 14.7 12 14.7C11.6236 14.7 11.2666 14.6168 10.9464 14.4678L9.48325 15.931C10.2016 16.4165 11.0677 16.7 12 16.7C14.4853 16.7 16.5 14.6853 16.5 12.2C16.5 11.2677 16.2165 10.4016 15.731 9.68326Z" fill="black"/>
</g>
<defs>
<clipPath id="clip0_1215_6452">
<rect width="24" height="24" fill="white"/>
</clipPath>
</defs>
</svg>
