<svg width="24" height="24" viewBox="0 0 24 24" fill="none" xmlns="http://www.w3.org/2000/svg">
<path fill-rule="evenodd" clip-rule="evenodd" d="M3.86755 5.73509C4.41201 4.10172 5.94056 3 7.66228 3H16.3377C18.0595 3 19.588 4.10172 20.1325 5.73509L20.7208 7.5H22C22.5523 7.5 23 7.94772 23 8.5C23 9.05228 22.5523 9.5 22 9.5H21.3874L21.4487 9.68377C21.454 9.69963 21.4589 9.71558 21.4633 9.73159C22.0983 10.2817 22.5 11.0939 22.5 12V16.8874V17V19C22.5 20.1046 21.6046 21 20.5 21H19.5C18.3954 21 17.5 20.1046 17.5 19V18H6.5V19C6.5 20.1046 5.60457 21 4.5 21H3.5C2.39543 21 1.5 20.1046 1.5 19V17V16.8874V12C1.5 11.0939 1.90169 10.2817 2.5367 9.73157C2.54117 9.71557 2.54604 9.69963 2.55132 9.68377L2.61258 9.5H2C1.44772 9.5 1 9.05228 1 8.5C1 7.94772 1.44772 7.5 2 7.5H3.27925L3.86755 5.73509ZM18.2351 6.36754L19.0439 8.79408C19.0486 8.80909 19.0535 8.82394 19.0588 8.83864L19.1126 9H4.88743L4.9414 8.83809C4.94655 8.82375 4.95138 8.80927 4.95589 8.79464L5.76492 6.36754C6.03715 5.55086 6.80142 5 7.66228 5H16.3377C17.1986 5 17.9629 5.55086 18.2351 6.36754ZM5.5 15C6.32843 15 7 14.3284 7 13.5C7 12.6716 6.32843 12 5.5 12C4.67157 12 4 12.6716 4 13.5C4 14.3284 4.67157 15 5.5 15ZM10 12.5C9.44772 12.5 9 12.9477 9 13.5C9 14.0523 9.44772 14.5 10 14.5H14C14.5523 14.5 15 14.0523 15 13.5C15 12.9477 14.5523 12.5 14 12.5H10ZM20 13.5C20 14.3284 19.3284 15 18.5 15C17.6716 15 17 14.3284 17 13.5C17 12.6716 17.6716 12 18.5 12C19.3284 12 20 12.6716 20 13.5Z" fill="black"/>
</svg>
