<svg width="24" height="24" viewBox="0 0 24 24" fill="none" xmlns="http://www.w3.org/2000/svg">
<path fill-rule="evenodd" clip-rule="evenodd" d="M12 2C9.23858 2 7 4.23858 7 7C7 7.34262 7.03457 7.67742 7.1004 8.00099C7.06701 8.00033 7.03354 8 7 8C4.23858 8 2 10.2386 2 13C2 15.7614 4.23858 18 7 18C8.15924 18 9.22583 17.6053 10.0732 16.9441L8.1221 20.5211C7.9531 20.831 7.95994 21.207 8.1401 21.5105C8.32026 21.814 8.64706 22 9 22H15C15.3529 22 15.6797 21.814 15.8599 21.5105C16.0401 21.207 16.0469 20.831 15.8779 20.5211L13.9268 16.9441C14.7742 17.6053 15.8408 18 17 18C19.7614 18 22 15.7614 22 13C22 10.2386 19.7614 8 17 8C16.9665 8 16.933 8.00033 16.8996 8.00099C16.9654 7.67742 17 7.34262 17 7C17 4.23858 14.7614 2 12 2Z" fill="black"/>
</svg>
