<svg width="24" height="24" viewBox="0 0 24 24" fill="none" xmlns="http://www.w3.org/2000/svg">
<path fill-rule="evenodd" clip-rule="evenodd" d="M4.02193 7.72303C4.10186 7.65217 4.18366 7.58264 4.26733 7.51447C5.29683 6.67561 6.57162 6.07253 8.05838 5.70265C7.7684 5.08798 7.40277 4.5077 6.99807 4.03638C6.40031 3.3402 5.84756 3.02536 5.43645 2.97358C5.43027 2.98058 5.42354 2.98844 5.41627 2.99723C5.30163 3.13593 5.15343 3.39192 4.99121 3.79409C4.67062 4.58887 4.3867 5.71988 4.15204 6.98112C4.10642 7.22632 4.06305 7.47423 4.02193 7.72303ZM1.45908 13.5314C1.45505 13.495 1.45298 13.4579 1.45298 13.4204C1.45298 12.1552 1.6994 9.22952 2.18578 6.6153C2.42841 5.3112 2.74108 4.02602 3.13642 3.04593C3.33215 2.56067 3.57175 2.08956 3.87472 1.72303C4.17023 1.36551 4.64879 0.96582 5.31666 0.96582C6.60955 0.96582 7.71906 1.80597 8.51546 2.73349C9.1591 3.48309 9.70284 4.40665 10.0893 5.35483C10.6996 5.29243 11.3365 5.26129 11.9984 5.26129C12.6629 5.26129 13.301 5.29761 13.9114 5.36855C14.2964 4.4233 14.8372 3.50079 15.477 2.75032C16.2727 1.81697 17.3847 0.96582 18.6831 0.96582C19.351 0.96582 19.8296 1.36551 20.1251 1.72303C20.4281 2.08957 20.6676 2.56068 20.8634 3.04594C21.2587 4.02602 21.5714 5.31121 21.814 6.61531C22.3003 9.22953 22.5467 12.1552 22.5467 13.4204C22.5467 13.4665 22.5436 13.5119 22.5376 13.5564C22.5418 13.6696 22.5439 13.7834 22.5439 13.8977C22.5439 15.1643 22.3513 16.3974 21.8928 17.5193L22.7845 17.8166C23.256 17.9737 23.5109 18.4834 23.3537 18.955C23.1965 19.4265 22.6868 19.6814 22.2153 19.5242L20.9909 19.1161C20.9749 19.1374 20.9588 19.1586 20.9425 19.1797L22.1831 20.4203C22.5346 20.7718 22.5346 21.3417 22.1831 21.6931C21.8317 22.0446 21.2618 22.0446 20.9103 21.6931L19.6707 20.4535C17.9291 21.8081 15.4021 22.534 11.9984 22.534C8.73524 22.534 6.25963 21.9598 4.51502 20.7519L3.57375 21.6932C3.22228 22.0446 2.65243 22.0446 2.30096 21.6932C1.94949 21.3417 1.94949 20.7718 2.30096 20.4204L3.1812 19.5401C3.07706 19.4156 2.97833 19.288 2.88482 19.1574L1.78446 19.5242C1.31291 19.6814 0.803222 19.4265 0.646039 18.955C0.488856 18.4834 0.743699 17.9737 1.21525 17.8166L2.03356 17.5438C1.6231 16.4424 1.45298 15.2104 1.45298 13.8977C1.45298 13.7747 1.45501 13.6526 1.45908 13.5314ZM20.014 7.94554C19.9623 7.62216 19.9069 7.29936 19.8477 6.98111C19.6131 5.71987 19.3291 4.58886 19.0086 3.79408C18.8464 3.39192 18.6982 3.13593 18.5835 2.99723C18.5763 2.98848 18.5696 2.98066 18.5634 2.97368C18.1533 3.02603 17.5992 3.34374 16.999 4.04783C16.5875 4.53055 16.2166 5.12554 15.9248 5.7533C17.4324 6.16622 18.7158 6.82958 19.7463 7.70744C19.8377 7.7853 19.927 7.86469 20.014 7.94554ZM5.48886 2.92233C5.48886 2.9225 5.48695 2.92408 5.48311 2.92653C5.48694 2.92338 5.48886 2.92216 5.48886 2.92233ZM18.5109 2.92233C18.5109 2.9225 18.5128 2.92407 18.5167 2.92653C18.5129 2.92338 18.5109 2.92215 18.5109 2.92233ZM8.73032 13.4204C8.73032 14.2488 8.05875 14.9204 7.23032 14.9204C6.40189 14.9204 5.73032 14.2488 5.73032 13.4204C5.73032 12.592 6.40189 11.9204 7.23032 11.9204C8.05875 11.9204 8.73032 12.592 8.73032 13.4204ZM18.2694 13.4204C18.2694 14.2488 17.5978 14.9204 16.7694 14.9204C15.941 14.9204 15.2694 14.2488 15.2694 13.4204C15.2694 12.592 15.941 11.9204 16.7694 11.9204C17.5978 11.9204 18.2694 12.592 18.2694 13.4204ZM13.4959 15.8068C13.4959 16.1525 13.3789 16.471 13.1824 16.7247C13.2033 16.7806 13.2253 16.8367 13.2486 16.8924C13.3786 17.2045 13.5242 17.4553 13.6704 17.6148C13.7959 17.7517 13.869 17.7682 13.9006 17.7702C13.9006 17.7702 13.9567 17.756 14.0663 17.6829C14.1188 17.648 14.1642 17.6117 14.1961 17.5844C14.2116 17.5711 14.2226 17.561 14.2283 17.5557L14.2319 17.5523C14.5837 17.2053 15.1502 17.2067 15.5002 17.5567C15.8517 17.9082 15.8517 18.4781 15.5002 18.8295L15.4989 18.8309C15.4849 18.8446 15.4708 18.8582 15.4565 18.8716C15.4342 18.8923 15.4043 18.9195 15.3675 18.951C15.295 19.0132 15.1913 19.0963 15.0648 19.1806C14.841 19.3298 14.4185 19.5704 13.9093 19.5704C13.2186 19.5704 12.6968 19.2165 12.3435 18.8311C12.2153 18.6913 12.1014 18.5394 12.0002 18.3831C11.899 18.5394 11.7851 18.6913 11.6569 18.8311C11.3036 19.2165 10.7818 19.5704 10.0911 19.5704C9.58196 19.5704 9.15944 19.3298 8.93564 19.1806C8.8091 19.0963 8.70543 19.0132 8.63289 18.951C8.59615 18.9195 8.56617 18.8923 8.54392 18.8716C8.1697 18.5223 8.12867 17.9282 8.50018 17.5567C8.85016 17.2067 9.41669 17.2053 9.7685 17.5523L10.0904 17.7703C10.1026 17.7685 10.115 17.7669 10.1274 17.7655C10.1668 17.7548 10.2327 17.721 10.33 17.6148C10.4762 17.4553 10.6218 17.2045 10.7518 16.8924C10.774 16.8391 10.7952 16.7855 10.8153 16.7321C10.6152 16.4772 10.4959 16.1559 10.4959 15.8068C10.4959 14.9783 11.1675 14.3068 11.9959 14.3068C12.8244 14.3068 13.4959 14.9783 13.4959 15.8068Z" fill="black"/>
</svg>
