<svg width="24" height="24" viewBox="0 0 24 24" fill="none" xmlns="http://www.w3.org/2000/svg">
<path fill-rule="evenodd" clip-rule="evenodd" d="M2 12C2 6.47715 6.47715 2 12 2C17.5228 2 22 6.47715 22 12C22 17.5228 17.5228 22 12 22C6.47715 22 2 17.5228 2 12ZM15.1442 5.7459C14.6508 5.49783 14.0497 5.69673 13.8016 6.19017C13.5535 6.6836 13.7524 7.28472 14.2459 7.53279C15.2149 8.01996 15.9992 8.80902 16.4806 9.78094C16.7257 10.2759 17.3256 10.4784 17.8205 10.2332C18.3154 9.98814 18.5179 9.38823 18.2728 8.89332C17.5989 7.53262 16.5008 6.42795 15.1442 5.7459ZM8.83385 18.243C9.32641 18.4928 9.92821 18.296 10.178 17.8035C10.4278 17.3109 10.231 16.7091 9.73847 16.4593C8.78791 15.9772 8.01627 15.204 7.53612 14.2525C7.28732 13.7594 6.68592 13.5614 6.19285 13.8102C5.69978 14.059 5.50176 14.6604 5.75056 15.1535C6.42277 16.4856 7.50306 17.5681 8.83385 18.243ZM14 12C14 13.1046 13.1046 14 12 14C10.8954 14 9.99999 13.1046 9.99999 12C9.99999 10.8954 10.8954 10 12 10C13.1046 10 14 10.8954 14 12Z" fill="black"/>
</svg>
