<svg width="24" height="24" viewBox="0 0 24 24" fill="none" xmlns="http://www.w3.org/2000/svg">
<path fill-rule="evenodd" clip-rule="evenodd" d="M11 1.5C7.72031 1.5 4.96881 3.75465 4.20842 6.7987C2.05058 7.54196 0.5 9.58895 0.5 12C0.5 15.0376 2.96243 17.5 6 17.5H7.25736L6.87868 17.1213C5.70711 15.9497 5.70711 14.0503 6.87868 12.8787C8.05025 11.7071 9.94975 11.7071 11.1213 12.8787L12 13.7574L12.8787 12.8787C14.0503 11.7071 15.9497 11.7071 17.1213 12.8787C18.2929 14.0503 18.2929 15.9497 17.1213 17.1213L16.7426 17.5H18.5C21.2614 17.5 23.5 15.2614 23.5 12.5C23.5 9.73858 21.2614 7.5 18.5 7.5C18.3087 7.5 18.1197 7.51079 17.9336 7.53182C17.4621 4.12403 14.5375 1.5 11 1.5ZM15.7071 21.7071C15.3166 22.0976 14.6834 22.0976 14.2929 21.7071L12 19.4142L9.70711 21.7071C9.31658 22.0976 8.68342 22.0976 8.29289 21.7071C7.90237 21.3166 7.90237 20.6834 8.29289 20.2929L10.5858 18L8.29289 15.7071C7.90237 15.3166 7.90237 14.6834 8.29289 14.2929C8.68342 13.9024 9.31658 13.9024 9.70711 14.2929L12 16.5858L14.2929 14.2929C14.6834 13.9024 15.3166 13.9024 15.7071 14.2929C16.0976 14.6834 16.0976 15.3166 15.7071 15.7071L13.4142 18L15.7071 20.2929C16.0976 20.6834 16.0976 21.3166 15.7071 21.7071Z" fill="black"/>
</svg>
