<svg width="24" height="24" viewBox="0 0 24 24" fill="none" xmlns="http://www.w3.org/2000/svg">
<path fill-rule="evenodd" clip-rule="evenodd" d="M4.20842 6.7987C4.96881 3.75465 7.72031 1.5 11 1.5C14.5375 1.5 17.4621 4.12403 17.9336 7.53182C18.1197 7.51079 18.3087 7.5 18.5 7.5C21.2614 7.5 23.5 9.73858 23.5 12.5C23.5 15.0992 21.5166 17.2353 18.9808 17.4772C18.7134 13.8554 15.6901 11 12 11C8.33146 11 5.32204 13.8221 5.02421 17.4137C2.45212 16.9532 0.5 14.7046 0.5 12C0.5 9.58895 2.05058 7.54196 4.20842 6.7987ZM12 15C10.3431 15 9 16.3431 9 18C9 18.4631 9.10495 18.9018 9.29237 19.2934L13.2934 15.2924C12.9018 15.105 12.4631 15 12 15ZM12 21C11.5369 21 11.0982 20.895 10.7066 20.7076L14.7076 16.7066C14.895 17.0982 15 17.5369 15 18C15 19.6569 13.6569 21 12 21ZM7 18C7 15.2386 9.23858 13 12 13C14.7614 13 17 15.2386 17 18C17 20.7614 14.7614 23 12 23C9.23858 23 7 20.7614 7 18Z" fill="black"/>
</svg>
