<svg width="24" height="24" viewBox="0 0 24 24" fill="none" xmlns="http://www.w3.org/2000/svg">
<path fill-rule="evenodd" clip-rule="evenodd" d="M2 12C2 6.47715 6.47715 2 12 2C17.5228 2 22 6.47715 22 12C22 17.5228 17.5228 22 12 22C6.47715 22 2 17.5228 2 12ZM10.1097 6.70412C11.1737 6.2595 12.348 6.11728 13.4922 6.2924C14.6366 6.46753 15.7087 6.9537 16.5772 7.69868C16.9755 8.04028 17.0214 8.64003 16.6798 9.03827C16.3382 9.4365 15.7384 9.48243 15.3402 9.14083C14.7476 8.63254 14.0065 8.29323 13.2048 8.17053C12.403 8.04782 11.5818 8.14819 10.8422 8.45721C10.238 8.70971 9.71273 9.09113 9.30445 9.56439H12.8078C13.3325 9.56439 13.7578 9.98972 13.7578 10.5144C13.7578 11.0391 13.3325 11.4644 12.8078 11.4644H8.42426C8.39856 11.6367 8.38522 11.8108 8.38453 11.9856C8.38379 12.17 8.39714 12.3538 8.42426 12.5356H12.8078C13.3325 12.5356 13.7578 12.9609 13.7578 13.4856C13.7578 14.0102 13.3325 14.4356 12.8078 14.4356H9.30443C9.70603 14.9011 10.221 15.278 10.8134 15.5306C11.5503 15.8449 12.3707 15.9511 13.1735 15.8341C13.9762 15.7172 14.7202 15.3831 15.317 14.8789C15.7178 14.5403 16.3172 14.5907 16.6558 14.9915C16.9944 15.3923 16.944 15.9917 16.5432 16.3303C15.6689 17.0689 14.5931 17.5473 13.4475 17.7143C12.3019 17.8812 11.1288 17.7306 10.0682 17.2783C9.00724 16.8259 8.09957 16.0887 7.46062 15.1487C7.30507 14.9199 7.16717 14.6815 7.04761 14.4356H6.36528C5.84061 14.4356 5.41528 14.0102 5.41528 13.4856C5.41528 12.9609 5.84061 12.5356 6.36528 12.5356H6.5105C6.49252 12.3509 6.4838 12.1648 6.48454 11.978C6.48523 11.8059 6.49394 11.6346 6.51051 11.4644H6.36528C5.84061 11.4644 5.41528 11.0391 5.41528 10.5144C5.41528 9.98972 5.84061 9.56439 6.36528 9.56439H7.04762C7.1736 9.30527 7.3199 9.05462 7.48571 8.81468C8.13201 7.87946 9.04534 7.14887 10.1097 6.70412Z" fill="black"/>
</svg>
