<svg width="24" height="24" viewBox="0 0 24 24" fill="none" xmlns="http://www.w3.org/2000/svg">
<path fill-rule="evenodd" clip-rule="evenodd" d="M2 12C2 6.47715 6.47715 2 12 2C17.5228 2 22 6.47715 22 12C22 17.5228 17.5228 22 12 22C6.47715 22 2 17.5228 2 12ZM6.70203 7.43369C6.70203 6.93664 7.10497 6.53369 7.60203 6.53369H16.0003C16.4973 6.53369 16.9003 6.93664 16.9003 7.43369C16.9003 7.93075 16.4973 8.33369 16.0003 8.33369L13.7458 8.33369C14.0761 8.80806 14.304 9.34448 14.417 9.90845H16.0003C16.4973 9.90845 16.9003 10.3114 16.9003 10.8084C16.9003 11.3055 16.4973 11.7084 16.0003 11.7084H14.3841C14.2001 12.4796 13.7999 13.1891 13.2223 13.749C12.6429 14.3107 11.9186 14.6894 11.1392 14.8484L13.5904 16.9498C13.9678 17.2733 14.0114 17.8415 13.6879 18.2188C13.3644 18.5962 12.7963 18.6399 12.4189 18.3164L8.22397 14.7202C8.21632 14.7137 8.20878 14.7071 8.20135 14.7004C8.11008 14.6178 8.03955 14.5205 7.99029 14.4151C7.93591 14.2992 7.90552 14.1698 7.90552 14.0333V14.0327C7.90552 14.0095 7.90642 13.9862 7.90822 13.963C7.92473 13.7493 8.01588 13.5565 8.15564 13.4107C8.23131 13.3316 8.3184 13.2691 8.4121 13.2236C8.53095 13.1658 8.66444 13.1333 8.80552 13.1333H8.80586H8.80604H10.2881L10.2995 13.1332C10.9229 13.1332 11.5218 12.8906 11.9694 12.4566C12.1919 12.2409 12.3683 11.9864 12.4919 11.7084L7.60203 11.7084C7.10497 11.7084 6.70203 11.3055 6.70203 10.8084C6.70203 10.3114 7.10497 9.90845 7.60203 9.90845L12.5526 9.90845C12.4466 9.61891 12.2849 9.34983 12.0735 9.11763C11.6537 8.65663 11.0711 8.37715 10.4489 8.33832C10.4318 8.33725 10.4147 8.3357 10.3978 8.33369H7.60203C7.10497 8.33369 6.70203 7.93075 6.70203 7.43369Z" fill="black"/>
</svg>
