<svg width="24" height="24" viewBox="0 0 24 24" fill="none" xmlns="http://www.w3.org/2000/svg">
<path fill-rule="evenodd" clip-rule="evenodd" d="M2 12C2 6.47715 6.47715 2 12 2C17.5228 2 22 6.47715 22 12C22 17.5228 17.5228 22 12 22C6.47715 22 2 17.5228 2 12ZM17.1913 8.07358C17.3111 7.71424 17.2176 7.31808 16.9497 7.05024C16.6819 6.78241 16.2857 6.68889 15.9264 6.80867L9.56244 8.92999C9.26384 9.02952 9.02952 9.26384 8.92999 9.56244L6.80867 15.9264C6.68889 16.2857 6.78241 16.6819 7.05024 16.9497C7.31808 17.2176 7.71424 17.3111 8.07358 17.1913L14.4375 15.07C14.7361 14.9705 14.9705 14.7361 15.07 14.4375L17.1913 8.07358ZM13.5 12C13.5 12.8284 12.8284 13.5 12 13.5C11.1716 13.5 10.5 12.8284 10.5 12C10.5 11.1716 11.1716 10.5 12 10.5C12.8284 10.5 13.5 11.1716 13.5 12Z" fill="black"/>
</svg>
