<svg width="24" height="24" viewBox="0 0 24 24" fill="none" xmlns="http://www.w3.org/2000/svg">
<path fill-rule="evenodd" clip-rule="evenodd" d="M2 12C2 6.47715 6.47715 2 12 2C17.5228 2 22 6.47715 22 12C22 17.5228 17.5228 22 12 22C6.47715 22 2 17.5228 2 12ZM13.2356 7.15508C12.2504 6.90382 11.212 6.95888 10.2589 7.31294C9.30579 7.66699 8.48327 8.3032 7.90102 9.13672C7.31878 9.97024 7.00448 10.9615 7.00005 11.9782C6.99562 12.9949 7.30126 13.9889 7.87621 14.8274C8.45117 15.666 9.26812 16.3094 10.2181 16.6717C11.1681 17.0341 12.206 17.0982 13.1933 16.8555C14.1807 16.6128 15.0706 16.0749 15.7444 15.3135C16.1104 14.8999 16.0718 14.2679 15.6582 13.9019C15.2446 13.5359 14.6127 13.5745 14.2467 13.9881C13.8424 14.445 13.3084 14.7677 12.716 14.9133C12.1236 15.0589 11.5009 15.0204 10.9309 14.803C10.3609 14.5856 9.8707 14.1996 9.52573 13.6965C9.18075 13.1933 8.99737 12.597 9.00003 11.9869C9.00269 11.3769 9.19127 10.7821 9.54061 10.282C9.88996 9.78192 10.3835 9.40019 10.9553 9.18776C11.5272 8.97533 12.1502 8.94229 12.7414 9.09305C13.3325 9.24381 13.8636 9.5712 14.2639 10.0316C14.6263 10.4483 15.2579 10.4924 15.6747 10.13C16.0915 9.76767 16.1355 9.13604 15.7732 8.71927C15.106 7.952 14.2208 7.40635 13.2356 7.15508Z" fill="black"/>
</svg>
