<svg width="24" height="24" viewBox="0 0 24 24" fill="none" xmlns="http://www.w3.org/2000/svg">
<path fill-rule="evenodd" clip-rule="evenodd" d="M5 1C5.55228 1 6 1.44772 6 2V17C6 17.5523 6.44772 18 7 18H22C22.5523 18 23 18.4477 23 19C23 19.5523 22.5523 20 22 20H20V22C20 22.5523 19.5523 23 19 23C18.4477 23 18 22.5523 18 22V20H7C5.34315 20 4 18.6569 4 17V6H2C1.44772 6 1 5.55228 1 5C1 4.44772 1.44772 4 2 4H4V2C4 1.44772 4.44772 1 5 1ZM8 5C8 4.44772 8.44772 4 9 4H17C18.6569 4 20 5.34315 20 7V15C20 15.5523 19.5523 16 19 16C18.4477 16 18 15.5523 18 15V7C18 6.44772 17.5523 6 17 6H9C8.44772 6 8 5.55228 8 5Z" fill="black"/>
</svg>
