<svg width="24" height="24" viewBox="0 0 24 24" fill="none" xmlns="http://www.w3.org/2000/svg">
<path fill-rule="evenodd" clip-rule="evenodd" d="M12 2.5C9.52298 2.5 7.23086 3.02938 5.5217 3.93423C3.85729 4.81539 2.5 6.20443 2.5 8C2.5 9.79558 3.85729 11.1846 5.5217 12.0658C7.23086 12.9706 9.52298 13.5 12 13.5C14.477 13.5 16.7691 12.9706 18.4783 12.0658C20.1427 11.1846 21.5 9.79558 21.5 8C21.5 6.20443 20.1427 4.81539 18.4783 3.93423C16.7691 3.02938 14.477 2.5 12 2.5ZM19.7915 13.4504C20.2321 13.1194 20.8577 13.2074 21.19 13.6474C21.5228 14.0881 21.4353 14.7152 20.9946 15.048C20.9949 15.0478 20.9946 15.048 20.3919 14.25L20.9946 15.048L20.9913 15.0505L20.9869 15.0537L20.9749 15.0626C20.9654 15.0696 20.9529 15.0787 20.9375 15.0897C20.9066 15.1117 20.864 15.1414 20.8098 15.1777C20.7013 15.2503 20.5461 15.3494 20.3455 15.466C19.9445 15.6992 19.3609 16.0028 18.6043 16.304C17.0901 16.9068 14.8841 17.4998 12.0697 17.4999C9.25908 17.4999 7.0345 16.9214 5.50184 16.3345C4.73588 16.0412 4.14248 15.7457 3.73424 15.5191C3.53006 15.4058 3.37196 15.3095 3.26149 15.2392C3.20625 15.204 3.16289 15.1753 3.13161 15.1541C3.11596 15.1435 3.10334 15.1348 3.09375 15.1281L3.08165 15.1197L3.07731 15.1166L3.07557 15.1153C3.07522 15.1151 3.07412 15.1143 3.65236 14.3068L3.07412 15.1143C2.62509 14.7928 2.52174 14.1681 2.84328 13.7191C3.16417 13.2709 3.78695 13.1671 4.23578 13.4863L4.23685 13.487L4.25262 13.4978C4.26893 13.5088 4.29675 13.5274 4.3359 13.5523C4.41423 13.6022 4.53775 13.6777 4.70491 13.7705C5.03935 13.9561 5.54751 14.2104 6.21703 14.4667C7.55534 14.9792 9.53745 15.4999 12.0697 15.4999C14.5982 15.4998 16.5533 14.9679 17.8645 14.4458C18.5207 14.1846 19.0158 13.9257 19.3403 13.737C19.5026 13.6427 19.6219 13.5661 19.6972 13.5157C19.7349 13.4905 19.7615 13.4718 19.7769 13.4609L19.7915 13.4504ZM20.3919 18.25L20.9946 19.048L20.9913 19.0505L20.9869 19.0537L20.9749 19.0626C20.9654 19.0696 20.9529 19.0787 20.9375 19.0897C20.9066 19.1116 20.864 19.1414 20.8098 19.1777C20.7013 19.2503 20.5461 19.3494 20.3455 19.466C19.9445 19.6992 19.3609 20.0028 18.6043 20.304C17.0901 20.9068 14.8841 21.4998 12.0697 21.4999C9.25908 21.4999 7.0345 20.9214 5.50184 20.3345C4.73588 20.0412 4.14248 19.7457 3.73424 19.5191C3.53006 19.4058 3.37196 19.3095 3.26149 19.2392C3.20625 19.204 3.16289 19.1753 3.13161 19.1541C3.11596 19.1435 3.10334 19.1348 3.09375 19.1281L3.08165 19.1196L3.07731 19.1166L3.07557 19.1153C3.07522 19.1151 3.07412 19.1143 3.65236 18.3068L3.07412 19.1143C2.62509 18.7928 2.52174 18.1681 2.84328 17.7191C3.16417 17.2709 3.78695 17.1671 4.23578 17.4862L4.23685 17.487L4.25262 17.4978C4.26893 17.5088 4.29675 17.5273 4.3359 17.5523C4.41423 17.6022 4.53775 17.6777 4.70491 17.7705C5.03935 17.9561 5.54751 18.2104 6.21703 18.4667C7.55534 18.9792 9.53745 19.4999 12.0697 19.4999C14.5982 19.4998 16.5533 18.9678 17.8645 18.4458C18.5207 18.1846 19.0158 17.9257 19.3403 17.737C19.5026 17.6427 19.6219 17.5661 19.6972 17.5157C19.7349 17.4905 19.7615 17.4718 19.7769 17.4609L19.7915 17.4503C19.791 17.4507 19.7905 17.4511 19.79 17.4515L19.7915 17.4503L19.7915 17.4503C20.2321 17.1194 20.8577 17.2074 21.19 17.6474C21.5228 18.0881 21.4353 18.7152 20.9946 19.048C20.9949 19.0478 20.9946 19.048 20.3919 18.25Z" fill="black"/>
</svg>
