<svg width="24" height="24" viewBox="0 0 24 24" fill="none" xmlns="http://www.w3.org/2000/svg">
<g clip-path="url(#clip0_1215_6526)">
<path fill-rule="evenodd" clip-rule="evenodd" d="M5.44693 2.39447L5.44809 2.39388C5.45537 2.39022 5.45858 2.3886 5.47692 2.39053C5.50658 2.39366 5.57773 2.40947 5.69376 2.47529C5.93762 2.61364 6.24841 2.89753 6.58398 3.33097C7.09 3.98458 7.53514 4.82413 7.81492 5.56709C6.90479 5.8626 6.09653 6.28431 5.40957 6.85678C5.08917 7.12378 4.80237 7.41734 4.54819 7.73673C4.45338 6.83752 4.45721 5.89026 4.55587 5.01879C4.64295 4.24955 4.79891 3.58668 4.99683 3.09827C5.21064 2.57062 5.40343 2.41622 5.44693 2.39447ZM3.20329 10.7731L3.05102 10.3163C2.49499 8.64816 2.36871 6.55918 2.56856 4.79381C2.66898 3.90679 2.85678 3.05404 3.14323 2.34714C3.41379 1.67947 3.846 0.958875 4.55249 0.605621C5.32409 0.219811 6.09566 0.403865 6.68064 0.735731C7.24928 1.05833 7.75099 1.57131 8.16543 2.10662C8.85137 2.99264 9.4395 4.1257 9.78433 5.13457C10.4844 5.04235 11.2249 5 11.9998 5C12.9904 5 13.9193 5.08581 14.7768 5.2614L15.6658 3.77965C16.2035 2.88351 17.3405 2.55242 18.2752 3.01979L21.2358 4.50008C22.9297 5.34704 23.9998 7.07836 23.9998 8.97222V11.5586C23.9998 12.8499 23.1735 13.9963 21.9484 14.4046L21.8822 14.4267C21.5485 14.5379 21.207 14.5874 20.8711 14.5804C20.5561 16.5244 19.6791 18.3739 18.4261 19.8378C17.6097 20.7916 16.6172 21.599 15.4966 22.1592C14.6949 22.1637 14.1305 21.8922 13.7378 21.5556C13.2667 21.1518 12.9786 20.6013 12.843 20.1156C12.8698 20.0866 12.8954 20.0558 12.9198 20.0233L13.6198 19.09C14.1884 18.3319 13.6474 17.25 12.6998 17.25H11.2998C10.3521 17.25 9.8112 18.3319 10.3798 19.09L11.0798 20.0233C11.1192 20.0759 11.162 20.1239 11.2076 20.1674C11.1362 20.6978 10.962 21.227 10.5944 21.5947C10.2469 21.9421 9.58396 22.2749 8.27326 22.121C5.11631 20.5407 2.99976 17.0085 2.99976 13C2.99976 12.2036 3.06644 11.4604 3.20329 10.7731ZM10.4794 23.4018C10.5315 23.4423 10.5841 23.4813 10.6373 23.5185C10.996 23.7696 11.4626 24.0001 11.9998 24.0001C12.537 24.0001 13.0036 23.7696 13.3623 23.5185C13.4672 23.4451 13.57 23.3649 13.6707 23.2793C13.3354 23.1243 13.0322 22.9264 12.7616 22.6944C12.5253 22.4919 12.3191 22.2677 12.1415 22.0311C12.0094 22.2504 11.8492 22.4612 11.655 22.6553C11.332 22.9784 10.9422 23.231 10.4794 23.4018ZM18.6102 7.06165C20.1324 8.40062 20.9079 10.3014 20.9921 12.5791C21.0781 12.574 21.1647 12.5577 21.2497 12.5293L21.316 12.5072C21.7243 12.3711 21.9998 11.989 21.9998 11.5586V8.97222C21.9998 7.8359 21.3577 6.79711 20.3414 6.28894L17.3808 4.80864L16.7394 5.8776C17.4371 6.18712 18.0634 6.58067 18.6102 7.06165ZM7.49976 16C8.32818 16 8.99976 15.3284 8.99976 14.5C8.99976 13.6716 8.32818 13 7.49976 13C6.67133 13 5.99976 13.6716 5.99976 14.5C5.99976 15.3284 6.67133 16 7.49976 16ZM16.4998 16C17.3282 16 17.9998 15.3284 17.9998 14.5C17.9998 13.6716 17.3282 13 16.4998 13C15.6713 13 14.9998 13.6716 14.9998 14.5C14.9998 15.3284 15.6713 16 16.4998 16Z" fill="black"/>
</g>
<defs>
<clipPath id="clip0_1215_6526">
<rect width="24" height="24" fill="white"/>
</clipPath>
</defs>
</svg>
