<svg width="24" height="24" viewBox="0 0 24 24" fill="none" xmlns="http://www.w3.org/2000/svg">
<path fill-rule="evenodd" clip-rule="evenodd" d="M13 3.05678C14.7736 3.26078 16.1435 3.98263 17.1 4.7C17.6631 5.12231 18.0866 5.54537 18.3724 5.86689C18.5156 6.02803 18.6254 6.16487 18.7017 6.26505C18.7399 6.31518 18.7698 6.35627 18.7915 6.38678C18.8024 6.40205 18.8112 6.41468 18.8179 6.42449L18.8265 6.43707L18.8297 6.44174L18.8315 6.44451C19.1379 6.90404 19.0142 7.5257 18.5547 7.83205C18 8.20185 17.5 8 16.8776 7.19561C16.6634 6.95463 16.3369 6.62769 15.9 6.3C15.2011 5.77585 14.2695 5.25572 13 5.07074V11.1548C14.229 11.3696 15.5259 11.6449 16.5722 12.1681C17.238 12.5009 17.8577 12.9586 18.308 13.6126C18.7649 14.2761 19 15.0734 19 16C19 18.0403 17.6122 19.3119 16.1972 20.0194C15.1611 20.5375 13.9931 20.823 13 20.9385V22C13 22.5523 12.5523 23 12 23C11.4477 23 11 22.5523 11 22V20.9432C9.2264 20.7392 7.85649 20.0174 6.9 19.3C6.33692 18.8777 5.91338 18.4546 5.62759 18.1331C5.48435 17.972 5.37465 17.8351 5.29832 17.7349C5.26012 17.6848 5.23018 17.6437 5.20848 17.6132C5.19763 17.598 5.18883 17.5853 5.18208 17.5755L5.17348 17.5629L5.17033 17.5583L5.16905 17.5563L5.16847 17.5555C4.86212 17.096 4.98181 16.2971 5.62759 16.1016C6.5 15.8374 6.83112 16.4439 6.83112 16.4439L7.12241 16.8044C7.33662 17.0454 7.66309 17.3723 8.1 17.7C8.79444 18.2208 9.7584 18.7377 11 18.9257V12.8452C9.77098 12.6304 8.47415 12.3551 7.42779 11.8319C6.76204 11.4991 6.14227 11.0414 5.69198 10.3874C5.2351 9.72386 5 8.92657 5 8C5 5.95973 6.38776 4.68809 7.80279 3.98057C8.83888 3.46253 10.0069 3.17701 11 3.06153L11 2C11 1.44771 11.4477 1 12 1C12.5523 1 13 1.44772 13 2L13 3.05678ZM11 10.8123V5.05796C8.5638 5.34725 7 6.67362 7 8C7 8.5 7.1399 8.96364 7.33927 9.25321C7.54523 9.55235 7.86296 9.81345 8.32221 10.0431C9.03344 10.3987 9.94714 10.618 11 10.8123ZM13 13.1877V18.9218C13.7379 18.8147 14.5771 18.5934 15.3028 18.2306C16.3878 17.6881 17 16.9597 17 16C17 15.4266 16.8601 15.0364 16.6607 14.7468C16.4548 14.4477 16.137 14.1866 15.6778 13.9569C14.9666 13.6013 14.0529 13.382 13 13.1877Z" fill="black"/>
</svg>
