<svg width="24" height="24" viewBox="0 0 24 24" fill="none" xmlns="http://www.w3.org/2000/svg">
<path fill-rule="evenodd" clip-rule="evenodd" d="M14.4944 2.84443C15.534 1.597 17.4082 1.47959 18.5953 2.58753C19.5636 3.4913 19.8119 5.00809 18.9827 6.15422C18.6003 6.68279 18.1032 7.31579 17.599 7.78641C16.8179 8.5154 15.5873 9.25255 14.9586 9.61152C14.3636 9.95125 13.6364 9.95125 13.0414 9.61152C12.4127 9.25255 11.1821 8.5154 10.401 7.78641C9.89677 7.31579 9.3997 6.68279 9.01731 6.15422C8.18814 5.00809 8.43637 3.4913 9.4047 2.58753C10.5918 1.47959 12.466 1.59701 13.5056 2.84444L14 3.43775L14.4944 2.84443ZM8.30534 11.7304C7.53053 11.2323 6.53038 11.2568 5.78085 11.7921L0.75 15.3856V22.6939L5.93314 19.6704L10.0913 21.2697C11.501 21.8119 13.0925 21.5652 14.2719 20.6216L22.6426 13.9251C23.3012 13.3982 23.3556 12.4159 22.7592 11.8195C22.2722 11.3325 21.5053 11.2669 20.9426 11.6641L14.0386 16.5375C13.2423 17.6172 11.8359 18.0689 10.5526 17.6411L7.76283 16.7112C7.36987 16.5802 7.1575 16.1554 7.28849 15.7625C7.41947 15.3695 7.84421 15.1571 8.23717 15.2881L11.0269 16.218C11.6831 16.4368 12.4013 16.2114 12.8162 15.6674C12.9489 15.1369 12.7305 14.5751 12.2644 14.2755L8.30534 11.7304Z" fill="black"/>
</svg>
