<svg width="24" height="24" viewBox="0 0 24 24" fill="none" xmlns="http://www.w3.org/2000/svg">
<path fill-rule="evenodd" clip-rule="evenodd" d="M1.5 7.5C1.5 5.29086 3.29086 3.5 5.5 3.5H18.5C20.7091 3.5 22.5 5.29086 22.5 7.5V16.5C22.5 18.7091 20.7091 20.5 18.5 20.5H5.5C3.29086 20.5 1.5 18.7091 1.5 16.5V7.5ZM5.0144 6.64254C4.54082 6.35839 3.92656 6.51195 3.64241 6.98553C3.35827 7.45911 3.51183 8.07337 3.98541 8.35752L10.9709 12.5488C11.6043 12.9288 12.3955 12.9288 13.0289 12.5488L20.0144 8.35752C20.488 8.07337 20.6415 7.45911 20.3574 6.98553C20.0733 6.51195 19.459 6.35839 18.9854 6.64254L11.9999 10.8338L5.0144 6.64254Z" fill="black"/>
</svg>
