<svg width="24" height="24" viewBox="0 0 24 24" fill="none" xmlns="http://www.w3.org/2000/svg">
<path fill-rule="evenodd" clip-rule="evenodd" d="M17.7071 7.29289C17.3166 6.90237 16.6834 6.90237 16.2929 7.29289C15.9024 7.68342 15.9024 8.31658 16.2929 8.70711L18.5858 11H3C2.44772 11 2 11.4477 2 12C2 12.5523 2.44772 13 3 13H18.5858L16.2929 15.2929C15.9024 15.6834 15.9024 16.3166 16.2929 16.7071C16.6834 17.0976 17.3166 17.0976 17.7071 16.7071L21.7071 12.7071C21.8902 12.524 21.9874 12.2877 21.9989 12.048C21.9996 12.032 22 12.016 22 12M22 11.9908C21.9976 11.7379 21.9 11.4858 21.7071 11.2929L17.7071 7.29289" fill="black"/>
</svg>
