<svg width="24" height="24" viewBox="0 0 24 24" fill="none" xmlns="http://www.w3.org/2000/svg">
<g clip-path="url(#clip0_1215_6554)">
<path fill-rule="evenodd" clip-rule="evenodd" d="M3.95975 5.83987C4.06508 5.64351 4.34665 5.64351 4.45199 5.83987L4.89536 6.66641L5.81845 6.83267C6.03775 6.87217 6.12476 7.13996 5.97056 7.30081L5.32149 7.9779L5.44862 8.90719C5.47882 9.12796 5.25102 9.29347 5.05039 9.19652L4.20587 8.78845L3.36134 9.19652C3.16071 9.29347 2.93291 9.12796 2.96311 8.90719L3.09024 7.9779L2.44117 7.30082C2.28697 7.13996 2.37398 6.87217 2.59328 6.83267L3.51637 6.66641L3.95975 5.83987ZM2.754 10.3399C2.85933 10.1435 3.1409 10.1435 3.24624 10.3399L3.68961 11.1664L4.6127 11.3327C4.832 11.3722 4.91901 11.64 4.76481 11.8008L4.11574 12.4779L4.24287 13.4072C4.27307 13.628 4.04527 13.7935 3.84464 13.6965L3.00012 13.2885L2.15559 13.6965C1.95496 13.7935 1.72716 13.628 1.75736 13.4072L1.88449 12.4779L1.23542 11.8008C1.08122 11.64 1.16823 11.3722 1.38753 11.3327L2.31062 11.1664L2.754 10.3399ZM7.25406 2.54565C7.35939 2.34929 7.64096 2.34929 7.7463 2.54565L8.18967 3.37219L9.11276 3.53845C9.33206 3.57794 9.41907 3.84574 9.26487 4.00659L8.6158 4.68368L8.74293 5.61297C8.77313 5.83374 8.54533 5.99925 8.3447 5.9023L7.50018 5.49423L6.65565 5.9023C6.45502 5.99925 6.22722 5.83374 6.25742 5.61297L6.38455 4.68368L5.73548 4.0066C5.58128 3.84574 5.66829 3.57795 5.88759 3.53845L6.81068 3.37219L7.25406 2.54565ZM12.2462 1.33988C12.1409 1.14353 11.8593 1.14352 11.754 1.33989L11.3106 2.16642L10.3875 2.33268C10.1682 2.37218 10.0812 2.63997 10.2354 2.80083L10.8845 3.47792L10.7574 4.40721C10.7272 4.62798 10.955 4.79348 11.1556 4.69654L12.0001 4.28846L12.8446 4.69654C13.0453 4.79348 13.2731 4.62798 13.2429 4.40721L13.1157 3.47792L13.7648 2.80083C13.919 2.63997 13.832 2.37218 13.6127 2.33268L12.6896 2.16642L12.2462 1.33988ZM12.2462 19.3399C12.1409 19.1435 11.8593 19.1435 11.754 19.3399L11.3106 20.1664L10.3875 20.3327C10.1682 20.3722 10.0812 20.64 10.2354 20.8008L10.8845 21.4779L10.7574 22.4072C10.7272 22.628 10.955 22.7935 11.1556 22.6966L12.0001 22.2885L12.8446 22.6966C13.0453 22.7935 13.2731 22.628 13.2429 22.4072L13.1157 21.4779L13.7648 20.8008C13.919 20.64 13.832 20.3722 13.6127 20.3327L12.6896 20.1664L12.2462 19.3399ZM16.254 2.54565C16.3593 2.34929 16.6409 2.34929 16.7462 2.54565L17.1896 3.37219L18.1127 3.53845C18.332 3.57794 18.419 3.84574 18.2648 4.00659L17.6157 4.68368L17.7429 5.61297C17.7731 5.83374 17.5453 5.99925 17.3446 5.9023L16.5001 5.49423L15.6556 5.9023C15.455 5.99925 15.2272 5.83374 15.2574 5.61297L15.3845 4.68368L14.7354 4.00659C14.5812 3.84574 14.6682 3.57795 14.8875 3.53845L15.8106 3.37219L16.254 2.54565ZM7.74624 18.1341C7.6409 17.9377 7.35933 17.9377 7.254 18.1341L6.81062 18.9606L5.88753 19.1269C5.66823 19.1664 5.58122 19.4342 5.73542 19.595L6.38449 20.2721L6.25736 21.2014C6.22716 21.4222 6.45496 21.5877 6.6556 21.4907L7.50012 21.0827L8.34464 21.4907C8.54527 21.5877 8.77307 21.4222 8.74287 21.2014L8.61574 20.2721L9.26481 19.595C9.41901 19.4342 9.332 19.1664 9.1127 19.1269L8.18961 18.9606L7.74624 18.1341ZM16.7462 18.1341C16.6409 17.9378 16.3593 17.9378 16.254 18.1341L15.8106 18.9607L14.8875 19.1269C14.6682 19.1664 14.5812 19.4342 14.7354 19.5951L15.3845 20.2722L15.2574 21.2014C15.2272 21.4222 15.455 21.5877 15.6556 21.4908L16.5001 21.0827L17.3446 21.4908C17.5453 21.5877 17.7731 21.4222 17.7429 21.2014L17.6157 20.2722L18.2648 19.5951C18.419 19.4342 18.332 19.1664 18.1127 19.1269L17.1896 18.9607L16.7462 18.1341ZM21.2462 10.3399C21.1409 10.1435 20.8593 10.1435 20.754 10.3399L20.3106 11.1664L19.3875 11.3327C19.1682 11.3722 19.0812 11.64 19.2354 11.8008L19.8845 12.4779L19.7574 13.4072C19.7272 13.628 19.955 13.7935 20.1556 13.6965L21.0001 13.2885L21.8446 13.6965C22.0453 13.7935 22.2731 13.628 22.2429 13.4072L22.1157 12.4779L22.7648 11.8008C22.919 11.64 22.832 11.3722 22.6127 11.3327L21.6896 11.1664L21.2462 10.3399ZM3.95981 14.8398C4.06514 14.6435 4.34671 14.6435 4.45205 14.8398L4.89542 15.6664L5.81851 15.8326C6.03781 15.8721 6.12482 16.1399 5.97062 16.3008L5.32155 16.9779L5.44868 17.9072C5.47888 18.1279 5.25108 18.2934 5.05045 18.1965L4.20593 17.7884L3.3614 18.1965C3.16077 18.2934 2.93297 18.1279 2.96317 17.9072L3.0903 16.9779L2.44123 16.3008C2.28703 16.1399 2.37404 15.8721 2.59334 15.8326L3.51643 15.6664L3.95981 14.8398ZM20.0405 5.83988C19.9352 5.64352 19.6536 5.64352 19.5482 5.83988L19.1049 6.66642L18.1818 6.83268C17.9625 6.87218 17.8755 7.13997 18.0297 7.30083L18.6787 7.97791L18.5516 8.9072C18.5214 9.12797 18.7492 9.29348 18.9498 9.19653L19.7944 8.78846L20.6389 9.19653C20.8395 9.29348 21.0673 9.12797 21.0371 8.9072L20.91 7.97791L21.5591 7.30083C21.7133 7.13997 21.6263 6.87218 21.407 6.83268L20.4839 6.66642L20.0405 5.83988ZM20.0405 14.8398C19.9352 14.6435 19.6536 14.6435 19.5482 14.8398L19.1049 15.6663L18.1818 15.8326C17.9625 15.8721 17.8755 16.1399 18.0297 16.3008L18.6787 16.9778L18.5516 17.9071C18.5214 18.1279 18.7492 18.2934 18.9498 18.1965L19.7944 17.7884L20.6389 18.1965C20.8395 18.2934 21.0673 18.1279 21.0371 17.9071L20.91 16.9778L21.5591 16.3008C21.7133 16.1399 21.6263 15.8721 21.407 15.8326L20.4839 15.6663L20.0405 14.8398Z" fill="black"/>
</g>
<defs>
<clipPath id="clip0_1215_6554">
<rect width="24" height="24" fill="white"/>
</clipPath>
</defs>
</svg>
