<svg width="24" height="24" viewBox="0 0 24 24" fill="none" xmlns="http://www.w3.org/2000/svg">
<path fill-rule="evenodd" clip-rule="evenodd" d="M2.5 5.5C2.5 3.84315 3.84315 2.5 5.5 2.5H18.5C20.1569 2.5 21.5 3.84315 21.5 5.5V18.5C21.5 20.1569 20.1569 21.5 18.5 21.5H5.5C3.84315 21.5 2.5 20.1569 2.5 18.5V5.5ZM17.8316 10.4316C17.7325 10.2468 17.4675 10.2468 17.3683 10.4316L16.951 11.2096L16.0822 11.366C15.8758 11.4032 15.794 11.6552 15.9391 11.8066L16.55 12.4439L16.4303 13.3185C16.4019 13.5263 16.6163 13.6821 16.8051 13.5908L17.6 13.2068L18.3948 13.5908C18.5836 13.6821 18.798 13.5263 18.7696 13.3185L18.65 12.4439L19.2609 11.8066C19.406 11.6552 19.3241 11.4032 19.1177 11.366L18.2489 11.2096L17.8316 10.4316ZM16.1914 6.47183C16.0922 6.28702 15.8272 6.28702 15.7281 6.47183L15.3108 7.24974L14.442 7.40622C14.2356 7.4434 14.1537 7.69544 14.2988 7.84683L14.9097 8.48409L14.7901 9.35872C14.7616 9.5665 14.976 9.72227 15.1649 9.63103L15.9597 9.24696L16.7546 9.63103C16.9434 9.72227 17.1578 9.5665 17.1294 9.35872L17.0097 8.48409L17.6206 7.84683C17.7657 7.69544 17.6838 7.4434 17.4774 7.40622L16.6086 7.24974L16.1914 6.47183ZM11.7684 4.83163C11.8675 4.64682 12.1325 4.64682 12.2316 4.83163L12.6489 5.60955L13.5177 5.76603C13.7241 5.8032 13.806 6.05524 13.6609 6.20664L13.05 6.8439L13.1696 7.71852C13.1981 7.92631 12.9837 8.08208 12.7948 7.99083L12 7.60677L11.2052 7.99083C11.0163 8.08208 10.8019 7.92631 10.8303 7.71852L10.95 6.8439L10.3391 6.20664C10.194 6.05524 10.2759 5.8032 10.4823 5.76603L11.3511 5.60955L11.7684 4.83163ZM11.7684 16.0316C11.8675 15.8468 12.1325 15.8468 12.2316 16.0316L12.6489 16.8095L13.5177 16.966C13.7241 17.0032 13.806 17.2552 13.6609 17.4066L13.05 18.0439L13.1696 18.9185C13.1981 19.1263 12.9837 19.2821 12.7948 19.1908L12 18.8068L11.2051 19.1908C11.0163 19.2821 10.8019 19.1263 10.8303 18.9185L10.95 18.0439L10.3391 17.4066C10.194 17.2552 10.2759 17.0032 10.4823 16.966L11.3511 16.8095L11.7684 16.0316ZM7.39122 15.1693L7.80851 14.3914C7.90765 14.2066 8.17266 14.2066 8.2718 14.3914L8.68909 15.1693L9.55788 15.3258C9.76428 15.363 9.84618 15.615 9.70105 15.7664L9.09016 16.4037L9.20981 17.2783C9.23823 17.4861 9.02383 17.6419 8.835 17.5506L8.04016 17.1666L7.24531 17.5506C7.05648 17.6419 6.84208 17.4861 6.87051 17.2783L6.99016 16.4037L6.37927 15.7664C6.23414 15.615 6.31603 15.363 6.52243 15.3258L7.39122 15.1693ZM8.2718 6.47184C8.17266 6.28703 7.90765 6.28703 7.80851 6.47184L7.39122 7.24976L6.52243 7.40624C6.31603 7.44341 6.23414 7.69546 6.37927 7.84685L6.99016 8.48411L6.87051 9.35873C6.84208 9.56652 7.05648 9.72229 7.24531 9.63105L8.04016 9.24698L8.835 9.63105C9.02383 9.72229 9.23823 9.56652 9.20981 9.35873L9.09016 8.48411L9.70105 7.84685C9.84618 7.69546 9.76428 7.44341 9.55788 7.40624L8.68909 7.24976L8.2718 6.47184ZM15.7281 14.3914C15.8272 14.2066 16.0922 14.2066 16.1914 14.3914L16.6086 15.1693L17.4774 15.3258C17.6838 15.363 17.7657 15.615 17.6206 15.7664L17.0097 16.4037L17.1294 17.2783C17.1578 17.4861 16.9434 17.6419 16.7546 17.5506L15.9597 17.1666L15.1649 17.5506C14.976 17.6419 14.7616 17.4861 14.7901 17.2783L14.9097 16.4037L14.2988 15.7664C14.1537 15.615 14.2356 15.363 14.442 15.3258L15.3108 15.1693L15.7281 14.3914ZM6.16838 10.4316C6.26751 10.2468 6.53252 10.2468 6.63166 10.4316L7.04895 11.2096L7.91775 11.366C8.12415 11.4032 8.20604 11.6552 8.06091 11.8066L7.45002 12.4439L7.56967 13.3185C7.59809 13.5263 7.3837 13.6821 7.19486 13.5908L6.40002 13.2068L5.60517 13.5908C5.41634 13.6821 5.20194 13.5263 5.23037 13.3185L5.35002 12.4439L4.73913 11.8066C4.594 11.6552 4.67589 11.4032 4.88229 11.366L5.75108 11.2096L6.16838 10.4316Z" fill="black"/>
</svg>
