<svg width="24" height="24" viewBox="0 0 24 24" fill="none" xmlns="http://www.w3.org/2000/svg">
<path fill-rule="evenodd" clip-rule="evenodd" d="M3.5001 13.1001C3.32956 13.1001 3.16246 13.1148 3 13.1431V5C3 3.34315 4.34315 2 6 2H13V7C13 8.65685 14.3431 10 16 10H21V13.143C20.8376 13.1148 20.6706 13.1001 20.5001 13.1001H16.5001C16.0525 13.1001 15.6286 13.2015 15.2501 13.3826C14.1756 12.8681 12.8745 13.0646 12 13.8995C11.1254 13.0647 9.82444 12.8682 8.74991 13.3825C8.37146 13.2015 7.94762 13.1001 7.5001 13.1001H3.5001ZM15 2.67772V7C15 7.55228 15.4477 8 16 8H20.4295C20.3692 7.91818 20.3041 7.83908 20.2344 7.76314C19.2837 6.72748 18.4859 5.99946 17.717 5.30032L17.6789 5.26574L17.6789 5.26572C16.9258 4.58103 16.2009 3.92205 15.3408 2.99475C15.235 2.88068 15.121 2.77469 15 2.67772ZM10.7029 15.4377C10.3924 15.0495 9.82604 14.9866 9.43791 15.2971C9.04977 15.6076 8.98684 16.174 9.29735 16.5621L10.8476 18.4999L9.29735 20.4377C8.98684 20.8258 9.04977 21.3922 9.43791 21.7027C9.82604 22.0132 10.3924 21.9502 10.7029 21.5621L12.0001 19.9406L13.2973 21.5621C13.6079 21.9502 14.1742 22.0132 14.5624 21.7027C14.9505 21.3922 15.0134 20.8258 14.7029 20.4377L13.1527 18.4999L14.7029 16.5621C15.0134 16.174 14.9505 15.6076 14.5624 15.2971C14.1742 14.9866 13.6079 15.0495 13.2973 15.4377L12.0001 17.0592L10.7029 15.4377ZM16.5001 15.0999C16.003 15.0999 15.6001 15.5028 15.6001 15.9999C15.6001 16.4969 16.003 16.8999 16.5001 16.8999H17.6001V20.9999C17.6001 21.4969 18.003 21.8999 18.5001 21.8999C18.9972 21.8999 19.4001 21.4969 19.4001 20.9999V16.8999H20.5001C20.9972 16.8999 21.4001 16.4969 21.4001 15.9999C21.4001 15.5028 20.9972 15.0999 20.5001 15.0999H16.5001ZM2.6001 15.9999C2.6001 15.5028 3.00304 15.0999 3.5001 15.0999H7.5001C7.99715 15.0999 8.4001 15.5028 8.4001 15.9999C8.4001 16.4969 7.99715 16.8999 7.5001 16.8999H6.4001V20.9999C6.4001 21.4969 5.99715 21.8999 5.5001 21.8999C5.00304 21.8999 4.6001 21.4969 4.6001 20.9999V16.8999H3.5001C3.00304 16.8999 2.6001 16.4969 2.6001 15.9999Z" fill="black"/>
</svg>
