<svg width="24" height="24" viewBox="0 0 24 24" fill="none" xmlns="http://www.w3.org/2000/svg">
<path fill-rule="evenodd" clip-rule="evenodd" d="M3.0001 13.1001H3V5C3 3.34315 4.34315 2 6 2H13V7C13 8.65685 14.3431 10 16 10H21V13.7136C20.2515 13.3227 19.4173 13.1105 18.5634 13.1005C17.4365 13.0873 16.3356 13.4269 15.4138 14.069C14.8827 13.4744 14.1101 13.1 13.2501 13.1C12.4748 13.1 11.7705 13.4043 11.2502 13.8999C10.4698 13.1562 9.32787 12.8995 8.29018 13.2635C7.94633 13.3841 7.63612 13.5651 7.36974 13.7921C6.68576 13.354 5.87259 13.1001 5.0001 13.1001H3.0001ZM15 2.67772V7C15 7.55228 15.4477 8 16 8H20.4295C20.3692 7.91818 20.3041 7.83908 20.2344 7.76314C19.2837 6.72748 18.4859 5.99946 17.717 5.30032L17.6789 5.26574L17.6789 5.26572C16.9258 4.58103 16.2009 3.92205 15.3408 2.99475C15.235 2.88068 15.121 2.77469 15 2.67772ZM9.95288 15.4377C9.71411 15.1392 9.31287 15.0241 8.95219 15.1506C8.59152 15.2772 8.3501 15.6177 8.3501 15.9999V20.9999C8.3501 21.497 8.75304 21.8999 9.2501 21.8999C9.74715 21.8999 10.1501 21.497 10.1501 20.9999V18.5656L12.5473 21.5622C12.7861 21.8606 13.1873 21.9757 13.548 21.8492C13.9087 21.7227 14.1501 21.3822 14.1501 20.9999L14.1501 15.9999C14.1501 15.5028 13.7472 15.0999 13.2501 15.0999C12.7531 15.0999 12.3501 15.5028 12.3501 15.9999L12.3501 18.4342L9.95288 15.4377ZM18.5189 16.9C18.1641 16.8958 17.8181 17.0096 17.5351 17.2236C17.2522 17.4375 17.0483 17.7395 16.9557 18.0819C16.863 18.4243 16.8867 18.7878 17.0232 19.1153C17.1596 19.4427 17.401 19.7155 17.7094 19.8908C18.0178 20.0661 18.3757 20.134 18.7269 20.0837C19.0609 20.0359 19.3707 19.8838 19.6126 19.6499H18.3751C17.878 19.6499 17.4751 19.2469 17.4751 18.7499C17.4751 18.2528 17.878 17.8499 18.3751 17.8499H20.4988C20.5996 17.8499 20.6965 17.8664 20.787 17.897C20.8819 17.8756 20.9819 17.8694 21.084 17.8807C21.5781 17.9355 21.9342 18.3803 21.8794 18.8744C21.7964 19.6236 21.4667 20.324 20.9422 20.8655C20.4178 21.4069 19.7282 21.7587 18.982 21.8655C18.2358 21.9724 17.4752 21.8282 16.8199 21.4557C16.1645 21.0832 15.6516 20.5034 15.3616 19.8076C15.0717 19.1117 15.0212 18.3393 15.2182 17.6116C15.4151 16.884 15.8483 16.2424 16.4496 15.7878C17.0509 15.3332 17.7862 15.0913 18.54 15.1001C19.2937 15.1089 20.0232 15.368 20.6137 15.8366C21.003 16.1456 21.0682 16.7117 20.7592 17.1011C20.4502 17.4904 19.8841 17.5555 19.4947 17.2466C19.2169 17.026 18.8736 16.9041 18.5189 16.9ZM2.1001 15.9999C2.1001 15.5028 2.50304 15.0999 3.0001 15.0999H5.0001C6.32558 15.0999 7.4001 16.1744 7.4001 17.4999C7.4001 18.8253 6.32558 19.8999 5.0001 19.8999H3.9001V20.9999C3.9001 21.4969 3.49715 21.8999 3.0001 21.8999C2.50304 21.8999 2.1001 21.4969 2.1001 20.9999V15.9999ZM3.9001 18.0999H5.0001C5.33147 18.0999 5.6001 17.8312 5.6001 17.4999C5.6001 17.1685 5.33147 16.8999 5.0001 16.8999H3.9001V18.0999Z" fill="black"/>
</svg>
