<svg width="24" height="24" viewBox="0 0 24 24" fill="none" xmlns="http://www.w3.org/2000/svg">
<path fill-rule="evenodd" clip-rule="evenodd" d="M8.70542 3H5C3.34315 3 2 4.34315 2 6V7.00005H6.41968L8.70542 3ZM2 9.00005V18C2 19.6569 3.34315 21 5 21H19C20.6569 21 22 19.6569 22 18V9.00005H2ZM22 7.00005V6C22 4.34315 20.6569 3 19 3H18.0089L15.7232 7.00005H22ZM15.7054 3H11.0089L8.72318 7.00005H13.4197L15.7054 3ZM10.5281 11.6183C10.8533 11.4443 11.2478 11.4634 11.5547 11.668L14.5547 13.668C14.8329 13.8534 15 14.1656 15 14.5C15 14.8344 14.8329 15.1466 14.5547 15.3321L11.5547 17.3321C11.2478 17.5366 10.8533 17.5557 10.5281 17.3817C10.203 17.2077 10 16.8688 10 16.5V12.5C10 12.1312 10.203 11.7923 10.5281 11.6183Z" fill="black"/>
</svg>
