<svg width="24" height="24" viewBox="0 0 24 24" fill="none" xmlns="http://www.w3.org/2000/svg">
<path fill-rule="evenodd" clip-rule="evenodd" d="M9.41271 4.92588C7.12541 7.21318 6.24909 10.3754 6.7811 13.3332C5.01248 12.454 2.90091 12.5023 1.17 13.4761C0.721907 13.7281 0.537987 14.2789 0.74471 14.7497C1.03665 15.4145 1.45449 16.0362 1.99643 16.5782C3.08496 17.6667 4.48814 18.2491 5.91173 18.3266C5.99069 19.7478 6.57296 21.1482 7.65974 22.235C8.20106 22.7763 8.82203 23.1938 9.48596 23.4857C9.95689 23.6928 10.5081 23.5087 10.7601 23.0603C11.7323 21.3307 11.7808 19.2215 10.9035 17.4541C13.8618 17.9868 17.0248 17.1106 19.3126 14.8229C22.2495 11.886 22.8602 7.5067 21.1502 3.96972C20.965 3.58663 20.6558 3.27716 20.2729 3.09164C16.7347 1.3775 12.3515 1.98704 9.41271 4.92588ZM17.1937 5.63197C17.7795 6.21775 17.7795 7.1675 17.1937 7.75329C16.6079 8.33907 15.6582 8.33907 15.0724 7.75329C14.4866 7.1675 14.4866 6.21775 15.0724 5.63197C15.6582 5.04618 16.6079 5.04618 17.1937 5.63197ZM11.8064 7.27605C11.7299 6.78491 11.2698 6.44874 10.7787 6.5252C10.2875 6.60165 9.95137 7.06178 10.0278 7.55292C10.2707 9.11336 11.2496 10.6052 12.433 11.7545C13.6205 12.9077 15.1262 13.826 16.5794 14.1518C17.0644 14.2606 17.5457 13.9555 17.6544 13.4705C17.7632 12.9855 17.4582 12.5042 16.9731 12.3954C15.9236 12.1601 14.7022 11.4491 13.687 10.4632C12.6677 9.47332 11.9683 8.31618 11.8064 7.27605Z" fill="black"/>
</svg>
