<svg width="24" height="24" viewBox="0 0 24 24" fill="none" xmlns="http://www.w3.org/2000/svg">
<path fill-rule="evenodd" clip-rule="evenodd" d="M12 1C12.5523 1 13 1.44772 13 2V3V4C13 4.55228 12.5523 5 12 5C11.4477 5 11 4.55228 11 4V3V2C11 1.44772 11.4477 1 12 1ZM12 7C12.5523 7 13 7.44772 13 8V10C13 10.5523 12.5523 11 12 11C11.4477 11 11 10.5523 11 10V8C11 7.44772 11.4477 7 12 7ZM12 13C12.5523 13 13 13.4477 13 14V16C13 16.5523 12.5523 17 12 17C11.4477 17 11 16.5523 11 16V14C11 13.4477 11.4477 13 12 13ZM12 19C12.5523 19 13 19.4477 13 20V21V22C13 22.5523 12.5523 23 12 23C11.4477 23 11 22.5523 11 22V21V20C11 19.4477 11.4477 19 12 19ZM4.70711 15.7071C4.42111 15.9931 3.99099 16.0787 3.61732 15.9239C3.24364 15.7691 3 15.4045 3 15V9C3 8.59554 3.24364 8.2309 3.61732 8.07612C3.99099 7.92134 4.42111 8.0069 4.70711 8.2929L7.70711 11.2929C8.09763 11.6834 8.09763 12.3166 7.70711 12.7071L4.70711 15.7071ZM19.2929 15.7071C19.5789 15.9931 20.009 16.0787 20.3827 15.9239C20.7564 15.7691 21 15.4045 21 15L21 9C21 8.59554 20.7564 8.2309 20.3827 8.07612C20.009 7.92134 19.5789 8.0069 19.2929 8.2929L16.2929 11.2929C15.9024 11.6834 15.9024 12.3166 16.2929 12.7071L19.2929 15.7071Z" fill="black"/>
</svg>
