<svg width="24" height="24" viewBox="0 0 24 24" fill="none" xmlns="http://www.w3.org/2000/svg">
<path fill-rule="evenodd" clip-rule="evenodd" d="M8.29292 4.70711C8.00692 4.42111 7.92137 3.99099 8.07615 3.61732C8.23093 3.24364 8.59557 3 9.00003 3H15C15.4045 3 15.7691 3.24364 15.9239 3.61732C16.0787 3.99099 15.9931 4.42111 15.7071 4.70711L12.7071 7.70711C12.3166 8.09763 11.6834 8.09763 11.2929 7.70711L8.29292 4.70711ZM22 11H21H20C19.4477 11 19 11.4477 19 12C19 12.5523 19.4477 13 20 13H21H22C22.5523 13 23 12.5523 23 12C23 11.4477 22.5523 11 22 11ZM17 12C17 12.5523 16.5523 13 16 13H14C13.4477 13 13 12.5523 13 12C13 11.4477 13.4477 11 14 11H16C16.5523 11 17 11.4477 17 12ZM11 12C11 12.5523 10.5523 13 10 13H8C7.48223 13 7.05637 12.6065 7.00516 12.1022C7.00175 12.0686 7 12.0345 7 12C7 11.4477 7.44772 11 8 11H10C10.5523 11 11 11.4477 11 12ZM4.99998 12.0065C4.9965 12.5558 4.55013 13 4 13H3L2 13C1.44772 13 1 12.5523 1 12C1 11.4477 1.44772 11 2 11H2.9986L4 11L4.99998 12.0065ZM8.29292 19.2929C8.00692 19.5789 7.92137 20.009 8.07615 20.3827C8.23093 20.7564 8.59557 21 9.00003 21H15C15.4045 21 15.7691 20.7564 15.9239 20.3827C16.0787 20.009 15.9931 19.5789 15.7071 19.2929L12.7071 16.2929C12.3166 15.9024 11.6834 15.9024 11.2929 16.2929L8.29292 19.2929Z" fill="black"/>
</svg>
