<svg width="24" height="24" viewBox="0 0 24 24" fill="none" xmlns="http://www.w3.org/2000/svg">
<path fill-rule="evenodd" clip-rule="evenodd" d="M4 3C2.34315 3 1 4.34315 1 6V18C1 19.6569 2.34315 21 4 21H13.5417C13.6415 20.4063 13.9205 19.8368 14.3787 19.3787L14.7574 19L14.3787 18.6213C13.2071 17.4497 13.2071 15.5503 14.3787 14.3787C15.5503 13.2071 17.4497 13.2071 18.6213 14.3787L19 14.7574L19.3787 14.3787C20.3602 13.3971 21.8527 13.2379 23 13.9011V9C23 7.34315 21.6569 6 20 6H12.5352L11.1289 3.8906C10.758 3.3342 10.1335 3 9.46482 3H4ZM22.2071 22.2071C21.8166 22.5976 21.1834 22.5976 20.7929 22.2071L19 20.4142L17.2071 22.2071C16.8166 22.5976 16.1834 22.5976 15.7929 22.2071C15.4024 21.8166 15.4024 21.1834 15.7929 20.7929L17.5858 19L15.7929 17.2071C15.4024 16.8166 15.4024 16.1834 15.7929 15.7929C16.1834 15.4024 16.8166 15.4024 17.2071 15.7929L19 17.5858L20.7929 15.7929C21.1834 15.4024 21.8166 15.4024 22.2071 15.7929C22.5976 16.1834 22.5976 16.8166 22.2071 17.2071L20.4142 19L22.2071 20.7929C22.5976 21.1834 22.5976 21.8166 22.2071 22.2071Z" fill="black"/>
</svg>
