<svg width="24" height="24" viewBox="0 0 24 24" fill="none" xmlns="http://www.w3.org/2000/svg">
<path fill-rule="evenodd" clip-rule="evenodd" d="M1.45499 8.52392C1.83846 5.6479 4.29176 3.5 7.19323 3.5H16.8075C19.709 3.5 22.1623 5.6479 22.5457 8.52392L23.5164 15.8038C23.8479 18.2905 21.9134 20.5 19.4048 20.5C17.5342 20.5 15.8951 19.248 15.403 17.4434L15.0356 16.0964C14.859 15.4491 14.2711 15 13.6001 15H10.4007C9.72966 15 9.14168 15.4491 8.96513 16.0965L8.59777 17.4434C8.1056 19.248 6.46648 20.5 4.59594 20.5C2.08728 20.5 0.152786 18.2905 0.48434 15.8038L1.45499 8.52392ZM7.00024 7C6.44796 7 6.00024 7.44772 6.00024 8V9H5.00024C4.44796 9 4.00024 9.44771 4.00024 10C4.00024 10.5523 4.44796 11 5.00024 11H6.00024V12C6.00024 12.5523 6.44796 13 7.00024 13C7.55253 13 8.00024 12.5523 8.00024 12V11H9.00024C9.55253 11 10.0002 10.5523 10.0002 10C10.0002 9.44772 9.55253 9 9.00024 9H8.00024V8C8.00024 7.44772 7.55253 7 7.00024 7ZM17.0002 9C16.448 9 16.0002 9.44772 16.0002 10C16.0002 10.5523 16.448 11 17.0002 11C17.5525 11 18.0002 10.5523 18.0002 10C18.0002 9.44772 17.5525 9 17.0002 9ZM14.0002 10C14.0002 8.34315 15.3434 7 17.0002 7C18.6571 7 20.0002 8.34315 20.0002 10C20.0002 11.6569 18.6571 13 17.0002 13C15.3434 13 14.0002 11.6569 14.0002 10Z" fill="black"/>
</svg>
