<svg width="24" height="24" viewBox="0 0 24 24" fill="none" xmlns="http://www.w3.org/2000/svg">
<path fill-rule="evenodd" clip-rule="evenodd" d="M14 2C13.4477 2 13 2.44772 13 3C13 3.55228 13.4477 4 14 4H18.5858L14.9056 7.68014C13.551 6.62708 11.8487 6 10 6C5.58172 6 2 9.58172 2 14C2 18.4183 5.58172 22 10 22C14.4183 22 18 18.4183 18 14C18 12.1513 17.3729 10.449 16.3199 9.09436L20 5.41421V10C20 10.5523 20.4477 11 21 11C21.5523 11 22 10.5523 22 10V3C22 2.44772 21.5523 2 21 2H14ZM4 14C4 10.6863 6.68629 8 10 8C13.3137 8 16 10.6863 16 14C16 17.3137 13.3137 20 10 20C6.68629 20 4 17.3137 4 14Z" fill="black"/>
</svg>
