<svg width="24" height="24" viewBox="0 0 24 24" fill="none" xmlns="http://www.w3.org/2000/svg">
<path fill-rule="evenodd" clip-rule="evenodd" d="M19.25 1.5C19.6166 1.5 19.9295 1.76506 19.9898 2.1267L20.1375 3.013C20.2956 3.96131 21.0387 4.70444 21.987 4.86249L22.8733 5.0102C23.2349 5.07048 23.5 5.38337 23.5 5.75C23.5 6.11663 23.2349 6.42952 22.8733 6.4898L21.987 6.63751C21.0387 6.79556 20.2956 7.53868 20.1375 8.487L19.9898 9.3733C19.9295 9.73494 19.6166 10 19.25 10C18.8834 10 18.5705 9.73494 18.5102 9.3733L18.3625 8.487C18.2044 7.53868 17.4613 6.79556 16.513 6.63751L15.6267 6.4898C15.2651 6.42952 15 6.11663 15 5.75C15 5.38337 15.2651 5.07048 15.6267 5.0102L16.513 4.86249C17.4613 4.70444 18.2044 3.96131 18.3625 3.013L18.5102 2.1267C18.5705 1.76506 18.8834 1.5 19.25 1.5ZM19.2 12C16.7839 12 16.4434 9.7948 16.4023 8.93631C16.3938 8.75689 16.2431 8.60624 16.0637 8.59766C15.2052 8.55662 13 8.21606 13 5.80001C13 4.98808 13.2564 4.41055 13.6303 4H6C3.79086 4 2 5.79086 2 8V18C2 20.2091 3.79086 22 6 22H18C20.2091 22 22 20.2091 22 18V9.9458C21.6456 10.9094 20.8746 12 19.2 12ZM7.02732 11.5C7.02732 12.3284 7.69889 13 8.52732 13C9.35575 13 10.0273 12.3284 10.0273 11.5C10.0273 10.6716 9.35575 10 8.52732 10C7.69889 10 7.02732 10.6716 7.02732 11.5ZM12.7968 12.5025C13.6572 11.4509 15.2015 11.2778 16.2722 12.1189C17.2648 12.8988 18.717 14.0429 19.8747 14.9691C20.306 15.3141 20.3759 15.9434 20.0309 16.3747C19.6859 16.806 19.0566 16.8759 18.6253 16.5309C17.4748 15.6105 16.0285 14.4709 15.0366 13.6916C14.8246 13.5251 14.5173 13.558 14.3448 13.7689L10.774 18.1332C10.4403 18.541 9.8475 18.62 9.41876 18.3137L6.95277 16.5523C6.75387 16.4102 6.48142 16.4328 6.30859 16.6056L5.45711 17.4571C5.06658 17.8476 4.43342 17.8476 4.04289 17.4571C3.65237 17.0666 3.65237 16.4334 4.04289 16.0429L4.89438 15.1914C5.75853 14.3273 7.12078 14.2145 8.11524 14.9248L9.81912 16.1419L12.7968 12.5025Z" fill="black"/>
</svg>
