<svg width="24" height="24" viewBox="0 0 24 24" fill="none" xmlns="http://www.w3.org/2000/svg">
<path fill-rule="evenodd" clip-rule="evenodd" d="M19.25 0.5C19.6166 0.5 19.9295 0.765059 19.9898 1.1267L20.1375 2.013C20.2956 2.96131 21.0387 3.70444 21.987 3.86249L22.8733 4.0102C23.2349 4.07048 23.5 4.38337 23.5 4.75C23.5 5.11663 23.2349 5.42952 22.8733 5.4898L21.987 5.63751C21.0387 5.79556 20.2956 6.53868 20.1375 7.487L19.9898 8.3733C19.9295 8.73494 19.6166 9 19.25 9C18.8834 9 18.5705 8.73494 18.5102 8.3733L18.3625 7.487C18.2044 6.53868 17.4613 5.79556 16.513 5.63751L15.6267 5.4898C15.2651 5.42952 15 5.11663 15 4.75C15 4.38337 15.2651 4.07048 15.6267 4.0102L16.513 3.86249C17.4613 3.70444 18.2044 2.96131 18.3625 2.013L18.5102 1.1267C18.5705 0.765059 18.8834 0.5 19.25 0.5ZM13.483 5.66659C13.5843 6.20951 13.2263 6.73174 12.6834 6.83301L10.9516 7.15607C10.7543 7.19286 10.6113 7.365 10.6113 7.56563V18C10.6113 18.0227 10.6106 18.0453 10.6091 18.0676C10.6103 18.1096 10.6109 18.1518 10.6109 18.1941C10.6109 20.572 8.6833 22.4996 6.30545 22.4996C3.9276 22.4996 2 20.572 2 18.1941C2 15.8163 3.9276 13.8886 6.30545 13.8886C7.15374 13.8886 7.94472 14.134 8.61133 14.5575V7.56563C8.61133 6.40187 9.44077 5.40339 10.5848 5.18998L12.3166 4.86693C12.8595 4.76565 13.3818 5.12367 13.483 5.66659ZM20 10.7C20.5523 10.7 21 11.1477 21 11.7V16C21 16.0344 20.9983 16.0685 20.9949 16.102C20.998 16.1694 20.9996 16.2372 20.9996 16.3053C20.9996 18.6831 19.072 20.6108 16.6941 20.6108C14.3163 20.6108 12.3887 18.6831 12.3887 16.3053C12.3887 13.9274 14.3163 11.9998 16.6941 11.9998C17.5424 11.9998 18.3334 12.2451 19 12.6687V11.7C19 11.1477 19.4477 10.7 20 10.7Z" fill="black"/>
</svg>
