<svg width="24" height="24" viewBox="0 0 24 24" fill="none" xmlns="http://www.w3.org/2000/svg">
<path fill-rule="evenodd" clip-rule="evenodd" d="M16.6566 1.92864C17.0471 1.53811 17.6802 1.53811 18.0708 1.92864C18.9994 2.85722 19.736 3.95961 20.2385 5.17287C20.741 6.38612 20.9997 7.68648 20.9997 8.9997C20.9997 10.3129 20.741 11.6133 20.2385 12.8265C19.736 14.0398 18.9994 15.1422 18.0708 16.0708C17.1422 16.9994 16.0398 17.736 14.8265 18.2385C13.922 18.6132 12.9691 18.8523 11.9985 18.9497C11.9993 18.9663 11.9998 18.983 11.9998 18.9998V20.9998H13.9998C14.552 20.9998 14.9998 21.4475 14.9998 21.9998C14.9998 22.552 14.552 22.9998 13.9998 22.9998H7.99976C7.44747 22.9998 6.99976 22.552 6.99976 21.9998C6.99976 21.4475 7.44747 20.9998 7.99976 20.9998H9.99976V18.9998C9.99976 18.983 10.0002 18.9663 10.001 18.9497C9.03038 18.8523 8.07742 18.6132 7.17287 18.2385C5.95961 17.736 4.85722 16.9994 3.92864 16.0708C3.53811 15.6802 3.53811 15.0471 3.92864 14.6566C4.31916 14.266 4.95232 14.266 5.34285 14.6566C6.08572 15.3994 6.96763 15.9887 7.93824 16.3907C8.90884 16.7928 9.94913 16.9997 10.9997 16.9997C12.0503 16.9997 13.0906 16.7928 14.0612 16.3907C15.0318 15.9887 15.9137 15.3994 16.6566 14.6566C17.3994 13.9137 17.9887 13.0318 18.3907 12.0612C18.7928 11.0906 18.9997 10.0503 18.9997 8.9997C18.9997 7.94913 18.7928 6.90884 18.3907 5.93824C17.9887 4.96763 17.3994 4.08572 16.6566 3.34285C16.266 2.95232 16.266 2.31916 16.6566 1.92864ZM10.9998 2.49976C7.4099 2.49976 4.49976 5.4099 4.49976 8.99976C4.49976 12.5896 7.4099 15.4998 10.9998 15.4998C14.5896 15.4998 17.4998 12.5896 17.4998 8.99976C17.4998 5.4099 14.5896 2.49976 10.9998 2.49976Z" fill="black"/>
</svg>
