<svg width="24" height="24" viewBox="0 0 24 24" fill="none" xmlns="http://www.w3.org/2000/svg">
<path fill-rule="evenodd" clip-rule="evenodd" d="M4.5 2.5C3.39543 2.5 2.5 3.39543 2.5 4.5V19.5C2.5 20.6046 3.39543 21.5 4.5 21.5H5.25C6.35457 21.5 7.25 20.6046 7.25 19.5V4.5C7.25 3.39543 6.35457 2.5 5.25 2.5H4.5ZM11.6499 2.5C10.5453 2.5 9.6499 3.39543 9.6499 4.5V19.5C9.6499 20.6046 10.5453 21.5 11.6499 21.5H12.3999C13.5045 21.5 14.3999 20.6046 14.3999 19.5V4.5C14.3999 3.39543 13.5045 2.5 12.3999 2.5H11.6499ZM18.75 2.5C17.6454 2.5 16.75 3.39543 16.75 4.5V19.5C16.75 20.6046 17.6454 21.5 18.75 21.5H19.5C20.6046 21.5 21.5 20.6046 21.5 19.5V4.5C21.5 3.39543 20.6046 2.5 19.5 2.5H18.75Z" fill="black"/>
</svg>
