<svg width="24" height="24" viewBox="0 0 24 24" fill="none" xmlns="http://www.w3.org/2000/svg">
<path fill-rule="evenodd" clip-rule="evenodd" d="M2 12C2 6.47715 6.47715 2 12 2C17.5228 2 22 6.47715 22 12C22 17.5228 17.5228 22 12 22C6.47715 22 2 17.5228 2 12ZM9.15 6.45C9.77917 5.97812 10.7345 5.5 12 5.5C13.2714 5.5 14.2984 5.9867 14.9974 6.77314C15.6801 7.54117 16 8.53693 16 9.5C16 10.3077 15.7927 10.9562 15.4127 11.4832C15.0523 11.9832 14.5846 12.3019 14.2244 12.5312C14.166 12.5683 14.1103 12.6036 14.0569 12.6374C13.379 13.0664 13.0941 13.2467 12.9701 13.7425C12.8362 14.2783 12.2933 14.6041 11.7575 14.4701C11.2217 14.3362 10.8959 13.7933 11.0299 13.2575C11.3597 11.9379 12.3488 11.3345 12.9625 10.9601L12.9626 10.9601L12.9627 10.96C13.0304 10.9187 13.0935 10.8802 13.1506 10.8438C13.4779 10.6356 13.6664 10.4856 13.7904 10.3136C13.8948 10.1688 14 9.94235 14 9.5C14 8.96307 13.8199 8.45883 13.5026 8.10186C13.2016 7.7633 12.7286 7.5 12 7.5C11.2655 7.5 10.7208 7.77188 10.35 8.05C10.1631 8.19019 10.0241 8.32963 9.93491 8.42999C9.89065 8.47978 9.85972 8.51873 9.84231 8.54159C9.83375 8.55282 9.82856 8.56003 9.82675 8.56257L9.82671 8.5626C9.82582 8.5639 9.82581 8.5639 9.82667 8.56268L9.82675 8.56257C9.51858 9.01564 8.90219 9.13665 8.4453 8.83205C7.98577 8.5257 7.8616 7.90483 8.16795 7.4453L8.99982 7.99988C8.16795 7.4453 8.1682 7.44492 8.16846 7.44453L8.169 7.44373L8.17015 7.44201L8.17275 7.43816L8.17915 7.42879L8.19676 7.40363C8.21065 7.3841 8.22887 7.35913 8.25144 7.3295C8.29652 7.27033 8.35935 7.19209 8.44009 7.10126C8.60088 6.92037 8.83691 6.68481 9.15 6.45ZM13.5 17.5C13.5 18.3284 12.8284 19 12 19C11.1716 19 10.5 18.3284 10.5 17.5C10.5 16.6716 11.1716 16 12 16C12.8284 16 13.5 16.6716 13.5 17.5Z" fill="black"/>
</svg>
