<svg width="24" height="24" viewBox="0 0 24 24" fill="none" xmlns="http://www.w3.org/2000/svg">
<g clip-path="url(#clip0_1215_6654)">
<path fill-rule="evenodd" clip-rule="evenodd" d="M19.6714 3.7258C15.6341 1.39484 10.6927 2.04973 7.40322 5.00549C7.5387 4.10289 7.84255 3.21003 8.32689 2.37112C8.3646 2.30582 8.40312 2.24131 8.44244 2.17762C8.68879 1.77852 8.62467 1.26182 8.28823 0.935033C7.9518 0.608249 7.43345 0.559198 7.04168 0.817072C5.71838 1.68812 4.57323 2.87265 3.72882 4.33522C1.39798 8.37235 2.05268 13.3134 5.00807 16.6029C4.10675 16.4672 3.21521 16.1635 2.37747 15.6798C2.31217 15.6421 2.24767 15.6036 2.18397 15.5643C1.78487 15.3179 1.26816 15.382 0.941381 15.7185C0.614597 16.0549 0.565546 16.5733 0.823419 16.965C1.69446 18.2883 2.879 19.4335 4.34157 20.2779C8.37738 22.608 13.3166 21.9544 16.6061 19.0015C16.4701 19.9021 16.1665 20.7928 15.6833 21.6298C15.6456 21.6951 15.6071 21.7596 15.5677 21.8233C15.3214 22.2224 15.3855 22.7391 15.7219 23.0659C16.0584 23.3927 16.5767 23.4418 16.9685 23.1839C18.2918 22.3128 19.4369 21.1283 20.2814 19.6657C22.6116 15.6297 21.9578 10.6902 19.0045 7.4007C19.9059 7.53643 20.7976 7.84013 21.6355 8.32387C21.7008 8.36158 21.7653 8.4001 21.829 8.43941C22.2281 8.68577 22.7448 8.62165 23.0716 8.28521C23.3984 7.94877 23.4474 7.43042 23.1896 7.03866C22.3185 5.71536 21.134 4.57021 19.6714 3.7258ZM12.0006 8.99724C13.6575 8.99724 15.0006 10.3404 15.0006 11.9972C15.0006 13.6541 13.6575 14.9972 12.0006 14.9972C10.3438 14.9972 9.00063 13.6541 9.00063 11.9972C9.00063 10.3404 10.3438 8.99724 12.0006 8.99724Z" fill="black"/>
</g>
<defs>
<clipPath id="clip0_1215_6654">
<rect width="24" height="24" fill="white"/>
</clipPath>
</defs>
</svg>
