<svg width="24" height="24" viewBox="0 0 24 24" fill="none" xmlns="http://www.w3.org/2000/svg">
<path fill-rule="evenodd" clip-rule="evenodd" d="M15.3012 2.90905C15.7205 2.68971 15.9287 2.20648 15.8 1.75109C15.6714 1.2957 15.2411 0.992838 14.769 1.02533C10.9035 1.29139 7.61512 3.64763 6.0238 6.97209C5.82121 6.20297 5.73249 5.40377 5.76506 4.60215C5.78427 4.12921 5.46927 3.70757 5.01029 3.59188C4.55131 3.4762 4.07409 3.69815 3.86684 4.1237C2.17323 7.60119 2.57187 11.6202 4.65286 14.6561C3.88891 14.4469 3.1557 14.125 2.48056 13.6978C2.08058 13.4447 1.55794 13.5066 1.22826 13.8463C0.898579 14.1859 0.852187 14.7102 1.1171 15.1025C3.28232 18.3086 6.96325 19.9728 10.6336 19.6877C10.0698 20.2461 9.42335 20.7212 8.71447 21.0929C8.29528 21.3128 8.08764 21.7964 8.21694 22.2517C8.34624 22.7071 8.77707 23.0094 9.24923 22.9761C13.1002 22.7046 16.3762 20.3584 17.9683 17.0483C18.1664 17.8114 18.2525 18.6038 18.2194 19.3984C18.1997 19.8712 18.5141 20.2931 18.9728 20.4093C19.4315 20.5256 19.9089 20.3044 20.1168 19.8793C21.8159 16.4054 21.4243 12.3882 19.3514 9.3499C20.1147 9.55986 20.8472 9.88237 21.5216 10.3101C21.9212 10.5636 22.4438 10.5022 22.7739 10.1631C23.1039 9.82399 23.1511 9.29996 22.8869 8.90736C20.7283 5.6996 17.0546 4.03015 13.3876 4.30537C13.9504 3.75061 14.5949 3.27855 15.3012 2.90905ZM11.9935 9.50029C13.3742 9.50029 14.4935 10.6196 14.4935 12.0003C14.4935 13.381 13.3742 14.5003 11.9935 14.5003C10.6127 14.5003 9.49345 13.381 9.49345 12.0003C9.49345 10.6196 10.6127 9.50029 11.9935 9.50029Z" fill="black"/>
</svg>
