<svg width="24" height="24" viewBox="0 0 24 24" fill="none" xmlns="http://www.w3.org/2000/svg">
<path fill-rule="evenodd" clip-rule="evenodd" d="M5.67306 6.00423C6.34887 3.13511 8.92484 1 12 1C15.0752 1 17.6511 3.13511 18.3269 6.00423C18.3843 6.00142 18.442 6 18.5 6C20.433 6 22 7.567 22 9.5C22 11.433 20.433 13 18.5 13C17.7074 13 16.9767 12.7363 16.3906 12.2929C15.2347 13.3521 13.6929 14 12 14C10.3071 14 8.76529 13.3521 7.60943 12.2929C7.0233 12.7363 6.29261 13 5.5 13C3.567 13 2 11.433 2 9.5C2 7.567 3.567 6 5.5 6C5.55799 6 5.61569 6.00142 5.67306 6.00423ZM11.1239 22.4818L6.96606 14.9222C7.18543 14.8866 7.4009 14.839 7.61174 14.7803C8.89238 15.5534 10.3951 15.9999 12.0001 15.9999C13.6051 15.9999 15.1078 15.5534 16.3884 14.7803C16.5993 14.839 16.8147 14.8866 17.0341 14.9222L12.8763 22.4818C12.7005 22.8014 12.3648 22.9999 12.0001 22.9999C11.6354 22.9999 11.2996 22.8014 11.1239 22.4818Z" fill="black"/>
</svg>
