<svg width="24" height="24" viewBox="0 0 24 24" fill="none" xmlns="http://www.w3.org/2000/svg">
<path fill-rule="evenodd" clip-rule="evenodd" d="M4 5C4 4.44772 4.44772 4 5 4H7C7.55228 4 8 3.55228 8 3C8 2.44772 7.55228 2 7 2H5C3.34315 2 2 3.34315 2 5V7C2 7.55228 2.44772 8 3 8C3.55228 8 4 7.55228 4 7V5ZM17 2C16.4477 2 16 2.44772 16 3C16 3.55228 16.4477 4 17 4H19C19.5523 4 20 4.44772 20 5V7C20 7.55228 20.4477 8 21 8C21.5523 8 22 7.55228 22 7V5C22 3.34315 20.6569 2 19 2H17ZM4 17C4 16.4477 3.55228 16 3 16C2.44772 16 2 16.4477 2 17V19C2 20.6569 3.34315 22 5 22H7C7.55228 22 8 21.5523 8 21C8 20.4477 7.55228 20 7 20H5C4.44772 20 4 19.5523 4 19V17ZM22 17C22 16.4477 21.5523 16 21 16C20.4477 16 20 16.4477 20 17V19C20 19.5523 19.5523 20 19 20H17C16.4477 20 16 20.4477 16 21C16 21.5523 16.4477 22 17 22H19C20.6569 22 22 20.6569 22 19V17ZM9.5 8.5C9.5 9.32843 8.82843 10 8 10C7.17157 10 6.5 9.32843 6.5 8.5C6.5 7.67157 7.17157 7 8 7C8.82843 7 9.5 7.67157 9.5 8.5ZM17.5 8.5C17.5 9.32843 16.8284 10 16 10C15.1716 10 14.5 9.32843 14.5 8.5C14.5 7.67157 15.1716 7 16 7C16.8284 7 17.5 7.67157 17.5 8.5ZM12 7C12.5523 7 13 7.44772 13 8V12.5C13 13.0523 12.5523 13.5 12 13.5C11.4477 13.5 11 13.0523 11 12.5V8C11 7.44772 11.4477 7 12 7ZM16.8854 15.4647C17.1421 14.9757 16.9537 14.3712 16.4647 14.1145C15.9757 13.8579 15.3712 14.0463 15.1145 14.5353C14.6336 15.4516 13.4492 16.0318 12.0329 16.0318C10.6152 16.0318 9.38317 15.4476 8.86407 14.5565C8.58608 14.0792 7.97386 13.9177 7.49663 14.1957C7.01941 14.4737 6.8579 15.0859 7.13589 15.5632C8.13674 17.2813 10.1886 18.0318 12.0328 18.0318C13.8784 18.0318 15.934 17.2774 16.8854 15.4647Z" fill="black"/>
</svg>
