<svg width="24" height="24" viewBox="0 0 24 24" fill="none" xmlns="http://www.w3.org/2000/svg">
<path fill-rule="evenodd" clip-rule="evenodd" d="M17.1961 1.51961C17.7377 1.62792 18.0889 2.15475 17.9806 2.69631L17.8402 3.39828C17.535 4.92419 16.1138 5.96343 14.5672 5.79159L14.1104 5.74084C13.5181 5.67502 13 6.13871 13 6.73472V8.00019L20 8.00019C21.6569 8.00019 23 9.34334 23 11.0002V19.0002C23 20.657 21.6569 22.0002 20 22.0002H4C2.34315 22.0002 1 20.657 1 19.0002V11.0002C1 9.34334 2.34315 8.00019 4 8.00019L11 8.00019V6.73472C11 4.94669 12.5542 3.55562 14.3313 3.75307L14.788 3.80382C15.3035 3.8611 15.7773 3.51469 15.879 3.00605L16.0194 2.30408C16.1277 1.76252 16.6546 1.4113 17.1961 1.51961ZM6.75 12.7502C6.75 13.5786 6.07843 14.2502 5.25 14.2502C4.42157 14.2502 3.75 13.5786 3.75 12.7502C3.75 11.9218 4.42157 11.2502 5.25 11.2502C6.07843 11.2502 6.75 11.9218 6.75 12.7502ZM20.25 12.7502C20.25 13.5786 19.5784 14.2502 18.75 14.2502C17.9216 14.2502 17.25 13.5786 17.25 12.7502C17.25 11.9218 17.9216 11.2502 18.75 11.2502C19.5784 11.2502 20.25 11.9218 20.25 12.7502ZM9.75 14.2502C10.5784 14.2502 11.25 13.5786 11.25 12.7502C11.25 11.9218 10.5784 11.2502 9.75 11.2502C8.92157 11.2502 8.25 11.9218 8.25 12.7502C8.25 13.5786 8.92157 14.2502 9.75 14.2502ZM15.75 12.7502C15.75 13.5786 15.0784 14.2502 14.25 14.2502C13.4216 14.2502 12.75 13.5786 12.75 12.7502C12.75 11.9218 13.4216 11.2502 14.25 11.2502C15.0784 11.2502 15.75 11.9218 15.75 12.7502ZM18.75 18.7502C19.5784 18.7502 20.25 18.0786 20.25 17.2502C20.25 16.4218 19.5784 15.7502 18.75 15.7502C17.9216 15.7502 17.25 16.4218 17.25 17.2502C17.25 18.0786 17.9216 18.7502 18.75 18.7502ZM6.75 17.2502C6.75 18.0786 6.07843 18.7502 5.25 18.7502C4.42157 18.7502 3.75 18.0786 3.75 17.2502C3.75 16.4218 4.42157 15.7502 5.25 15.7502C6.07843 15.7502 6.75 16.4218 6.75 17.2502ZM8 17.2502C8 16.6979 8.44772 16.2502 9 16.2502H15C15.5523 16.2502 16 16.6979 16 17.2502C16 17.8025 15.5523 18.2502 15 18.2502H9C8.44772 18.2502 8 17.8025 8 17.2502Z" fill="black"/>
</svg>
