<svg width="24" height="24" viewBox="0 0 24 24" fill="none" xmlns="http://www.w3.org/2000/svg">
<path fill-rule="evenodd" clip-rule="evenodd" d="M10.2071 5.20696C9.81658 5.59748 9.18342 5.59748 8.79289 5.20696C8.40237 4.81643 8.40237 4.18327 8.79289 3.79274L10.5858 1.99985C11.3668 1.2188 12.6332 1.2188 13.4142 1.99985L15.2071 3.79274C15.5976 4.18327 15.5976 4.81643 15.2071 5.20696C14.8166 5.59748 14.1834 5.59748 13.7929 5.20696L12 3.41406L10.2071 5.20696ZM4 7.49985C2.34315 7.49985 1 8.84299 1 10.4998V18.4998C1 20.1567 2.34315 21.4998 4 21.4998H20C21.6569 21.4998 23 20.1567 23 18.4998V10.4998C23 8.84299 21.6569 7.49985 20 7.49985H4ZM5.25 13.7498C6.07843 13.7498 6.75 13.0783 6.75 12.2498C6.75 11.4214 6.07843 10.7498 5.25 10.7498C4.42157 10.7498 3.75 11.4214 3.75 12.2498C3.75 13.0783 4.42157 13.7498 5.25 13.7498ZM18.75 13.7498C19.5784 13.7498 20.25 13.0783 20.25 12.2498C20.25 11.4214 19.5784 10.7498 18.75 10.7498C17.9216 10.7498 17.25 11.4214 17.25 12.2498C17.25 13.0783 17.9216 13.7498 18.75 13.7498ZM11.25 12.2498C11.25 13.0783 10.5784 13.7498 9.75 13.7498C8.92157 13.7498 8.25 13.0783 8.25 12.2498C8.25 11.4214 8.92157 10.7498 9.75 10.7498C10.5784 10.7498 11.25 11.4214 11.25 12.2498ZM14.25 13.7498C15.0784 13.7498 15.75 13.0783 15.75 12.2498C15.75 11.4214 15.0784 10.7498 14.25 10.7498C13.4216 10.7498 12.75 11.4214 12.75 12.2498C12.75 13.0783 13.4216 13.7498 14.25 13.7498ZM20.25 16.7498C20.25 17.5783 19.5784 18.2498 18.75 18.2498C17.9216 18.2498 17.25 17.5783 17.25 16.7498C17.25 15.9214 17.9216 15.2498 18.75 15.2498C19.5784 15.2498 20.25 15.9214 20.25 16.7498ZM5.25 18.2498C6.07843 18.2498 6.75 17.5783 6.75 16.7498C6.75 15.9214 6.07843 15.2498 5.25 15.2498C4.42157 15.2498 3.75 15.9214 3.75 16.7498C3.75 17.5783 4.42157 18.2498 5.25 18.2498ZM9.5 15.7498C8.94772 15.7498 8.5 16.1976 8.5 16.7498C8.5 17.3021 8.94772 17.7498 9.5 17.7498H14.5C15.0523 17.7498 15.5 17.3021 15.5 16.7498C15.5 16.1976 15.0523 15.7498 14.5 15.7498H9.5Z" fill="black"/>
</svg>
