<svg width="24" height="24" viewBox="0 0 24 24" fill="none" xmlns="http://www.w3.org/2000/svg">
<path fill-rule="evenodd" clip-rule="evenodd" d="M5 3C3.89543 3 3 3.89543 3 5V9C3 10.1046 3.89543 11 5 11H9C10.1046 11 11 10.1046 11 9V5C11 3.89543 10.1046 3 9 3H5ZM5 13C3.89543 13 3 13.8954 3 15V19C3 20.1046 3.89543 21 5 21H9C10.1046 21 11 20.1046 11 19V15C11 13.8954 10.1046 13 9 13H5ZM13 7C13 6.44772 13.4477 6 14 6H20C20.5523 6 21 6.44772 21 7C21 7.55228 20.5523 8 20 8H14C13.4477 8 13 7.55228 13 7ZM14 16C13.4477 16 13 16.4477 13 17C13 17.5523 13.4477 18 14 18H20C20.5523 18 21 17.5523 21 17C21 16.4477 20.5523 16 20 16H14Z" fill="black"/>
</svg>
