<svg width="24" height="24" viewBox="0 0 24 24" fill="none" xmlns="http://www.w3.org/2000/svg">
<path fill-rule="evenodd" clip-rule="evenodd" d="M12 1.5C12.5523 1.5 13 1.94772 13 2.5V4.5C13 5.05228 12.5523 5.5 12 5.5C11.4477 5.5 11 5.05228 11 4.5V2.5C11 1.94772 11.4477 1.5 12 1.5ZM12 7.5C12.5523 7.5 13 7.94772 13 8.5V15.5C13 16.0523 12.5523 16.5 12 16.5C11.4477 16.5 11 16.0523 11 15.5V8.5C11 7.94772 11.4477 7.5 12 7.5ZM8 7C8 6.44772 7.55228 6 7 6C6.44772 6 6 6.44772 6 7V11C6 11.5523 6.44772 12 7 12C7.55228 12 8 11.5523 8 11V7ZM17 12C17.5523 12 18 12.4477 18 13V17C18 17.5523 17.5523 18 17 18C16.4477 18 16 17.5523 16 17V13C16 12.4477 16.4477 12 17 12ZM3 11C3 10.4477 2.55228 10 2 10C1.44772 10 1 10.4477 1 11V13C1 13.5523 1.44772 14 2 14C2.55228 14 3 13.5523 3 13V11ZM7 14C7.55228 14 8 14.4477 8 15V17C8 17.5523 7.55228 18 7 18C6.44772 18 6 17.5523 6 17V15C6 14.4477 6.44772 14 7 14ZM18 7C18 6.44772 17.5523 6 17 6C16.4477 6 16 6.44772 16 7V9C16 9.55228 16.4477 10 17 10C17.5523 10 18 9.55228 18 9V7ZM22 10C22.5523 10 23 10.4477 23 11V13C23 13.5523 22.5523 14 22 14C21.4477 14 21 13.5523 21 13V11C21 10.4477 21.4477 10 22 10ZM13 19.5C13 18.9477 12.5523 18.5 12 18.5C11.4477 18.5 11 18.9477 11 19.5V21.5C11 22.0523 11.4477 22.5 12 22.5C12.5523 22.5 13 22.0523 13 21.5V19.5Z" fill="black"/>
</svg>
