<svg width="24" height="24" viewBox="0 0 24 24" fill="none" xmlns="http://www.w3.org/2000/svg">
<path fill-rule="evenodd" clip-rule="evenodd" d="M4.14478 16.962C4.33848 17.1323 4.59907 17.25 4.99808 17.25C5.23115 17.25 5.53611 17.1592 5.93374 16.8873C6.33219 16.615 6.7668 16.1992 7.23739 15.6478C8.18355 14.539 9.14453 13.0411 10.1558 11.4609L10.1815 11.4208C10.3857 11.1017 10.5921 10.7792 10.8003 10.4576C10.2712 9.6736 9.75211 8.95536 9.23744 8.35225C8.76684 7.80078 8.33222 7.38503 7.93376 7.11266C7.53612 6.84084 7.23116 6.75 6.99808 6.75C6.52882 6.75 5.85225 7.14784 5.13212 8.25007C4.44971 9.29458 3.89649 10.7319 3.60366 12.1961C3.30798 13.6745 3.30305 15.0524 3.59476 16.0037C3.73787 16.4704 3.93442 16.777 4.14478 16.962ZM11.9981 8.67119C11.5888 8.09045 11.1749 7.54166 10.7588 7.054C10.2294 6.4336 9.66399 5.87278 9.06242 5.46156C8.46005 5.04979 7.76501 4.75 6.99808 4.75C5.46734 4.75 4.26891 5.91466 3.45779 7.15618C2.60895 8.45542 1.97467 10.1431 1.6425 11.8039C1.31318 13.4505 1.25562 15.1976 1.68265 16.5901C1.89891 17.2953 2.25705 17.9652 2.82404 18.4638C3.40768 18.9771 4.14709 19.25 4.99808 19.25C5.76501 19.25 6.46005 18.9502 7.06242 18.5384C7.66397 18.1272 8.22936 17.5664 8.75877 16.946C9.8035 15.7217 10.8337 14.1121 11.8147 12.5792L11.8404 12.5391C11.8931 12.4567 11.9457 12.3745 11.9981 12.2926C12.0506 12.3745 12.1032 12.4567 12.1559 12.5391L12.1817 12.5793C13.1627 14.1122 14.1928 15.7217 15.2375 16.946C15.7669 17.5664 16.3323 18.1272 16.9338 18.5384C17.5362 18.9502 18.2312 19.25 18.9981 19.25C19.8491 19.25 20.5884 18.9771 21.1721 18.4638C21.739 17.9652 22.0971 17.2952 22.3134 16.5901C22.7404 15.1976 22.6828 13.4505 22.3536 11.8039C22.0214 10.1431 21.3872 8.45543 20.5383 7.15619C19.7272 5.91467 18.5288 4.75 16.9981 4.75C16.2312 4.75 15.5361 5.04979 14.9337 5.46156C14.3322 5.87278 13.7668 6.43361 13.2374 7.05401C12.8213 7.54166 12.4074 8.09046 11.9981 8.67119ZM13.1959 10.4576C13.4042 10.7793 13.6106 11.1018 13.8149 11.421L13.8405 11.4609C14.8518 13.0411 15.8128 14.539 16.7589 15.6478C17.2295 16.1992 17.6641 16.615 18.0625 16.8874C18.4601 17.1592 18.7651 17.25 18.9981 17.25C19.397 17.25 19.6576 17.1323 19.8513 16.962C20.0616 16.777 20.2582 16.4704 20.4013 16.0037C20.693 15.0524 20.6881 13.6745 20.3924 12.1961C20.0996 10.7319 19.5464 9.29457 18.864 8.25006C18.1439 7.14783 17.4673 6.75 16.9981 6.75C16.765 6.75 16.46 6.84084 16.0624 7.11265C15.664 7.38503 15.2294 7.80077 14.7588 8.35224C14.2441 8.95535 13.7251 9.67359 13.1959 10.4576Z" fill="black"/>
</svg>
