<svg width="24" height="24" viewBox="0 0 24 24" fill="none" xmlns="http://www.w3.org/2000/svg">
<path fill-rule="evenodd" clip-rule="evenodd" d="M16.9389 16.5038C16.262 16.6494 15.5452 16.7654 14.7984 16.8485C14.3532 17.4535 13.8944 18.0162 13.4301 18.5295C13.5221 18.6069 13.6135 18.6814 13.7044 18.7529C14.4112 19.3091 15.0384 19.6499 15.5443 19.8007C16.0474 19.9507 16.3365 19.8894 16.5 19.7951C16.6634 19.7007 16.861 19.481 16.9826 18.9703C17.105 18.4567 17.1235 17.7432 16.9952 16.853C16.9787 16.7386 16.9599 16.6222 16.9389 16.5038ZM13.6971 14.941C14.0055 14.4853 14.3069 14.0044 14.5976 13.5009C14.8884 12.9972 15.1543 12.4955 15.3948 12.0005C15.1544 11.5057 14.8887 11.0043 14.598 10.5008C14.3073 9.99733 14.0058 9.51642 13.6975 9.06071C13.1485 9.02151 12.5811 9.00085 11.9995 9.00085C11.4181 9.00085 10.8509 9.02149 10.3021 9.06067C9.99372 9.51641 9.69221 9.99736 9.40148 10.5009C9.11086 11.0043 8.84518 11.5057 8.60475 12.0005C8.84529 12.4955 9.11109 12.9972 9.40188 13.5008C9.6926 14.0044 9.9941 14.4853 10.3025 14.9411C10.8512 14.9802 11.4182 15.0009 11.9995 15.0009C12.581 15.0009 13.1482 14.9802 13.6971 14.941ZM7.06062 16.5039C7.73753 16.6495 8.45442 16.7654 9.20119 16.8486C9.64645 17.4535 10.1051 18.0162 10.5695 18.5295C10.4775 18.607 10.386 18.6815 10.2951 18.753C9.58829 19.3092 8.96114 19.65 8.45521 19.8008C7.95206 19.9507 7.663 19.8895 7.49956 19.7951C7.33613 19.7008 7.13856 19.4811 7.01687 18.9703C6.89451 18.4568 6.87605 17.7433 7.00432 16.853C7.02079 16.7387 7.03956 16.6223 7.06062 16.5039ZM5.63033 14.0266C5.84272 13.3676 6.10077 12.6888 6.40216 12.0004C6.10091 11.3124 5.84297 10.6338 5.63066 9.97499C5.51753 10.016 5.40722 10.0579 5.29984 10.1009C4.46474 10.4349 3.85604 10.8077 3.47247 11.1704C3.09101 11.5312 2.99951 11.8121 2.99951 12.0009C2.99951 12.1896 3.09101 12.4705 3.47247 12.8313C3.85604 13.194 4.46474 13.5668 5.29983 13.9008C5.40711 13.9437 5.51732 13.9857 5.63033 14.0266ZM5.12598 8.03203C4.9306 8.09976 4.74083 8.17044 4.55705 8.24395C3.58251 8.63377 2.72674 9.12295 2.09825 9.71732C1.46765 10.3137 0.999512 11.085 0.999512 12.0009C0.999512 12.9167 1.46765 13.688 2.09825 14.2844C2.72674 14.8788 3.58251 15.3679 4.55705 15.7578C4.74072 15.8312 4.93037 15.9019 5.12562 15.9695C5.08662 16.1725 5.05297 16.372 5.02476 16.5678C4.87508 17.6067 4.87084 18.5924 5.07133 19.4339C5.27249 20.2782 5.70641 21.0693 6.49956 21.5272C7.29271 21.9851 8.19477 21.9654 9.02653 21.7174C9.85551 21.4703 10.707 20.9738 11.5319 20.3247C11.6874 20.2024 11.8435 20.0734 11.9998 19.9381C12.1561 20.0733 12.3121 20.2023 12.4676 20.3247C13.2925 20.9737 14.144 21.4703 14.973 21.7174C15.8047 21.9653 16.7068 21.9851 17.5 21.5271C18.2931 21.0692 18.727 20.2781 18.9282 19.4338C19.1287 18.5924 19.1244 17.6066 18.9748 16.5678C18.9465 16.3719 18.9129 16.1723 18.8739 15.9694C19.069 15.9017 19.2584 15.8312 19.442 15.7578C20.4165 15.3679 21.2723 14.8788 21.9008 14.2844C22.5314 13.688 22.9995 12.9167 22.9995 12.0009C22.9995 11.085 22.5314 10.3137 21.9008 9.71732C21.2723 9.12295 20.4165 8.63377 19.442 8.24395C19.2583 8.1705 19.0687 8.09987 18.8735 8.0322C18.9125 7.8293 18.9462 7.62977 18.9744 7.43401C19.124 6.39512 19.1283 5.40941 18.9278 4.56795C18.7266 3.72365 18.2927 2.93256 17.4996 2.47464C16.7064 2.01671 15.8044 2.03648 14.9726 2.28441C14.1436 2.53151 13.2921 3.02803 12.4672 3.67711C12.3118 3.79936 12.1559 3.9282 11.9998 4.06336C11.8436 3.92818 11.6877 3.79931 11.5323 3.67704C10.7074 3.02797 9.8559 2.53144 9.02692 2.28434C8.19516 2.0364 7.2931 2.01664 6.49995 2.47457C5.7068 2.93249 5.27289 3.72358 5.07172 4.56787C4.87123 5.40934 4.87547 6.39505 5.02515 7.43394C5.05335 7.62967 5.08699 7.82916 5.12598 8.03203ZM9.20081 7.15317C8.45431 7.2363 7.73767 7.35218 7.06099 7.4977C7.03994 7.37941 7.02118 7.26305 7.00471 7.14873C6.87645 6.2585 6.8949 5.54498 7.01726 5.03143C7.13895 4.5207 7.33652 4.30098 7.49995 4.20662C7.66339 4.11226 7.95246 4.05102 8.4556 4.201C8.96153 4.35181 9.58869 4.69259 10.2955 5.24878C10.3862 5.32017 10.4776 5.39457 10.5695 5.4719C10.105 5.98528 9.64618 6.54809 9.20081 7.15317ZM16.9385 7.4978C16.2619 7.35228 15.5453 7.23638 14.7988 7.15324C14.3534 6.54814 13.8946 5.9853 13.4301 5.47191C13.522 5.3946 13.6133 5.32022 13.704 5.24885C14.4108 4.69266 15.038 4.35188 15.5439 4.20107C16.0471 4.05109 16.3361 4.11233 16.4996 4.20669C16.663 4.30105 16.8606 4.52077 16.9823 5.0315C17.1046 5.54505 17.1231 6.25857 16.9948 7.1488C16.9783 7.26313 16.9596 7.3795 16.9385 7.4978ZM18.3688 9.97515C18.1565 10.6339 17.8986 11.3124 17.5974 12.0004C17.8987 12.6887 18.1568 13.3675 18.3691 14.0264C18.482 13.9856 18.5921 13.9437 18.6992 13.9008C19.5343 13.5668 20.143 13.194 20.5266 12.8313C20.908 12.4705 20.9995 12.1896 20.9995 12.0009C20.9995 11.8121 20.908 11.5312 20.5266 11.1704C20.143 10.8077 19.5343 10.4349 18.6992 10.1009C18.5919 10.058 18.4818 10.0161 18.3688 9.97515ZM13.2988 12.7509C12.8845 13.4683 11.9672 13.7142 11.2497 13.2999C10.5323 12.8857 10.2865 11.9683 10.7007 11.2509C11.1149 10.5335 12.0323 10.2877 12.7497 10.7019C13.4672 11.1161 13.713 12.0335 13.2988 12.7509ZM16.3732 10.2252L17.0227 9.10018H15.7237L16.3732 10.2252ZM11.9998 6.20019L12.6493 7.32519H11.3503L11.9998 6.20019ZM11.9998 17.8002L12.6493 16.6752H11.3503L11.9998 17.8002ZM8.27584 9.10018H6.97681L7.62632 10.2252L8.27584 9.10018ZM16.3732 13.7752L15.7237 14.9002H17.0227L16.3732 13.7752ZM6.97681 14.9002H8.27584L7.62633 13.7752L6.97681 14.9002Z" fill="black"/>
</svg>
