<svg width="24" height="24" viewBox="0 0 24 24" fill="none" xmlns="http://www.w3.org/2000/svg">
<path fill-rule="evenodd" clip-rule="evenodd" d="M2 12C2 6.47715 6.47715 2 12 2C17.5228 2 22 6.47715 22 12C22 17.5228 17.5228 22 12 22C6.47715 22 2 17.5228 2 12ZM5.31119 9.42932C5.51412 9.94277 6.09474 10.1946 6.60823 9.99197L6.60717 9.99239L6.6197 9.98766C6.6327 9.98281 6.65492 9.97466 6.68601 9.96377C6.74822 9.94198 6.84586 9.90923 6.9762 9.86987C7.23705 9.79111 7.62785 9.68621 8.12708 9.58966C9.12671 9.39634 10.5524 9.23818 12.2358 9.38546C13.9191 9.53273 15.2958 9.93606 16.2466 10.3C16.7215 10.4818 17.0882 10.653 17.3314 10.7758C17.4529 10.8372 17.5434 10.8864 17.6008 10.9187C17.6296 10.9348 17.65 10.9467 17.662 10.9537L17.6725 10.96L17.6742 10.961C18.1445 11.2483 18.7589 11.101 19.0476 10.6311C19.3367 10.1605 19.1896 9.54469 18.719 9.25558C18.6808 9.31778 18.6459 9.37454 18.6142 9.42621C18.6736 9.32908 18.7184 9.25524 18.7179 9.25491L18.7166 9.2541L18.7133 9.25211L18.7042 9.24661L18.676 9.22983C18.6527 9.21613 18.6205 9.19753 18.5797 9.17463C18.4982 9.12886 18.382 9.06588 18.2332 8.99068C17.9356 8.84038 17.5066 8.64079 16.9616 8.43219C15.8727 8.01541 14.3131 7.55955 12.4101 7.39307C10.5072 7.22658 8.89201 7.40467 7.74734 7.62604C7.17441 7.73684 6.71721 7.85889 6.39809 7.95525C6.23845 8.00345 6.1131 8.0453 6.02484 8.07622C5.98069 8.09168 5.94579 8.10442 5.92049 8.11387L5.88975 8.12549L5.87985 8.12932L5.87628 8.13072L5.87363 8.13176C5.36001 8.33476 5.1082 8.9157 5.31119 9.42932ZM5.87363 8.13176C5.99293 8.43362 6.08062 8.65542 6.12684 8.77231C6.08904 8.67673 6.02139 8.50569 5.91954 8.24824C5.87402 8.13316 5.87363 8.13176 5.87363 8.13176ZM18.3445 9.86584C18.3021 9.93467 18.3496 9.85693 18.6142 9.42621C18.5191 9.58176 18.3869 9.79704 18.3445 9.86584ZM16.107 16.6978C16.3961 16.2273 16.2489 15.6114 15.7783 15.3223L15.7767 15.3213L15.7744 15.3199L15.7679 15.316L15.7475 15.3038C15.7307 15.2937 15.7073 15.2799 15.6779 15.2629C15.6191 15.229 15.5359 15.182 15.4314 15.126C15.2229 15.0143 14.9273 14.865 14.571 14.7106C13.8698 14.4067 12.8812 14.0595 11.8341 13.9679C10.7869 13.8763 9.75305 14.0465 9.00986 14.224C8.63212 14.3143 8.31512 14.4099 8.09042 14.4838C7.97781 14.5208 7.88768 14.5526 7.8239 14.5758C7.792 14.5875 7.76663 14.597 7.74829 14.6039L7.72608 14.6125L7.71902 14.6152L7.71653 14.6162L7.71472 14.6169C7.2011 14.8199 6.94928 15.4008 7.15228 15.9145C7.35523 16.428 7.93596 16.6798 8.4495 16.477L8.45919 16.4733C8.46914 16.4695 8.48573 16.4633 8.5085 16.455C8.55409 16.4384 8.62418 16.4136 8.71505 16.3838C8.89731 16.3238 9.16027 16.2444 9.47455 16.1693C9.70622 16.114 9.95848 16.0628 10.2214 16.0231C10.6858 15.953 11.1835 15.9186 11.6597 15.9603C12.4056 16.0255 13.171 16.2835 13.7756 16.5456C14.0721 16.6741 14.3173 16.798 14.4864 16.8887C14.5707 16.9339 14.6355 16.9705 14.6775 16.9948C14.6985 17.0069 14.7138 17.0159 14.7229 17.0214L14.7318 17.0267L14.7329 17.0274C15.2034 17.3159 15.8181 17.1682 16.107 16.6978ZM15.7783 15.3223C15.6019 15.6095 15.4758 15.8147 15.4173 15.91C15.4654 15.8318 15.5619 15.6747 15.7148 15.4259C15.7784 15.3224 15.7783 15.3223 15.7783 15.3223ZM6.25682 12.69C6.02746 12.1876 6.24879 11.5943 6.7512 11.365C6.76017 11.3696 6.85452 11.3231 6.87642 11.3123C6.87913 11.311 6.88073 11.3102 6.88092 11.3101C6.95336 11.2811 7.0546 11.2425 7.18309 11.1985C7.43996 11.1105 7.80648 11.0003 8.27019 10.9002C9.19764 10.7001 10.5165 10.54 12.1243 10.6807C13.7321 10.8214 15.0031 11.208 15.8817 11.5661C16.321 11.7452 16.6628 11.9174 16.9005 12.0487C17.0194 12.1143 17.1124 12.1699 17.1787 12.2111C17.2119 12.2317 17.2384 12.2487 17.2581 12.2616L17.2826 12.2779L17.2911 12.2836L17.2943 12.2858L17.2957 12.2868L17.2969 12.2876C17.7519 12.6007 17.8668 13.2234 17.5537 13.6783C17.2415 14.1319 16.621 14.2471 16.1664 13.9374L16.1621 13.9346C16.1554 13.9302 16.1424 13.9218 16.1231 13.9098C16.0845 13.8858 16.021 13.8477 15.9335 13.7993C15.7582 13.7025 15.4872 13.5651 15.1268 13.4182C14.4062 13.1245 13.3308 12.7939 11.95 12.6731C10.5692 12.5523 9.45274 12.6911 8.69202 12.8552C8.31165 12.9373 8.02086 13.0256 7.83146 13.0905C7.73681 13.1229 7.66766 13.1495 7.6255 13.1664C7.60443 13.1748 7.59012 13.1809 7.58277 13.184L7.57733 13.1864C7.07589 13.4124 6.48551 13.1909 6.25682 12.69Z" fill="black"/>
</svg>
