<svg width="24" height="24" viewBox="0 0 24 24" fill="none" xmlns="http://www.w3.org/2000/svg">
<path fill-rule="evenodd" clip-rule="evenodd" d="M9.48636 2.6779C10.5041 2.08597 11.698 1.87216 12.8579 2.07413C14.0178 2.2761 15.0692 2.8809 15.827 3.78199C16.5847 4.68308 17.0002 5.82267 17.0002 7.00001L17 7.01979V9.00001V11.134V11.8475C17 12.779 17.2169 13.6977 17.6334 14.5308L17.8944 15.0528C18.1414 15.5468 17.9412 16.1474 17.4472 16.3944C16.9532 16.6414 16.3526 16.4412 16.1056 15.9472L15.8446 15.4252C15.7731 15.2823 15.706 15.1374 15.6434 14.9909C14.5885 16.3038 13.0042 17.178 11.2012 17.284L11.0882 17.2907C8.59898 17.4371 6.5 15.4579 6.5 12.9645C6.5 10.7669 8.14483 8.91725 10.3273 8.66048L15 8.11076V7L15.0001 6.98296C14.9962 6.28261 14.7473 5.6055 14.2963 5.0692C13.8416 4.52854 13.2108 4.16567 12.5148 4.04448C11.8189 3.9233 11.1025 4.05158 10.4919 4.40674C9.88126 4.7619 9.41554 5.32115 9.17677 5.98597C8.99009 6.50575 8.41739 6.77578 7.89761 6.5891C7.37783 6.40243 7.1078 5.82973 7.29448 5.30995C7.69244 4.2019 8.46864 3.26983 9.48636 2.6779ZM15 10.1245L10.561 10.6468C9.38574 10.7851 8.5 11.7811 8.5 12.9645C8.5 14.3072 9.6303 15.373 10.9707 15.2941L11.0837 15.2875C13.2829 15.1581 15 13.337 15 11.134V10.1245ZM2.79289 17.2929C3.18276 16.903 3.81444 16.9024 4.20512 17.2909L4.2055 17.2913L4.22087 17.3059C4.23676 17.3209 4.26386 17.346 4.30205 17.3798C4.37847 17.4473 4.49906 17.5495 4.66276 17.6749C4.99047 17.9259 5.48895 18.2685 6.15007 18.6134C7.4703 19.3022 9.43761 20 12 20C14.4981 20 16.4327 19.3363 17.7522 18.6639C17.5953 18.4873 17.5 18.2548 17.5 18C17.5 17.4477 17.9477 17 18.5 17H20.5C20.8297 17 21.1382 17.1625 21.3247 17.4344C21.5112 17.7063 21.5516 18.0527 21.4329 18.3602L20.6941 20.2733C20.4952 20.7885 19.9163 21.0449 19.4011 20.846C19.1526 20.75 18.9643 20.5657 18.8583 20.3427C17.3029 21.1682 14.9924 22 12 22C9.06239 22 6.7797 21.1978 5.22493 20.3866C4.44855 19.9815 3.85328 19.5741 3.44661 19.2626C3.24313 19.1068 3.08637 18.9745 2.97724 18.8781C2.92266 18.8298 2.87994 18.7904 2.84919 18.7614C2.83382 18.747 2.82143 18.7351 2.81204 18.7259L2.80021 18.7144L2.79599 18.7102L2.7943 18.7085L2.79356 18.7078C2.79322 18.7074 2.79289 18.7071 3.5 18L4.20711 17.2929L4.20651 17.2923C4.2068 17.2926 4.20711 17.2929 3.5 18L2.79289 18.7071C2.40237 18.3166 2.40237 17.6834 2.79289 17.2929ZM2.79289 17.2929L4.20597 17.2918L4.20592 17.2917L2.79289 17.2929Z" fill="black"/>
</svg>
