<svg width="24" height="24" viewBox="0 0 24 24" fill="none" xmlns="http://www.w3.org/2000/svg">
<path fill-rule="evenodd" clip-rule="evenodd" d="M2.5 6.5C2.5 4.29086 4.29086 2.5 6.5 2.5H17.5C19.7091 2.5 21.5 4.29086 21.5 6.5V17.5C21.5 19.7091 19.7091 21.5 17.5 21.5H6.5C4.29086 21.5 2.5 19.7091 2.5 17.5V6.5ZM9.62511 9.75C9.62511 9.44652 9.79985 9.15566 10.3379 8.88661L14.548 9.74956C14.8561 10.203 15.4727 10.3243 15.9298 10.0196C16.3893 9.7132 16.5135 9.09233 16.2072 8.6328L15.3899 9.17765C16.2072 8.6328 16.2069 8.63242 16.2066 8.63203L16.2061 8.63122L16.2049 8.62948L16.2023 8.62553L16.1956 8.61575L16.1769 8.58902C16.162 8.56812 16.1423 8.54114 16.1178 8.50895C16.0688 8.44465 16.0001 8.35909 15.9116 8.25946C15.7352 8.061 15.4757 7.802 15.1314 7.54375C14.4397 7.025 13.3906 6.5 12.0001 6.5C11.312 6.5 10.3098 6.66463 9.44352 7.09776C8.57537 7.53184 7.62511 8.36598 7.62511 9.75C7.62511 10.3484 7.77818 10.886 8.0915 11.341C8.39823 11.7865 8.81293 12.0869 9.23258 12.2968C10.002 12.6815 10.9727 12.8429 11.7566 12.9732H11.7566L11.8357 12.9864C12.7263 13.1348 13.4031 13.257 13.8732 13.4921C14.0864 13.5987 14.199 13.7025 14.2614 13.7932C14.3172 13.8743 14.3751 14.0047 14.3751 14.25C14.3751 14.5535 14.2004 14.8443 13.6623 15.1134C13.1223 15.3834 12.437 15.5 12.0001 15.5C11.1406 15.5 10.5022 15.1812 10.0689 14.8562C9.85069 14.6926 9.68829 14.5297 9.58345 14.4118C9.53138 14.3532 9.4946 14.307 9.47327 14.279C9.46264 14.265 9.45596 14.2557 9.45325 14.2519L9.4525 14.2509C9.14455 13.797 8.52762 13.6756 8.07041 13.9804C7.61088 14.2868 7.4867 14.9077 7.79306 15.3672L8.62511 14.8125C7.79306 15.3672 7.79331 15.3676 7.79357 15.368L7.79411 15.3688L7.79528 15.3705L7.79795 15.3745L7.80462 15.3842L7.82333 15.411C7.8382 15.4319 7.85788 15.4589 7.88241 15.4911C7.9314 15.5553 8.00008 15.6409 8.08863 15.7405C8.26505 15.939 8.52452 16.198 8.86886 16.4563C9.56053 16.975 10.6096 17.5 12.0001 17.5C12.6882 17.5 13.6904 17.3354 14.5567 16.9022C15.4248 16.4682 16.3751 15.634 16.3751 14.25C16.3751 13.6516 16.222 13.114 15.9087 12.659C15.602 12.2135 15.1873 11.9131 14.7676 11.7032C13.9982 11.3185 13.0275 11.1571 12.2436 11.0268L12.1645 11.0136C11.2739 10.8652 10.5971 10.743 10.127 10.5079C9.91385 10.4013 9.8012 10.2975 9.73879 10.2068C9.68297 10.1257 9.62511 9.99531 9.62511 9.75ZM14.548 9.74956L14.548 9.74956L14.5479 9.74936L14.5477 9.74913C14.5478 9.74927 14.5479 9.74942 14.548 9.74956ZM10.3379 8.88661L14.547 9.74807C14.5443 9.74425 14.5376 9.73499 14.5269 9.72103C14.5056 9.69304 14.4688 9.64677 14.4168 9.58819C14.3119 9.47025 14.1495 9.30737 13.9314 9.14375C13.498 8.81875 12.8596 8.5 12.0001 8.5C11.5632 8.5 10.8779 8.61662 10.3379 8.88661Z" fill="black"/>
</svg>
