<svg width="24" height="24" viewBox="0 0 24 24" fill="none" xmlns="http://www.w3.org/2000/svg">
<path fill-rule="evenodd" clip-rule="evenodd" d="M16.6563 3.90836C15.7702 3.52879 14.7394 3.83532 14.2047 4.63739L14.0142 4.92304C12.738 4.77581 11.2577 4.77579 9.98183 4.92301L9.79159 4.63765C9.25672 3.83534 8.22553 3.52891 7.33931 3.90891L6.81009 4.13584C5.20639 4.82349 3.75396 5.98396 2.92691 7.64116C2.42521 8.64644 1.87175 9.92762 1.53262 11.2521C1.12582 12.8408 0.993916 14.2921 0.96298 15.3458C0.947475 15.8738 0.957237 16.3054 0.971252 16.6088C0.978263 16.7605 0.986352 16.8805 0.992918 16.9646C0.996201 17.0067 0.999105 17.0399 1.00131 17.0636L1.00404 17.0921L1.00494 17.101L1.00526 17.104L1.00544 17.1057C1.02452 17.2846 1.09156 17.4555 1.19941 17.5995L1.00544 17.1057L1.20002 17.6003L1.20066 17.6012L1.20205 17.603L1.20526 17.6073L1.21345 17.6179C1.21968 17.626 1.22748 17.6359 1.23686 17.6476C1.25562 17.6711 1.28073 17.7016 1.31231 17.7384C1.37547 17.812 1.46469 17.9106 1.58109 18.0272C1.81376 18.2601 2.15608 18.5655 2.61683 18.8846C3.54137 19.5251 4.93536 20.2156 6.85664 20.4901C7.25475 20.5469 7.64818 20.3598 7.85527 20.0151L8.62078 18.7407C7.76453 18.5431 6.92256 18.2693 6.10585 17.9193C5.59822 17.7017 5.36307 17.1138 5.58062 16.6062C5.79818 16.0986 6.38606 15.8634 6.89369 16.081C10.1421 17.4732 13.8574 17.4732 17.1059 16.081C17.6135 15.8634 18.2014 16.0986 18.4189 16.6062C18.6365 17.1138 18.4013 17.7017 17.8937 17.9193C17.0765 18.2695 16.2341 18.5434 15.3773 18.7411L16.1403 20.0142C16.3516 20.3667 16.757 20.5541 17.1624 20.4865C18.836 20.2076 20.2143 19.5144 21.1645 18.9039C21.6421 18.597 22.0192 18.3061 22.2801 18.0889C22.4107 17.9801 22.5129 17.8892 22.5845 17.8235C22.6203 17.7906 22.6485 17.7639 22.669 17.7443L22.6937 17.7203L22.7017 17.7125L22.7045 17.7096L22.7062 17.708C22.8676 17.5467 22.9696 17.3337 22.9941 17.1069L22.9943 17.1057L22.9946 17.1026L22.9955 17.0937L22.9983 17.0652C23.0005 17.0414 23.0035 17.0082 23.0068 16.9661C23.0135 16.8819 23.0218 16.7619 23.029 16.6101C23.0434 16.3067 23.0537 15.8749 23.0387 15.3467C23.0087 14.2928 22.8777 12.841 22.4702 11.2518C22.107 9.83511 21.5475 8.5379 21.0437 7.53955C20.2348 5.93682 18.8185 4.83454 17.2787 4.17496L16.6563 3.90836ZM8.5 13.5001C9.32843 13.5001 10 12.8285 10 12.0001C10 11.1717 9.32843 10.5001 8.5 10.5001C7.67157 10.5001 7 11.1717 7 12.0001C7 12.8285 7.67157 13.5001 8.5 13.5001ZM15.5 13.5001C16.3284 13.5001 17 12.8285 17 12.0001C17 11.1717 16.3284 10.5001 15.5 10.5001C14.6716 10.5001 14 11.1717 14 12.0001C14 12.8285 14.6716 13.5001 15.5 13.5001Z" fill="black"/>
</svg>
