<svg width="24" height="24" viewBox="0 0 24 24" fill="none" xmlns="http://www.w3.org/2000/svg">
<path fill-rule="evenodd" clip-rule="evenodd" d="M7.5 1.5C4.73858 1.5 2.5 3.73858 2.5 6.5V13.5V17.5C2.5 20.2614 4.73858 22.5 7.5 22.5H15.5C16.0523 22.5 16.5 22.0523 16.5 21.5C16.5 20.9477 16.0523 20.5 15.5 20.5H7.5C5.84327 20.5 4.5002 19.1571 4.5 17.5004C5.33566 18.1281 6.37439 18.5 7.5 18.5H16.5C19.2614 18.5 21.5 16.2614 21.5 13.5V6.5C21.5 3.73858 19.2614 1.5 16.5 1.5H7.5ZM9.75 7.5C9.05964 7.5 8.5 8.05964 8.5 8.75V13C8.5 13.5523 8.05228 14 7.5 14C6.94772 14 6.5 13.5523 6.5 13V8.75C6.5 6.95507 7.95507 5.5 9.75 5.5C10.6232 5.5 11.4161 5.8444 12 6.40479C12.5839 5.8444 13.3768 5.5 14.25 5.5C16.0449 5.5 17.5 6.95507 17.5 8.75V13C17.5 13.5523 17.0523 14 16.5 14C15.9477 14 15.5 13.5523 15.5 13V8.75C15.5 8.05964 14.9404 7.5 14.25 7.5C13.5596 7.5 13 8.05964 13 8.75V11.5C13 12.0523 12.5523 12.5 12 12.5C11.4477 12.5 11 12.0523 11 11.5V8.75C11 8.05964 10.4404 7.5 9.75 7.5Z" fill="black"/>
</svg>
