<svg width="24" height="24" viewBox="0 0 24 24" fill="none" xmlns="http://www.w3.org/2000/svg">
<path fill-rule="evenodd" clip-rule="evenodd" d="M10 6C10 5.44772 10.4477 5 11 5H12C16.1839 5 18.461 8.25254 18.915 11.0011C18.9432 11.0004 18.9715 11 19 11C21.6034 11 23 13.2189 23 15C23 16.8122 21.446 19 19 19H11C10.4477 19 10 18.5523 10 18V6ZM9 7C9 6.44772 8.55228 6 8 6C7.44772 6 7 6.44772 7 7V18C7 18.5523 7.44772 19 8 19C8.55228 19 9 18.5523 9 18V7ZM5 9.5C5.55228 9.5 6 9.94772 6 10.5V18C6 18.5523 5.55228 19 5 19C4.44772 19 4 18.5523 4 18V10.5C4 9.94772 4.44772 9.5 5 9.5ZM3 13C3 12.4477 2.55228 12 2 12C1.44772 12 1 12.4477 1 13V17C1 17.5523 1.44772 18 2 18C2.55228 18 3 17.5523 3 17L3 13Z" fill="black"/>
</svg>
