<svg width="24" height="24" viewBox="0 0 24 24" fill="none" xmlns="http://www.w3.org/2000/svg">
<path fill-rule="evenodd" clip-rule="evenodd" d="M11.5 1C10.9477 1 10.5 1.44772 10.5 2C10.5 3.22006 9.65954 6.17934 6.25746 7.02986C5.8123 7.14115 5.5 7.54113 5.5 8V10C5.5 10.5523 5.94772 11 6.5 11H8V17C8 18.628 8.45577 20.6307 10.1453 21.757C11.8424 22.8885 14.3801 22.8661 17.8807 21.4247C18.2555 21.2704 18.5 20.9052 18.5 20.5V18.5C18.5 18.1682 18.3354 17.858 18.0606 17.6719C17.7859 17.4859 17.4367 17.4483 17.1286 17.5715C15.0674 18.396 14.5 17.0724 14.5 17V11H17.5C18.0523 11 18.5 10.5523 18.5 10V7.75C18.5 7.19772 18.0523 6.75 17.5 6.75H14.5V2C14.5 1.44772 14.0523 1 13.5 1H11.5Z" fill="black"/>
</svg>
