<svg width="24" height="24" viewBox="0 0 24 24" fill="none" xmlns="http://www.w3.org/2000/svg">
<path fill-rule="evenodd" clip-rule="evenodd" d="M16.0001 3C13.2551 3 11.0268 5.21198 11.0003 7.9507C8.35445 7.68823 6.01229 6.39495 4.37943 4.47534C4.15039 4.20608 3.79621 4.07775 3.44786 4.1378C3.0995 4.19784 2.80873 4.43734 2.68305 4.76774C2.24143 5.92876 2.00009 7.18736 2.00009 8.5C2.00009 11.8703 3.58806 14.8685 6.0543 16.789C5.39177 16.9273 4.70477 17 4.00013 17C3.54953 17 3.1064 16.9703 2.67247 16.9128C2.21883 16.8527 1.78226 17.1081 1.61247 17.5331C1.44269 17.958 1.58301 18.444 1.95318 18.713C3.93224 20.1514 6.36913 21 9.00128 21C15.4684 21 20.7406 15.8842 20.9919 9.47875C22.0787 8.50926 22.8119 7.14791 22.9682 5.61389C23.0038 5.26403 22.853 4.92118 22.5711 4.71095C22.2892 4.50072 21.9176 4.45402 21.5924 4.58796C21.0903 4.7948 20.5503 4.92961 19.9844 4.97895C19.0724 3.77792 17.6275 3 16.0001 3Z" fill="black"/>
</svg>
