<svg width="24" height="24" viewBox="0 0 24 24" fill="none" xmlns="http://www.w3.org/2000/svg">
<path fill-rule="evenodd" clip-rule="evenodd" d="M9.73675 0.859666C9.66937 0.505926 9.3601 0.25 9 0.25C8.6399 0.25 8.33062 0.505926 8.26325 0.859666L8.09161 1.76074C7.91215 2.70293 7.15514 3.42778 6.20604 3.56619L4.89177 3.75785C4.52326 3.81159 4.25 4.12759 4.25 4.5C4.25 4.87241 4.52326 5.18841 4.89177 5.24215L6.20604 5.43381C7.15514 5.57222 7.91215 6.29707 8.09161 7.23926L8.26325 8.14033C8.33063 8.49407 8.6399 8.75 9 8.75C9.3601 8.75 9.66937 8.49407 9.73675 8.14033L9.90839 7.23926C10.0879 6.29707 10.8449 5.57222 11.794 5.43381L13.1082 5.24215C13.4767 5.18841 13.75 4.87241 13.75 4.5C13.75 4.12759 13.4767 3.81159 13.1082 3.75785L11.794 3.56619C10.8449 3.42778 10.0879 2.70293 9.90839 1.76074L9.73675 0.859666ZM19.7374 4.67678C19.054 3.99336 17.946 3.99336 17.2626 4.67678L3.67678 18.2626C2.99336 18.946 2.99336 20.054 3.67678 20.7374L5.26256 22.3232C5.94598 23.0066 7.05402 23.0066 7.73744 22.3232L21.3232 8.73744C22.0066 8.05402 22.0066 6.94598 21.3232 6.26256L19.7374 4.67678ZM20.9932 13.9178C20.953 13.6767 20.7444 13.5 20.5 13.5C20.2556 13.5 20.047 13.6767 20.0068 13.9178L20.0019 13.947C19.8263 15.0006 19.0006 15.8263 17.947 16.0019L17.9178 16.0068C17.6767 16.047 17.5 16.2556 17.5 16.5C17.5 16.7444 17.6767 16.953 17.9178 16.9932L17.947 16.9981C19.0006 17.1737 19.8263 17.9994 20.0019 19.053L20.0068 19.0822C20.047 19.3233 20.2556 19.5 20.5 19.5C20.7444 19.5 20.953 19.3233 20.9932 19.0822L20.9981 19.053C21.1737 17.9994 21.9994 17.1737 23.053 16.9981L23.0822 16.9932C23.3233 16.953 23.5 16.7444 23.5 16.5C23.5 16.2556 23.3233 16.047 23.0822 16.0068L23.053 16.0019C21.9994 15.8263 21.1737 15.0006 20.9981 13.947L20.9932 13.9178ZM6 10.5C6 11.3284 5.32843 12 4.5 12C3.67157 12 3 11.3284 3 10.5C3 9.67157 3.67157 9 4.5 9C5.32843 9 6 9.67157 6 10.5ZM17.2071 7.79289C16.8166 7.40237 16.1834 7.40237 15.7929 7.79289C15.4024 8.18342 15.4024 8.81658 15.7929 9.20711L16.7929 10.2071C17.1834 10.5976 17.8166 10.5976 18.2071 10.2071C18.5976 9.81658 18.5976 9.18342 18.2071 8.79289L17.2071 7.79289Z" fill="black"/>
</svg>
