<svg width="24" height="24" viewBox="0 0 24 24" fill="none" xmlns="http://www.w3.org/2000/svg">
<path fill-rule="evenodd" clip-rule="evenodd" d="M14 11L21 11C21.5523 11 22 10.5523 22 10C22 9.44772 21.5523 9 21 9L16.4142 9L21.7071 3.70711C22.0976 3.31658 22.0976 2.68342 21.7071 2.29289C21.3166 1.90237 20.6834 1.90237 20.2929 2.29289L15 7.58579L15 3C15 2.44772 14.5523 2 14 2C13.4477 2 13 2.44772 13 3L13 10C13 10.5523 13.4477 11 14 11ZM11 14V21C11 21.5523 10.5523 22 10 22C9.44772 22 9 21.5523 9 21V16.4142L3.70711 21.7071C3.31658 22.0976 2.68342 22.0976 2.29289 21.7071C1.90237 21.3166 1.90237 20.6834 2.29289 20.2929L7.58579 15H3C2.44772 15 2 14.5523 2 14C2 13.4477 2.44772 13 3 13H10C10.5523 13 11 13.4477 11 14Z" fill="black"/>
</svg>
