<svg width="24" height="24" viewBox="0 0 24 24" fill="none" xmlns="http://www.w3.org/2000/svg">
<path fill-rule="evenodd" clip-rule="evenodd" d="M2 12C2 6.47715 6.47715 2 12 2C17.5228 2 22 6.47715 22 12C22 13.8675 20.3449 14.9919 18.7705 14.9919H16.0294C14.7395 14.9919 13.8234 16.2482 14.2176 17.4764L14.4802 18.2946C14.7512 19.1388 14.6428 20.0406 14.211 20.7513C13.7692 21.4785 12.985 22 12 22C6.47715 22 2 17.5228 2 12ZM12.2104 6.78297C12.4165 7.58536 11.9331 8.40288 11.1307 8.60897C10.3283 8.81505 9.51078 8.33166 9.30469 7.52927C9.0986 6.72689 9.582 5.90936 10.3844 5.70328C11.1868 5.49719 12.0043 5.98059 12.2104 6.78297ZM7.58976 9.20664C8.38757 9.42981 8.8534 10.2575 8.63023 11.0553C8.40707 11.8531 7.57941 12.3189 6.78161 12.0957C5.9838 11.8726 5.51797 11.0449 5.74114 10.2471C5.9643 9.44931 6.79196 8.98348 7.58976 9.20664ZM9.49721 14.4463C8.91788 13.8541 7.96819 13.8437 7.37602 14.4231C6.78385 15.0024 6.77345 15.9521 7.35278 16.5443C7.93211 17.1364 8.8818 17.1468 9.47397 16.5675C10.0661 15.9882 10.0765 15.0385 9.49721 14.4463ZM16.6238 9.5755C16.0316 10.1548 15.0819 10.1444 14.5026 9.55226C13.9233 8.96009 13.9337 8.0104 14.5258 7.43107C15.118 6.85174 16.0677 6.86214 16.647 7.45431C17.2264 8.04648 17.2159 8.99617 16.6238 9.5755Z" fill="black"/>
</svg>
