<svg width="24" height="24" viewBox="0 0 24 24" fill="none" xmlns="http://www.w3.org/2000/svg">
<path fill-rule="evenodd" clip-rule="evenodd" d="M11 4.06189C7.0537 4.55398 4 7.92038 4 12C4 13.3528 4.33576 14.6271 4.92849 15.7442L11 10.5401V4.06189ZM6.08534 17.3868C7.33704 18.7604 9.06075 19.6963 11 19.9381V13.1742L6.08534 17.3868ZM13 19.9381C14.9393 19.6963 16.663 18.7604 17.9147 17.3868L13 13.1742V19.9381ZM19.0715 15.7442C19.6642 14.6271 20 13.3528 20 12C20 7.92039 16.9463 4.554 13 4.0619V10.5401L19.0715 15.7442ZM12 2C6.47715 2 2 6.47715 2 12C2 17.5228 6.47715 22 12 22C17.5228 22 22 17.5228 22 12C22 6.47715 17.5228 2 12 2Z" fill="black"/>
</svg>
