<svg width="24" height="24" viewBox="0 0 24 24" fill="none" xmlns="http://www.w3.org/2000/svg">
<path fill-rule="evenodd" clip-rule="evenodd" d="M12 2C6.47715 2 2 6.47715 2 12C2 17.5228 6.47715 22 12 22C17.5228 22 22 17.5228 22 12C22 6.47715 17.5228 2 12 2ZM11.9951 14C14.1007 13.9988 16.1401 14.736 17.7584 16.0832C18.1828 16.4366 18.2405 17.0671 17.8871 17.4916C17.5337 17.916 16.9032 17.9737 16.4788 17.6203C15.2201 16.5725 13.6339 15.9991 11.9962 16C10.3585 16.0009 8.77292 16.576 7.51544 17.6252C7.09138 17.979 6.46078 17.9221 6.10695 17.498C5.75313 17.074 5.81006 16.4434 6.23412 16.0896C7.85089 14.7406 9.88947 14.0012 11.9951 14ZM10.5 8.5C10.5 7.67157 11.1716 7 12 7C12.8284 7 13.5 7.67157 13.5 8.5C13.5 9.32843 12.8284 10 12 10C11.1716 10 10.5 9.32843 10.5 8.5ZM12 5C10.067 5 8.5 6.567 8.5 8.5C8.5 10.433 10.067 12 12 12C13.933 12 15.5 10.433 15.5 8.5C15.5 6.567 13.933 5 12 5Z" fill="black"/>
</svg>
