<svg width="24" height="24" viewBox="0 0 24 24" fill="none" xmlns="http://www.w3.org/2000/svg">
<path fill-rule="evenodd" clip-rule="evenodd" d="M8.04304 2.40075C6.89455 1.44367 5.00738 1.39762 4.00027 2.80353C2.19583 5.32248 2.03962 7.89101 2.86916 10.3026C3.67618 12.6488 5.40065 14.8148 7.29265 16.7068C9.18465 18.5988 11.3507 20.3233 13.6968 21.1303C16.1085 21.9599 18.677 21.8036 21.1959 19.9992C22.6019 18.9921 22.5558 17.1049 21.5987 15.9564L19.17 13.042C18.0407 11.6868 15.9914 11.5938 14.744 12.8412L13.7872 13.7981C13.2441 13.5148 12.4328 13.0186 11.7069 12.2926C10.9809 11.5667 10.4847 10.7554 10.2014 10.2123L11.1583 9.25543C12.4057 8.00803 12.3127 5.95879 10.9575 4.82945L8.04304 2.40075Z" fill="black"/>
</svg>
