<svg width="24" height="24" viewBox="0 0 24 24" fill="none" xmlns="http://www.w3.org/2000/svg">
<path fill-rule="evenodd" clip-rule="evenodd" d="M7.844 2.90181C9.10964 2.32274 10.5171 2 11.9999 2C13.4827 2 14.8901 2.32274 16.1558 2.9018L11.9999 10.1L7.844 2.90181ZM7.16542 3.24417C7.05925 3.30292 6.95427 3.36353 6.85051 3.42598L7.16542 3.24417ZM6.19938 3.85325C3.89973 5.49355 2.32399 8.08325 2.04443 11.0501L10.3545 11.0501L6.19938 3.85325ZM2.04445 12.9501C2.32406 15.9169 3.89979 18.5065 6.1994 20.1468L10.3544 12.9501H2.04445ZM6.85252 20.5752C6.95495 20.6368 7.05858 20.6967 7.16335 20.7547L6.85252 20.5752ZM7.84402 21.0982C9.10966 21.6773 10.5171 22 11.9999 22C13.4827 22 14.8901 21.6773 16.1558 21.0982L11.9999 13.9L7.84402 21.0982ZM16.833 20.7566C16.9401 20.6974 17.046 20.6362 17.1507 20.5732L16.833 20.7566ZM17.8004 20.1468C20.1 18.5065 21.6757 15.9169 21.9554 12.9501H13.6454L17.8004 20.1468ZM21.9554 11.0501C21.6758 8.08325 20.1001 5.49353 17.8004 3.85323L13.6453 11.0501L21.9554 11.0501ZM17.1527 3.428C17.0467 3.36417 16.9394 3.30224 16.831 3.24228L17.1527 3.428ZM11.9999 8C12.5522 8 12.9999 7.55228 12.9999 7C12.9999 6.44772 12.5522 6 11.9999 6C11.4476 6 10.9999 6.44772 10.9999 7C10.9999 7.55228 11.4476 8 11.9999 8ZM7.99991 15C7.99991 15.5523 7.55219 16 6.99991 16C6.44762 16 5.99991 15.5523 5.99991 15C5.99991 14.4477 6.44762 14 6.99991 14C7.55219 14 7.99991 14.4477 7.99991 15ZM5.99991 10C6.55219 10 6.99991 9.55229 6.99991 9C6.99991 8.44771 6.55219 8 5.99991 8C5.44762 8 4.99991 8.44771 4.99991 9C4.99991 9.55229 5.44762 10 5.99991 10ZM17.9999 8C17.9999 8.55229 17.5522 9 16.9999 9C16.4476 9 15.9999 8.55229 15.9999 8C15.9999 7.44772 16.4476 7 16.9999 7C17.5522 7 17.9999 7.44772 17.9999 8ZM16.9999 16C17.5522 16 17.9999 15.5523 17.9999 15C17.9999 14.4477 17.5522 14 16.9999 14C16.4476 14 15.9999 14.4477 15.9999 15C15.9999 15.5523 16.4476 16 16.9999 16ZM13.9999 18C13.9999 18.5523 13.5522 19 12.9999 19C12.4476 19 11.9999 18.5523 11.9999 18C11.9999 17.4477 12.4476 17 12.9999 17C13.5522 17 13.9999 17.4477 13.9999 18Z" fill="black"/>
</svg>
