<svg width="24" height="24" viewBox="0 0 24 24" fill="none" xmlns="http://www.w3.org/2000/svg">
<path fill-rule="evenodd" clip-rule="evenodd" d="M9.14618 0.381272C8.09405 -0.0395796 6.97313 0.813387 7.09827 1.93963L7.90701 9.21833L5.04525 9.85427L4.9524 9.66856C4.44104 8.64585 3.39576 7.99983 2.25234 7.99983C1.56069 7.99983 1 8.56053 1 9.25218V14.7475C1 15.4391 1.56069 15.9998 2.25234 15.9998C3.39576 15.9998 4.44104 15.3538 4.9524 14.3311L5.04525 14.1454L7.90701 14.7813L7.09827 22.06C6.97313 23.1863 8.09405 24.0392 9.14618 23.6184L9.71789 23.3897C10.657 23.0141 11.4601 22.3624 12.0212 21.5208L16.0352 15.4998H19.5C21.433 15.4998 23 13.9328 23 11.9998C23 10.0668 21.433 8.49983 19.5 8.49983H16.0352L12.0212 2.47884C11.4601 1.63725 10.657 0.985605 9.71789 0.609955L9.14618 0.381272Z" fill="black"/>
</svg>
