<svg width="24" height="24" viewBox="0 0 24 24" fill="none" xmlns="http://www.w3.org/2000/svg">
<path fill-rule="evenodd" clip-rule="evenodd" d="M6.94487 3.37184C9.08085 2.1204 11.6051 1.70573 14.0292 2.20807C16.4533 2.71041 18.6049 4.09405 20.0676 6.09125C21.5304 8.08846 22.2003 10.5573 21.9479 13.0199C21.6954 15.4826 20.5384 17.7641 18.7008 19.4229C17.5572 20.4553 16.2005 21.2008 14.7423 21.6167C13.7118 21.9105 12.7417 21.599 12.0603 20.9744C11.3945 20.364 11 19.4594 11 18.5V16.9725C8.75003 16.7238 7 14.8163 7 12.5V11C7 10.4477 7.44772 10 8 10H9V7.5C9 6.94772 9.44772 6.5 10 6.5C10.5523 6.5 11 6.94772 11 7.5V10H13V7.5C13 6.94772 13.4477 6.5 14 6.5C14.5523 6.5 15 6.94772 15 7.5V10H16C16.5523 10 17 10.4477 17 11V12.5C17 14.8163 15.25 16.7238 13 16.9725V18.5C13 18.9214 13.1756 19.2836 13.4119 19.5002C13.6326 19.7025 13.8965 19.7782 14.1938 19.6934C15.3605 19.3606 16.4458 18.7642 17.3606 17.9383C18.8307 16.6113 19.7563 14.7861 19.9583 12.816C20.1603 10.8458 19.6243 8.87077 18.4541 7.27301C17.2839 5.67524 15.5626 4.56833 13.6233 4.16646C11.6841 3.76459 9.66468 4.09632 7.95589 5.09748C6.24711 6.09863 4.97042 7.69803 4.37285 9.5862C3.77529 11.4744 3.89934 13.5171 4.72099 15.3191C5.54264 17.121 7.00349 18.5542 8.82087 19.3412C9.32767 19.5607 9.5606 20.1495 9.34112 20.6563C9.12165 21.1631 8.53289 21.396 8.02608 21.1765C5.75436 20.1927 3.9283 18.4013 2.90124 16.1488C1.87417 13.8963 1.71911 11.3429 2.46607 8.98274C3.21302 6.62253 4.80889 4.62328 6.94487 3.37184Z" fill="black"/>
</svg>
