<svg width="24" height="24" viewBox="0 0 24 24" fill="none" xmlns="http://www.w3.org/2000/svg">
<path fill-rule="evenodd" clip-rule="evenodd" d="M8.5 2.5C7.39543 2.5 6.5 3.39543 6.5 4.5C6.5 5.05228 6.94772 5.5 7.5 5.5C8.05228 5.5 8.5 5.05228 8.5 4.5H18.5C19.0523 4.5 19.5 4.94772 19.5 5.5V15.5C18.9477 15.5 18.5 15.9477 18.5 16.5C18.5 17.0523 18.9477 17.5 19.5 17.5C20.6046 17.5 21.5 16.6046 21.5 15.5V5.5C21.5 3.84315 20.1569 2.5 18.5 2.5H8.5ZM2.5 9.5C2.5 7.84315 3.84315 6.5 5.5 6.5H14.5C16.1569 6.5 17.5 7.84315 17.5 9.5V18.5C17.5 20.1569 16.1569 21.5 14.5 21.5H5.5C3.84315 21.5 2.5 20.1569 2.5 18.5V9.5ZM11 11.5C11 10.9477 10.5523 10.5 10 10.5C9.44772 10.5 9 10.9477 9 11.5V13H7.5C6.94772 13 6.5 13.4477 6.5 14C6.5 14.5523 6.94772 15 7.5 15H9V16.5C9 17.0523 9.44772 17.5 10 17.5C10.5523 17.5 11 17.0523 11 16.5V15H12.5C13.0523 15 13.5 14.5523 13.5 14C13.5 13.4477 13.0523 13 12.5 13H11V11.5Z" fill="black"/>
</svg>
