<svg width="24" height="24" viewBox="0 0 24 24" fill="none" xmlns="http://www.w3.org/2000/svg">
<path fill-rule="evenodd" clip-rule="evenodd" d="M13 2.5C13 1.94772 12.5523 1.5 12 1.5C11.4477 1.5 11 1.94772 11 2.5V3.5H6C4.34315 3.5 3 4.84315 3 6.5V14.5C3 16.1569 4.34315 17.5 6 17.5H9.58579L6.29289 20.7929C5.90237 21.1834 5.90237 21.8166 6.29289 22.2071C6.68342 22.5976 7.31658 22.5976 7.70711 22.2071L11 18.9142V22C11 22.5523 11.4477 23 12 23C12.5523 23 13 22.5523 13 22V18.9142L16.2929 22.2071C16.6834 22.5976 17.3166 22.5976 17.7071 22.2071C18.0976 21.8166 18.0976 21.1834 17.7071 20.7929L14.4142 17.5H18C19.6569 17.5 21 16.1569 21 14.5V6.5C21 4.84315 19.6569 3.5 18 3.5H13V2.5Z" fill="black"/>
</svg>
