<svg width="24" height="24" viewBox="0 0 24 24" fill="none" xmlns="http://www.w3.org/2000/svg">
<path fill-rule="evenodd" clip-rule="evenodd" d="M11.4999 2.72858C11.4999 1.79762 12.3609 1.0025 13.3481 1.34303C14.9325 1.88954 17.7499 3.34147 17.7499 6.74991C17.7499 9.24264 16.243 10.6889 14.8135 11.4999H21.2712C22.2022 11.4999 22.9973 12.3609 22.6568 13.3481C22.1103 14.9325 20.6583 17.7499 17.2499 17.7499C14.7572 17.7499 13.3109 16.2429 12.4999 14.8135V21.2712C12.4999 22.2022 11.639 22.9973 10.6517 22.6568C9.06736 22.1103 6.24993 20.6583 6.24993 17.2499C6.24993 14.7571 7.75694 13.3108 9.18642 12.4999H2.72858C1.79762 12.4999 1.0025 11.6389 1.34303 10.6517C1.88954 9.06731 3.34147 6.24988 6.74991 6.24988C9.2427 6.24988 10.689 7.75688 11.4999 9.18636V2.72858Z" fill="black"/>
</svg>
