<svg width="24" height="24" viewBox="0 0 24 24" fill="none" xmlns="http://www.w3.org/2000/svg">
<path fill-rule="evenodd" clip-rule="evenodd" d="M2.5 6.5C2.5 4.29086 4.29086 2.5 6.5 2.5H17.5C19.7091 2.5 21.5 4.29086 21.5 6.5V17.5C21.5 19.7091 19.7091 21.5 17.5 21.5H6.5C4.29086 21.5 2.5 19.7091 2.5 17.5V6.5ZM14.2593 7.84921C14.0344 7.58693 13.6902 7.45925 13.3487 7.51151C13.0072 7.56377 12.7169 7.78857 12.5809 8.10608L10.2137 13.6294L8.25926 11.3492C8.06927 11.1276 7.79192 11 7.5 11H5.5C4.94772 11 4.5 11.4477 4.5 12C4.5 12.5523 4.94772 13 5.5 13H7.04007L9.74074 16.1508C9.96556 16.4131 10.3098 16.5408 10.6513 16.4885C10.9928 16.4362 11.2831 16.2114 11.4191 15.8939L13.7863 10.3706L15.7407 12.6508C15.9307 12.8724 16.2081 13 16.5 13H18.5C19.0523 13 19.5 12.5523 19.5 12C19.5 11.4477 19.0523 11 18.5 11H16.9599L14.2593 7.84921Z" fill="black"/>
</svg>
