<svg width="24" height="24" viewBox="0 0 24 24" fill="none" xmlns="http://www.w3.org/2000/svg">
<path fill-rule="evenodd" clip-rule="evenodd" d="M0.513287 14.6176L0.513042 14.622C0.50569 14.7304 0.501477 14.8396 0.500495 14.9496L0.500265 14.9654L0.500043 14.988L0.500008 14.9953L0.5 14.9979V14.9998C0.5 15.0085 0.500111 15.0171 0.500331 15.0258C0.514324 18.0514 2.97137 20.4998 6.00027 20.4998C9.03784 20.4998 11.5003 18.0373 11.5003 14.9998C11.5003 11.9622 9.03784 9.49978 6.00027 9.49978C5.21368 9.49978 4.46564 9.66491 3.78896 9.96239C4.57517 8.47651 5.82344 7.11273 7.81623 6.44847C8.34017 6.27382 8.62333 5.7075 8.44868 5.18356C8.27403 4.65961 7.70772 4.37645 7.18377 4.5511C3.78124 5.68528 2.11382 8.38101 1.30701 10.667C0.902416 11.8133 0.701898 12.8859 0.6018 13.67C0.551572 14.0635 0.526162 14.388 0.513287 14.6176ZM12.5133 14.6176L12.513 14.622C12.5057 14.7304 12.5015 14.8396 12.5005 14.9496L12.5003 14.9654L12.5 14.988L12.5 14.9953L12.5 14.9979V14.9998C12.5 15.0085 12.5001 15.0171 12.5003 15.0258C12.5143 18.0514 14.9714 20.4998 18.0003 20.4998C21.0378 20.4998 23.5003 18.0373 23.5003 14.9998C23.5003 11.9622 21.0378 9.49978 18.0003 9.49978C17.2137 9.49978 16.4656 9.66491 15.789 9.96239C16.5752 8.47651 17.8234 7.11273 19.8162 6.44847C20.3402 6.27382 20.6233 5.7075 20.4487 5.18356C20.274 4.65961 19.7077 4.37645 19.1838 4.5511C15.7812 5.68528 14.1138 8.38101 13.307 10.667C12.9024 11.8133 12.7019 12.8859 12.6018 13.67C12.5516 14.0635 12.5262 14.388 12.5133 14.6176Z" fill="black"/>
</svg>
