<svg width="24" height="24" viewBox="0 0 24 24" fill="none" xmlns="http://www.w3.org/2000/svg">
<path fill-rule="evenodd" clip-rule="evenodd" d="M5.63604 2.2216C5.24551 1.83108 4.61235 1.83108 4.22182 2.2216C3.20038 3.24305 2.39013 4.45568 1.83733 5.79026C1.28452 7.12484 1 8.55524 1 9.99978C1 11.4443 1.28452 12.8747 1.83733 14.2093C2.39013 15.5439 3.20038 16.7565 4.22182 17.778C4.61235 18.1685 5.24551 18.1685 5.63604 17.778C6.02656 17.3874 6.02656 16.7543 5.63604 16.3637C4.80031 15.528 4.13738 14.5359 3.68508 13.4439C3.23279 12.352 3 11.1817 3 9.99978C3 8.81788 3.23279 7.64756 3.68508 6.55563C4.13738 5.4637 4.80031 4.47154 5.63604 3.63582C6.02656 3.24529 6.02656 2.61213 5.63604 2.2216ZM18.364 2.2216C18.7545 1.83108 19.3876 1.83108 19.7782 2.2216C20.7996 3.24305 21.6099 4.45568 22.1627 5.79026C22.7155 7.12484 23 8.55524 23 9.99978C23 11.4443 22.7155 12.8747 22.1627 14.2093C21.6099 15.5439 20.7996 16.7565 19.7782 17.778C19.3876 18.1685 18.7545 18.1685 18.364 17.778C17.9734 17.3874 17.9734 16.7543 18.364 16.3637C19.1997 15.528 19.8626 14.5359 20.3149 13.4439C20.7672 12.352 21 11.1817 21 9.99978C21 8.81788 20.7672 7.64756 20.3149 6.55563C19.8626 5.4637 19.1997 4.47154 18.364 3.63582C17.9734 3.24529 17.9734 2.61213 18.364 2.2216ZM16.9497 5.05003C16.5592 4.65951 15.9261 4.65951 15.5355 5.05003C15.145 5.44056 15.145 6.07372 15.5355 6.46425C15.9998 6.92854 16.3681 7.47974 16.6194 8.08636C16.8707 8.69299 17 9.34317 17 9.99978C17 10.6564 16.8707 11.3066 16.6194 11.9132C16.3681 12.5198 15.9998 13.071 15.5355 13.5353C15.145 13.9258 15.145 14.559 15.5355 14.9495C15.9261 15.3401 16.5592 15.3401 16.9497 14.9495C17.5998 14.2995 18.1154 13.5278 18.4672 12.6786C18.8189 11.8293 19 10.919 19 9.99978C19 9.08053 18.8189 8.17028 18.4672 7.321C18.1154 6.47172 17.5998 5.70004 16.9497 5.05003ZM8.46445 5.05003C8.07393 4.65951 7.44076 4.65951 7.05024 5.05003C6.40023 5.70004 5.88461 6.47172 5.53283 7.321C5.18105 8.17028 4.99999 9.08053 4.99999 9.99978C4.99999 10.919 5.18105 11.8293 5.53283 12.6786C5.88461 13.5278 6.40023 14.2995 7.05024 14.9495C7.44076 15.3401 8.07393 15.3401 8.46445 14.9495C8.85498 14.559 8.85498 13.9258 8.46445 13.5353C8.00016 13.071 7.63186 12.5198 7.38059 11.9132C7.12932 11.3066 6.99999 10.6564 6.99999 9.99978C6.99999 9.34317 7.12932 8.69299 7.38059 8.08636C7.63186 7.47974 8.00016 6.92854 8.46445 6.46425C8.85498 6.07372 8.85498 5.44056 8.46445 5.05003ZM8.99999 9.99976C8.99999 8.3429 10.3431 6.99976 12 6.99976C13.6568 6.99976 15 8.3429 15 9.99976C15 11.306 14.1652 12.4172 13 12.8291V20.9998C13 21.552 12.5523 21.9998 12 21.9998C11.4477 21.9998 11 21.552 11 20.9998V12.8291C9.8348 12.4172 8.99999 11.306 8.99999 9.99976Z" fill="black"/>
</svg>
