<svg width="24" height="24" viewBox="0 0 24 24" fill="none" xmlns="http://www.w3.org/2000/svg">
<path fill-rule="evenodd" clip-rule="evenodd" d="M10.1934 4.97167C10.3764 4.06693 9.58515 3.27564 8.6804 3.45868C8.11725 3.57262 7.2289 3.77583 6.35185 4.0755C5.51101 4.3628 4.53598 4.78506 3.92094 5.4001C2.7171 6.60394 2.66445 8.56303 3.87675 9.77532C5.08905 10.9876 7.04813 10.935 8.25197 9.73113C8.86701 9.11609 9.28927 8.14106 9.57657 7.30022C9.87625 6.42317 10.0795 5.53482 10.1934 4.97167ZM11.4746 14.0315C11.6577 13.1267 10.8664 12.3355 9.96165 12.5185C9.3985 12.6324 8.51015 12.8356 7.6331 13.1353C6.79226 13.4226 5.81723 13.8449 5.20219 14.4599C3.99835 15.6638 3.9457 17.6228 5.158 18.8351C6.3703 20.0474 8.32938 19.9948 9.53322 18.7909C10.1483 18.1759 10.5705 17.2009 10.8578 16.36C11.1575 15.483 11.3607 14.5946 11.4746 14.0315ZM20.5332 15.3108C20.7163 14.406 19.925 13.6147 19.0202 13.7978C18.4571 13.9117 17.5687 14.1149 16.6917 14.4146C15.8509 14.7019 14.8758 15.1242 14.2608 15.7392C13.0569 16.9431 13.0043 18.9021 14.2166 20.1144C15.4289 21.3267 17.388 21.2741 18.5918 20.0702C19.2069 19.4552 19.6291 18.4802 19.9164 17.6393C20.2161 16.7623 20.4193 15.8739 20.5332 15.3108ZM19.959 5.54393C20.1421 4.63919 19.3508 3.8479 18.446 4.03095C17.8829 4.14488 16.9945 4.34809 16.1175 4.64776C15.2766 4.93506 14.3016 5.35733 13.6866 5.97236C12.4827 7.17621 12.4301 9.13529 13.6424 10.3476C14.8547 11.5599 16.8138 11.5072 18.0176 10.3034C18.6326 9.68836 19.0549 8.71333 19.3422 7.87248C19.6419 6.99543 19.8451 6.10709 19.959 5.54393Z" fill="black"/>
</svg>
