<svg width="24" height="24" viewBox="0 0 24 24" fill="none" xmlns="http://www.w3.org/2000/svg">
<path fill-rule="evenodd" clip-rule="evenodd" d="M10.1864 2.39917C11.188 1.39754 12.812 1.39754 13.8136 2.39917C15.0127 3.59823 16.7863 4.01692 18.395 3.48069L18.5911 3.41533C19.7762 3.0203 21 3.90239 21 5.1516V12.5658C21 15.6689 19.4014 18.5531 16.77 20.1978L13.59 22.1853C12.6172 22.7933 11.3828 22.7933 10.41 22.1853L7.23001 20.1978C4.59858 18.5531 3 15.6689 3 12.5658V5.1516C3 3.90239 4.22384 3.0203 5.40894 3.41533L5.60502 3.48069C7.21372 4.01692 8.98733 3.59823 10.1864 2.39917ZM15.7071 10.7069C16.0976 10.3164 16.0976 9.68319 15.7071 9.29266C15.3166 8.90214 14.6834 8.90214 14.2929 9.29266L11 12.5856L9.70711 11.2927C9.31658 10.9021 8.68342 10.9021 8.29289 11.2927C7.90237 11.6832 7.90237 12.3164 8.29289 12.7069L10.2929 14.7069C10.6834 15.0974 11.3166 15.0974 11.7071 14.7069L15.7071 10.7069Z" fill="black"/>
</svg>
