<svg width="24" height="24" viewBox="0 0 24 24" fill="none" xmlns="http://www.w3.org/2000/svg">
<path fill-rule="evenodd" clip-rule="evenodd" d="M3 12.5663C3 12.647 3.00108 12.7276 3.00324 12.808C3.00109 12.8452 3 12.8826 3 12.9204C3 15.8032 4.48509 18.4827 6.92972 20.0106L7.21568 20.1893L7.23001 20.1983L8.41 20.9357L10.41 22.1858C11.3828 22.7938 12.6172 22.7938 13.59 22.1858L16.77 20.1983C19.4014 18.5536 21 15.6694 21 12.5663V11.0002V5.15209V5.15205C21 5.07399 20.9952 4.99736 20.986 4.92239C20.9631 4.73727 20.913 4.56224 20.8403 4.40065C20.4712 3.58042 19.5192 3.10639 18.5911 3.41578L18.3784 3.48666C16.7741 4.01453 15.0086 3.59461 13.8136 2.39966C12.812 1.39803 11.188 1.39803 10.1864 2.39966C8.98733 3.59872 7.21372 4.01741 5.60502 3.48118L5.40894 3.41582C4.22384 3.02078 3 3.90288 3 5.15209V12.5663ZM13 18.3918V20.196L15.71 18.5023C17.6334 17.3001 18.8473 15.2465 18.9866 13.0003H13V18.3918ZM11 11.0002V11.0002V4.61086V4.34454C9.31228 5.65922 7.06412 6.0655 5 5.38762V11.0002H11Z" fill="black"/>
</svg>
