<svg width="24" height="24" viewBox="0 0 24 24" fill="none" xmlns="http://www.w3.org/2000/svg">
<path fill-rule="evenodd" clip-rule="evenodd" d="M10.1864 2.39966C11.188 1.39803 12.812 1.39803 13.8136 2.39966C15.0127 3.59872 16.7863 4.01741 18.395 3.48118L18.5911 3.41582C19.7762 3.02078 21 3.90288 21 5.15209V12.5663C21 15.6694 19.4014 18.5536 16.77 20.1983L13.59 22.1858C12.6172 22.7938 11.3828 22.7938 10.41 22.1858L7.23001 20.1983C4.59858 18.5536 3 15.6694 3 12.5663V5.15209C3 3.90288 4.22384 3.02078 5.40894 3.41582L5.60502 3.48118C7.21372 4.01741 8.98733 3.59872 10.1864 2.39966ZM9.75 9.50024C9.75 8.2576 10.7574 7.25024 12 7.25024C13.2426 7.25024 14.25 8.2576 14.25 9.50024V10.268C15.0981 10.3893 15.75 11.1186 15.75 12.0002V14.0002C15.75 14.9667 14.9665 15.7502 14 15.7502H10C9.0335 15.7502 8.25 14.9667 8.25 14.0002V12.0002C8.25 11.1186 8.90193 10.3893 9.75 10.268V9.50024ZM12.75 9.50024V10.2502H11.25V9.50024C11.25 9.08603 11.5858 8.75024 12 8.75024C12.4142 8.75024 12.75 9.08603 12.75 9.50024Z" fill="black"/>
</svg>
