<svg width="24" height="24" viewBox="0 0 24 24" fill="none" xmlns="http://www.w3.org/2000/svg">
<path fill-rule="evenodd" clip-rule="evenodd" d="M2 11C2 5.47715 6.47715 1 12 1C17.5228 1 22 5.47715 22 11V13C22 15.7614 19.7614 18 17 18V21C17 21.5523 16.5523 22 16 22C15.4477 22 15 21.5523 15 21C15 20.4477 14.5523 20 14 20C13.4477 20 13 20.4477 13 21C13 21.5523 12.5523 22 12 22C11.4477 22 11 21.5523 11 21C11 20.4477 10.5523 20 10 20C9.44772 20 9 20.4477 9 21C9 21.5523 8.55228 22 8 22C7.44772 22 7 21.5523 7 21V18C4.23858 18 2 15.7614 2 13V11ZM8.5 15C9.32843 15 10 14.3284 10 13.5C10 12.6716 9.32843 12 8.5 12C7.67157 12 7 12.6716 7 13.5C7 14.3284 7.67157 15 8.5 15ZM15.5 15C16.3284 15 17 14.3284 17 13.5C17 12.6716 16.3284 12 15.5 12C14.6716 12 14 12.6716 14 13.5C14 14.3284 14.6716 15 15.5 15ZM11.9995 14.75C12.3034 14.7499 12.5908 14.8879 12.7807 15.1251L13.3811 15.8751C13.7262 16.3062 13.6565 16.9355 13.2253 17.2807C12.8616 17.5719 12.3568 17.5678 12.0006 17.3004C11.6447 17.5675 11.1404 17.5719 10.7766 17.2813C10.3451 16.9365 10.2748 16.3073 10.6195 15.8758L11.2187 15.1258C11.4084 14.8884 11.6957 14.7501 11.9995 14.75Z" fill="black"/>
</svg>
