<svg width="24" height="24" viewBox="0 0 24 24" fill="none" xmlns="http://www.w3.org/2000/svg">
<path fill-rule="evenodd" clip-rule="evenodd" d="M6.32487 2.70149C6.47823 1.16788 7.76872 0 9.30998 0H14.69C16.2313 0 17.5218 1.16788 17.6751 2.70149L17.8133 4.08273C19.6324 4.45846 21 6.06952 21 8V9.5H21.5C22.0523 9.5 22.5 9.94771 22.5 10.5V13.5C22.5 14.0523 22.0523 14.5 21.5 14.5H21V16C21 17.9305 19.6324 19.5415 17.8133 19.9173L17.6751 21.2985C17.5218 22.8321 16.2313 24 14.69 24H9.30998C7.76872 24 6.47823 22.8321 6.32487 21.2985L6.18674 19.9173C4.36756 19.5415 3 17.9305 3 16V8C3 6.06952 4.36756 4.45845 6.18674 4.08273L6.32487 2.70149ZM9 2C8.44772 2 8 2.44772 8 3C8 3.55228 8.44772 4 9 4H15C15.5523 4 16 3.55228 16 3C16 2.44772 15.5523 2 15 2H9ZM9 20C8.44772 20 8 20.4477 8 21C8 21.5523 8.44772 22 9 22H15C15.5523 22 16 21.5523 16 21C16 20.4477 15.5523 20 15 20H9ZM12 7C12.5523 7 13 7.44772 13 8V11.2792L15.3162 12.0513C15.8402 12.226 16.1233 12.7923 15.9487 13.3162C15.774 13.8402 15.2077 14.1233 14.6838 13.9487L11.6838 12.9487C11.2754 12.8126 11 12.4304 11 12V8C11 7.44772 11.4477 7 12 7Z" fill="black"/>
</svg>
