<svg width="24" height="24" viewBox="0 0 24 24" fill="none" xmlns="http://www.w3.org/2000/svg">
<path fill-rule="evenodd" clip-rule="evenodd" d="M10.9899 1.85858C10.9196 1.36593 10.4977 1 10 1C9.50235 1 9.08043 1.36593 9.01005 1.85858L8.85858 2.91888L9.12659 2.95717L8.85858 2.91888C8.4186 5.99873 5.99873 8.4186 2.91888 8.85858L1.85858 9.01005C1.36593 9.08043 1 9.50235 1 10C1 10.4977 1.36593 10.9196 1.85858 10.9899L2.91889 11.1414C5.99873 11.5814 8.4186 14.0013 8.85858 17.0811L9.01005 18.1414C9.08043 18.6341 9.50235 19 10 19C10.4977 19 10.9196 18.6341 10.9899 18.1414L11.1414 17.0811C11.5814 14.0013 14.0013 11.5814 17.0811 11.1414L18.1414 10.9899C18.6341 10.9196 19 10.4977 19 10C19 9.50235 18.6341 9.08043 18.1414 9.01005L17.0811 8.85858C14.0013 8.4186 11.5814 5.99873 11.1414 2.91888L10.9899 1.85858ZM19.7398 14.3767C19.6795 14.0151 19.3666 13.75 19 13.75C18.6334 13.75 18.3205 14.0151 18.2602 14.3767L18.1125 15.263C17.9544 16.2113 17.2113 16.9544 16.263 17.1125L15.3767 17.2602C15.0151 17.3205 14.75 17.6334 14.75 18C14.75 18.3666 15.0151 18.6795 15.3767 18.7398L16.263 18.8875C17.2113 19.0456 17.9544 19.7887 18.1125 20.737L18.2602 21.6233C18.3205 21.9849 18.6334 22.25 19 22.25C19.3666 22.25 19.6795 21.9849 19.7398 21.6233L19.8875 20.737C20.0456 19.7887 20.7887 19.0456 21.737 18.8875L22.6233 18.7398C22.9849 18.6795 23.25 18.3666 23.25 18C23.25 17.6334 22.9849 17.3205 22.6233 17.2602L21.737 17.1125C20.7887 16.9544 20.0456 16.2113 19.8875 15.263L19.7398 14.3767Z" fill="black"/>
</svg>
