<svg width="24" height="24" viewBox="0 0 24 24" fill="none" xmlns="http://www.w3.org/2000/svg">
<path fill-rule="evenodd" clip-rule="evenodd" d="M6.25 7.5C6.25 6.35277 6.98724 5.49941 8.22846 4.8788C9.47157 4.25725 11.0006 4 12 4C13.9845 4 15.4667 4.74063 16.4625 5.4875C16.9619 5.86206 17.3353 6.23588 17.5807 6.51202C17.7031 6.6497 17.7926 6.76189 17.8491 6.83602C17.8773 6.87305 17.8972 6.90044 17.9087 6.91662L17.9188 6.93105L17.9196 6.9321L17.9202 6.93308C18.2274 7.38984 18.8463 7.51265 19.3047 7.20705C19.7642 6.9007 19.8884 6.27983 19.5821 5.8203L18.75 6.375C19.5821 5.8203 19.5818 5.81991 19.5815 5.81951L19.5809 5.81864L19.5796 5.81667L19.5763 5.8118L19.5672 5.79841C19.56 5.78789 19.5504 5.77421 19.5386 5.75757C19.5149 5.72431 19.4821 5.6792 19.44 5.62394C19.3558 5.5135 19.2344 5.36201 19.0755 5.18329C18.7585 4.82663 18.2881 4.35669 17.6625 3.8875C16.4083 2.94687 14.5155 2 12 2C10.7494 2 8.90343 2.30525 7.33404 3.08995C5.76276 3.87559 4.25 5.27223 4.25 7.5C4.25 9.13159 5.08782 10.2374 6.20925 11H2.5C1.94772 11 1.5 11.4477 1.5 12C1.5 12.5523 1.94772 13 2.5 13L11.8813 13C13.5606 13.4047 15.0687 13.7811 16.176 14.3621C17.2596 14.9306 17.75 15.5753 17.75 16.5C17.75 17.6472 17.0128 18.5006 15.7715 19.1212C14.5284 19.7428 12.9994 20 12 20C10.0155 20 8.53333 19.2594 7.5375 18.5125C7.03808 18.1379 6.66475 17.7641 6.41928 17.488C6.2969 17.3503 6.20738 17.2381 6.1509 17.164C6.12269 17.127 6.10283 17.0996 6.09132 17.0834L6.08045 17.0679L6.08038 17.0678L6.0798 17.0669C5.77267 16.6102 5.15371 16.4873 4.6953 16.7929C4.23577 17.0993 4.1116 17.7202 4.41795 18.1797L5.25 17.625C4.41795 18.1797 4.41821 18.1801 4.41848 18.1805L4.41906 18.1814L4.42038 18.1833L4.42366 18.1882L4.43281 18.2016C4.44005 18.2121 4.44958 18.2258 4.46141 18.2424C4.48506 18.2757 4.51793 18.3208 4.56004 18.3761C4.64418 18.4865 4.7656 18.638 4.92447 18.8167C5.2415 19.1734 5.71192 19.6433 6.3375 20.1125C7.59167 21.0531 9.4845 22 12 22C13.2506 22 15.0966 21.6947 16.666 20.9101C18.2372 20.1244 19.75 18.7278 19.75 16.5C19.75 14.8684 18.9122 13.7626 17.7907 13H21.5C22.0523 13 22.5 12.5523 22.5 12C22.5 11.4477 22.0523 11 21.5 11L12.1187 11C10.4394 10.5953 8.93133 10.2189 7.82399 9.63793C6.7404 9.06937 6.25 8.4247 6.25 7.5ZM6.07963 17.0667L6.0798 17.0669Z" fill="black"/>
</svg>
