<svg width="24" height="24" viewBox="0 0 24 24" fill="none" xmlns="http://www.w3.org/2000/svg">
<path fill-rule="evenodd" clip-rule="evenodd" d="M12 1C12.5523 1 13 1.44772 13 2V4C13 4.55228 12.5523 5 12 5C11.4477 5 11 4.55228 11 4V2C11 1.44772 11.4477 1 12 1ZM12 19C12.5523 19 13 19.4477 13 20V22C13 22.5523 12.5523 23 12 23C11.4477 23 11 22.5523 11 22V20C11 19.4477 11.4477 19 12 19ZM12 7C9.23858 7 7 9.23858 7 12C7 14.7614 9.23858 17 12 17C14.7614 17 17 14.7614 17 12C17 9.23858 14.7614 7 12 7ZM19.7781 5.63603C20.1686 5.24551 20.1686 4.61234 19.7781 4.22182C19.3876 3.83129 18.7544 3.83129 18.3639 4.22182L16.9497 5.63603C16.5591 6.02655 16.5591 6.65972 16.9497 7.05024C17.3402 7.44077 17.9733 7.44077 18.3639 7.05024L19.7781 5.63603ZM7.05016 18.364C7.44068 17.9734 7.44068 17.3403 7.05016 16.9497C6.65963 16.5592 6.02647 16.5592 5.63594 16.9497L4.22173 18.364C3.83121 18.7545 3.8312 19.3876 4.22173 19.7782C4.61225 20.1687 5.24542 20.1687 5.63594 19.7782L7.05016 18.364ZM23 12C23 12.5523 22.5523 13 22 13H20C19.4477 13 19 12.5523 19 12C19 11.4477 19.4477 11 20 11H22C22.5523 11 23 11.4477 23 12ZM5 12C5 12.5523 4.55228 13 4 13H2C1.44772 13 1 12.5523 1 12C1 11.4477 1.44772 11 2 11H4C4.55228 11 5 11.4477 5 12ZM18.364 19.7782C18.7545 20.1687 19.3876 20.1687 19.7782 19.7782C20.1687 19.3876 20.1687 18.7545 19.7782 18.3639L18.364 16.9497C17.9734 16.5592 17.3403 16.5592 16.9497 16.9497C16.5592 17.3402 16.5592 17.9734 16.9497 18.3639L18.364 19.7782ZM5.63603 7.05023C6.02656 7.44075 6.65972 7.44075 7.05025 7.05023C7.44077 6.6597 7.44077 6.02654 7.05025 5.63602L5.63603 4.2218C5.24551 3.83128 4.61234 3.83128 4.22182 4.2218C3.8313 4.61233 3.8313 5.24549 4.22182 5.63601L5.63603 7.05023Z" fill="black"/>
</svg>
