<svg width="24" height="24" viewBox="0 0 24 24" fill="none" xmlns="http://www.w3.org/2000/svg">
<g clip-path="url(#clip0_1215_6910)">
<path fill-rule="evenodd" clip-rule="evenodd" d="M12 0.5C12.2903 0.5 12.5662 0.626138 12.7562 0.845648L13.8184 2.07317C14.7945 3.20117 16.2457 3.80228 17.7335 3.69487L19.3526 3.57798C19.6421 3.55707 19.9265 3.66301 20.1317 3.86827C20.337 4.07353 20.4429 4.35786 20.422 4.64739L20.3051 6.26647C20.1977 7.75428 20.7988 9.20551 21.9268 10.1816L23.1544 11.2438C23.3739 11.4338 23.5 11.7097 23.5 12C23.5 12.2903 23.3739 12.5662 23.1544 12.7562L21.9268 13.8184C20.7988 14.7945 20.1977 16.2457 20.3051 17.7335L20.422 19.3526C20.4429 19.6421 20.337 19.9265 20.1317 20.1317C19.9265 20.337 19.6421 20.4429 19.3526 20.422L17.7335 20.3051C16.2457 20.1977 14.7945 20.7988 13.8184 21.9268L12.7562 23.1544C12.5662 23.3739 12.2903 23.5 12 23.5C11.7097 23.5 11.4338 23.3739 11.2438 23.1544L10.1816 21.9268C9.20551 20.7988 7.75428 20.1977 6.26647 20.3051L4.64739 20.422C4.35786 20.4429 4.07353 20.337 3.86827 20.1317C3.66301 19.9265 3.55707 19.6421 3.57798 19.3526L3.69487 17.7335C3.80228 16.2457 3.20117 14.7945 2.07317 13.8184L0.845648 12.7562C0.626138 12.5662 0.5 12.2903 0.5 12C0.5 11.7097 0.626138 11.4338 0.845648 11.2438L2.07317 10.1816C3.20117 9.20551 3.80228 7.75429 3.69487 6.26648L3.57798 4.64739C3.55707 4.35786 3.66301 4.07353 3.86827 3.86827C4.07353 3.66301 4.35786 3.55707 4.64739 3.57798L6.26648 3.69487C7.75429 3.80228 9.20551 3.20117 10.1816 2.07317L11.2438 0.845648C11.4338 0.626138 11.7097 0.5 12 0.5ZM8.125 12C8.125 9.8599 9.8599 8.125 12 8.125C14.1401 8.125 15.875 9.8599 15.875 12C15.875 14.1401 14.1401 15.875 12 15.875C9.8599 15.875 8.125 14.1401 8.125 12ZM12 6.125C8.75533 6.125 6.125 8.75533 6.125 12C6.125 15.2447 8.75533 17.875 12 17.875C15.2447 17.875 17.875 15.2447 17.875 12C17.875 8.75533 15.2447 6.125 12 6.125Z" fill="black"/>
</g>
<defs>
<clipPath id="clip0_1215_6910">
<rect width="24" height="24" fill="white"/>
</clipPath>
</defs>
</svg>
