<svg width="24" height="24" viewBox="0 0 24 24" fill="none" xmlns="http://www.w3.org/2000/svg">
<path fill-rule="evenodd" clip-rule="evenodd" d="M11.0086 6.16025C13.297 3.87187 16.6017 3.78876 18.4023 5.58939C20.203 7.39003 20.1199 10.6947 17.8315 12.9831C15.5431 15.2715 12.2384 15.3546 10.4378 13.554C8.63713 11.7533 8.72024 8.44863 11.0086 6.16025ZM19.8165 4.17518C17.068 1.42661 12.4858 1.85466 9.59441 4.74604C7.46451 6.87594 6.6713 9.92334 7.4999 12.4794C7.49817 12.5661 7.50776 12.6544 7.5298 12.7426C7.70526 13.4444 7.53853 14.2074 7.26436 14.8654C7.24181 14.9196 7.21885 14.9722 7.19571 15.0232C6.18253 14.6695 5.01146 14.8975 4.2018 15.7071L2.00466 17.9043C0.87768 19.0312 0.87768 20.8584 2.00466 21.9854C3.13163 23.1124 4.95882 23.1124 6.0858 21.9854L8.28294 19.7883C9.10798 18.9632 9.32903 17.7629 8.94607 16.7368C8.95604 16.7322 8.9661 16.7275 8.97624 16.7229C9.50909 16.4807 10.2954 16.2789 11.3038 16.4806C11.3821 16.4963 11.46 16.5023 11.5365 16.4996C14.0876 17.3154 17.1225 16.5205 19.2457 14.3973C22.1371 11.5059 22.5651 6.92375 19.8165 4.17518Z" fill="black"/>
</svg>
