<svg width="24" height="24" viewBox="0 0 24 24" fill="none" xmlns="http://www.w3.org/2000/svg">
<path fill-rule="evenodd" clip-rule="evenodd" d="M6 2.5C6 1.94772 6.44772 1.5 7 1.5H17C17.5523 1.5 18 1.94772 18 2.5C18 3.05228 17.5523 3.5 17 3.5H13V5H17C18.933 5 20.5 6.567 20.5 8.5V14.5V17C20.5 18.6569 19.1569 20 17.5 20H17.4142L18.7071 21.2929C19.0976 21.6834 19.0976 22.3166 18.7071 22.7071C18.3166 23.0976 17.6834 23.0976 17.2929 22.7071L14.7929 20.2071C14.7296 20.1438 14.6765 20.074 14.6337 20H9.36631C9.32352 20.074 9.27045 20.1438 9.20711 20.2071L6.70711 22.7071C6.31658 23.0976 5.68342 23.0976 5.29289 22.7071C4.90237 22.3166 4.90237 21.6834 5.29289 21.2929L6.58579 20H6.5C4.84315 20 3.5 18.6569 3.5 17V14.5V8.5C3.5 6.567 5.067 5 7 5H11V3.5H7C6.44772 3.5 6 3.05228 6 2.5ZM7 7H12H17C17.8284 7 18.5 7.67157 18.5 8.5V11H17.0024L17 11H7H6.99901H5.5V8.5C5.5 7.67157 6.17157 7 7 7ZM9.5 15.5C9.5 16.3284 8.82843 17 8 17C7.17157 17 6.5 16.3284 6.5 15.5C6.5 14.6716 7.17157 14 8 14C8.82843 14 9.5 14.6716 9.5 15.5ZM17.5 15.5C17.5 16.3284 16.8284 17 16 17C15.1716 17 14.5 16.3284 14.5 15.5C14.5 14.6716 15.1716 14 16 14C16.8284 14 17.5 14.6716 17.5 15.5Z" fill="black"/>
</svg>
