<svg width="24" height="24" viewBox="0 0 24 24" fill="none" xmlns="http://www.w3.org/2000/svg">
<path fill-rule="evenodd" clip-rule="evenodd" d="M2.72821 3.20854C3.79269 2.44783 5.09749 2 6.50393 2C8.81906 2 10.8505 3.20983 12.0019 5.03161C13.1534 3.20983 15.1848 2 17.4999 2C18.9063 2 20.211 2.44777 21.2755 3.20839C21.6209 3.45526 21.7728 3.89338 21.6543 4.30112C21.5358 4.70885 21.1727 4.99729 20.7488 5.02052C18.6583 5.13504 16.6948 5.72497 14.964 6.68462C15.4589 6.56398 15.976 6.5 16.5082 6.5C20.0981 6.5 23.0082 9.41015 23.0082 13C23.0082 13.7196 22.8909 14.4138 22.6736 15.0634C22.5488 15.4363 22.2172 15.7014 21.8261 15.7411C21.4349 15.7807 21.0569 15.5875 20.8599 15.2473C19.3882 12.7059 16.6419 11 13.4984 11C13.4024 11 13.3067 11.0016 13.2115 11.0047C13.1415 11.0016 13.0709 11 13 11V11.0143V13V22C13 22.5523 12.5523 23 12 23C11.4477 23 11 22.5523 11 22V13V11.0144V11C10.9288 11 10.8581 11.0016 10.7878 11.0048C10.6923 11.0016 10.5963 11 10.5 11C7.36045 11 4.61716 12.7016 3.1441 15.2377C2.94658 15.5777 2.56806 15.7705 2.17685 15.7301C1.78565 15.6898 1.4544 15.4239 1.3304 15.0507C1.11579 14.4048 1 13.7149 1 13C1 9.41015 3.91015 6.5 7.5 6.5C8.0278 6.5 8.54085 6.56294 9.03208 6.68167C7.30313 5.72409 5.3423 5.13532 3.25478 5.02064C2.83084 4.99735 2.46783 4.7089 2.34935 4.30119C2.23088 3.89348 2.38278 3.4554 2.72821 3.20854Z" fill="black"/>
</svg>
