<svg width="24" height="24" viewBox="0 0 24 24" fill="none" xmlns="http://www.w3.org/2000/svg">
<path fill-rule="evenodd" clip-rule="evenodd" d="M5 3C5 2.44772 5.44772 2 6 2H8.5C9.05228 2 9.5 2.44772 9.5 3V5.49479L9.5003 5.50599C9.50076 5.51983 9.50184 5.54475 9.50429 5.57914C9.50923 5.64826 9.51959 5.75353 9.54108 5.88248C9.58485 6.14511 9.67053 6.48 9.83193 6.80279C9.99136 7.12166 10.2148 7.41011 10.5313 7.62107C10.8415 7.82787 11.3 8 12 8C12.7 8 13.1585 7.82787 13.4687 7.62107C13.7852 7.41011 14.0086 7.12166 14.1681 6.80279C14.3295 6.48 14.4151 6.14511 14.4589 5.88248C14.4804 5.75353 14.4908 5.64826 14.4957 5.57914C14.4982 5.54475 14.4992 5.51983 14.4997 5.50599L14.5 5.49477V3C14.5 2.44772 14.9477 2 15.5 2H18C18.5523 2 19 2.44772 19 3V7.32408C19 8.66149 19.6684 9.91042 20.7812 10.6523L21.1094 10.8711C21.6658 11.242 22 11.8665 22 12.5352V19C22 20.6569 20.6569 22 19 22H5C3.34315 22 2 20.6569 2 19V12.9684C2 12.3748 2.26365 11.8119 2.71963 11.4319L3.56074 10.731C4.47271 9.97103 5 8.84524 5 7.65813V3ZM6 14C6 13.4477 6.44772 13 7 13H17C17.5523 13 18 13.4477 18 14C18 14.5523 17.5523 15 17 15H7C6.44772 15 6 14.5523 6 14ZM6 18C6 17.4477 6.44772 17 7 17H17C17.5523 17 18 17.4477 18 18C18 18.5523 17.5523 19 17 19H7C6.44772 19 6 18.5523 6 18Z" fill="black"/>
</svg>
