<svg width="24" height="24" viewBox="0 0 24 24" fill="none" xmlns="http://www.w3.org/2000/svg">
<path fill-rule="evenodd" clip-rule="evenodd" d="M1 7.5C1 5.29086 2.79086 3.5 5 3.5H19C21.2091 3.5 23 5.29086 23 7.5V16.5C23 18.7091 21.2091 20.5 19 20.5H5C2.79086 20.5 1 18.7091 1 16.5V7.5ZM8.49998 10.1501C8.09329 10.1501 7.89998 10.4349 7.89998 10.6251C7.89998 10.8153 8.09329 11.1001 8.49998 11.1001C8.90666 11.1001 9.09998 10.8153 9.09998 10.6251C9.09998 10.4349 8.90666 10.1501 8.49998 10.1501ZM10.415 12.0001C10.7159 11.627 10.9 11.1566 10.9 10.6251C10.9 9.29654 9.75014 8.3501 8.49998 8.3501C7.24981 8.3501 6.09998 9.29654 6.09998 10.6251C6.09998 11.1566 6.28403 11.627 6.58494 12.0001C6.28403 12.3732 6.09998 12.8435 6.09998 13.3751C6.09998 14.7037 7.24981 15.6501 8.49998 15.6501C9.75014 15.6501 10.9 14.7037 10.9 13.3751C10.9 12.8435 10.7159 12.3732 10.415 12.0001ZM8.49998 12.9001C8.09329 12.9001 7.89998 13.1849 7.89998 13.3751C7.89998 13.5653 8.09329 13.8501 8.49998 13.8501C8.90666 13.8501 9.09998 13.5653 9.09998 13.3751C9.09998 13.1849 8.90666 12.9001 8.49998 12.9001ZM17.6364 8.8637C17.9878 9.21517 17.9878 9.78502 17.6364 10.1365L15.7728 12.0001L17.6364 13.8637C17.9878 14.2152 17.9878 14.785 17.6364 15.1365C17.2849 15.488 16.7151 15.488 16.3636 15.1365L13.9 12.6729V14.5C13.9 14.9971 13.4971 15.4 13 15.4C12.5029 15.4 12.1 14.9971 12.1 14.5V12V9.5C12.1 9.00294 12.5029 8.6 13 8.6C13.4971 8.6 13.9 9.00294 13.9 9.5V11.3273L16.3636 8.8637C16.7151 8.51223 17.2849 8.51223 17.6364 8.8637Z" fill="black"/>
</svg>
