<svg width="24" height="24" viewBox="0 0 24 24" fill="none" xmlns="http://www.w3.org/2000/svg">
<path fill-rule="evenodd" clip-rule="evenodd" d="M1 7.5C1 5.29086 2.79086 3.5 5 3.5H19C21.2091 3.5 23 5.29086 23 7.5V16.5C23 18.7091 21.2091 20.5 19 20.5H5C2.79086 20.5 1 18.7091 1 16.5V7.5ZM7.50002 10.6753L7.49999 10.6766L7.50011 10.6855C7.50011 10.7271 7.50521 10.7485 7.50727 10.7556C7.50896 10.7615 7.51001 10.763 7.5103 10.7634C7.51085 10.7642 7.53144 10.7952 7.61938 10.8435C7.83207 10.9604 8.15696 11.0385 8.66514 11.1483L8.72226 11.1606C9.1476 11.2521 9.72844 11.3772 10.1975 11.6348C10.4607 11.7794 10.7334 11.9875 10.9381 12.2949C11.1486 12.611 11.2501 12.9768 11.2501 13.3705C11.2501 14.3547 10.5519 14.8813 9.99755 15.1158C9.45342 15.3459 8.85109 15.4001 8.47511 15.4001C7.96452 15.4001 7.42422 15.3081 7.03827 15.2265C6.83951 15.1844 6.66935 15.1424 6.54802 15.1107C6.48719 15.0948 6.43818 15.0814 6.40349 15.0716L6.36237 15.06L6.35035 15.0565L6.34527 15.055L6.60011 14.1918C6.34434 15.0547 6.34517 15.0549 6.34527 15.055C5.8687 14.9137 5.59596 14.4126 5.73722 13.936C5.87841 13.4597 6.37884 13.1879 6.85519 13.3287L6.86162 13.3306L6.88937 13.3385C6.91481 13.3456 6.95359 13.3562 7.0033 13.3692C7.10308 13.3953 7.24512 13.4304 7.41075 13.4654C7.75356 13.5379 8.15076 13.6001 8.47511 13.6001C8.72413 13.6001 9.05929 13.5582 9.29641 13.458C9.38791 13.4193 9.43249 13.3853 9.45011 13.3691C9.44999 13.3284 9.44498 13.3075 9.44295 13.3004C9.44112 13.294 9.44004 13.2928 9.43986 13.2926C9.43931 13.2917 9.41879 13.2608 9.33084 13.2125C9.11814 13.0956 8.79326 13.0175 8.28508 12.9077L8.22795 12.8954C7.80262 12.8039 7.22178 12.6788 6.75271 12.4212C6.48954 12.2766 6.21686 12.0685 6.01213 11.7611C5.80162 11.445 5.70011 11.0792 5.70011 10.6855C5.70011 9.71525 6.38061 9.17423 6.92804 8.92316C7.46979 8.67469 8.07574 8.6001 8.47511 8.6001C8.99209 8.6001 9.52359 8.67947 9.9068 8.75199C10.1026 8.78906 10.2689 8.82614 10.3874 8.85421C10.4467 8.86829 10.4944 8.88019 10.5282 8.88882L10.5682 8.89921L10.5799 8.90232L10.5836 8.90332L10.585 8.90367L10.3501 9.77249C10.5859 8.90392 10.5851 8.9037 10.585 8.90367C11.0646 9.03389 11.3489 9.52857 11.2187 10.0083C11.0885 10.4877 10.5945 10.771 10.1151 10.6413L10.109 10.6397L10.0824 10.6328C10.0579 10.6265 10.0204 10.6171 9.97204 10.6056C9.87506 10.5826 9.73604 10.5516 9.57207 10.5206C9.23566 10.4569 8.82966 10.4001 8.47511 10.4001C8.24948 10.4001 7.91793 10.4494 7.67843 10.5593C7.56414 10.6117 7.5158 10.6575 7.50158 10.6749L7.5012 10.6753C7.50063 10.6757 7.50031 10.6755 7.50014 10.6753L7.50003 10.6753L7.50002 10.6753ZM12.6001 9.5001C12.6001 9.00304 13.003 8.6001 13.5001 8.6001H15.2501C16.9898 8.6001 18.4001 10.0104 18.4001 11.7501V12.2501C18.4001 13.9898 16.9898 15.4001 15.2501 15.4001H13.5001C13.003 15.4001 12.6001 14.9972 12.6001 14.5001V9.5001ZM14.4001 10.4001V13.6001H15.2501C15.9957 13.6001 16.6001 12.9957 16.6001 12.2501V11.7501C16.6001 11.0045 15.9957 10.4001 15.2501 10.4001H14.4001Z" fill="black"/>
</svg>
