<svg width="24" height="24" viewBox="0 0 24 24" fill="none" xmlns="http://www.w3.org/2000/svg">
<path fill-rule="evenodd" clip-rule="evenodd" d="M10.8 4.40021C12.1185 3.41136 14 4.35212 14 6.00021V18.0002C14 19.6483 12.1185 20.5891 10.8 19.6002L6.71175 16.534L4.29851 16.7753C2.53245 16.952 1 15.5651 1 13.7902V10.2102C1 8.43532 2.53245 7.04847 4.29851 7.22508L6.71175 7.4664L10.8 4.40021ZM16.5 11.0002C15.9477 11.0002 15.5 11.4479 15.5 12.0002C15.5 12.5525 15.9477 13.0002 16.5 13.0002H22.5C23.0523 13.0002 23.5 12.5525 23.5 12.0002C23.5 11.4479 23.0523 11.0002 22.5 11.0002H16.5Z" fill="black"/>
</svg>
