<svg width="24" height="24" viewBox="0 0 24 24" fill="none" xmlns="http://www.w3.org/2000/svg">
<path fill-rule="evenodd" clip-rule="evenodd" d="M14 6.00021C14 4.35212 12.1185 3.41136 10.8 4.40021L6.71175 7.4664L4.29851 7.22508C2.53245 7.04847 1 8.43532 1 10.2102V13.7902C1 15.5651 2.53245 16.952 4.29851 16.7753L6.71175 16.534L10.8 19.6002C12.1185 20.5891 14 19.6483 14 18.0002V6.00021ZM22.7071 8.79311C23.0976 9.18363 23.0976 9.81679 22.7071 10.2073L20.9142 12.0002L22.7071 13.7931C23.0976 14.1836 23.0976 14.8168 22.7071 15.2073C22.3166 15.5978 21.6834 15.5978 21.2929 15.2073L19.5 13.4144L17.7071 15.2073C17.3166 15.5978 16.6834 15.5978 16.2929 15.2073C15.9024 14.8168 15.9024 14.1836 16.2929 13.7931L18.0858 12.0002L16.2929 10.2073C15.9024 9.81676 15.9024 9.1836 16.2929 8.79308C16.6834 8.40255 17.3166 8.40255 17.7071 8.79308L19.5 10.586L21.2929 8.79311C21.6834 8.40258 22.3166 8.40258 22.7071 8.79311Z" fill="black"/>
</svg>
