<svg width="24" height="24" viewBox="0 0 24 24" fill="none" xmlns="http://www.w3.org/2000/svg">
<path fill-rule="evenodd" clip-rule="evenodd" d="M14 6.00021C14 4.35212 12.1185 3.41136 10.8 4.40021L6.71175 7.4664L4.29851 7.22508C2.53245 7.04847 1 8.43532 1 10.2102V13.7902C1 15.5651 2.53245 16.952 4.29851 16.7753L6.71175 16.534L10.8 19.6002C12.1185 20.5891 14 19.6483 14 18.0002V6.00021ZM15.5 12.0002C15.5 11.4479 15.9477 11.0002 16.5 11.0002H18.5V9.00018C18.5 8.4479 18.9477 8.00018 19.5 8.00018C20.0523 8.00018 20.5 8.4479 20.5 9.00018V11.0002H22.5C23.0523 11.0002 23.5 11.4479 23.5 12.0002C23.5 12.5525 23.0523 13.0002 22.5 13.0002H20.5V15.0002C20.5 15.5525 20.0523 16.0002 19.5 16.0002C18.9477 16.0002 18.5 15.5525 18.5 15.0002V13.0002H16.5C15.9477 13.0002 15.5 12.5525 15.5 12.0002Z" fill="black"/>
</svg>
