<svg width="24" height="24" viewBox="0 0 24 24" fill="none" xmlns="http://www.w3.org/2000/svg">
<path fill-rule="evenodd" clip-rule="evenodd" d="M7.79289 3.04289C8.3428 2.49298 9.21745 2 10.5 2V3C10.5 2 10.5005 2 10.501 2L10.5021 2L10.5044 2.00001L10.5097 2.00004L10.5233 2.00021C10.5336 2.00037 10.5463 2.00066 10.5614 2.00117C10.5915 2.00217 10.631 2.00402 10.6787 2.00742C10.7736 2.01421 10.9027 2.02728 11.055 2.05267C11.3549 2.10265 11.77 2.20447 12.1972 2.41807C12.6283 2.63364 13.0899 2.97269 13.4414 3.49999C13.7971 4.03355 14 4.70002 14 5.5C14 6.29998 13.7971 6.96645 13.4414 7.50001C13.0899 8.02731 12.6283 8.36636 12.1972 8.58193C11.77 8.79553 11.3549 8.89735 11.055 8.94733C10.9027 8.97272 10.7736 8.98579 10.6787 8.99258C10.631 8.99598 10.5915 8.99783 10.5614 8.99883C10.5463 8.99934 10.5336 8.99963 10.5233 8.99979L10.5097 8.99996L10.5044 8.99999L10.5021 9L10.501 9C10.5005 9 10.5 9 10.5 8V9H3.5C2.94772 9 2.5 8.55228 2.5 8C2.5 7.44772 2.94772 7 3.5 7H10.493L10.4948 6.99994C10.5013 6.99973 10.5155 6.99914 10.5362 6.99766C10.5779 6.99467 10.6442 6.98822 10.7262 6.97454C10.8951 6.9464 11.105 6.89197 11.3028 6.79307C11.4967 6.69614 11.6601 6.56644 11.7773 6.39061C11.8904 6.22105 12 5.95002 12 5.5C12 5.04998 11.8904 4.77895 11.7773 4.60939C11.6601 4.43356 11.4967 4.30386 11.3028 4.20693C11.105 4.10803 10.8951 4.0536 10.7262 4.02546C10.6442 4.01178 10.5779 4.00533 10.5362 4.00234C10.5155 4.00086 10.5013 4.00027 10.4948 4.00006L10.4933 4.00001C9.7802 4.00161 9.40657 4.25764 9.20711 4.45711C9.09754 4.56667 9.02578 4.67521 8.98353 4.75127C8.9627 4.78877 8.95012 4.81643 8.94454 4.82947L8.94228 4.83484C8.76056 5.34685 8.20148 5.62125 7.68377 5.44868C7.15983 5.27404 6.87667 4.70772 7.05132 4.18377L8 4.5C7.05132 4.18377 7.0515 4.18321 7.05169 4.18264L7.05209 4.18147L7.05291 4.17903L7.05473 4.17369L7.05907 4.16129C7.06227 4.15226 7.06611 4.14171 7.07063 4.12975C7.07966 4.10585 7.09143 4.0762 7.10625 4.04163C7.13581 3.97264 7.17793 3.8831 7.23522 3.77998C7.34922 3.57479 7.52746 3.30833 7.79289 3.04289ZM16 6C16 5.44772 16.4477 5 17 5H18C20.2091 5 22 6.79086 22 9C22 11.2091 20.2091 13 18 13H3.5C2.94772 13 2.5 12.5523 2.5 12C2.5 11.4477 2.94772 11 3.5 11H18C19.1046 11 20 10.1046 20 9C20 7.89543 19.1046 7 18 7H17C16.4477 7 16 6.55228 16 6ZM14.5 22C13.2174 22 12.3428 21.507 11.7929 20.9571C11.5275 20.6917 11.3492 20.4252 11.2352 20.22C11.1779 20.1169 11.1358 20.0274 11.1062 19.9584C11.0914 19.9238 11.0797 19.8941 11.0706 19.8702C11.0661 19.8583 11.0623 19.8477 11.0591 19.8387L11.0547 19.8263L11.0529 19.821L11.0521 19.8185L11.0517 19.8174C11.0515 19.8168 11.0513 19.8162 11.9817 19.5061L11.0513 19.8162C10.8767 19.2923 11.1598 18.726 11.6838 18.5513C12.2015 18.3787 12.7606 18.6532 12.9423 19.1652L12.9445 19.1705C12.9501 19.1836 12.9627 19.2112 12.9835 19.2487C13.0258 19.3248 13.0975 19.4333 13.2071 19.5429C13.4066 19.7424 13.7802 19.9984 14.4933 20L14.4948 19.9999C14.5013 19.9997 14.5155 19.9991 14.5362 19.9977C14.5779 19.9947 14.6442 19.9882 14.7262 19.9745C14.8951 19.9464 15.105 19.892 15.3028 19.7931C15.4967 19.6961 15.6601 19.5664 15.7773 19.3906C15.8904 19.221 16 18.95 16 18.5C16 18.05 15.8904 17.779 15.7773 17.6094C15.6601 17.4336 15.4967 17.3039 15.3028 17.2069C15.105 17.108 14.8951 17.0536 14.7262 17.0255C14.6442 17.0118 14.5779 17.0053 14.5362 17.0023C14.5155 17.0009 14.5013 17.0003 14.4948 17.0001L14.493 17H3.5C2.94772 17 2.5 16.5523 2.5 16C2.5 15.4477 2.94772 15 3.5 15H14.5V16C14.5 15 14.5005 15 14.501 15L14.5021 15L14.5044 15L14.5097 15L14.5233 15.0002C14.5336 15.0004 14.5463 15.0007 14.5614 15.0012C14.5915 15.0022 14.631 15.004 14.6787 15.0074C14.7736 15.0142 14.9027 15.0273 15.055 15.0527C15.3549 15.1026 15.77 15.2045 16.1972 15.4181C16.6283 15.6336 17.0899 15.9727 17.4414 16.5C17.7971 17.0335 18 17.7 18 18.5C18 19.3 17.7971 19.9665 17.4414 20.5C17.0899 21.0273 16.6283 21.3664 16.1972 21.5819C15.77 21.7955 15.3549 21.8974 15.055 21.9473C14.9027 21.9727 14.7736 21.9858 14.6787 21.9926C14.631 21.996 14.5915 21.9978 14.5614 21.9988C14.5463 21.9993 14.5336 21.9996 14.5233 21.9998L14.5097 22L14.5044 22L14.5021 22L14.501 22C14.5005 22 14.5 22 14.5 21V22Z" fill="black"/>
</svg>
