<svg width="24" height="24" viewBox="0 0 24 24" fill="none" xmlns="http://www.w3.org/2000/svg">
<path fill-rule="evenodd" clip-rule="evenodd" d="M4.92415 3.82674C5.01402 2.79322 5.87922 2 6.91664 2H17.083C18.1204 2 18.9856 2.79323 19.0755 3.82674L19.3897 7.43969C19.7371 11.4354 16.8602 14.9147 12.9999 15.4334V20H14.9999C15.5522 20 15.9999 20.4477 15.9999 21C15.9999 21.5523 15.5522 22 14.9999 22H8.99988C8.44759 22 7.99988 21.5523 7.99988 21C7.99988 20.4477 8.44759 20 8.99988 20H10.9999V15.4334C7.13947 14.9148 4.26253 11.4354 4.60998 7.43969L4.92415 3.82674ZM17.083 4L6.91664 4L6.65555 7.0025C6.68678 7.00084 6.71823 7 6.74988 7H17.2499C17.2815 7 17.3129 7.00084 17.3441 7.00249L17.083 4Z" fill="black"/>
</svg>
