<svg width="24" height="24" viewBox="0 0 24 24" fill="none" xmlns="http://www.w3.org/2000/svg">
<path fill-rule="evenodd" clip-rule="evenodd" d="M2 11C2 6.02944 6.02944 2 11 2C15.9706 2 20 6.02944 20 11C20 13.125 19.2635 15.078 18.0319 16.6177L22.2071 20.7929C22.5976 21.1834 22.5976 21.8166 22.2071 22.2071C21.8166 22.5976 21.1834 22.5976 20.7929 22.2071L16.6177 18.0319C15.078 19.2635 13.125 20 11 20C6.02944 20 2 15.9706 2 11ZM15 12C15.5523 12 16 11.5523 16 11C16 10.4477 15.5523 10 15 10L7 10C6.44771 10 6 10.4477 6 11C6 11.5523 6.44771 12 7 12H15Z" fill="black"/>
</svg>
